{
    "asset" : {
        "generator" : "Khronos glTF Blender I/O v3.3.32",
        "version" : "2.0"
    },
    "extensionsUsed" : [
        "EXT_collections"
    ],
    "scene" : 0,
    "scenes" : [
        {
            "extensions" : {
                "EXT_collections" : {
                    "tree" : [
                        {
                            "collection" : "Collection"
                        },
                        {
                            "collection" : "collider"
                        }
                    ]
                }
            },
            "extras" : {
                "EXTCollectionProperties" : {}
            },
            "name" : "Scene",
            "nodes" : [
                0,
                1,
                2,
                3
            ]
        }
    ],
    "nodes" : [
        {
            "extensions" : {
                "EXT_collections" : {
                    "collections" : [
                        "Collection"
                    ]
                }
            },
            "mesh" : 0,
            "name" : "Cylinder",
            "scale" : [
                4.007203102111816,
                4.007203102111816,
                4.007203102111816
            ]
        },
        {
            "extensions" : {
                "EXT_collections" : {
                    "collections" : [
                        "collider"
                    ]
                }
            },
            "name" : "capsule-bottom",
            "scale" : [
                5,
                5,
                5
            ]
        },
        {
            "extensions" : {
                "EXT_collections" : {
                    "collections" : [
                        "collider"
                    ]
                }
            },
            "name" : "capsule-top",
            "scale" : [
                5,
                5,
                5
            ],
            "translation" : [
                0,
                10,
                0
            ]
        },
        {
            "extensions" : {
                "EXT_collections" : {
                    "collections" : [
                        "collider"
                    ]
                }
            },
            "name" : "capsule-radius",
            "scale" : [
                5,
                5,
                5
            ],
            "translation" : [
                0,
                0,
                -5
            ]
        }
    ],
    "materials" : [
        {
            "doubleSided" : true,
            "name" : "Material",
            "pbrMetallicRoughness" : {
                "baseColorFactor" : [
                    0.07159394025802612,
                    0.012670641764998436,
                    0.02442307025194168,
                    1
                ],
                "metallicFactor" : 0,
                "roughnessFactor" : 0.5
            }
        }
    ],
    "meshes" : [
        {
            "name" : "Cylinder",
            "primitives" : [
                {
                    "attributes" : {
                        "POSITION" : 0,
                        "NORMAL" : 1,
                        "TEXCOORD_0" : 2
                    },
                    "indices" : 3,
                    "material" : 0
                }
            ]
        }
    ],
    "accessors" : [
        {
            "bufferView" : 0,
            "componentType" : 5126,
            "count" : 8424,
            "max" : [
                1.024999976158142,
                2.0171422958374023,
                1.024999976158142
            ],
            "min" : [
                -1.024999976158142,
                -0.017142413184046745,
                -1.024999976158142
            ],
            "type" : "VEC3"
        },
        {
            "bufferView" : 1,
            "componentType" : 5126,
            "count" : 8424,
            "type" : "VEC3"
        },
        {
            "bufferView" : 2,
            "componentType" : 5126,
            "count" : 8424,
            "type" : "VEC2"
        },
        {
            "bufferView" : 3,
            "componentType" : 5123,
            "count" : 13056,
            "type" : "SCALAR"
        }
    ],
    "bufferViews" : [
        {
            "buffer" : 0,
            "byteLength" : 101088,
            "byteOffset" : 0,
            "target" : 34962
        },
        {
            "buffer" : 0,
            "byteLength" : 101088,
            "byteOffset" : 101088,
            "target" : 34962
        },
        {
            "buffer" : 0,
            "byteLength" : 67392,
            "byteOffset" : 202176,
            "target" : 34962
        },
        {
            "buffer" : 0,
            "byteLength" : 26112,
            "byteOffset" : 269568,
            "target" : 34963
        }
    ],
    "buffers" : [
        {
            "byteLength" : 295680,
            "uri" : "data:application/octet-stream;base64,"
        }
    ]
}
