{
    "asset" : {
        "generator" : "Khronos glTF Blender I/O v3.3.32",
        "version" : "2.0"
    },
    "extensionsUsed" : [
        "EXT_collections"
    ],
    "scene" : 0,
    "scenes" : [
        {
            "extensions" : {
                "EXT_collections" : {
                    "tree" : [
                        {
                            "collection" : "Collection"
                        },
                        {
                            "collection" : "collider"
                        }
                    ]
                }
            },
            "extras" : {
                "EXTCollectionProperties" : {}
            },
            "name" : "Scene",
            "nodes" : [
                0,
                1,
                2,
                3
            ]
        }
    ],
    "nodes" : [
        {
            "extensions" : {
                "EXT_collections" : {
                    "collections" : [
                        "Collection"
                    ]
                }
            },
            "mesh" : 0,
            "name" : "Cylinder",
            "scale" : [
                4.007203102111816,
                4.007203102111816,
                4.007203102111816
            ]
        },
        {
            "extensions" : {
                "EXT_collections" : {
                    "collections" : [
                        "collider"
                    ]
                }
            },
            "name" : "capsule-bottom",
            "scale" : [
                5,
                5,
                5
            ]
        },
        {
            "extensions" : {
                "EXT_collections" : {
                    "collections" : [
                        "collider"
                    ]
                }
            },
            "name" : "capsule-top",
            "scale" : [
                5,
                5,
                5
            ],
            "translation" : [
                0,
                10,
                0
            ]
        },
        {
            "extensions" : {
                "EXT_collections" : {
                    "collections" : [
                        "collider"
                    ]
                }
            },
            "name" : "capsule-radius",
            "scale" : [
                5,
                5,
                5
            ],
            "translation" : [
                0,
                0,
                -5
            ]
        }
    ],
    "materials" : [
        {
            "doubleSided" : true,
            "extras" : {
                "key" : "gatehouse-key"
            },
            "name" : "Material",
            "pbrMetallicRoughness" : {
                "baseColorFactor" : [
                    0.8000000715255737,
                    0.2557460367679596,
                    0.09575042128562927,
                    1
                ],
                "metallicFactor" : 0,
                "roughnessFactor" : 0.5
            }
        }
    ],
    "meshes" : [
        {
            "name" : "Cylinder",
            "primitives" : [
                {
                    "attributes" : {
                        "POSITION" : 0,
                        "NORMAL" : 1,
                        "TEXCOORD_0" : 2
                    },
                    "indices" : 3,
                    "material" : 0
                }
            ]
        }
    ],
    "accessors" : [
        {
            "bufferView" : 0,
            "componentType" : 5126,
            "count" : 192,
            "max" : [
                1,
                2,
                1
            ],
            "min" : [
                -1,
                0,
                -1
            ],
            "type" : "VEC3"
        },
        {
            "bufferView" : 1,
            "componentType" : 5126,
            "count" : 192,
            "type" : "VEC3"
        },
        {
            "bufferView" : 2,
            "componentType" : 5126,
            "count" : 192,
            "type" : "VEC2"
        },
        {
            "bufferView" : 3,
            "componentType" : 5123,
            "count" : 372,
            "type" : "SCALAR"
        }
    ],
    "bufferViews" : [
        {
            "buffer" : 0,
            "byteLength" : 2304,
            "byteOffset" : 0,
            "target" : 34962
        },
        {
            "buffer" : 0,
            "byteLength" : 2304,
            "byteOffset" : 2304,
            "target" : 34962
        },
        {
            "buffer" : 0,
            "byteLength" : 1536,
            "byteOffset" : 4608,
            "target" : 34962
        },
        {
            "buffer" : 0,
            "byteLength" : 744,
            "byteOffset" : 6144,
            "target" : 34963
        }
    ],
    "buffers" : [
        {
            "byteLength" : 6888,
            "uri" : "data:application/octet-stream;base64,"
        }
    ]
}
