{
	"asset":{
		"generator":"Khronos glTF Blender I/O v3.6.27",
		"version":"2.0"
	},
	"extensionsUsed":[
		"EXT_collections"
	],
	"scene":0,
	"scenes":[
		{
			"extensions":{
				"EXT_collections":{
					"tree":[
						{
							"collection":"geometry"
						},
						{
							"collection":"capsule"
						}
					]
				}
			},
			"extras":{
				"EXTCollectionProperties":{}
			},
			"name":"Scene",
			"nodes":[
				0,
				1,
				2,
				3
			]
		}
	],
	"nodes":[
		{
			"extensions":{
				"EXT_collections":{
					"collections":[
						"geometry"
					]
				}
			},
			"extras":{
				"TLM_ObjectProperties":{}
			},
			"mesh":0,
			"name":"Cube",
			"scale":[
				0.48196685314178467,
				0.48196685314178467,
				0.48196685314178467
			]
		},
		{
			"extensions":{
				"EXT_collections":{
					"collections":[
						"capsule"
					]
				}
			},
			"mesh":1,
			"name":"capsule-top",
			"scale":[
				1.9381840229034424,
				1.9381840229034424,
				1.9381840229034424
			],
			"translation":[
				0,
				3.0845699310302734,
				0
			]
		},
		{
			"extensions":{
				"EXT_collections":{
					"collections":[
						"capsule"
					]
				}
			},
			"mesh":2,
			"name":"capsule-radius",
			"scale":[
				1.535804033279419,
				1.535804033279419,
				1.535804033279419
			],
			"translation":[
				0,
				0,
				-1
			]
		},
		{
			"extensions":{
				"EXT_collections":{
					"collections":[
						"capsule"
					]
				}
			},
			"mesh":3,
			"name":"capsule-bottom",
			"scale":[
				1.535804033279419,
				1.535804033279419,
				1.535804033279419
			]
		}
	],
	"materials":[
		{
			"doubleSided":true,
			"extras":{
				"arm_cached":0
			},
			"name":"Material",
			"pbrMetallicRoughness":{
				"baseColorFactor":[
					0.06534023582935333,
					0.8000000715255737,
					0.30911222100257874,
					1
				],
				"metallicFactor":0,
				"roughnessFactor":0.5
			}
		}
	],
	"meshes":[
		{
			"extras":{
				"arm_cached":0
			},
			"name":"Cube.001",
			"primitives":[
				{
					"attributes":{
						"POSITION":0,
						"NORMAL":1,
						"TEXCOORD_0":2
					},
					"indices":3,
					"material":0
				}
			]
		},
		{
			"extras":{
				"arm_cached":0
			},
			"name":"Circle.001",
			"primitives":[
				{
					"attributes":{
						"POSITION":4,
						"NORMAL":5,
						"TEXCOORD_0":6
					},
					"indices":7
				}
			]
		},
		{
			"extras":{
				"arm_cached":0
			},
			"name":"Circle.002",
			"primitives":[
				{
					"attributes":{
						"POSITION":8,
						"NORMAL":9,
						"TEXCOORD_0":10
					},
					"indices":7
				}
			]
		},
		{
			"extras":{
				"arm_cached":0
			},
			"name":"Circle",
			"primitives":[
				{
					"attributes":{
						"POSITION":11,
						"NORMAL":12,
						"TEXCOORD_0":13
					},
					"indices":7
				}
			]
		}
	],
	"accessors":[
		{
			"bufferView":0,
			"componentType":5126,
			"count":2056,
			"max":[
				1,
				9.042622566223145,
				1
			],
			"min":[
				-1,
				0,
				-1
			],
			"type":"VEC3"
		},
		{
			"bufferView":1,
			"componentType":5126,
			"count":2056,
			"type":"VEC3"
		},
		{
			"bufferView":2,
			"componentType":5126,
			"count":2056,
			"type":"VEC2"
		},
		{
			"bufferView":3,
			"componentType":5123,
			"count":2982,
			"type":"SCALAR"
		},
		{
			"bufferView":4,
			"componentType":5126,
			"count":32,
			"max":[
				1,
				0,
				1
			],
			"min":[
				-1,
				0,
				-1
			],
			"type":"VEC3"
		},
		{
			"bufferView":5,
			"componentType":5126,
			"count":32,
			"type":"VEC3"
		},
		{
			"bufferView":6,
			"componentType":5126,
			"count":32,
			"type":"VEC2"
		},
		{
			"bufferView":7,
			"componentType":5123,
			"count":90,
			"type":"SCALAR"
		},
		{
			"bufferView":8,
			"componentType":5126,
			"count":32,
			"max":[
				1,
				0,
				1
			],
			"min":[
				-1,
				0,
				-1
			],
			"type":"VEC3"
		},
		{
			"bufferView":9,
			"componentType":5126,
			"count":32,
			"type":"VEC3"
		},
		{
			"bufferView":10,
			"componentType":5126,
			"count":32,
			"type":"VEC2"
		},
		{
			"bufferView":11,
			"componentType":5126,
			"count":32,
			"max":[
				1,
				0,
				1
			],
			"min":[
				-1,
				0,
				-1
			],
			"type":"VEC3"
		},
		{
			"bufferView":12,
			"componentType":5126,
			"count":32,
			"type":"VEC3"
		},
		{
			"bufferView":13,
			"componentType":5126,
			"count":32,
			"type":"VEC2"
		}
	],
	"bufferViews":[
		{
			"buffer":0,
			"byteLength":24672,
			"byteOffset":0,
			"target":34962
		},
		{
			"buffer":0,
			"byteLength":24672,
			"byteOffset":24672,
			"target":34962
		},
		{
			"buffer":0,
			"byteLength":16448,
			"byteOffset":49344,
			"target":34962
		},
		{
			"buffer":0,
			"byteLength":5964,
			"byteOffset":65792,
			"target":34963
		},
		{
			"buffer":0,
			"byteLength":384,
			"byteOffset":71756,
			"target":34962
		},
		{
			"buffer":0,
			"byteLength":384,
			"byteOffset":72140,
			"target":34962
		},
		{
			"buffer":0,
			"byteLength":256,
			"byteOffset":72524,
			"target":34962
		},
		{
			"buffer":0,
			"byteLength":180,
			"byteOffset":72780,
			"target":34963
		},
		{
			"buffer":0,
			"byteLength":384,
			"byteOffset":72960,
			"target":34962
		},
		{
			"buffer":0,
			"byteLength":384,
			"byteOffset":73344,
			"target":34962
		},
		{
			"buffer":0,
			"byteLength":256,
			"byteOffset":73728,
			"target":34962
		},
		{
			"buffer":0,
			"byteLength":384,
			"byteOffset":73984,
			"target":34962
		},
		{
			"buffer":0,
			"byteLength":384,
			"byteOffset":74368,
			"target":34962
		},
		{
			"buffer":0,
			"byteLength":256,
			"byteOffset":74752,
			"target":34962
		}
	],
	"buffers":[
		{
			"byteLength":75008,
			"uri":"data:application/octet-stream;base64,"
		}
	]
}
