<svg width="1014" height="1089" viewBox="0 0 1014 1089" fill="none" xmlns="http://www.w3.org/2000/svg">
<path d="M480 288.5L487 311.5L645 376L663.5 362H692.5L980.5 492L994.5 507L1001 534L988.5 553L950 564.5L663.5 433.5L649.5 422L641 387.5L484 321.5L461 336.5L412.5 321.5L312 280L233 214L336.5 220L439.5 259.5L480 288.5Z" fill="#E6D1B2" stroke="#E6D1B2" stroke-width="12"/>
<path d="M265 463.5L272 486.5L430 551L448.5 537H477.5L765.5 667L779.5 682L786 709L773.5 728L735 739.5L448.5 608.5L434.5 597L426 562.5L269 496.5L246 511.5L197.5 496.5L97 455L18 389L121.5 395L224.5 434.5L265 463.5Z" fill="#E6D1B2" stroke="#E6D1B2" stroke-width="12"/>
<path d="M339.156 553.662L323.39 552.114L244.358 631.831L248.227 646.601L240.93 664.218L89.3036 806.391L76.6474 811.113L58.5717 808.252L50.1482 795.866L52.8339 769.577L204.692 628.568L215.217 622.963L238.363 626.501L318.056 547.769L314.71 530.014L336.048 504.333L386.606 453.746L446.672 422.4L416.974 483.763L367.005 536.373L339.156 553.662Z" fill="#E6D1B2" stroke="#E6D1B2" stroke-width="12"/>
<path d="M596.401 946.784L615.005 952.676L730.797 876.634L729.937 857.822L743.27 838.422L962.649 705.529L979.12 703.06L1000.17 711.126L1007.13 728.223L997.126 759.266L777.768 890.695L763.638 894.773L736.651 884.598L620.316 959.281L619.775 981.563L587.442 1007.11L513.473 1055.26L433 1077.77L484.6 1011.29L558.38 960.544L596.401 946.784Z" fill="#E6D1B2" stroke="#E6D1B2" stroke-width="12"/>
<path d="M732.678 242.483L731.64 227.358L643.711 165.316L630.358 171.294L612.54 167.18L454.029 46.4533L447.555 35.2512L447.391 17.7399L457.766 7.83912L483.053 6.23452L640.501 127.363L647.471 136.415L647.8 158.818L734.901 221.64L751.161 215.686L778.832 231.782L834.694 271.536L873.871 323.293L811.13 304.926L753.448 266.046L732.678 242.483Z" fill="#E6D1B2" stroke="#E6D1B2" stroke-width="12"/>
</svg>
