<svg width="523" height="679" viewBox="0 0 523 679" fill="none" xmlns="http://www.w3.org/2000/svg">
<path d="M243.358 471.067C241.84 473.275 239.901 477.712 237.425 478.944C234.045 480.625 233.712 480.03 230.431 477.776C225.254 474.217 220.077 470.659 214.899 467.101C208.597 462.769 202.295 458.438 195.994 454.107C193.693 452.526 191.392 450.944 189.09 449.363C186.449 447.548 183.808 445.732 181.167 443.917C179.699 442.908 178.057 440.906 179.113 443.545" stroke="#E6D1B2" stroke-width="8" stroke-linecap="round"/>
<path d="M178.407 443.06C174.185 440.158 169.655 438.085 165.566 435.275C162.625 433.253 159.683 431.231 156.741 429.209C153.603 427.052 154.51 426.947 153.353 424.224C152.667 422.611 151.002 417.065 149.665 416.145C148.473 415.326 146.263 416.225 144.939 416.131C142.687 415.973 135.83 417.304 134.477 414.716C133.047 411.98 143.346 396.094 144.956 397.201C148.146 399.394 150.734 402.212 154.002 404.458C157.9 407.136 161.914 408.856 165.783 411.515C172.444 416.093 179.61 419.978 186.429 424.665C195.067 430.602 203.182 437.219 211.674 443.055C218.944 448.052 225.448 454.6 232.943 459.752C236.356 462.097 239.768 464.442 243.18 466.788C247.077 469.466 249.382 476.467 242.123 474.377" stroke="#E6D1B2" stroke-width="8" stroke-linecap="round"/>
<path d="M187.32 451.265C184.283 455.684 181.246 460.103 178.209 464.522C174.038 470.591 171.434 477.405 167.382 483.3C159.87 494.23 152.358 505.16 144.846 516.09C141.135 521.491 135.254 525.51 131.541 530.912C127.475 536.829 121.578 541.144 117.427 546.911C113.935 551.762 109.321 555.68 105.933 560.61C104.279 563.016 103.758 565.287 102.245 567.488C98.7101 572.631 95.9005 577.826 94.2 583.731" stroke="#E6D1B2" stroke-width="8" stroke-linecap="round"/>
<path d="M94.9064 584.217C100.159 587.827 104.339 595.756 108.189 600.853C110.636 604.093 111.171 607.387 112.931 610.927C116.029 617.154 121.126 626.146 126.813 630.054" stroke="#E6D1B2" stroke-width="8" stroke-linecap="round"/>
<path d="M126.812 630.054C133.282 620.641 139.752 611.227 146.222 601.814C149.16 597.539 152.399 593.595 155.701 589.618C159.57 584.957 163.128 577.831 167.854 574.119C171.589 571.186 176.002 564.534 178.645 560.688C183.335 553.863 188.026 547.038 192.716 540.213C197.629 533.066 203.748 527.188 208.685 520.004C212.639 514.251 216.593 508.498 220.546 502.745C223.011 499.16 227.369 494.848 228.756 490.716C229.152 489.537 230.571 487.029 230.344 485.801C230.022 484.064 229.879 481.603 230.872 480.159" stroke="#E6D1B2" stroke-width="8" stroke-linecap="round"/>
<path d="M126.671 572.784C128.044 573.727 132.391 579.74 128.795 579.441C123.409 578.993 124.565 577.361 126.892 573.975" stroke="#E6D1B2" stroke-width="8" stroke-linecap="round"/>
<path d="M192.046 486.739C196.429 490.527 182.317 489.356 188.771 484.026C189.853 483.132 193.362 486.337 192.267 487.93C191.245 489.417 187.128 487.845 188.737 485.504" stroke="#E6D1B2" stroke-width="8" stroke-linecap="round"/>
<path d="M94.4211 584.922C88.6792 593.276 82.9374 601.631 77.1955 609.985C74.0415 614.574 70.8875 619.163 67.7335 623.753C66.8585 625.026 65.0006 628.456 64.7146 629.994C64.1826 632.854 62.5174 632.855 61.1611 634.828" stroke="#E6D1B2" stroke-width="8" stroke-linecap="round"/>
<path d="M61.117 637.918C68.9476 643.3 70.8623 653.971 78.6364 659.314C81.0055 660.942 87.1221 667.014 89.8835 666.813C92.2963 666.638 97.1178 669.067 99.1544 670.297C100.506 671.114 116.116 650.203 117.285 646.606C118.281 643.538 124.907 627.468 128.268 627.936" stroke="#E6D1B2" stroke-width="8" stroke-linecap="round"/>
<path d="M237.091 460.523C239.744 456.663 244.45 453.805 247.899 450.511C252.386 446.227 255.538 441.246 259.06 436.121" stroke="#E6D1B2" stroke-width="8" stroke-linecap="round"/>
<path d="M259.059 436.121C266.176 425.766 273.293 415.411 280.409 405.056C287.723 394.414 293.538 382.929 300.833 372.315C306.596 363.93 310.117 354.269 315.805 345.992C317.211 343.947 321.007 335.875 323.51 335.118C326.051 334.349 328.186 328.162 330.917 328.543" stroke="#E6D1B2" stroke-width="8" stroke-linecap="round"/>
<path d="M330.917 328.543C342.077 312.304 353.237 296.066 364.397 279.828C368.991 273.144 374.255 266.998 378.933 260.192C383.62 253.372 389.635 247.644 394.281 240.884C399.171 233.769 404.932 226.9 409.922 219.64C415.109 212.091 419.073 203.891 423.929 196.234C428.713 188.689 431.794 180.253 436.934 172.774C439.884 168.482 442.702 164.053 445.803 159.87C448.362 156.417 451.886 154.043 454.386 150.407" stroke="#E6D1B2" stroke-width="8" stroke-linecap="round"/>
<path d="M454.386 150.406C461.192 140.504 464.426 128.237 471.236 118.328C474.126 114.123 475.047 108.149 476.82 103.397C478.89 97.848 480.977 92.032 483.524 86.7523C486.183 81.24 486.625 74.6983 488.568 68.9094C490.244 63.9164 491.474 58.7909 492.797 53.682C493.81 49.7674 489.562 56.237 488.054 57.6414C485.82 59.7226 483.484 61.1281 481.032 63.1527C466.882 74.8397 449.896 82.366 435.67 94.1154C427.979 100.468 422.496 109.083 416.834 117.321C411.615 124.916 401.132 135.489 400.999 144.899" stroke="#E6D1B2" stroke-width="8" stroke-linecap="round"/>
<path d="M199.716 431.717C205.308 423.581 206.532 414.237 212.091 406.149C216.086 400.336 220.858 389.554 226.819 385.896C233.894 381.554 238.472 373.814 243.166 366.985C249.26 358.118 254.487 349 260.656 340.024C266.548 331.451 273.738 324.014 279.536 315.578C284.712 308.047 289.888 300.516 295.064 292.986C299.746 286.172 305.418 279.432 310.326 272.29C315.205 265.192 321.224 259.46 326.053 252.433" stroke="#E6D1B2" stroke-width="8" stroke-linecap="round"/>
<path d="M326.053 252.434C333.273 241.929 338.471 229.828 345.527 219.561C350.412 212.453 356.072 205.731 360.817 198.827C364.409 193.6 368.791 188.737 372.441 183.426C376.502 177.518 379.673 171.391 383.731 165.487C387.271 160.335 390.476 154.541 394.553 149.825C397.804 146.063 402.05 143.37 404.881 139.251" stroke="#E6D1B2" stroke-width="8" stroke-linecap="round"/>
<path d="M252.839 439.122C249.721 437.453 246.372 437.796 243.225 435.633C241.328 434.329 240.118 432.6 238.454 431.315C236.103 429.499 237.482 429.8 237.086 427.256C235.892 419.602 245.128 414.898 249.216 409.605C260.099 395.515 270.101 380.73 280.249 365.965C283.793 360.809 288.804 352.72 294.172 349.488C297.768 347.323 300.632 340.845 302.989 337.415C305.254 334.12 307.518 330.825 309.783 327.531C318.967 314.167 329.173 302.343 338.368 288.964" stroke="#E6D1B2" stroke-width="8" stroke-linecap="round"/>
<path d="M338.853 288.259C344.424 280.152 347.11 270.194 352.526 262.313C356.893 255.959 361.26 249.605 365.628 243.251C375.249 229.251 385.352 215.659 397.129 203.802C402.989 197.901 407.359 190.093 412.073 183.234C415.832 177.765 417.615 170.634 421.385 165.148C424.603 160.466 426.365 152.43 426.849 146.611C427.287 141.337 418.796 143.618 416.484 142.029" stroke="#E6D1B2" stroke-width="8" stroke-linecap="round"/>
</svg>
