<svg width="38" height="21" viewBox="0 0 38 21" fill="none" xmlns="http://www.w3.org/2000/svg">
<path d="M27 14.7329C27 14.3777 27 14.0466 27 13.687C27 13.2193 27 12.7833 27 12.3236C27 11.4618 27 10.5882 27 9.73291" stroke="#EC6F6F" stroke-width="3" stroke-linecap="round"/>
<path d="M29 8.80748C29 8.56149 29.3091 8.28884 29.4802 8.11012C29.7601 7.81785 30.1487 7.58886 30.4169 7.29569C30.6753 7.01339 31.2065 6.85809 31.5493 6.65432C32.4206 6.13644 33.3637 5.78849 34.0423 5.07636C34.4838 4.61309 35.4349 4.56751 35.6134 5.25706C35.6733 5.48837 35.6163 5.78568 35.6163 6.02314C35.6163 6.30504 35.7764 6.55745 35.7764 6.83757C35.7764 7.55038 35.7457 8.26841 35.7764 8.98054C35.7945 9.39879 35.8298 9.84117 35.8298 10.2735C35.8298 10.5874 35.7956 10.9142 35.8416 11.2253C35.8916 11.563 35.9899 11.9027 35.9899 12.2434C35.9899 13.0732 36.0541 13.908 35.8594 14.7197C35.7476 15.186 35.7764 15.6639 35.7764 16.1374C35.7764 16.2223 35.7742 16.4504 35.6964 16.5039C35.6428 16.5406 35.6834 16.6116 35.6667 16.6616C35.6562 16.6932 35.551 16.7329 35.6163 16.7329" stroke="#EC6F6F" stroke-width="3" stroke-linecap="round"/>
<path d="M35 17.3143C34.9623 17.6379 34.6984 17.7329 34.4146 17.7329C33.9923 17.7329 33.9268 17.5003 33.6585 17.2445C33.1971 16.8046 32.749 16.4537 32.2439 16.0792C31.6968 15.6735 31.0541 15.3658 30.561 14.8957C30.1053 14.4612 29.5307 14.0703 29 13.7329" stroke="#EC6F6F" stroke-width="3" stroke-linecap="round"/>
<path d="M20 17.7329C20 17.5011 20.4117 17.2708 20.628 17.0623C20.8667 16.8321 21.0141 16.6047 21.0435 16.3497C21.0731 16.0929 21.3273 15.7483 21.4976 15.502C21.7417 15.149 21.7391 14.7346 21.7391 14.3633C21.7391 13.7412 21.913 13.1251 21.913 12.4911C21.913 11.9055 22 11.3075 22 10.7329" stroke="#EC6F6F" stroke-width="3" stroke-linecap="round"/>
<path d="M21.8639 10.7329C21.8639 9.8209 21.8185 8.91867 21.8185 8.00365C21.8185 7.57797 21.8287 7.1539 21.8665 6.73291C21.8886 6.48554 21.8787 6.18272 21.9321 5.94418C21.9937 5.66968 21.9128 5.37361 21.965 5.09911C22.0834 4.47531 21.8968 3.73174 21.4775 3.32759C21.2508 3.10909 20.8956 3.15335 20.6794 2.93009C20.5757 2.82299 20.1368 2.73291 20 2.73291" stroke="#EC6F6F" stroke-width="3" stroke-linecap="round"/>
<path d="M20 2.73291C18.6304 2.73291 17.3063 2.16148 15.9442 2.16148C14.9604 2.16148 13.9904 1.89735 13.0102 1.87577C12.5367 1.86534 12.0609 1.8252 11.5939 1.80434C11.48 1.79925 11.0522 1.89602 11 1.73291" stroke="#EC6F6F" stroke-width="3" stroke-linecap="round"/>
<path d="M11 2.02275C10.5773 2.02275 10.1546 2.02275 9.73189 2.02275C9.47535 2.02275 9.2127 2.05268 8.9673 1.96816C8.47218 1.79763 7.92865 1.73372 7.41946 1.73372C7.12408 1.73372 6.8472 1.71572 6.56162 1.84933C6.04438 2.09135 5.48337 2.0621 4.95784 2.28609C4.39756 2.5249 3.89791 2.99052 3.37271 3.3523C3.24506 3.44023 2.91961 3.85223 3.01838 3.69914" stroke="#EC6F6F" stroke-width="3" stroke-linecap="round"/>
<path d="M3 3.73291C3 4.16213 2.85678 4.65652 2.77219 5.07284C2.72308 5.31457 2.71763 5.58549 2.64202 5.81212C2.41769 6.48448 2.42231 7.23954 2.31251 7.9478C2.19551 8.70246 2.20599 9.48189 2.19454 10.2478C2.18901 10.6177 2.09281 10.9883 2.0847 11.3567C2.07861 11.6334 2.0847 11.9115 2.0847 12.1884C2.0847 12.4769 2.06886 12.7546 2.02978 13.0406C1.976 13.4342 2.01148 13.866 2.01148 14.265C2.01148 14.8085 2.13501 15.2274 2.28607 15.723C2.39693 16.0868 2.52404 16.3534 2.52404 16.6676C2.52404 17.0751 2.60168 17.3744 2.74372 17.7329" stroke="#EC6F6F" stroke-width="3" stroke-linecap="round"/>
<path d="M3 17.7329C3.55579 17.7329 4.13526 18.0518 4.66372 18.203C4.96153 18.2882 5.30006 18.3483 5.61062 18.3483C5.81651 18.3483 6.02643 18.421 6.23451 18.4252C6.52739 18.4311 6.85466 18.4199 7.14159 18.4829C7.59259 18.5819 8.15248 18.5708 8.61504 18.5791C9.19789 18.5895 9.78208 18.5791 10.365 18.5791C10.6721 18.5791 10.9804 18.6448 11.292 18.656C11.398 18.6598 11.9614 18.6583 12 18.7329" stroke="#EC6F6F" stroke-width="3" stroke-linecap="round"/>
<path d="M12 18.7329C12.7556 18.7329 13.5221 18.7148 14.2634 18.593C14.7658 18.5105 15.2782 18.4413 15.7854 18.3975C16.2857 18.3543 16.7818 18.2514 17.2878 18.2514C17.6225 18.2514 17.9956 18.2934 18.322 18.2226C18.5825 18.1661 18.9148 18.2271 19.1588 18.1218C19.3912 18.0216 19.8791 17.9624 20 17.7329" stroke="#EC6F6F" stroke-width="3" stroke-linecap="round"/>
</svg>
