<svg width="24" height="20" viewBox="0 0 24 20" fill="none" xmlns="http://www.w3.org/2000/svg">
<path d="M5.55594 9.97752C5.55594 8.51804 5.75018 6.88184 5.54331 5.43378C5.40782 4.48535 5.10156 3.5858 5.10156 2.59395C5.10156 2.1399 6.73627 2.09143 7.15886 2.03861C9.28027 1.77343 11.383 1.3686 13.4948 1.10462C14.6593 0.959063 16.9153 0.715248 16.9153 2.36677C16.9153 3.97043 16.6881 5.5631 16.6881 7.25128C16.6881 8.23575 16.6881 9.22023 16.6881 10.2047C16.6881 11.3204 16.7634 11.1681 15.7793 11.1135C14.7344 11.0554 13.7069 10.6591 12.5987 10.6591C11.7657 10.6591 10.9327 10.6591 10.0997 10.6591C8.66082 10.6591 7.22197 10.6591 5.78312 10.6591" stroke="#EC6F6F" stroke-width="2" stroke-linecap="round"/>
<path d="M17 6.16002C17.8032 5.43815 18.7036 4.95281 19.4736 4.18398C19.7495 3.90843 20.2244 3.24336 20.6279 3.19596C21.0028 3.15191 21.7398 2.6528 21.9837 2.40921C22.7514 1.64266 22.4418 3.27243 22.4418 3.85464C22.4418 4.85322 22.6067 5.77257 22.6067 6.74551C22.6067 7.99388 22.9365 9.23025 22.9365 10.5146C22.9365 11.4169 23.1587 11.3363 22.7716 10.8531C22.5899 10.6263 22.2827 10.3607 22.0204 10.2859C21.0136 9.99867 20.1547 9.63955 19.3911 8.87707C19.0186 8.50512 18.7083 8.12983 18.3925 7.72438C18.2343 7.5213 18.1309 7.35461 17.907 7.23037C17.7101 7.12114 17.6596 6.88032 17.6596 6.98337" stroke="#EC6F6F" stroke-width="2" stroke-linecap="round"/>
<path d="M3.93606 18.4683C3.93606 16.9151 3.93606 13.0394 3.93606 11.4863C3.93606 10.7842 3.93606 10.0821 3.93606 9.37997C3.93606 9.00177 4.15935 7.8984 3.75167 8.42256C3.48319 8.76775 3.36617 9.20785 3.07084 9.536C2.7841 9.8546 2.4239 10.0695 2.12053 10.3728C1.82771 10.6657 1.04172 11.5857 1.09929 11.5217C1.53617 11.0363 1.94206 10.4804 2.4042 10.0182C2.84949 9.57296 3.87111 7.22215 4.31902 8.67787C4.47534 9.18589 4.81152 9.46817 5.08495 9.91896C5.42615 10.4815 5.83538 11.2793 6.29767 11.7416C6.46665 11.9106 6.71173 12.4821 6.97141 12.5146C7.20627 12.544 6.64162 12.1569 6.42533 12.0607C5.26667 11.5458 4.21938 11.2223 2.91482 11.2948C2.19143 11.335 1.58768 12.1498 1 12.4437" stroke="#99A3FF" stroke-width="2" stroke-linecap="round"/>
</svg>
