<svg width="23" height="20" viewBox="0 0 23 20" fill="none" xmlns="http://www.w3.org/2000/svg">
<path d="M4.55594 10.7695C4.55594 9.31003 4.75018 7.67383 4.54331 6.22578C4.40782 5.27734 4.10156 4.37779 4.10156 3.38594C4.10156 2.93189 5.73627 2.88342 6.15886 2.8306C8.28027 2.56542 10.383 2.16059 12.4948 1.89661C13.6593 1.75106 15.9153 1.50724 15.9153 3.15876C15.9153 4.76243 15.6881 6.35509 15.6881 8.04327C15.6881 9.02775 15.6881 10.0122 15.6881 10.9967C15.6881 12.1124 15.7634 11.9601 14.7793 11.9054C13.7344 11.8474 12.7069 11.4511 11.5987 11.4511C10.7657 11.4511 9.93269 11.4511 9.09967 11.4511C7.66082 11.4511 6.22197 11.4511 4.78312 11.4511" stroke="#EC6F6F" stroke-width="2" stroke-linecap="round"/>
<path d="M16 6.95201C16.8032 6.23014 17.7036 5.7448 18.4736 4.97597C18.7495 4.70042 19.2244 4.03535 19.6279 3.98795C20.0028 3.9439 20.7398 3.44479 20.9837 3.2012C21.7514 2.43465 21.4418 4.06442 21.4418 4.64663C21.4418 5.64521 21.6067 6.56456 21.6067 7.5375C21.6067 8.78587 21.9365 10.0222 21.9365 11.3066C21.9365 12.2089 22.1587 12.1283 21.7716 11.6451C21.5899 11.4183 21.2827 11.1527 21.0204 11.0779C20.0136 10.7907 19.1547 10.4315 18.3911 9.66906C18.0186 9.29711 17.7083 8.92182 17.3925 8.51638C17.2343 8.3133 17.1309 8.1466 16.907 8.02237C16.7101 7.91313 16.6596 7.67232 16.6596 7.77536" stroke="#EC6F6F" stroke-width="2" stroke-linecap="round"/>
<path d="M3.93606 8C3.93606 9.55313 3.93606 13.4289 3.93606 14.982C3.93606 15.6841 3.93606 16.3862 3.93606 17.0883C3.93606 17.4665 4.15935 18.5699 3.75167 18.0457C3.48319 17.7005 3.36617 17.2604 3.07084 16.9323C2.7841 16.6137 2.4239 16.3988 2.12053 16.0954C1.82771 15.8026 1.04172 14.8826 1.09929 14.9465C1.53617 15.432 1.94206 15.9879 2.4042 16.45C2.84949 16.8953 3.87111 19.2461 4.31902 17.7904C4.47534 17.2824 4.81152 17.0001 5.08495 16.5493C5.42615 15.9868 5.83538 15.189 6.29767 14.7267C6.46665 14.5577 6.71173 13.9861 6.97141 13.9537C7.20627 13.9243 6.64162 14.3114 6.42533 14.4075C5.26667 14.9225 4.21938 15.2459 2.91482 15.1735C2.19143 15.1333 1.58768 14.3184 1 14.0246" stroke="#99A3FF" stroke-width="2" stroke-linecap="round"/>
</svg>
