<svg width="19" height="52" viewBox="0 0 19 52" fill="none" xmlns="http://www.w3.org/2000/svg">
<path d="M6.64209 49.6936C6.93392 49.6571 7.23358 49.0853 7.51007 48.9317C7.99339 48.6632 8.38269 48.369 8.72524 47.9384C8.82469 47.8133 9.39794 46.9115 9.17852 47.109C9.06327 47.2127 8.89547 47.1249 8.79275 47.0222C8.67176 46.9012 8.72524 46.6491 8.72524 46.4821C8.72524 46.0539 8.63844 45.6368 8.63844 45.2187C8.63844 44.6365 8.24173 44.1978 8.12248 43.6612C7.90393 42.6777 7.68084 41.9998 7.98746 41.0186C8.10335 40.6478 8.07079 40.0153 7.81386 39.707C7.38512 39.1925 7.18158 38.0757 7.0809 37.4213C6.99765 36.8802 6.65675 35.784 6.98928 35.2852" stroke="#EC6F6F" stroke-width="3" stroke-linecap="round"/>
<path d="M6.98908 35.5453C6.96162 35.2981 6.5659 34.8644 6.40078 34.658C6.21444 34.4251 6.06924 34.0503 5.88 33.7901C5.68804 33.5261 5.86071 32.6868 5.86071 32.3338C5.86071 31.9069 5.94751 31.5152 5.94751 31.0993C5.94751 30.8469 5.96151 30.5895 5.94751 30.3374C5.93863 30.1777 5.7716 30.1207 5.7064 29.9903C5.63846 29.8544 5.68711 29.5907 5.68711 29.4502C5.68711 28.9153 5.69237 28.7599 5.44601 28.3411C5.3611 28.1968 4.99273 28.0906 4.99273 27.9071C4.99273 27.1629 5.61621 26.8752 5.92822 26.3447C6.04136 26.1524 6.31112 26.0679 6.46829 25.9108C6.55606 25.823 6.98682 25.2972 6.88299 25.1489C6.70418 24.8934 7.0171 24.6166 6.88299 24.3484C6.77685 24.1361 6.4757 24.0444 6.31399 23.8951C6.05433 23.6554 5.75105 23.3929 5.42672 23.2393C5.14084 23.1039 4.76095 23.3068 4.47194 23.3068C3.96375 23.3068 3.42263 23.5974 2.90958 23.5672C2.54679 23.5459 3.59896 21.9522 3.60396 21.812C3.62809 21.1364 3.78109 20.0445 3.58468 19.3816C3.50732 19.1205 3.34357 18.7075 3.34357 18.4461C3.34357 18.3058 3.76131 18.615 3.88365 18.6197C4.69379 18.6509 5.49485 18.6922 6.1211 18.0989C6.3386 17.8929 6.5777 17.8745 6.7094 17.5782C6.79775 17.3794 6.9104 17.2229 7.07588 17.0574C7.43813 16.6951 8.09535 16.947 8.35856 16.4498C8.60293 15.9882 9.40957 16.1894 9.85341 16.1894C10.1877 16.1894 10.4618 16.3138 10.7889 16.3823C11.0929 16.4459 11.4817 16.4309 11.763 16.5559C11.9047 16.6189 12.3401 16.7217 12.4381 16.5366C12.4863 16.4455 12.4573 16.228 12.4573 16.228C12.4573 16.228 12.3732 16.6439 12.3705 16.8548C12.3679 17.0654 12.3541 19.5467 12.5441 19.4684C12.8019 19.3623 13.2148 19.1539 13.4121 18.9669C13.9056 18.4994 13.6329 17.7499 13.3446 17.231C13.1444 16.8707 13.0789 16.9146 13.2385 17.3371C13.4614 17.9271 13.743 18.5178 14.1065 19.0344C14.3136 19.3287 14.3933 19.301 14.7334 19.3141C15.1938 19.3318 14.9986 19.7007 15.1481 20.0085C15.4271 20.5829 15.5565 21.3566 15.6882 21.9856C15.8693 22.8511 15.9293 23.8074 15.9293 24.6956C15.9293 25.0123 15.9126 25.3339 15.9293 25.6504C15.937 25.7965 16.0411 26.3224 15.8232 25.9108C15.5235 25.3447 14.9145 25.2432 14.4537 24.7824C14.2044 24.5331 14.0988 24.153 13.8461 23.9144C13.6628 23.7413 12.9831 24.404 12.8238 24.522C12.517 24.7492 12.4496 25.0632 12.2162 25.3225C12.0941 25.4582 11.8668 26.0673 12.2162 25.7179C13.0293 24.9048 13.4989 23.5065 13.4989 22.381C13.4989 22.0936 13.7608 19.9932 13.1517 20.2496C12.7136 20.4341 12.0865 20.0365 11.6569 19.941C10.9877 19.7923 10.1038 19.5376 9.59302 19.0537C9.47502 18.9419 9.41942 18.8696 9.41942 18.7065C9.41942 18.6484 9.40505 18.7821 9.26511 18.7933C9.2146 18.7974 8.95783 18.9117 9.07223 18.8608C9.36754 18.7296 9.77576 18.6838 10.0945 18.639C10.2084 18.623 11.2459 18.6235 11.1554 18.5329" stroke="#EC6F6F" stroke-width="3" stroke-linecap="round"/>
<path d="M9.33266 18.186C8.62948 18.2564 7.69332 19.0442 7.20129 19.5362C6.91737 19.8201 6.64559 20.1518 6.42976 20.491C6.26834 20.7447 6.06988 20.9662 5.90415 21.224C5.8535 21.3027 5.56547 21.6638 5.70644 21.3976C6.00091 20.8413 7.89261 21.5985 8.23322 21.7255C9.16333 22.0723 10.0987 22.2329 10.9143 22.7863C11.0579 22.8837 11.7801 23.4795 11.8884 23.201C12.2224 22.3421 11.7019 21.513 10.9432 21.1468C10.5169 20.941 9.89025 21.0504 9.4291 21.0504C9.06841 21.0504 9.00233 21.1503 8.76848 21.4361C8.55089 21.7021 8.58954 21.7815 8.53219 22.1112C8.33395 23.2511 8.41609 24.4083 8.2718 25.5446C8.16932 26.3516 7.40329 26.8243 7.16272 27.6663C7.02839 28.1364 6.90232 28.6742 6.90232 29.166C6.90232 29.3487 7.13988 29.6812 7.20611 29.8652C7.45485 30.5561 7.42954 31.2311 7.6401 31.9049C7.77532 32.3376 8.11749 32.9275 8.11749 33.3757C8.11749 33.8129 8.23119 34.7091 7.96319 35.0441C7.76731 35.289 7.79545 35.8302 7.6401 36.1098C7.36329 36.6081 7.8292 36.5112 7.93907 36.8958C8.01009 37.1443 8.24229 36.9367 8.20429 36.9344C8.12335 36.9293 7.73055 36.8391 7.70279 36.8669C7.52025 37.0494 7.87953 37.9564 7.9439 38.1495" stroke="#EC6F6F" stroke-width="3" stroke-linecap="round"/>
<path d="M8.89816 33.0285C8.89816 32.1803 8.88546 31.3898 9.09104 30.5595C9.23986 29.9586 9.38075 29.3473 9.63594 28.7802C9.7789 28.4625 9.98747 28.1968 10.1085 27.864C10.4973 26.7948 10.3942 25.6175 10.7016 24.5416C10.739 24.4109 11.171 23.9578 10.9427 24.0883C9.44469 24.9443 9.06036 27.2161 8.29057 28.5632C8.16177 28.7886 8.17722 28.6798 8.32915 28.6018C8.96171 28.2769 9.64685 28.0452 10.2869 27.7338C10.8555 27.4572 11.425 27.0394 12.0663 27.0394C12.658 27.0394 12.1075 27.4184 11.9361 27.5988C11.7772 27.7661 10.8213 29.2962 11.1983 29.2962C11.4076 29.2962 13.2381 29.6721 13.2381 29.3396C13.2381 29.1535 12.9413 28.7401 12.7848 29.0358C12.6486 29.2929 12.7173 29.6594 12.7173 29.9471C12.7173 30.3253 11.6737 30.9473 11.4346 31.1864C11.1029 31.5181 10.7767 31.6052 10.3351 31.7313C10.1374 31.7878 10.6865 32.2754 10.7209 32.3871C10.8638 32.8517 10.9316 33.4242 10.9813 33.8964C11.0173 34.2382 11.1815 34.6884 11.2851 35.02C11.4308 35.4864 11.5822 35.4026 11.9361 35.7192C12.3638 36.1019 12.5318 36.5255 12.8233 37.0212C13.0474 37.402 13.3388 36.4864 13.455 36.3702C13.642 36.1833 13.8293 35.9504 13.9517 35.7192C14.1173 35.4064 14.3438 35.2234 13.971 34.9862C13.7193 34.826 13.086 34.6315 13.0645 34.2436C13.0467 33.9248 12.9665 33.5492 13.3682 33.5492C13.7575 33.5492 13.3936 31.4295 13.3441 31.1575C13.2354 30.5597 13.0201 31.2967 12.9728 31.5095C12.887 31.8959 13.2123 32.0295 13.4116 32.3534C13.5427 32.5663 13.8456 32.9977 13.8456 33.2455C13.8456 33.4131 13.7181 33.3757 13.5852 33.3757C13.3315 33.3757 13.4116 33.1479 13.4116 32.9417" stroke="#EC6F6F" stroke-width="3" stroke-linecap="round"/>
<path d="M13.4121 38.6702C13.4121 39.0314 13.5661 39.094 13.7593 39.3839C14.0154 39.768 14.1933 40.2265 14.1933 39.5333C14.1933 39.0665 14.0439 38.6716 14.0197 38.2362C14.0015 37.9089 13.9329 37.5671 13.9329 38.1108C13.9329 38.9401 13.9716 39.5941 14.5019 40.2759C14.7706 40.6214 14.2952 41.3698 14.4453 41.0321C14.5514 40.4197 14.8972 39.5911 14.8394 39.5333C14.7285 39.4224 14.9201 39.8575 14.8394 39.8805C14.4579 39.9895 14.3669 39.779 14.3669 40.2759C14.3669 40.5976 14.4537 40.9045 14.4537 41.2066C14.4537 41.6312 14.3447 41.8347 14.1499 42.1855C14.0949 42.2844 13.6302 42.6688 13.5182 42.5568C13.474 42.5127 13.4158 42.3402 13.4121 42.4025C13.4059 42.5075 13.4609 42.7713 13.5423 42.8365C13.7028 42.9649 13.8356 43.3534 13.8461 43.5309C13.8651 43.8544 14.669 44.0066 14.669 43.5309" stroke="#EC6F6F" stroke-width="3" stroke-linecap="round"/>
<path d="M14.2799 44.6592C14.2799 45.0798 14.4254 45.4413 14.4535 45.8068C14.469 46.0077 14.5943 46.2278 14.5355 46.4337C14.4975 46.5668 14.1613 46.8943 14.0677 47.0413C13.9537 47.2206 13.5192 47.4865 13.5904 47.7357C13.5905 47.7363 14.6196 47.3499 14.7814 47.3499C15.6914 47.3499 15.3368 48.126 15.8857 48.5651C16.1579 48.7828 16.2565 49.1586 16.5849 49.3463C16.8335 49.4883 17.2107 49.7803 17.4914 49.7803" stroke="#EC6F6F" stroke-width="3" stroke-linecap="round"/>
<path d="M15.6689 32.5945C15.7042 32.2766 16.1121 32.1931 16.1848 31.9387C16.2693 31.6432 16.1447 31.3487 16.344 31.0996C16.5417 30.8525 15.9015 30.7398 15.8473 30.5499C15.7345 30.155 16.2765 29.7664 16.2765 29.4264C16.2765 29.0956 16.2959 28.7583 16.2765 28.4282C16.2594 28.1385 16.2149 27.623 16.0643 27.3432C15.8399 26.9266 15.5777 26.9965 15.2542 26.6729C14.9484 26.3672 14.8877 25.8992 14.8877 25.4771" stroke="#EC6F6F" stroke-width="2" stroke-linecap="round"/>
<path d="M9.68011 15.2348C9.68011 14.6609 10.0273 14.1288 10.0273 13.5519C10.0273 13.283 9.71153 14.013 9.68011 14.2801C9.64931 14.5419 9.29947 14.7743 9.54991 14.3235C9.71449 14.0272 9.85371 13.6822 9.85371 13.3446C9.85371 12.9385 9.55786 13.3446 9.15932 13.3446C8.92434 13.3446 9.47279 12.0904 9.22683 11.869C9.17169 11.8194 8.96519 12.0871 8.91822 12.1294C8.79468 12.2406 8.775 12.2837 8.59514 12.2837C8.09948 12.2837 8.4901 12.0592 8.68676 11.8063C8.93458 11.4877 9.21457 11.0255 9.24612 10.6153C9.24703 10.6034 9.36019 10.1251 9.26541 10.2199C9.17657 10.3087 9.15932 10.7071 9.15932 10.5815C9.15932 10.3747 9.65229 9.86457 9.85371 9.85338C10.2319 9.83237 10.4224 9.50036 10.7651 9.42421C11.3303 9.29861 11.8687 9.34411 12.4191 9.50136C12.717 9.58649 12.9435 9.893 13.152 10.1138C13.3009 10.2714 12.6727 10.3619 12.8746 10.4741C13.0621 10.5782 13.4283 10.5478 13.3256 10.5478C12.9835 10.5478 12.6644 10.3742 12.3274 10.3742C12.0784 10.3742 12.8652 11.0924 12.8746 11.2614C12.8832 11.416 12.6641 11.8406 12.4962 11.9365C12.1994 12.1061 12.1899 12.4665 12.0044 12.6984C11.5319 13.2889 10.7217 12.4113 10.7217 13.4989C10.7217 13.5585 10.703 14.9327 10.9821 14.5839C11.0956 14.4419 10.7776 14.5783 10.7627 14.3235C10.7595 14.2707 10.998 14.0293 10.9387 14.0293C10.8494 14.0293 10.8953 15.4023 10.8953 15.476C10.8953 15.6676 11.3386 15.8133 11.5414 15.9292C11.7097 16.0254 12.1281 16.5447 11.6765 16.3439C11.2571 16.1576 10.9099 15.6738 10.5963 15.3602C10.2956 15.0595 10.1827 14.5814 10.3552 14.1933C10.5469 13.7621 10.6366 13.2602 10.7217 12.7708C10.7777 12.4487 11.02 11.4665 10.7217 11.2614C10.3423 11.0006 10.8575 10.9491 11.0689 10.8082" stroke="#EC6F6F" stroke-width="2" stroke-linecap="round"/>
<path d="M7.68295 43.6179C7.5022 43.6179 7.37118 43.623 7.21038 43.5311C7.08287 43.4582 7.25246 43.1415 7.11394 43.1019C6.78385 43.0076 6.99362 42.591 7.18145 42.422C7.53539 42.1034 7.50935 41.9749 7.50935 41.4479C7.50935 41.0487 7.15203 40.9241 6.85354 40.7536C6.6022 40.6099 6.64137 39.8978 6.64137 39.6252C6.64137 39.155 6.80911 38.7677 7.03196 38.3666C7.20166 38.0611 7.22093 37.3551 7.00785 37.0888C6.87522 36.923 6.99663 36.3904 6.98856 36.1726C6.97659 35.8492 6.90177 35.5316 6.90177 35.1985" stroke="#EC6F6F" stroke-width="2" stroke-linecap="round"/>
<path d="M4.21161 17.3179C4.21161 16.7595 4.15187 16.16 4.30323 15.6302C4.37302 15.386 4.64245 15.9711 4.66489 16.016C4.7289 16.144 4.98555 16.4136 4.99279 16.5368C5.02124 17.0203 4.72611 16.3294 4.689 16.233C4.56219 15.9033 4.50833 15.5348 4.38521 15.1962C4.24864 14.8207 4.15434 15.046 4.01873 15.2155C3.88519 15.3824 4.28676 15.459 4.29841 15.6688C4.32352 16.1208 3.94933 16.1702 3.69083 16.4934C3.54368 16.6773 4.02574 15.9072 4.10553 15.7556C4.20411 15.5683 4.34776 15.148 4.03802 15.148C3.20658 15.148 2.18782 15.4381 1.43408 15.0612" stroke="#EC6F6F" stroke-width="2" stroke-linecap="round"/>
<path d="M4.5585 14.6271C4.5585 14.224 4.70025 13.5138 4.53921 13.1515C4.38713 12.8093 4.12451 12.3824 4.12451 12.0231C4.12451 11.0394 4.12451 10.0557 4.12451 9.07202" stroke="#EC6F6F" stroke-width="2" stroke-linecap="round"/>
<path d="M4.21149 9.33272C4.21149 8.8772 4.12397 8.46344 3.9077 8.07415C3.88634 8.03571 3.78659 7.53813 3.7775 7.68356C3.77182 7.77458 3.7775 8.26308 3.7775 7.94395C3.7775 7.78927 3.71761 6.69515 3.51711 6.94578C3.33001 7.17966 3.17373 6.7533 3.22296 6.73361C3.27265 6.71373 3.80815 6.7533 3.56051 6.55519C3.45835 6.47346 3.2085 6.38159 3.2085 6.38159C3.2085 6.38159 3.5478 6.38878 3.67142 6.48768C3.83579 6.61918 3.73237 6.76612 3.78233 6.94096C3.81613 7.05926 4.01669 7.17667 4.0813 7.29297C4.14906 7.41495 4.3706 7.56762 4.38509 7.68356C4.40543 7.84625 4.79582 7.74754 4.38509 7.77036C4.08424 7.78707 4.29829 7.6384 4.29829 7.35566C4.29829 7.1467 4.29829 6.93774 4.29829 6.72878" stroke="#EC6F6F" stroke-linecap="round"/>
<path d="M3.34354 11.7628C2.91445 11.7628 2.4501 11.7311 2.10908 12.004C2.0034 12.0885 1.66623 12.0647 1.52079 12.1293C1.37335 12.1949 1.06623 12.4161 1 12.2836" stroke="#EC6F6F" stroke-linecap="round"/>
<path d="M3.42983 6.20787C3.42983 5.30234 3.51663 4.36067 3.51663 3.43034C3.51663 3.02731 3.25623 2.63946 3.25623 2.25857C3.25623 1.81508 3.16943 1.41218 3.16943 1" stroke="#EC6F6F" stroke-width="0.5" stroke-linecap="round"/>
<path d="M3.604 4.90605C3.9311 4.90605 4.74309 4.76996 4.2791 5.23396C4.06984 5.44322 3.7776 5.90757 3.7776 6.20802" stroke="#EC6F6F" stroke-width="0.5" stroke-linecap="round"/>
<path d="M2.73584 6.20776C3.07112 6.20776 3.24731 6.3333 3.51702 6.46816" stroke="#EC6F6F" stroke-width="0.5" stroke-linecap="round"/>
</svg>
