<svg width="27" height="36" viewBox="0 0 27 36" fill="none" xmlns="http://www.w3.org/2000/svg">
<path d="M11.4424 7.83865C10.668 7.07281 9.81563 6.42943 9.09066 5.63284C8.78426 5.29616 8.7133 4.66939 8.93307 4.27818C9.25816 3.69951 8.71993 3.28463 8.83609 2.76769C9.1522 1.36098 13.2159 1.79665 14.279 1.79665C15.1288 1.79665 16.1134 1.5727 16.7278 2.18027C17.31 2.75607 16.8975 5.08501 16.8975 6.00447C16.8975 6.55702 16.4212 6.6334 16.0247 6.80767C15.1922 7.17356 15.5447 7.06389 15.5883 7.83865C15.6326 8.62729 15.7983 9.59059 16.0125 10.3322C16.3027 11.3365 21.8271 11.0363 23.0071 11.555C23.4758 11.7609 23.9473 11.9442 24.4255 12.1544C24.9629 12.3906 24.946 12.7388 25.2983 13.0175C25.6669 13.3091 25.4074 14.9815 25.4074 15.4391C25.4074 16.502 25.4074 17.565 25.4074 18.6279C25.4074 22.3322 25.4074 26.0366 25.4074 29.7409C25.4074 30.5719 25.7054 31.878 24.5346 32.0066C23.4496 32.1258 22.2541 32.2543 21.1645 32.4502C16.8888 33.219 12.5098 33.7329 8.07238 33.7329C7.00548 33.7329 6.07189 33.4391 5.11453 32.9657C4.60221 32.7124 4.10139 32.4287 3.58711 32.1745C2.87733 31.8235 2.9325 31.7743 2.9325 30.9277C2.9325 28.9505 2.7143 27.1604 2.7143 25.1494C2.7143 23.0107 2.49609 20.9004 2.49609 18.7358C2.49609 18.1998 3.24227 13.6273 2.93235 13.2333C2.48062 12.6589 4.66707 11.9447 4.93965 11.8848C5.71068 11.7153 4.68619 11.9587 7.72776 11.555C10.2624 11.2185 9.63478 11.1693 10.2624 11.1328C12.5172 11.0016 11.006 10.4162 11.006 8.70179" stroke="#EC6F6F" stroke-width="3" stroke-linecap="round"/>
</svg>
