<svg width="28" height="21" viewBox="0 0 28 21" fill="none" xmlns="http://www.w3.org/2000/svg">
<path d="M9.09569 9.74418C9.09569 10.7661 8.72551 12.9062 9.29361 13.7924C10.0917 15.0375 11.1245 16.1451 12.1723 17.1929C13.4119 18.4324 14.9565 18.9272 16.6704 19.1721C18.6592 19.4562 21.1349 19.5562 23.1026 19.0461C24.0373 18.8038 26.498 18.4176 26.737 17.103C27.1651 14.7483 27.145 12.0315 26.1702 9.81615C25.5071 8.30912 24.7237 7.15992 23.6693 5.92985C22.7215 4.82402 21.4231 3.07761 19.945 2.65528C18.3871 2.21019 16.7849 1.97158 15.168 1.97158C13.9005 1.97158 12.6271 1.82159 11.4886 2.25945C10.9162 2.47963 9.73571 3.10957 9.41955 3.66284C9.28165 3.90417 8.9961 3.98072 8.77184 4.11264C8.51482 4.26383 8.73755 4.89663 8.44798 4.76036C7.3333 4.23581 6.42483 3.45984 5.36233 2.86219C4.75352 2.51973 3.24052 1.59627 2.94238 1" stroke="#FF7A00" stroke-width="2" stroke-linecap="round"/>
<path d="M7.80103 5.20993C7.22049 5.20993 6.55146 5.1169 5.98382 5.24591C4.97259 5.47574 3.67873 7.07202 3.11408 7.89076C1.78322 9.8205 1 11.4286 1 13.7922" stroke="#FF7A00" stroke-width="2" stroke-linecap="round"/>
<path d="M8.12489 5.53394C8.12489 7.49333 7.49533 9.96553 6.01981 11.3634C4.61881 12.6906 2.57112 12.9068 1 13.9543" stroke="#FF7A00" stroke-width="2" stroke-linecap="round"/>
</svg>
