      <svg viewBox="0 0 564 461" fill="none" xmlns="http://www.w3.org/2000/svg">
      <path d="M406.54 101C407.613 113.907 418.568 126.409 424.761 137.172C435.347 155.573 445.799 173.907 454.772 193.162C455.481 194.685 464.822 219.358 463.942 219.306C462.276 219.208 458.381 212.686 457.273 211.546C448.942 202.981 440.157 195.214 430.239 188.506C400.575 168.44 367.351 153.242 335.681 136.695C323.244 130.197 310.74 123.825 298.167 117.594C291.873 114.474 285.38 111.107 278.398 109.834C272.22 108.708 262.472 105.887 256.664 102.612C256.597 102.574 254.636 100.711 254.818 101.478C256.348 107.92 265.953 117.156 269.347 122.071C289.357 151.044 308.63 180.547 328.297 209.755C350.67 242.982 373.687 275.859 394.035 310.393C404.153 327.563 395.952 342.038 387 334.5C366.851 317.534 356.145 314.329 335.323 298.216C302.359 272.707 270.377 246.028 239.098 218.47C217.92 199.811 197.271 180.557 176.337 161.645C169.375 155.355 162.931 148.299 155.675 142.365C148.875 136.804 141.281 132.303 134.477 126.846C131.215 124.23 129.201 123.954 130.725 129.233C133.298 138.141 138.554 146.454 142.992 154.482C154.691 175.648 166.34 196.847 178.183 217.933C198.876 254.776 219.87 291.47 241.004 328.061C246.464 337.516 253.546 345.984 258.629 355.638C263.712 365.292 149.016 304.259 145.195 298.873C138.255 291.916 132.515 283.355 124.652 277.444C120.284 274.16 100 271.955 100 265.387" stroke="url(#paint0_linear_978_215)" stroke-width="200" stroke-linecap="round"/>
      <path d="M127.567 380.118C126.416 380.262 127.638 383.226 128.05 383.742C128.474 384.271 129.609 383.883 130.225 384.225C131.247 384.793 132.154 385.487 133.124 386.158C136.98 388.827 141.523 392.798 145.928 394.372C147.78 395.033 149.071 396.453 150.76 397.298C154.611 399.223 159.085 401.921 162.329 404.76C165.729 407.735 169.965 409.283 173.469 412.008C176.715 414.532 180.939 415.348 184.099 417.806C185.693 419.046 187.752 419.04 189.441 420.222C191.285 421.513 193.802 422.12 195.91 422.879C199.542 424.187 203.525 425.666 207.292 426.503C212.555 427.673 217.398 430.003 222.726 431.335C234.59 434.301 246.314 435.2 258.535 435.2C265.487 435.2 272.692 433.239 279.178 430.744C281.604 429.811 283.935 428.71 286.533 428.06C289.185 427.397 292.754 426.89 295.123 425.537C297.275 424.307 300.058 424.359 301.995 422.638C303.638 421.177 305.544 419.952 307.417 418.772C308.628 418.01 313.218 415.807 313.108 413.94C313.015 412.356 306.925 414.171 306.343 414.316C294.532 417.269 281.401 411.373 270.105 408.625C258.317 405.758 246.382 403.742 234.725 400.411C224.625 397.526 215.117 393.132 204.876 390.64C200.456 389.565 196.284 388.144 191.937 386.882C188.709 385.945 185.535 384.95 182.166 384.95" stroke="#806B4D" stroke-width="50" stroke-linecap="round"/>
      <path d="M375.499 426.708C375.499 422.481 371.99 419.888 369.124 417.181C366.087 414.313 362.499 410.139 358.287 409C353.738 407.771 350.114 406.198 347.308 401.988C346.711 401.092 342.35 395.824 342.35 398.765C342.35 404.131 346.212 409.953 348.867 414.454C350.405 417.064 353.734 420.53 356.977 420.935C358.757 421.158 360.425 420.707 362.112 421.466C368.284 424.244 373.465 426.235 376.915 432.445C377.127 432.827 379.313 435.317 378.332 435.597C377.107 435.947 375.323 435.632 374.224 435.137C370.285 433.364 367.54 435.323 364.307 432.091C358.454 426.238 352.104 420.713 346.529 414.631C344.075 411.955 340.213 412.684 336.932 412.684C333.873 412.684 332.425 410.573 331.194 407.867C330.453 406.235 330.326 404.87 330.238 403.122C330.149 401.342 328.869 400.437 328.326 398.943C327.227 395.921 325.047 394.242 323.226 391.966C322.713 391.325 321.379 391.551 321.314 390.372C321.184 388.04 321.314 385.658 321.314 383.325C321.314 377.421 319.635 371.889 317.489 366.432C316.665 364.336 315.487 358.514 312.708 357.897C310.627 357.434 303.628 358.269 303.465 361.049C303.254 364.627 309.108 364.37 310.618 366.786C312.114 369.179 312.389 370.089 312.389 373.16C312.389 376.838 309.147 376.34 307.289 373.656C304.64 369.829 305.377 365.71 305.377 361.19C305.377 357.664 305.527 354.947 306.51 351.628C307.1 349.638 307.531 347.131 306.971 345.112C306.613 343.824 304.879 341.291 305.519 340.012C306.21 338.628 307.909 337.661 308.883 336.471C310.274 334.77 311.661 331.925 312.247 329.813C313.579 325.017 314.939 321.17 314.939 316.107C314.939 308.629 318.983 301.019 321.668 294.114C323.152 290.298 323.953 285.45 324.536 281.365C325.324 275.85 321.872 282.445 319.72 283.879C317.553 285.324 315.22 289.696 312.708 290.254C310.497 290.745 307.904 289.704 305.731 290.325C301.96 291.402 305.922 287.024 306.971 285.508C308.875 282.758 312.914 280.315 314.302 277.54" stroke="#FAFAFA" stroke-width="20" stroke-linecap="round"/>
      <path d="M108.398 383.998C115.035 383.998 120.949 380.173 127.523 380.173C135.681 380.173 143.92 379.811 152.065 380.208C160.436 380.616 168.431 381.857 175.97 385.627C176.95 386.116 183.631 391.647 180.114 391.647C176.938 391.647 174.44 387.937 172.075 386.229C167.704 383.072 162.756 380.849 158.44 377.587C153.118 373.566 147.673 369.922 142.184 366.148C136.414 362.181 129.864 354.79 122.104 355.984C120.277 356.265 117.816 358.299 116.402 359.455C112.639 362.534 117.526 357.153 118.669 356.232C129.72 347.33 141.393 337.64 145.69 323.792C146.488 321.222 146.999 318.502 146.611 315.788C146.41 314.377 145.097 313.117 144.77 311.645C144.09 308.587 152.481 305.442 154.261 303.995C156.72 301.997 157.831 298.721 160.104 296.7C165.025 292.325 174.863 293.654 180.857 293.123C193.527 292 206.176 291.564 218.893 291.564C224.397 291.564 230.224 292.151 235.574 290.962C236.422 290.774 235.255 290.946 235.255 289.333C235.255 287.388 238.423 286.856 239.753 285.792C242.205 283.83 246.779 280.232 250.058 280.232C250.476 280.232 249.917 285.837 249.917 286.748C249.917 291.071 257.706 294.447 260.754 296.31C266.499 299.821 272.686 304.039 276.832 309.414C279.981 313.495 284.599 314.96 288.165 318.338C290.927 320.955 291.331 324.756 293.902 319.613C295.219 316.979 298.364 313.53 298.364 310.689C298.364 309.948 298.759 307.542 298.223 307.005C297.216 305.999 295.351 309.149 294.54 309.555C289.647 312.002 283.416 302.457 281.153 299.214C280.556 298.36 273.55 287.843 275.415 287.74C279.391 287.519 282.485 287.288 285.615 285.331C288.297 283.655 287.527 276.89 287.527 274.211C287.527 269.647 287.696 269.04 291.494 266.703C293.791 265.29 297.927 263.967 296.31 260.328C295.771 259.115 295.024 256.693 293.902 256.008C292.643 255.238 290.993 254.942 289.936 254.095C289.147 253.464 287.103 254.106 286.111 253.812C283.127 252.928 279.659 252.989 276.549 252.537C269.124 251.459 264.641 247.993 262.029 240.567C259.831 234.32 257.528 227.155 251.829 223.355" stroke="#806B4D" stroke-width="20" stroke-linecap="round"/>
      <path d="M383.96 216.467C381.069 213.938 385.108 193.275 380.789 194.818C377.69 195.924 376.702 202.074 375.856 205.036C375.106 207.661 375.151 210.062 375.151 212.787C375.151 213.533 374.173 211.13 373.742 210.673C372.514 209.373 371.289 209.025 369.67 208.402C364.206 206.301 362.754 199.049 360.196 194.622C357.685 190.276 355.764 185.052 357.69 180.058C359.131 176.325 361.761 170.663 364.62 167.804C366.549 165.876 369.497 166.278 371.98 166.278C375.661 166.278 389.409 196.877 393 197.675C396.011 198.345 382.256 171.546 381.102 171.876C379.285 172.395 377.467 170.569 376.521 169.292C370.166 160.712 364.269 151.232 358.708 142.122C348.875 126.013 342.736 107.967 332.517 92.2461C330.512 89.1611 328.998 85.6176 326.175 83.1634C323.562 80.8911 320.878 79.7027 318.11 77.8C316.227 76.5054 312.597 71.7584 315.605 70.0875C316.133 69.7943 322.489 69.0305 318.776 69.0305C315.089 69.0305 312.828 65.1563 309.615 63.5496C306.02 61.752 300.871 62.4206 296.931 61.4355C293.429 60.5601 290.711 58.4602 287.065 58.4602C283.23 58.4602 279.587 57.0508 275.751 57.0508C270.944 57.0508 267.321 59.5234 263.105 61.6313C259.72 63.324 255.437 63.8527 252.222 65.8986C249.152 67.8522 248.999 69.0305 245.136 69.0305C244.414 69.0305 242.669 69.4115 242.669 68.3258C242.669 66.8586 243.065 71.3275 242.669 72.7105C239.795 82.7716 231.967 91.9766 231.394 102.856C231.295 104.751 230.802 106.579 230.69 108.493C230.614 109.774 227.537 109.164 226.618 109.198C224.037 109.293 219.113 113.225 218.162 115.697C216.326 120.47 216.596 125.136 216.596 130.182C216.596 138.126 216.849 145.874 217.849 153.75C218.557 159.328 217.29 161.675 215.187 166.434C212.686 172.093 211.474 177.91 209.392 183.738C208.996 184.849 206.73 191.191 206.73 187.066C206.73 184.212 207.144 181.015 206.378 178.257C204.685 172.164 205.321 165.532 205.321 159.27C205.321 156.021 203.207 154.904 203.207 151.518C203.207 141.773 209.185 133.869 213.934 125.954C216.573 121.556 218.777 117.484 219.963 112.408C221.672 105.094 220.753 97.2387 221.685 89.7797C221.965 87.545 222.938 85.5014 222.938 83.2809C222.938 80.655 224.731 82.5592 226.227 83.4375C232.306 87.0079 237.87 90.3188 244.823 91.9329C252.389 93.6895 259.566 93.6946 267.294 93.6946C272.92 93.6946 278.627 93.4216 284.246 93.7338C288.269 93.9573 292.176 95.3685 296.187 95.7696C305.554 96.7063 320.897 96.9087 317.367 110.02C315.062 118.58 314.163 127.486 313.882 136.328C313.731 141.083 312.67 148.057 314.978 152.497C318.519 159.305 329.353 159.095 332.478 166.239C333.63 168.871 331.691 171.145 330.403 173.325C328.269 176.937 326.156 180.767 324.453 184.6C323.126 187.583 321.595 191.115 321.595 194.426C321.595 197.011 322.163 196.708 324.374 197.675C330.161 200.207 333.953 205.541 340.269 207.463C344.019 208.604 346.889 205.74 350.644 205.74C355.456 205.74 359.307 208.285 363.719 209.812C365.984 210.596 367.433 214.314 368.261 216.467C369.701 220.212 370.252 216.845 370.218 214.745C370.115 208.211 367.198 201.59 362.858 196.736C352.135 184.745 338.112 174.139 324.727 165.338C318.605 161.313 311.057 155.826 303.429 155.707C298.47 155.63 294.355 156.201 290.432 152.575C283.526 146.194 279.247 135.521 275.79 126.972C273.213 120.6 271.186 113.908 268.038 107.788C267.288 106.33 267.306 107.129 267.803 108.258C269.044 111.077 270.943 113.7 272.423 116.401C278.603 127.682 284.42 139.042 290.04 150.618C295.053 160.944 300.119 172.005 307.501 180.92C312.057 186.421 308.553 185.015 307.501 190.276C306.459 195.486 304.993 199.445 308.519 203.979C309.929 205.791 308.471 209.577 308.949 211.73C309.258 213.117 310.21 213.352 308.558 212.435C306.859 211.491 305.17 211.378 303.273 211.378C296.843 211.378 291.881 218.726 291.332 224.767C291.176 226.49 290.163 236.303 292.389 236.707C296.083 237.379 301.352 228.299 302.92 225.511C305.015 221.787 306.738 218.625 308.206 214.588C309.645 210.63 314.852 213.347 305.622 211.769C292.886 209.592 277.599 204.011 267.647 195.718C257.809 187.519 253.991 174.913 251.83 162.754C249.68 150.652 250.283 138.302 249.012 126.11C248.531 121.506 248.784 110.177 244.235 107.084C243.022 106.258 244.65 119.811 244.94 121.178C248.281 136.89 252.822 152.288 255.902 168.079C258.543 181.619 260.624 195.325 263.81 208.755C264.658 212.33 265.22 215.481 265.22 219.129C265.22 225.741 264.054 232.462 264.554 239.213C264.797 242.491 267.424 250.75 271.914 246.26C273.499 244.675 276.059 243.63 278.256 244.851C280.369 246.024 281.911 246.981 278.452 248.178C272.429 250.263 269.017 253.274 265.924 259.297C263.152 264.695 259.582 271.339 259.582 277.462C259.582 287.928 256.486 297.288 253.24 307.216C252.432 309.685 249.389 316.049 251.83 318.491C254.007 320.667 258.134 320.958 260.443 323.267C261.887 324.71 263.024 325.916 264.828 326.947C267.134 328.264 263.105 342.549 263.105 345.621C263.105 350.955 267.62 351.139 271.875 352.355C272.528 352.542 273.395 364.524 273.676 365.548C274.951 370.2 274.396 375.43 276.338 379.799C277.351 382.077 277.537 384.743 280.018 385.984C283.269 387.61 281.438 391.489 280.566 389.508C278.966 385.872 271.974 384.968 268.665 383.988C260.762 381.646 253.001 379.393 244.862 378.037C239.373 377.122 234.102 376.98 228.576 376.98C225.152 376.98 222.284 374.911 218.593 375.649C216.243 376.119 202.045 381.913 200.388 376.941C198.974 372.699 199.236 368.058 193.537 367.78C182.068 367.22 170.657 367.114 159.164 367.114C150.344 367.114 144.726 368.989 137.318 373.104C136.316 373.661 131.519 375.99 132.895 374.709C137.07 370.822 143.199 369.042 148.241 366.566C151.873 364.783 154.86 362.341 158.263 360.224C163.266 357.111 168.415 352.737 169.93 346.678C170.307 345.169 170.489 342.278 169.382 341.041C168.418 339.964 166.668 339.527 166.015 338.222C165.045 336.282 165.318 329.029 166.25 327.299C166.984 325.935 167.365 324.57 167.933 323.149C167.983 323.025 167.902 324.53 167.816 324.833C167.344 326.485 165.806 327.704 164.645 328.865C160.017 333.493 154.959 338.264 151.412 343.781C150.143 345.756 150.407 344.484 151.451 343.155C156.885 336.239 162.341 329.18 167.581 322.053C171.428 316.822 175.357 311.811 179.952 307.216C182.87 304.298 183.037 298.367 184.024 294.531C185.303 289.557 183.315 291.606 180.109 293.826C178.536 294.915 174.555 300.755 177.055 297.976C182.721 291.681 189.093 286.842 195.847 281.847C198.504 279.881 201.171 277.749 202.502 274.643C205.012 268.787 204.616 262.903 204.616 256.635C204.616 253.194 204.422 252.358 207.435 250.684C210.287 249.099 214.046 243.754 215.891 241.131C220.355 234.789 223.913 227.141 225.091 219.482C225.496 216.852 226.598 214.031 227.127 211.652C227.684 209.145 222.926 210.673 221.176 210.673C218.072 210.673 216.963 211.985 215.539 214.549C213.502 218.216 214.223 211.552 214.521 209.616C214.978 206.646 217.201 206.933 218.71 209.029C222.568 214.386 223.407 223.728 225.013 230.052C228.169 242.479 229.985 254.001 229.985 266.774C229.985 282.869 229.447 299.3 228.419 315.359C228.003 321.857 227.204 328.191 225.757 334.542C225.591 335.272 223.896 340.811 223.486 340.493C221.638 339.055 214.593 340.311 212.368 340.336C207.37 340.392 203.68 341.804 199.683 344.721C199.207 345.068 196.656 347.847 196.003 347.774C194.28 347.583 198.89 342.841 199.135 342.607C205.402 336.612 219.851 333.058 227.714 337.674C231.94 340.154 234.559 343.957 239.146 346.13C241.861 347.416 243.968 346.107 245.332 349.654C246.318 352.219 247.45 354.678 248.307 357.249" stroke="#806B4D" stroke-width="50" stroke-linecap="round"/>
      <path d="M310.477 278.815C310.477 275.771 310.375 272.668 311.61 269.89C312.149 268.677 311.131 267.655 312.708 267.305C313.586 267.11 315.275 264.557 315.895 263.799C319.163 259.804 319.973 254.933 322.589 250.625C324.741 247.079 327.657 245.698 330.557 242.798C332.944 240.411 335.187 238.982 338.384 237.875C339.658 237.434 340.03 236.104 341.394 236.104C342.507 236.104 343.074 237.694 343.944 238.371C351.604 244.329 360.684 243.012 369.761 245.029C371.859 245.495 385.698 250.893 385.698 246.623C385.698 244.855 385.37 245.043 384.565 243.754C384.058 242.943 384.198 240.761 385.556 241.983C386.479 242.814 387.748 244.669 388.531 245.667C390.474 248.139 392.968 249.946 395.295 252.041C398.801 255.196 403.391 257.207 407.372 259.549C408.974 260.492 412.88 262.92 413.747 264.436C415.534 267.564 425.961 269.693 424.548 274.636C424.139 276.067 422.722 277.097 422.671 278.815C422.573 282.14 422.279 281.031 420.617 278.815C415.026 271.36 405.179 270.653 396.889 268.332C390.605 266.573 383.859 267.51 377.411 267.34C372.573 267.213 367.928 262.907 363.387 261.285C355.489 258.464 345.693 263.092 338.809 257.46C334.298 253.769 334.063 261.477 334.063 264.295C334.063 265.038 333.66 267.545 334.417 267.978C335.878 268.812 336.613 268.365 336.613 270.245C336.613 277.863 337.888 285.249 337.888 292.839C337.888 300.383 337.888 307.926 337.888 315.469C337.888 329.269 338.525 348.346 338.525 363.811C338.525 366.792 338.137 370.123 338.561 373.09C338.641 373.65 339.54 374.23 339.765 373.444C340.171 372.023 337.914 370.08 337.144 369.265C331.691 363.491 323.226 357.181 323.226 348.441C323.226 342.285 322.186 335.154 323.545 329.175C324.494 324.996 324.501 312.07 324.501 316.355C324.501 332.12 331.427 346.616 336.932 361.013C337.986 363.77 339.341 366.435 340.296 369.194C340.855 370.808 340.438 373.178 340.438 374.79C340.438 383.091 340.628 391.356 340.934 399.651C340.987 401.11 339.993 416.518 342.067 417.11C343.82 417.611 344.252 408.788 344.652 407.619C347.875 398.199 366.91 389.32 376.136 393.559C378.394 394.597 379.603 397.36 380.244 399.651C381.789 405.167 383.073 410.92 384.388 416.508C385.715 422.151 386.517 428.014 388.106 433.578C388.288 434.213 388.663 437.009 388.39 436.766C384.824 433.597 388.292 429.296 391.719 428.337C396.974 426.865 403.236 430.372 405.955 434.995C406.122 435.278 407.578 437.474 406.38 437.474C402.945 437.474 413.194 436.574 416.615 436.27C421.603 435.827 428.576 436.847 432.092 432.941C433.891 430.942 431.997 427.898 433.19 425.752C434.914 422.647 436.326 422.246 439.883 422.246C441.049 422.246 442.549 422.812 443.389 422.812C443.986 422.812 443.708 417.639 443.708 417.11C443.708 410.059 448.968 405.729 454.403 401.847C457.366 399.73 454.385 401.075 457.449 400.217C459.11 399.752 462.478 399.402 463.469 397.668C465.012 394.969 464.396 392.632 466.657 390.372C468.587 388.442 469.315 385.932 471.438 384.281C471.681 384.092 477.382 380.316 474.944 380.173C469.472 379.851 467.272 376.636 464.107 372.24C460.61 367.384 459.007 363.778 459.007 357.861C459.007 353.729 458.027 357.183 461.238 357.897C463.992 358.509 464.107 362.026 464.107 364.236C464.107 366.595 462.058 360.138 461.557 359.136C459.466 354.955 457.732 350.538 457.732 345.785C457.732 340.777 467.468 338.368 462.549 332.044C459.164 327.692 460.77 318.182 455.466 315.151C451.239 312.736 437.333 317.618 437.333 311.007C437.333 306.814 436.895 303.56 435.562 299.71C433.832 294.711 431.713 295.675 427.098 294.752C421.715 293.675 414.706 291.1 410.701 287.244C407.49 284.152 407.933 287.229 407.23 290.821C403.489 309.944 400.883 329.279 400.395 348.795C400.126 359.573 399.722 370.307 399.722 381.093C399.722 382.07 400.303 382.533 400.218 382.722C397.372 389.047 390.914 395.567 385.344 399.509C383.857 400.562 377.724 404.389 375.817 402.059C373.539 399.274 374.506 395.214 373.905 391.966C373.094 387.587 372.427 383.148 371.036 378.898C370.644 377.7 368.568 372.41 367.707 375.852C367.255 377.66 360.662 392.676 357.933 390.337C355.948 388.636 355.825 383.864 355.737 381.448C355.543 376.121 355.099 370.874 355.099 365.511C355.099 359.349 355.099 353.186 355.099 347.024C355.099 342.374 354.27 346.32 354.497 340.756C354.931 330.134 355.619 319.211 357.154 308.705C357.854 303.91 358.708 298.405 361.474 294.256C362.22 293.138 363.634 291.405 364.697 290.608C367.55 288.468 367.196 283.143 366.22 280.125C364.083 273.519 360.302 272.748 354.462 272.44C352.211 272.322 350.637 268.35 350.637 266.455C350.637 263.796 351.41 271.718 351.77 274.353C352.979 283.174 354.055 291.996 355.099 300.843C355.579 304.905 355.737 317.187 355.737 313.097C355.737 309.664 355.502 304.984 357.685 302.118C361.904 296.581 370.057 295.868 374.861 290.927C380.103 285.535 386.176 279.958 390.444 273.751C395.399 266.543 395.26 284.421 395.26 286.606C395.26 296.711 395.26 306.816 395.26 316.921C395.26 319.921 395.854 323.739 394.941 326.661C392.715 333.786 390.798 341.286 390.798 348.795C390.798 350.881 390.798 349.03 390.798 348.087C390.798 341.118 390.16 362.013 390.16 368.981C390.16 372.161 390.957 382.99 388.248 374.294C384.928 363.635 378.785 353.916 374.578 343.589C372.852 339.353 369.493 330.356 372.311 326.129C372.953 325.167 373.813 324.634 374.79 324.075C375.948 323.414 375.59 321.025 375.853 319.861C377.128 314.212 381.129 310.402 382.794 304.951C384.062 300.8 384.423 296.937 384.423 292.627C384.423 289.839 384.724 298.259 384.14 300.985C383.562 303.68 381.945 306.088 381.236 308.776C376.657 326.127 378.388 344.417 374.542 361.934C374.222 363.392 374.078 368.039 372.807 369.194C371.638 370.257 367.709 368.178 366.716 367.423C364.126 365.455 364.776 356.659 364.697 353.966C364.474 346.395 363.676 336.889 367.849 330.167C369.706 327.175 371.373 324.04 372.949 320.888C373.901 318.982 376.136 316.174 376.136 314.017C376.136 313.742 368.734 308.791 367.53 307.855C366.7 307.21 366.676 307.877 366.432 308.564C365.097 312.319 360.337 314.821 357.154 316.78C351.289 320.389 344.766 322.616 338.029 323.934C333.99 324.724 333.216 321.797 332.823 318.267C332.174 312.421 333.589 310.688 327.051 310.688C326.101 310.688 324.204 310.591 324.536 309.095C325.139 306.384 330.905 306.226 332.788 306.226C339.496 306.226 344.388 309.194 349.504 313.38C360.28 322.197 369.703 333.836 376.773 345.749C382.386 355.207 386.839 365.229 392.356 374.719C394.402 378.237 395.613 382.402 398.093 385.591C398.672 386.335 398.437 387.456 398.447 388.318C398.491 392.039 398.89 395.735 399.227 399.438C399.721 404.88 399.722 410.271 399.722 415.729C399.722 422.23 411.408 423.949 416.297 421.75C419.067 420.503 422.259 421.639 424.867 419.979C427.667 418.197 430.324 411.731 433.367 411.054C436.309 410.401 439.079 404.962 441.406 402.909C442.729 401.741 444.323 400.652 445.939 399.934C449.538 398.335 451.446 395.402 451.357 391.505C451.28 388.093 449.276 385.367 448.808 382.085C448.223 377.993 446.542 373.178 444.31 369.69C440.82 364.237 438.876 360.385 437.829 353.895C437.352 350.938 436.395 347.593 435.102 344.864C434.463 343.514 432.715 345.678 434.819 343.837C439.17 340.03 444.719 337.878 443.566 331.087C443.429 330.278 440.212 324.162 439.918 325.775C439.278 329.296 440.671 334.212 441.831 337.498C442.59 339.647 449.311 360.411 447.533 360.411C446.131 360.411 444.345 358.288 444.345 360.553C444.345 368.461 443.244 375.939 441.441 383.643C440.687 386.864 439.6 390.583 438.112 393.559C437.253 395.279 435.741 394.834 434.004 394.834C424.89 394.834 421.141 401.036 413.747 404.538C408.728 406.916 415.074 394.953 416.297 393.595C421.357 387.972 425.482 382.253 426.354 374.506C426.814 370.429 426.272 366.365 425.823 362.323C425.793 362.049 424.397 357.765 424.902 357.967C426.623 358.656 425.065 369.738 424.159 371.248C421.754 375.255 417.61 376.924 413.109 376.985C408.115 377.054 404.967 377.559 404.539 371.992C403.97 364.598 406.82 356.922 412.684 352.23C414.297 350.94 416.797 349.705 416.934 347.378C416.961 346.926 417.316 344.364 417.713 346.033C418.673 350.064 418.633 354.251 418.988 358.357C419.072 359.325 419.409 369.306 420.44 369.513C420.885 369.602 420.759 362.026 420.759 361.828C420.759 356.582 421.328 351.864 422.317 346.741C423.138 342.489 424.584 338.747 424.584 334.416C424.584 329.994 423.177 326 422.813 321.596C422.439 317.074 422.184 312.552 421.75 308.032C421.539 305.828 421.954 302.699 421.078 300.595C419.902 297.773 420.522 306.775 421.148 309.768C422.682 317.095 424.057 324.087 424.725 331.583C424.945 334.049 426.664 340.784 423.167 341.783C412.883 344.721 416.152 331.552 414.986 326.306C413.953 321.656 413.328 316.443 411.834 311.963" stroke="#FAFAFA" stroke-width="20" stroke-linecap="round"/>
      <path d="M205 207.936C207.714 207.936 220.07 205.124 222.646 204.319C226.273 203.186 230.414 203.72 234.206 203.72C237.603 203.72 241.096 203.539 244.413 204.142C247.88 204.772 251.053 205.717 254.575 205.717C258.566 205.717 262.298 205.79 266.157 204.719C267.82 204.257 269.521 204.104 271.149 203.742C272.75 203.386 274.483 206.197 275.742 206.826C278.108 208.009 279.621 208.569 281.333 210.709C283.228 213.078 284.159 215.228 287.235 216.411C290.653 217.726 294.994 218.897 298.684 218.897C300.156 218.897 301.627 218.897 303.099 218.897C304.437 218.897 305.561 220.021 306.893 220.095C308.109 220.162 309.795 220.619 310.976 220.982C313.69 221.817 316.484 221.522 319.296 221.892C322.645 222.333 326.103 222.092 329.48 222.092C331.203 222.092 331.566 220.442 332.653 218.897C335.478 214.883 335.577 212.354 338 208.113C339.908 204.774 343.528 199.847 343.636 195.954C343.763 191.387 344.266 186.036 343.436 181.555C342.972 179.048 343.313 176.484 342.86 173.989C342.527 172.158 341.375 170.968 340.752 169.285C339.259 165.255 334.56 164.22 332.653 160.787C331.444 158.611 329.375 157.325 327.572 155.883C327.006 155.431 324.33 155.736 323.667 155.883C321.077 156.459 318.414 156.851 315.879 157.414C314.766 157.662 313.392 157.504 312.307 157.814C310.064 158.455 306.991 160.942 305.385 162.673C303.689 164.498 303.598 168.642 303.21 170.971C302.666 174.236 302.107 177.488 301.502 180.756C301.026 183.322 300.58 185.777 299.505 188.167C298.572 190.239 296.592 193.118 296.509 195.422C296.382 198.979 295.941 203.524 299.793 205.229C301.477 205.974 303.32 206.143 305.096 206.538C307.365 207.042 309.232 208.113 311.641 208.113C312.573 208.113 313.557 208.211 314.481 208.113C316.518 207.899 316.434 201.893 316.434 200.769C316.434 193.494 314.962 186.063 312.263 179.314C311.339 177.005 310.02 174.304 310.088 171.77C310.173 168.642 314.573 168.975 316.567 169.773C323.273 172.455 327.276 178.352 329.813 185.082C331.038 188.332 331.953 192.741 330.634 196.132C329.284 199.604 326.793 202.159 322.957 200.836C322.059 200.526 321.335 199.054 322.114 201.058C322.839 202.921 324.932 208.443 323.756 206.826C323.33 206.241 323.251 204.713 323.09 204.075C322.137 200.292 321.465 196.485 320.894 192.626C320.129 187.464 320.073 182.385 320.073 177.184C320.073 171.572 319.274 166.121 319.274 160.498C319.274 159.496 319.673 158.61 319.673 157.614C319.673 155.924 318.765 157.731 318.032 158.368C313.615 162.207 308.818 165.895 304.186 169.484C303.454 170.052 301.313 171.09 300.903 172.014C299.24 175.756 298.024 180.143 295.688 183.529C294.104 185.826 291.904 186.459 290.119 188.144C287.864 190.275 287.291 188.183 287.013 185.437C286.813 183.459 287.198 181.158 287.346 179.158C287.476 177.401 288.598 176.043 288.899 174.388C289.1 173.285 289.793 171.433 290.519 170.572C290.985 170.018 292.766 168.22 293.492 168.22C293.829 168.22 293.109 168.78 292.871 169.019C291.956 169.933 291.075 170.91 290.031 171.681C288.604 172.734 287.203 173.787 285.748 174.787C282.827 176.796 282.201 180.215 280.224 182.952C279.157 184.43 278.149 185.994 276.94 187.346C276.164 188.213 275.564 190.962 274.322 191.317C272.768 191.761 270.77 189.627 269.574 188.943C269.322 188.799 268.846 187.922 268.642 187.922C268.582 187.922 268.373 188.859 268.331 188.943C268.035 189.536 267.515 189.998 267.044 190.452C264.551 192.852 258.183 192.48 254.974 192.537C252.248 192.586 249.531 193.026 246.986 193.935C245.524 194.458 244.127 195.161 242.571 195.355C239.913 195.688 237.308 195.597 234.606 195.733C232.653 195.83 230.657 196.856 228.704 196.931C227.307 196.984 223.112 196.931 224.51 196.931C229.621 196.931 234.548 197.217 239.709 196.753C252.67 195.587 265.617 193.836 278.515 192.116C291.514 190.383 304.504 188.206 317.499 186.636C322.957 185.976 327.831 186.407 331.965 190.452C335.204 193.62 337.112 197.844 339.665 201.546C340.018 202.058 337.14 204.935 338 204.075C340.742 201.333 354.722 194.154 358.214 192.626C362.184 190.889 373.33 192.626 377.583 192.626C381.165 192.626 383.212 196.598 386.37 197.5C388.787 198.191 385.004 206.681 387.612 206.826C387.612 209.6 390.859 213.458 392.139 215.102C393.314 216.614 396.229 219.695 398.351 219.695C399.653 219.695 402.011 218.464 403.055 217.61C404.71 216.256 404.859 214.477 405.562 212.484C406.119 210.906 406.738 209.488 406.738 207.803C406.738 206.96 406.651 206.121 406.938 205.318C407.453 203.875 407.936 201.734 407.936 200.214C407.936 197.293 408.977 193.928 408.358 191.14C407.943 189.272 408.156 187.547 407.359 185.726C406.032 182.692 404.727 179.406 402.833 176.651C400.293 172.957 398.471 169.015 397.53 164.781C397.116 162.917 394.708 159.633 392.36 160.676C391.123 161.226 389.757 160.847 388.455 161.297C386.957 161.816 386.731 163.014 385.771 163.782C383.169 165.863 382.612 169.25 382.065 172.258C381.378 176.039 380.413 180.298 380.801 184.173C381.057 186.734 382.403 190.926 383.796 193.114C385.552 195.874 388.77 198.388 391.473 200.126C392.294 200.653 393.87 201.743 394.912 201.279C395.365 201.078 395.182 199.368 395.2 199.105C395.432 195.749 396.079 192.438 396.265 189.076C396.497 184.907 395.432 180.84 393.204 177.295C392.08 175.507 389.513 174.728 387.612 173.989C386.752 173.654 386.341 173.226 386.37 174.344C386.436 176.94 386.86 179.535 387.146 182.109C387.432 184.684 386.745 186.087 384.772 183.662C383.141 181.659 382.31 179.56 381.089 177.361C379.916 175.25 379.646 178.347 379.381 178.559C378.344 179.389 379.093 185.024 379.381 186.347C379.847 188.491 379.818 189.742 377.583 189.742C375.999 189.742 373.981 190.098 372.48 189.653C371.691 189.419 370.795 189.343 370.195 188.743C369.686 188.235 369.536 187.378 368.997 186.946C367.927 186.09 367.826 185.53 366.401 185.326C364.948 185.119 363.45 185.018 362.008 185.659C360.863 186.168 359.339 185.323 358.214 185.948C357.575 186.303 352.734 187.789 354.419 186.946" stroke="#66563D" stroke-width="20" stroke-linecap="round"/>
      <path d="M338.619 53.5C340.757 53.7375 345.256 57.559 346.119 59.5C346.984 61.445 348.704 66.4179 350.119 68C354.26 72.6275 352.144 78.6967 355.915 83.6738C357.248 85.4339 358.528 87.7997 360.291 89.1708C361.863 90.3939 364.351 92.3503 365.317 94.0891C367.851 98.6488 369.729 100.297 369.729 105.806C369.729 108.057 370.402 109.083 372.008 110.688C373.052 111.733 377.466 114.951 377.541 116.222C377.801 120.645 375.307 124.362 380.145 126.782C382.133 127.775 381.447 130.165 381.447 132.17C381.447 134.328 382.456 135.546 384.05 137.052C385.833 138.736 388.096 139.975 389.62 141.934C391.328 144.131 391.211 145.347 391.211 148.118" stroke="#323232" stroke-width="3" stroke-linecap="round"/>
      <path d="M391.211 148.118C395.808 148.118 398.268 152.319 400.179 155.93C401.956 159.285 405.51 161.878 407.484 165.333C409.549 168.946 409.891 173.713 411.535 177.411C412.992 180.691 414.645 184.524 414.645 188.152C414.645 192.88 415.296 197.592 415.296 202.148C415.296 204.735 415.639 207.556 414.5 209.959C413.852 211.329 412.456 213.554 412.077 214.877C411.049 218.476 408.502 223.183 405.676 225.727C404.281 226.983 402.932 227.535 400.975 227.535C398.867 227.535 397.288 226.233 395.442 226.233C393.633 226.233 392.787 224.28 390.885 224.28C389.218 224.28 388.199 222.652 386.979 221.676C384.026 219.314 383.759 214.983 380.144 213.069C375.578 210.652 377.542 203.973 375.262 199.869C373.283 196.307 369.956 191.915 369.729 187.827C369.487 183.476 369.078 179.009 369.078 174.482C369.078 170.494 372.317 165.437 374.141 161.788C378.035 154.002 383.522 148.769 392.513 148.769" stroke="#323232" stroke-width="3" stroke-linecap="round"/>
      <path d="M381.126 197.023C381.126 194.402 379.9 191.893 379.9 189.255C379.9 187.146 379.219 185.082 379.219 182.986C379.219 181.616 379.056 180.131 379.226 178.769C379.332 177.919 379.586 177.064 379.627 176.203C379.675 175.2 380.229 174.063 380.521 173.106C380.644 172.7 380.896 171.177 381.263 170.994" stroke="#323232" stroke-width="3" stroke-linecap="round"/>
      <path d="M381.262 171.266C381.262 169.026 382.598 167.095 383.336 165.028C383.776 163.796 383.953 162.34 384.601 161.189C385.071 160.353 385.843 159.598 386.509 158.933C387.539 157.902 390.428 157.5 391.68 158.524C392.015 158.798 392.46 158.888 392.777 159.205C393.118 159.546 393.459 159.887 393.8 160.227C394.62 161.048 395.218 161.891 395.844 162.847C396.615 164.026 397.026 165.674 397.555 166.973C398.152 168.439 398.927 169.952 399.281 171.508C399.969 174.537 401.634 177.248 402.385 180.253C402.986 182.657 403.786 185.095 404.164 187.552C404.518 189.853 404.373 192.221 405.111 194.434" stroke="#323232" stroke-width="3" stroke-linecap="round"/>
      <path d="M404.975 194.434C404.975 197.248 404.975 200.062 404.975 202.876C404.975 203.966 404.975 205.056 404.975 206.146C404.975 206.723 404.687 207.289 404.43 207.789C403.827 208.963 403.117 210.08 402.416 211.196C401.724 212.296 401.114 213.289 400.583 214.467C400.284 215.132 400.044 216.007 399.599 216.579C399.328 216.929 399.153 217.752 398.638 217.866C397.989 218.011 396.847 217.336 396.253 217.056C394.409 216.189 392.458 215.225 391.415 213.369C390.848 212.362 390.16 211.411 389.643 210.379C389.107 209.306 388.356 208.118 388.046 206.972C387.853 206.258 387.43 205.555 387.046 204.927C386.747 204.438 386.209 203.969 386.001 203.459C385.59 202.448 384.771 201.604 384.192 200.703C383.759 200.029 383.086 199.459 382.761 198.727C382.526 198.197 382.242 197.47 381.943 197.023" stroke="#323232" stroke-width="3" stroke-linecap="round"/>
      <path d="M381.262 172.629C382.67 172.629 384.078 172.629 385.486 172.629C387.233 172.629 389.145 172.401 390.862 172.697C393.462 173.145 396.223 173.447 398.842 173.447" stroke="#323232" stroke-width="3" stroke-linecap="round"/>
      <path d="M380.035 181.624C382.817 181.624 385.643 181.472 388.416 181.692C391.15 181.909 393.774 182.305 396.525 182.305C398.568 182.305 400.792 182.504 402.521 181.351" stroke="#323232" stroke-width="3" stroke-linecap="round"/>
      <path d="M381.943 192.39C386.646 192.39 391.347 192.253 396.041 192.253C398.562 192.253 401.218 192.137 403.612 192.935" stroke="#323232" stroke-width="3" stroke-linecap="round"/>
      <path d="M386.578 200.975C392.348 200.975 409.655 200.839 403.886 200.839" stroke="#323232" stroke-width="3" stroke-linecap="round"/>
      <path d="M389.576 208.607C392.931 208.607 396.222 208.721 399.517 208.062C400.976 207.77 402.397 207.789 403.886 207.789" stroke="#323232" stroke-width="3" stroke-linecap="round"/>
      <path d="M383.855 164.885H395.103" stroke="#323232" stroke-width="3" stroke-linecap="round"/>
      <path d="M351.193 175.433C354.647 175.433 357.685 173.88 361.09 173.88C363.763 173.88 366.589 173.492 369.435 173.492" stroke="#323232" stroke-width="3" stroke-linecap="round"/>
      <path d="M326.618 234C326.618 231.81 324.908 235.203 340.118 224C342.533 222.721 364.858 236.002 367.618 235.5C369.506 235.156 373.654 234.361 375.118 235.5C376.009 236.193 388.545 225.463 389.618 226C390.804 226.593 400.884 243.588 402.118 244" stroke="#323232" stroke-width="3" stroke-linecap="round"/>
      <path d="M390.004 225.5C391.779 225.697 393.207 229.104 394.575 230.157C395.885 231.164 396.4 233.134 397.982 234.038C399.915 235.143 400.813 238.525 402.122 240.162C402.35 240.447 402.424 241.225 402.424 240.981C402.424 239.948 402.776 239.017 402.812 238.005C402.866 236.474 403.363 235.223 403.976 233.844C405.054 231.418 405.14 229.763 405.14 227.052" stroke="#323232" stroke-width="3" stroke-linecap="round"/>
      <path d="M349.641 176.597C349.641 172.761 349.253 168.872 349.253 165.147C349.253 163.385 348.685 160.723 347.701 159.218C346.655 157.619 344.83 156.577 343.647 155.057C341.481 152.271 339.002 150.045 336.445 147.488C332.949 143.992 329.729 143.219 324.802 143.219C318.827 143.219 313.679 147.922 308.329 149.45C307.499 149.687 306.232 151.422 305.871 152.146C304.777 154.333 302.145 155.908 300.566 157.773C299.537 158.989 299.002 160.43 298.108 161.547C297.363 162.478 296.41 163.864 295.866 164.953C294.481 167.724 292.381 170.62 292.2 173.88C292.055 176.488 290.016 178.654 289.872 181.254C289.715 184.068 288.707 186.7 288.707 189.599C288.707 192.122 288.183 195.292 288.729 197.749C289.018 199.051 289.422 200.859 290.066 202.018C290.761 203.271 290.591 205.246 291.51 206.395C293.122 208.41 294.634 210.446 296.383 212.39C298.106 214.303 299.133 217.026 300.265 219.29C301.421 221.602 305.252 223.171 307.725 223.171" stroke="#323232" stroke-width="3" stroke-linecap="round"/>
      <path d="M305.008 222.783C306.054 222.913 309.526 225.682 310.14 226.664C311.203 228.365 314.2 227.976 315.681 228.798C319.162 230.732 323.405 230.933 327.324 230.933C331.797 230.933 336.347 228.702 338.688 224.723C339.751 222.916 341.68 221.496 342.849 219.678C343.735 218.299 344.679 216.94 345.544 215.581C346.175 214.59 346.284 213.264 346.924 212.303" stroke="#323232" stroke-width="3" stroke-linecap="round"/>
      <path d="M346.924 211.915C346.924 207.841 348.435 204.345 350.417 200.876C351.8 198.456 353.134 195.365 353.134 192.51C353.134 188.952 353.134 185.394 353.134 181.837C353.134 180.229 353.228 178.59 353.134 176.985C353.08 176.078 352.017 173.128 351.193 172.716" stroke="#323232" stroke-width="3" stroke-linecap="round"/>
      <path d="M320.92 153.698C324.742 153.698 328.22 156.428 330.623 159.132C331.845 160.507 332.382 161.748 334.116 162.711C336.11 163.819 336.216 165.057 337.135 166.894C338.681 169.987 340.417 173.116 341.792 176.209C342.132 176.975 342.445 177.901 342.676 178.71C342.839 179.281 342.873 180.29 343.129 180.866C343.791 182.356 343.108 184.103 343.819 185.524" stroke="#323232" stroke-width="3" stroke-linecap="round"/>
      <path d="M343.818 184.747C343.818 187.075 343.927 189.158 343.236 191.367C342.267 194.469 341.28 197.768 340.627 200.962C339.732 205.338 338.778 208.417 335.474 211.721C332.969 214.226 331.324 218.469 328.294 220.152C326.764 221.002 325.541 222.424 323.83 222.804C321.768 223.262 320.802 222.943 318.806 222.373C317.274 221.935 315.807 220.812 314.322 220.152C313.141 219.627 310.486 219.347 309.664 218.319C309.244 217.794 308.427 217.276 307.918 216.767C306.801 215.65 306.349 214.046 305.093 213.08C303.346 211.736 302.014 208.819 301.039 206.87C300.256 205.303 298.802 204.274 298.387 202.407C297.944 200.414 297.504 197.682 296.662 195.83C296.139 194.679 295.912 186.384 296.856 185.912" stroke="#323232" stroke-width="3" stroke-linecap="round"/>
      <path d="M296.857 185.912C296.857 184.022 297.246 182.097 297.246 180.284C297.246 178.388 298.877 177.195 299.574 175.627C299.992 174.686 301.097 174.239 301.515 173.298C301.966 172.283 302.84 171.242 303.455 170.301C304.412 168.838 305.288 167.238 306.086 165.73C306.856 164.274 308.357 163.157 309.471 162.043C310.828 160.686 313.426 158.975 314.323 157.407C315.048 156.137 317.731 155.61 318.98 154.949C320.39 154.202 321.144 153.698 322.861 153.698" stroke="#323232" stroke-width="3" stroke-linecap="round"/>
      <path d="M311.605 161.461C313.196 161.461 314.373 160.296 316.069 160.296C317.679 160.296 319.233 159.132 320.726 159.132C324.13 159.132 327.827 159.52 331.011 159.52" stroke="#323232" stroke-width="3" stroke-linecap="round"/>
      <path d="M303.844 169.223C307.558 169.223 311.09 168.234 314.495 167.261C315.391 167.005 316.026 166.118 317.04 166.118C318.118 166.118 319.29 165.73 320.533 165.73C323.002 165.73 325.625 164.954 328.101 164.954C330.624 164.954 333.146 164.954 335.669 164.954" stroke="#323232" stroke-width="3" stroke-linecap="round"/>
      <path d="M300.738 176.597C304.772 176.597 308.738 176.307 312.576 175.454C315.559 174.791 318.598 173.88 321.696 173.88C324.607 173.88 327.634 173.104 330.429 173.104C332.24 173.104 334.051 173.104 335.863 173.104C336.945 173.104 339.033 173.749 339.162 173.492" stroke="#323232" stroke-width="3" stroke-linecap="round"/>
      <path d="M298.02 186.221C299.004 186.221 300.062 186.334 301.03 186.145C302.083 185.941 303.097 185.576 304.147 185.37C305.505 185.104 306.88 184.868 308.146 184.306C308.786 184.021 309.513 184.031 310.191 183.895C310.731 183.787 311.295 183.516 311.841 183.485C313.09 183.413 314.238 182.664 315.505 182.664C316.429 182.664 317.371 182.39 318.303 182.39C319.377 182.39 320.452 182.39 321.526 182.39C322.476 182.39 323.354 182.664 324.293 182.664C324.911 182.664 325.977 182.6 326.483 182.937" stroke="#323232" stroke-width="3" stroke-linecap="round"/>
      <path d="M326.482 182.937C328.17 182.937 329.858 182.937 331.546 182.937C333.011 182.937 334.64 182.748 336.061 183.143C337.526 183.55 339.021 183.634 340.501 183.903C341.276 184.044 341.954 184.443 342.767 184.443" stroke="#323232" stroke-width="3" stroke-linecap="round"/>
      <path d="M298.156 194.158C301.584 194.158 305.036 194.314 308.412 193.892C310.551 193.625 312.613 192.927 314.783 192.927C316.553 192.927 318.277 193.138 320.021 193.2C320.829 193.229 321.62 193.337 322.446 193.337C322.87 193.337 324.525 193.118 324.704 193.474" stroke="#323232" stroke-width="3" stroke-linecap="round"/>
      <path d="M324.566 193.474C326.253 193.474 327.913 193.462 329.561 193.208C331.224 192.952 333.02 192.7 334.693 192.653C336.268 192.609 337.92 192.458 339.482 192.235C339.917 192.173 342.356 192.27 342.356 191.832" stroke="#323232" stroke-width="3" stroke-linecap="round"/>
      <path d="M300.619 203.737C302.502 203.737 304.385 203.737 306.268 203.737C307.415 203.737 308.642 203.858 309.78 203.669C310.648 203.524 311.528 203.685 312.388 203.494C313.24 203.305 314.125 203.415 314.988 203.319C315.718 203.238 316.408 203.053 317.147 203.053C318.846 203.053 320.56 202.643 322.271 202.643C323.889 202.643 325.44 202.095 327.03 202.095" stroke="#323232" stroke-width="3" stroke-linecap="round"/>
      <path d="M326.756 202.232C328.218 202.232 329.897 202.452 331.272 201.89C332.741 201.289 334.417 201.351 335.924 200.932C336.62 200.739 337.864 200.79 338.418 200.347C338.765 200.069 339.893 200.686 339.893 200.043" stroke="#323232" stroke-width="3" stroke-linecap="round"/>
      <path d="M304.588 210.443C306.286 210.443 307.963 210.434 309.651 210.587C310.888 210.7 312.147 210.976 313.376 211.157C315.907 211.531 318.311 211.674 320.872 211.674C322.002 211.674 323.166 211.917 324.293 211.948C325.568 211.983 326.849 211.948 328.125 211.948C330.002 211.948 331.899 212.085 333.735 212.085" stroke="#323232" stroke-width="3" stroke-linecap="round"/>
      <path d="M312.936 219.064C316.368 219.064 319.659 218.243 323.092 218.243C324.242 218.243 325.395 218.337 326.513 218.38C326.926 218.395 327.608 218.241 327.988 218.41C328.284 218.541 329.083 218.93 329.083 218.38" stroke="#323232" stroke-width="3" stroke-linecap="round"/>
      <path d="M306.066 150.048C304.146 150.048 300.443 150.491 298.953 151.981C297.255 153.678 296.421 156.215 294.391 157.876C292.137 159.721 290.178 162.164 289.365 165.009C288.726 167.245 286.937 169.618 286.601 171.968C286.024 176.009 284.724 179.666 284.494 183.798C284.421 185.104 283.955 185.362 285.538 184.571C286.184 184.248 287.918 183.755 287.2 185.189C286.991 185.607 286.472 186.154 286.156 186.504C285.876 186.816 286.053 187.303 285.808 187.548C285.563 187.793 283.235 187.733 284.146 187.277" stroke="#323232" stroke-width="3" stroke-linecap="round"/>
      <path d="M284.494 185.885C284.494 190.609 284.842 195.104 284.842 199.803C284.842 200.243 285.015 202.542 285.267 202.857C285.96 203.723 285.3 205.272 285.615 206.336C285.964 207.514 286.1 209.033 286.234 210.241C286.35 211.286 287.421 212.423 287.896 213.373C288.953 215.486 291.061 216.958 292.226 218.94C293.306 220.776 295.814 221.658 296.943 223.463C298.168 225.423 300.604 225.488 302.239 226.942C303.322 227.905 306.793 228.682 308.154 228.682" stroke="#323232" stroke-width="3" stroke-linecap="round"/>
      <path d="M308.154 229.03C311.276 229.03 313.584 232.509 316.679 232.509C318.101 232.509 319.408 233.205 320.854 233.205C322.42 233.205 323.985 233.205 325.551 233.205" stroke="#323232" stroke-width="3" stroke-linecap="round"/>
      <path d="M284.147 173.012C283.36 173.012 280.679 172.585 280.049 173.089C278.974 173.949 279.697 176.178 280.513 176.994C282.941 179.421 287.048 174.751 282.755 174.751" stroke="#323232" stroke-width="3" stroke-linecap="round"/>
      <path d="M279.722 192.077C279.722 192.819 280.414 193.315 280.835 193.855C281.157 194.27 281.303 194.862 281.303 195.37C281.303 196.227 281.101 196.224 280.454 196.753C280.202 196.959 280.008 197.29 279.722 197.449C279.451 197.599 279.188 197.525 278.932 197.639C277.602 198.23 276.824 195.975 276.824 194.975C276.824 194.568 276.85 193.132 277.417 193.006C277.707 192.942 278.808 192.882 278.932 193.131" stroke="#323232" stroke-width="3" stroke-linecap="round"/>
      <path d="M283.939 210.125C282.955 210.125 281.477 210.87 281.07 211.837C280.637 212.864 280.619 215.046 281.465 215.892C281.973 216.399 282.987 216.184 283.646 216.184C284.2 216.184 284.923 215.845 285.256 215.365C285.745 214.659 286.046 214.028 286.046 213.154C286.046 212.375 284.923 211.622 284.202 211.442" stroke="#323232" stroke-width="3" stroke-linecap="round"/>
      <path d="M290.129 226.723C290.543 226.723 290.872 226.944 291.263 227.045C291.903 227.211 292.525 227.299 293.159 227.514C294.313 227.906 295.574 228.389 296.782 228.568C298.066 228.758 299.31 229.284 300.595 229.49C301.803 229.683 303.026 230.099 304.225 230.383C305.164 230.605 306.109 231.017 307.02 231.334C308.289 231.775 309.659 231.868 310.936 232.315C312.2 232.757 313.85 232.783 315.159 232.783" stroke="#323232" stroke-width="3" stroke-linecap="round"/>
      <path d="M279.591 222.508C280.68 222.508 281.97 222.316 283.016 222.639C283.766 222.871 284.528 223.066 285.255 223.364C285.932 223.641 286.46 224.015 287.1 224.352C287.831 224.738 288.264 225.486 288.812 226.065C288.981 226.243 289.992 227.382 289.134 227.382C286.959 227.382 284.678 227.675 282.591 228.304C281.325 228.686 280.064 229.691 279.327 230.778C278.963 231.314 278.273 232.162 278.273 232.849C278.273 233.136 278.594 233.031 278.771 233.208C279.032 233.469 279.265 233.894 279.386 234.24C279.664 235.034 279.528 236.183 279.195 236.933C278.874 237.657 277.577 237.997 276.883 238.045C275.346 238.151 273.725 238.11 272.184 238.053C270.705 237.998 270.888 235.071 270.896 234.262C270.908 233.038 271.134 230.939 272.733 230.939C274.248 230.939 276.403 232.073 277.088 233.442" stroke="#323232" stroke-width="3" stroke-linecap="round"/>
      <path d="M275.639 230.939C276.256 230.87 277.188 230.084 277.673 229.687C278.314 229.163 278.752 228.364 278.991 227.58C279.556 225.721 279.591 223.512 279.591 221.586" stroke="#323232" stroke-width="3" stroke-linecap="round"/>
      <path d="M279.591 221.586C279.591 220.744 278.915 220.036 278.698 219.214C278.48 218.384 278.137 217.619 277.849 216.814C277.2 214.995 276.563 213.164 275.903 211.339C275.077 209.058 275.108 206.512 274.293 204.196C273.807 202.818 273.795 201.686 273.795 200.244" stroke="#323232" stroke-width="3" stroke-linecap="round"/>
      <path d="M273.794 200.244C273.794 198.213 273.536 196.269 273.406 194.25C273.285 192.379 273.496 190.505 273.531 188.652C273.568 186.669 273.767 184.752 274.058 182.789C274.322 181.006 275.209 179.243 276.034 177.652C276.572 176.613 277.069 175.587 277.614 174.556C278.193 173.464 278.699 172.314 279.195 171.197C279.322 170.912 279.616 170.651 279.825 170.443C280.084 170.183 280.18 169.635 280.381 169.316C280.729 168.764 281.25 167.337 281.83 167.047" stroke="#323232" stroke-width="3" stroke-linecap="round"/>
      <path d="M281.963 167.31C282.937 167.31 283.919 167.206 284.861 167.179C285.672 167.156 286.431 166.915 287.232 166.915" stroke="#323232" stroke-width="3" stroke-linecap="round"/>
      <path d="M295.267 155.191C294.627 155.191 293.969 155.1 293.394 155.425C292.699 155.818 292.098 156.317 291.447 156.772C290.521 157.418 289.612 158.129 288.651 158.718C287.442 159.46 286.523 160.563 285.255 161.221C284.248 161.744 283.21 162.339 282.255 162.963C281.198 163.654 279.459 163.928 279.459 165.466C279.459 166.017 281.798 167.703 281.962 167.047" stroke="#323232" stroke-width="3" stroke-linecap="round"/>
      <path d="M278.669 167.969C277.371 169.411 276.048 171.099 274.454 172.25C271.227 174.581 268.262 177.302 264.998 179.562C264.194 180.118 263.391 180.656 262.539 181.143C262.136 181.373 261.982 182.855 261.946 183.25C261.811 184.739 261.601 186.253 261.383 187.729C261.122 189.491 261.28 191.348 261.28 193.131" stroke="#323232" stroke-width="3" stroke-linecap="round"/>
      <path d="M261.412 192.999C261.412 194.029 261.412 195.058 261.412 196.088C261.412 197.089 261.702 197.958 261.8 198.934C261.985 200.782 262.071 202.662 262.071 204.526C262.071 206.969 262.056 209.378 262.861 211.706C263.069 212.307 263.353 212.849 263.622 213.418C263.795 213.782 263.748 214.329 264.179 214.472" stroke="#323232" stroke-width="3" stroke-linecap="round"/>
      <path d="M264.311 214.208C265.057 214.208 265.795 214.55 266.484 214.794C267.55 215.172 268.642 215.433 269.712 215.789C270.315 215.99 271.053 216.188 271.556 216.58C272.129 217.025 272.976 217.106 273.466 217.634C274.378 218.616 275.751 218.995 276.818 219.741C277.793 220.424 278.948 221.191 280.119 221.191" stroke="#323232" stroke-width="3" stroke-linecap="round"/>
      <path d="M260.754 182.724C259.778 182.724 258.802 182.724 257.826 182.724C256.591 182.724 255.396 183.119 254.167 183.119C252.761 183.119 251.54 183.71 250.215 184.041" stroke="#323232" stroke-width="3" stroke-linecap="round"/>
      <path d="M262.861 214.999C262.456 214.638 261.448 215.119 261.017 215.262C260.361 215.481 259.415 215.626 258.836 215.994C257.886 216.599 256.637 216.448 255.55 216.448C254.122 216.448 252.922 216.604 251.664 215.921C251.341 215.746 251.087 215.47 250.742 215.336C250.462 215.227 250.152 215.213 249.885 215.065C249.505 214.854 249.016 214.848 248.766 214.472" stroke="#323232" stroke-width="3" stroke-linecap="round"/>
      <path d="M257.197 184.041C257.197 187.047 257.197 190.052 257.197 193.058C257.197 195.614 257.304 198.256 256.867 200.779C256.361 203.707 255.513 206.552 255.089 209.495C254.896 210.836 254.694 212.324 254.694 213.682C254.694 214.14 254.595 214.34 255.089 214.34" stroke="#323232" stroke-width="3" stroke-linecap="round"/>
      <path d="M339.119 53.5C335.049 53.5 327.666 40.5261 323.619 40.5261C319.319 40.5261 317.721 38.9802 313.793 39.5845C306.772 40.6648 300.794 37.9986 294.615 35.1741C285.205 30.8724 275.282 34.2821 265.229 34.2821C258.24 34.2821 253.294 31.4986 248.033 36.7599C244.013 40.7801 240.612 40.5261 235.297 40.5261C231.397 40.5261 230.399 48.5 226.619 48.5C221.983 48.5 213.051 60.636 211.119 64.5" stroke="#323232" stroke-width="3" stroke-linecap="round"/>
      <path d="M173.367 259.941C173.367 253.712 175.219 245.773 179.116 240.763C181.653 237.5 183.039 236.115 186.301 233.577C192.402 228.832 199.875 231.416 201.961 222.031C202.513 219.546 208.568 218.226 208.651 216.728C208.841 213.297 206.055 204.14 208.353 201.267C210.582 198.481 220.748 196.294 217.273 191.95C216.37 190.82 216.183 184.386 216.183 182.783C216.183 179.688 215.816 176.696 217.075 173.862C217.741 172.364 219.955 168.972 221.089 168.064C222.032 167.31 223.04 161.07 223.369 159.59C225.081 151.887 229.558 144.573 231.545 136.844C232.671 132.466 232.075 121.68 237.591 121.68" stroke="#323232" stroke-width="3" stroke-linecap="round"/>
      <path d="M274.165 76.1882C274.165 86.11 269.503 95.4218 264.551 103.84C262.617 107.128 257.003 107.714 253.649 109.39C245.684 113.373 240.478 131.151 230.457 126.14" stroke="#323232" stroke-width="3" stroke-linecap="round"/>
      <path d="M198.457 204.897C197.671 204.111 197.257 202.939 196.525 202.207C196.099 201.781 195.376 201.261 195.376 200.605C195.376 199.733 195.328 199.013 195.144 198.184C194.993 197.508 194.335 196.29 194.985 196.314C195.803 196.344 195.684 198.184 196.525 198.184C196.99 198.184 196.501 196.534 196.036 196.534C194.95 196.534 194.497 197.323 193.713 197.964C192.731 198.768 191.132 198.831 189.971 199.163C189.207 199.381 188.951 200.467 188.113 200.887C187.546 201.17 187.023 201.511 186.462 201.804C185.998 202.046 185.002 202.016 184.64 202.305C183.973 202.839 182.564 202.228 182.048 203.039C181.498 203.903 181.203 204.854 180.678 205.729C180.342 206.289 179.889 207.603 179.419 207.979C178.832 208.448 177.209 208.334 176.447 208.419C175.844 208.486 175.091 209.503 174.638 209.911C173.854 210.616 172.968 211.221 171.948 211.513C170.628 211.89 171.87 212.425 172.376 212.931C172.904 213.459 174.227 214.242 174.907 214.582" stroke="#66563D" stroke-width="12" stroke-linecap="round"/>
      <path d="M210.832 67.2683C210.542 69.5872 206.658 74.2766 204.588 75.4945C196.849 80.0467 194.952 93.4327 194.776 101.363C194.705 104.555 194.963 107.788 194.776 110.976C194.658 112.973 190.523 111.101 189.424 112.265C186.719 115.129 185.534 123.051 184.072 126.834C182.9 129.868 181.523 132.896 180.504 135.952" stroke="#323232" stroke-width="3" stroke-linecap="round"/>
      <path d="M212.617 195.716C209.407 195.716 206.349 198.695 204.391 200.87C201.96 203.571 202.805 197.265 202.805 195.716C202.805 190.732 192.22 186.467 189.227 191.256C186.685 195.324 179.601 196.975 175.847 199.978C172.445 202.699 167.125 208.259 167.125 213.11C167.125 220.381 174.338 219.249 179.217 220.643C185.83 222.533 178.078 216.685 177.879 215.786C177.48 213.993 182.62 212.685 183.677 211.326C186.014 208.321 184.066 206.614 188.037 205.479C191.602 204.46 191.465 205.02 194.331 207.312C196.38 208.951 193.741 212.554 197.057 214.448C200.095 216.184 201.9 216.232 205.481 216.232" stroke="#323232" stroke-width="3" stroke-linecap="round"/>
      <path d="M211.725 68.1603C211.786 67.6724 213.855 65.41 214.401 64.5923" stroke="#323232" stroke-width="3" stroke-linecap="round"/>
      <path d="M177.828 136.844C177.828 144.872 177.828 152.901 177.828 160.929C177.828 166.139 185.317 167.147 184.023 172.971C183.74 174.242 181.369 176.377 180.702 177.877C179.844 179.809 178.72 182.903 178.72 185.013C178.72 188.69 181.396 199.394 181.396 195.717" stroke="#323232" stroke-width="3" stroke-linecap="round"/>
      <path d="M185.855 208.205C186.257 211.815 190.293 214.571 191.158 218.463C191.991 222.214 195.667 225.887 195.667 229.613" stroke="#323232" stroke-width="3" stroke-linecap="round"/>
      <path d="M193.756 110.079C198.317 110.586 202.948 118.169 207.185 120.523C209.577 121.852 214.741 122.79 212.556 125.521C207.336 132.046 202.796 137.059 198.829 144.992C195.351 151.948 195.099 159.416 195.099 167.149C195.099 170.212 197.345 172.947 191.742 169.834C188.795 168.197 183.649 169.163 180.328 169.163" stroke="#323232" stroke-width="3" stroke-linecap="round"/>
      <path d="M194.367 117.859C194.367 118.185 194.367 118.185 194.367 117.859" stroke="#323232" stroke-width="3" stroke-linecap="round"/>
      <path d="M204.15 125.582H203.635" stroke="#323232" stroke-width="3" stroke-linecap="round"/>
      <path d="M182.525 165.227V164.712" stroke="#323232" stroke-width="3" stroke-linecap="round"/>
      <path d="M189.219 165.741V165.227" stroke="#323232" stroke-width="3" stroke-linecap="round"/>
      <path d="M319.598 56.3079C319.598 59.2341 324.592 70.3103 326.989 72.2273C328.902 73.7577 335.517 83.1817 335.517 85.304C335.517 92.0264 338.111 90.7333 342.087 86.757C347.135 81.7093 348.823 83.5984 354.848 83.5984" stroke="#323232" stroke-width="3" stroke-linecap="round"/>
      <path d="M340.066 76.7756V82.4612" stroke="#323232" stroke-width="3" stroke-linecap="round"/>
      <path d="M171.774 260.987C171.774 266.669 169.525 264.373 166.089 267.809C163.031 270.868 162.363 274.626 161.477 278.612C159.327 288.288 148.393 289.147 144.484 297.943C141.262 305.192 139.476 312.905 136.271 320.116C135.231 322.458 134.371 322.39 131.976 322.39C128.498 322.39 127.863 328.448 127.49 331.424C126.748 337.362 126.262 343.47 122.879 348.544" stroke="#323232" stroke-width="3" stroke-linecap="round"/>
      <path d="M233.179 323.527C233.179 320.919 233.326 319.954 234.569 317.842C236.339 314.832 239.665 315.703 241.138 313.862C243.935 310.366 242.276 301.818 242.276 297.374C242.276 290.692 242.606 288.488 245.687 283.097C247.977 279.09 251.337 276.243 253.394 272.358C256.993 265.56 252.967 266.631 248.466 263.766C243.744 260.761 238.17 260.047 233.179 257.828C231.846 257.236 223.185 254.175 223.008 254.796C221.29 260.81 221.005 266.069 217.828 271.789C213.164 280.184 207.258 285.996 201.34 293.394C199.605 295.563 194.611 299.784 192.243 301.038C188.794 302.864 184.283 303.356 184.283 308.177C184.283 315.233 187.131 314.431 193.38 314.431C199.92 314.431 204.859 316.539 211.005 317.905C215.969 319.008 219.908 322.39 225.219 322.39C230.383 322.39 234.627 326.939 240.001 326.939" stroke="#323232" stroke-width="3" stroke-linecap="round"/>
      <path d="M222.944 263.261C222.944 265.001 224.913 268.435 223.828 269.831C223.375 270.414 227.573 265.925 228.061 265.535C231.764 262.572 221.807 255.362 221.807 266.672" stroke="#323232" stroke-width="3" stroke-linecap="round"/>
      <path d="M246.825 268.947C251.525 274.235 246.421 281.179 241.771 275.201C236.908 268.949 244.493 270.084 249.099 270.084" stroke="#323232" stroke-width="3" stroke-linecap="round"/>
      <path d="M184.283 313.293C180.499 313.293 173.362 311.87 170.132 313.925C166.864 316.005 167.214 321.253 162.678 321.253C155.286 321.253 150.94 323.053 145.621 328.076C142.957 330.592 139.047 330.894 136.019 332.624C133.616 333.997 133.024 337.197 130.839 338.562C128.067 340.295 126.18 344.776 123.448 346.901C121.359 348.526 117.111 350.984 116.057 353.092" stroke="#323232" stroke-width="3" stroke-linecap="round"/>
      <path d="M401.47 243.93C409.407 243.93 411.896 244.643 417.327 250.753C421.067 254.96 422.608 262.124 429.329 262.124C438.591 262.124 436.263 274.814 434.51 280.949C434.088 282.426 434.446 284.47 434.446 286.003C434.446 287.164 434.665 284.397 432.804 284.929C429.555 285.857 429.907 290.567 427.055 285.434C425.945 283.436 420.95 278.995 418.527 282.023C416.734 284.265 411.685 278.181 408.862 279.749C406.017 281.329 406.974 273.171 403.492 276.654C401.195 278.951 399.876 283.978 395.785 280.318C392.951 277.782 388.299 277.513 385.804 275.516C384.73 274.657 380.107 271.383 378.728 271.221C377.696 271.099 375.699 268.464 375.38 269.578C374.823 271.527 373.956 271.335 371.906 271.221C370.67 271.152 364.731 265.314 364.199 265.788C361.892 267.838 361.865 271.533 359.65 273.748C357.176 276.222 352.96 272.605 351.185 274.379C345.963 279.602 338.562 275 332.676 280.886C329.667 283.895 327.749 284.866 323.579 284.866C319.795 284.866 321.719 290.551 316.756 290.551C309.435 290.551 306.773 299.648 298.562 299.648C294.448 299.648 293.518 294.877 290.539 294.026C284.402 292.273 292.888 291.648 293.382 289.92C294.112 287.366 295.563 284.27 295.72 281.455C295.814 279.761 295.72 278.034 295.72 276.338C295.72 273.885 297.781 275.251 298.878 273.495C300.382 271.089 299.918 267.963 301.658 265.788C303.532 263.445 305.615 260.456 305.954 257.575C306.192 255.551 308.228 255.619 308.228 253.596C308.228 251.845 308.369 250.119 309.618 248.731C311.651 246.472 311.599 242.833 313.913 240.519C315.442 238.99 316.783 239.674 317.893 237.676C318.959 235.757 318.45 234.965 320.736 233.949C323.056 232.918 326.344 232.715 327.559 230.285" stroke="#323232" stroke-width="3" stroke-linecap="round"/>
      <path d="M432.172 288.277C440.947 288.277 444.166 289.267 444.68 298.511C445.12 306.432 458.924 304.564 463.758 307.608C466.874 309.57 469.887 317.003 471.718 320.116C474.557 324.943 471.971 331.218 471.971 336.604C471.971 338.809 473.43 340.159 473.044 342.858C472.523 346.508 469.696 349.717 469.696 353.661C469.696 360.44 479.538 366.593 482.71 372.36C484.348 375.339 485.616 378.677 485.616 382.088C485.616 382.821 485.313 388.42 486.248 388.153C487.244 387.868 488.23 384.885 487.195 385.689C484.824 387.533 482.958 390.076 481.004 392.322C476.599 397.389 472.16 402.936 467.422 407.673" stroke="#323232" stroke-width="3" stroke-linecap="round"/>
      <path d="M308.228 295.1C308.228 304.551 311.505 317.976 304.248 325.233C296.204 333.277 295.72 348.728 295.72 359.346C295.72 364.777 294.644 367.481 297.741 373.56C299.746 377.495 301.758 382.835 305.069 385.816C307.457 387.964 311.495 387.567 313.661 389.732C317.221 393.292 312.956 395.339 312.776 398.576C312.414 405.092 317.376 404.189 321.81 407.736C323.461 409.058 331.505 416.342 328.127 419.044C328.072 419.089 342.003 426.81 343.984 428.078C347.632 430.413 350.451 437.238 354.849 437.238C358.651 437.238 359.188 438.215 359.398 441.786C359.607 445.342 366.312 444.061 368.494 444.061C373.377 444.061 381.318 452.45 386.435 448.356C389.09 446.232 389.884 446.139 391.237 442.418C393.535 436.098 393.063 443.468 393.574 445.766C394.962 452.011 407.894 443.514 409.999 445.198C413.54 448.03 422.807 448.387 425.097 444.061C426.346 441.701 425.312 447.916 428.761 444.061C430.329 442.309 435.584 434.024 435.584 440.397C435.584 444.88 436.886 438.47 438.426 437.238C440.764 435.368 440.557 430.348 441.332 427.636C442.132 424.837 445.66 436.046 446.955 433.132C449.081 428.348 450.026 423.113 452.64 418.539C453.223 417.519 457.351 419.006 459.463 416.77C461.372 414.748 462.63 413.38 464.264 411.337C466.148 408.982 469.795 411.249 471.087 408.81C472.066 406.961 471.971 401.839 471.971 401.988" stroke="#323232" stroke-width="3" stroke-linecap="round"/>
      <path d="M125.153 339.447C124.557 342.132 118.739 345.861 116.688 347.912C114.525 350.075 114.236 351.701 112.898 354.229C111.78 356.341 110.125 355.738 108.729 357.135C107.227 358.637 107.152 362.515 106.707 364.463C105.49 369.787 104.863 375.435 102.664 380.383C102.068 381.724 100.311 389.828 99 387.205" stroke="#323232" stroke-width="3" stroke-linecap="round"/>
      <path d="M251.221 184.566C248.6 184.566 245.657 184.995 243.279 184.995C241.49 184.995 239.356 186.278 237.697 186.927C235.015 187.977 232.484 189.288 229.54 189.288C226.75 189.288 223.959 189.288 221.168 189.288C219.75 189.288 219.062 189.487 218.068 190.481C217.427 191.122 216.875 193.467 216.875 191.006" stroke="#323232" stroke-width="3" stroke-linecap="round"/>
      <path d="M208.289 216.765C214.245 216.765 219.441 213.331 225.462 213.331C228.838 213.331 232.002 214.189 235.337 214.189C240.154 214.189 244.863 214.619 249.504 214.619" stroke="#323232" stroke-width="3" stroke-linecap="round"/>
      <path d="M240.098 327.764C242.671 327.764 244.808 326.329 247.273 326.329C248.414 326.329 249.751 326.527 250.86 326.25C252.764 325.774 254.621 324.679 256.601 324.556C258.645 324.428 260.835 324.404 262.879 324.556C263.886 324.63 264.493 325.124 265.37 325.532C267 326.291 268.839 326.641 270.512 327.326C273.653 328.611 277.65 328.804 280.558 330.635C282.473 331.84 283.238 332.787 285.66 332.787C286.561 332.787 287.351 332.701 288.171 333.066C288.727 333.313 289.546 333.863 290.144 333.863C291.231 333.863 293.286 333.451 294.27 333.943C295.677 334.647 295.908 336.598 297.858 335.298" stroke="#323232" stroke-width="3" stroke-linecap="round"/>
      <path d="M201.114 201.898C201.114 206.05 198.946 208.802 197.262 212.17" stroke="#323232" stroke-width="3" stroke-linecap="round"/>
      <path d="M347 208.5C348.277 208.173 349.082 206.923 350.257 206.101C351.42 205.288 353.417 203.848 354.744 203.59C356.239 203.299 357.646 201.996 359.18 201.698C361.012 201.342 362.824 200.647 364.736 200.275C368.483 199.547 371.734 201.364 375.26 202.347" stroke="#323232" stroke-width="3" stroke-linecap="round"/>
      <defs>
      <linearGradient id="paint0_linear_978_215" x1="282" y1="101" x2="282" y2="374" gradientUnits="userSpaceOnUse">
      <stop stop-color="#996B97"/>
      <stop offset="1" stop-color="#73116F"/>
      </linearGradient>
      </defs>
      </svg>