<svg width="29" height="37" viewBox="0 0 29 37" fill="none" xmlns="http://www.w3.org/2000/svg">
<path d="M18.656 35.1498C18.6216 34.8055 18.237 34.4046 18.0457 34.1176C17.9081 33.9111 17.7838 33.6324 17.571 33.5073C17.4274 33.4228 17.2449 33.0566 17.1641 32.912C17.0409 32.6915 16.7988 32.4789 16.6216 32.3017C16.4499 32.13 16.3781 31.8644 16.2147 31.6914C15.9803 31.4431 15.7758 31.1846 15.5366 30.9454C15.1861 30.5949 14.8089 30.2856 14.4516 29.9282C14.1552 29.6318 13.8612 29.3526 13.5173 29.1145C13.3686 29.0115 13.2096 28.7968 13.0275 28.7754C12.8251 28.7516 12.5353 28.4567 12.3494 28.3534C12.1333 28.2334 11.7542 27.8713 11.6034 27.6753C11.3909 27.399 11.054 27.2088 10.8047 26.9595C10.5921 26.7468 10.3766 26.4965 10.1115 26.3492C9.65243 26.0941 8.95871 25.8975 8.95871 25.3169C8.95871 24.9761 8.89682 24.699 8.83816 24.36C8.80772 24.1841 8.82309 23.999 8.82309 23.8213C8.82309 23.5255 8.69549 23.2628 8.68746 22.9736C8.68398 22.8483 8.52104 22.4619 8.63472 22.3482C8.73035 22.2526 9.24666 22.3331 9.38066 22.3331C9.74421 22.3331 10.2213 22.5405 10.5712 22.6571C10.8461 22.7488 11.1476 22.9238 11.4 23.064C11.8402 23.3086 12.2533 23.6034 12.7412 23.7723C13.2139 23.9359 13.6645 24.1303 14.1125 24.3148C14.283 24.385 14.0706 23.8309 14.0296 23.7572C13.8675 23.4654 13.6964 23.1765 13.57 22.8606C13.4544 22.5715 13.3345 22.2609 13.2159 21.9941C13.115 21.7672 13.1812 21.4751 13.0803 21.2481C12.8929 20.8265 12.949 20.2827 12.6884 19.8918" stroke="#EC6F6F" stroke-width="1.5" stroke-linecap="round"/>
<path d="M12.4172 19.5527C12.4172 19.2034 12.1457 18.7384 11.9765 18.4337C11.7859 18.0907 11.9746 17.3134 11.6374 17.0436C11.4565 16.8988 11.2519 16.2245 11.2004 15.9925C11.1168 15.6166 10.8674 15.274 10.786 14.9074C10.6982 14.5126 10.5575 14.0777 10.4469 13.6906C10.3117 13.2174 10.2376 12.5854 10.1756 12.0894C10.1433 11.831 9.96207 11.6498 10.1643 11.4678C10.3002 11.3455 10.3608 11.2032 10.4507 11.0459C10.6076 10.7712 10.8625 10.5443 11.061 10.2961C11.1674 10.1631 11.3281 10.1659 11.4377 10.0249C11.6049 9.80995 11.7653 9.97318 11.8898 10.1115C12.1181 10.3652 12.4596 10.4847 12.6734 10.752C12.9288 11.0712 12.9285 11.6413 13.1104 12.0254C13.2478 12.3154 13.3246 12.6195 13.4684 12.9069C13.5592 13.0887 13.751 13.3821 13.7735 13.5851C13.8031 13.8513 14.045 14.2367 14.1465 14.5006C14.2765 14.8385 14.3522 15.193 14.4667 15.5366C14.6842 16.1889 14.9095 16.8442 15.1448 17.5032C15.2838 17.8922 15.4586 18.2681 15.5706 18.6711C15.6732 19.0404 15.6795 19.4406 15.7928 19.8088C15.8491 19.9916 16.0928 21.0174 16.147 20.9089" stroke="#EC6F6F" stroke-width="1.5" stroke-linecap="round"/>
<path d="M16.4182 16.2299C16.6727 16.2299 17.8306 16.0796 17.9779 16.2638C18.0495 16.3533 18.22 16.2685 18.317 16.3655C18.3728 16.4214 18.4439 16.6305 18.4526 16.7046C18.4828 16.9614 18.7284 17.3541 18.8444 17.5862C19.1487 18.1946 19.253 18.933 19.3982 19.5867C19.4486 19.8134 19.5109 20.0117 19.6205 20.2309C19.6985 20.3868 19.8767 20.6809 19.8767 20.8412" stroke="#EC6F6F" stroke-width="1.5" stroke-linecap="round"/>
<path d="M20.0801 17.247C20.4915 17.247 20.8205 17.1113 21.2329 17.1113C21.4158 17.1113 21.579 17.1848 21.7227 17.2997C21.8957 17.4381 21.8953 17.6902 22.0128 17.9251C22.4568 18.8131 23.0639 19.9207 23.0639 20.9089" stroke="#EC6F6F" stroke-width="1.5" stroke-linecap="round"/>
<path d="M23.4708 18.0608C23.8345 18.0608 24.1568 18.1964 24.5219 18.1964C24.7624 18.1964 25.1232 18.2332 25.2867 18.4149C25.5543 18.7123 25.6847 19.2383 25.8782 19.5866C25.9653 19.7433 26.072 19.9248 26.1155 20.099C26.1763 20.342 26.3398 20.5733 26.383 20.811C26.5904 21.9514 26.9293 23.1332 26.9293 24.2996C26.9293 24.9777 27.0461 25.657 27.0649 26.334C27.0731 26.6268 27.1075 27.11 27.2684 27.3512" stroke="#EC6F6F" stroke-width="1.5" stroke-linecap="round"/>
<path d="M27.2683 27.3513C27.2683 27.9147 27.5106 28.4279 27.5396 28.9788C27.5832 29.8083 27.743 30.585 27.743 31.4239C27.743 31.8797 27.743 32.3356 27.743 32.7915C27.743 33.0687 27.8243 33.2511 27.5057 33.2511C27.0178 33.2511 26.3525 33.1382 25.9121 33.334C25.4231 33.5513 24.9005 33.674 24.4202 33.9141C23.9158 34.1663 23.3277 34.3145 22.7927 34.5056C22.3997 34.646 21.9695 34.7113 21.5569 34.7957C21.1492 34.8791 20.7596 35.0396 20.3438 35.0858C19.9846 35.1257 19.6361 35.2963 19.3342 35.4738C19.2587 35.5183 18.9492 35.6924 18.9951 35.6924" stroke="#EC6F6F" stroke-width="1.5" stroke-linecap="round"/>
<path d="M5.16121 19.8239C4.87375 19.5365 4.46348 19.3899 4.18168 19.1081C4.00578 18.9322 3.66931 18.5925 3.66931 18.332" stroke="#EC6F6F" stroke-width="1.5" stroke-linecap="round"/>
<path d="M1.70265 15.8909C1.70265 15.3355 1.17103 14.827 1.02075 14.301C0.928794 13.9792 1.02452 13.67 1.02452 13.314" stroke="#EC6F6F" stroke-width="1.5" stroke-linecap="round"/>
<path d="M1.02454 9.85534C1.02454 9.33696 1.13173 9.11103 1.43142 8.73642C1.58658 8.54247 1.5398 8.11399 1.73658 7.95657C1.8517 7.86447 1.92637 7.55671 1.97392 7.41406" stroke="#EC6F6F" stroke-width="1.5" stroke-linecap="round"/>
<path d="M3.3302 5.04068C3.36888 4.69257 3.61797 4.25439 3.88778 4.03855C4.03263 3.92267 4.262 3.9236 4.43028 3.82004C4.80496 3.58947 5.18837 3.39955 5.56804 3.20972" stroke="#EC6F6F" stroke-width="1.5" stroke-linecap="round"/>
<path d="M8.28064 2.1246C8.7364 2.1246 9.21848 2.13443 9.63691 1.93623C10.0863 1.72334 10.3593 1.6499 10.8575 1.6499" stroke="#EC6F6F" stroke-width="1.5" stroke-linecap="round"/>
<path d="M13.6378 1.71777C14.5891 1.71777 15.4656 2.44006 16.3504 2.73497" stroke="#EC6F6F" stroke-width="1.5" stroke-linecap="round"/>
<path d="M18.3848 4.63379C18.8574 4.6863 19.3507 5.39631 19.6732 5.7188C19.8746 5.92018 19.9731 6.14451 20.1328 6.34419C20.1922 6.41839 20.2835 6.77247 20.2835 6.736" stroke="#EC6F6F" stroke-width="1.5" stroke-linecap="round"/>
<path d="M21.3008 9.51636C21.3008 10.0412 21.7077 10.5076 21.7077 11.0422C21.7077 11.4158 21.6398 12.5347 21.6398 12.1611" stroke="#EC6F6F" stroke-width="1.5" stroke-linecap="round"/>
<path d="M17.3676 12.3644C17.3676 11.4674 17.3118 10.5819 17.0963 9.71973" stroke="#EC6F6F" stroke-width="1.5" stroke-linecap="round"/>
<path d="M15.3332 7.41401C15.3133 7.23497 14.8877 6.91569 14.7229 6.81876C14.5803 6.73485 14.461 6.60262 14.316 6.51737C14.0349 6.35202 13.6297 5.92212 13.2988 5.92212" stroke="#EC6F6F" stroke-width="1.5" stroke-linecap="round"/>
<path d="M9.70469 5.78654C9.26733 5.78654 8.65496 5.71762 8.29568 6.00505C8.07539 6.18127 7.92186 6.47451 7.67029 6.6003" stroke="#EC6F6F" stroke-width="1.5" stroke-linecap="round"/>
<path d="M5.90715 8.56689C5.88372 8.75431 5.58037 9.0547 5.4852 9.24503C5.36646 9.48251 5.3018 9.72612 5.19511 9.96084C4.97339 10.4486 4.95776 12.0865 4.95776 11.5507" stroke="#EC6F6F" stroke-width="1.5" stroke-linecap="round"/>
<path d="M5.63586 14.5344C5.66313 14.7526 6.01372 15.0286 6.11056 15.2465C6.20971 15.4696 6.36336 15.6387 6.53251 15.8078C6.83605 16.1114 7.28846 16.1745 7.67026 16.3654" stroke="#EC6F6F" stroke-width="1.5" stroke-linecap="round"/>
</svg>
