<svg width="60" height="26" viewBox="0 0 60 26" fill="none" xmlns="http://www.w3.org/2000/svg">
<path d="M1.31372 21.9558C1.90218 21.9558 2.49064 21.9558 3.0791 21.9558C3.80755 21.9558 4.53867 22.0123 5.26818 22.0123C5.64914 22.0123 6.02764 22.0405 6.41058 22.0405C6.87473 22.0405 7.33279 22.097 7.79621 22.097C7.98923 22.097 8.18224 22.097 8.37526 22.097C8.60766 22.097 8.84 22.1535 9.06729 22.1535C9.36106 22.1535 9.66913 22.2665 9.95704 22.2665" stroke="#E6D1B2" stroke-width="1.5" stroke-linecap="round"/>
<path d="M9.90063 22.3515C10.4754 22.3515 11.0362 22.3233 11.6095 22.3233C12.0727 22.3233 12.5386 22.3067 13.0014 22.3233C13.3987 22.3375 13.7954 22.408 14.194 22.408" stroke="#E6D1B2" stroke-width="1.5" stroke-linecap="round"/>
<path d="M14.759 20.9676C14.7692 21.0486 14.8889 21.1117 14.9285 21.181C14.9842 21.2784 15.0703 21.343 15.12 21.4477C15.1713 21.5561 15.1814 21.6621 15.2125 21.771C15.24 21.8672 15.2957 21.9447 15.2957 22.055C15.2957 22.2503 15.3804 22.4429 15.3804 22.6482C15.3804 22.8569 15.4087 23.0484 15.4087 23.2555C15.4087 23.4557 15.4369 23.6685 15.4369 23.8769C15.4369 24.0314 15.4097 24.0746 15.5813 24.0746C15.7876 24.0746 15.9627 24.0629 16.1572 24.0197C16.3624 23.9741 16.7005 23.9904 16.9057 24.0197C17.1487 24.0544 17.3962 24.1311 17.6401 24.1311C17.7856 24.1311 18.1563 24.0663 18.2678 24.1531C18.297 24.1758 18.2616 23.8303 18.2616 23.8063C18.2616 23.6881 18.2898 23.5648 18.2898 23.4407C18.2898 23.1544 18.3463 22.8773 18.3463 22.5933C18.3463 22.4936 18.3746 22.2668 18.4373 22.1884C18.4908 22.1215 18.4833 22.0012 18.5503 21.9342C18.6951 21.7894 18.6748 21.5471 18.792 21.4132C18.8541 21.3422 18.6082 21.4569 18.5158 21.476C18.3576 21.5087 18.1841 21.5607 18.0215 21.5607C17.825 21.5607 17.631 21.5657 17.4408 21.534C17.0776 21.4735 16.6963 21.4523 16.3392 21.363C16.1779 21.3227 15.9961 21.2878 15.8606 21.1872C15.7534 21.1076 15.5237 20.9999 15.4652 20.8828" stroke="#E6D1B2" stroke-width="1.5" stroke-linecap="round"/>
<path d="M16.1428 21.7585C16.2681 21.8838 16.2903 22.0782 16.3845 22.2262C16.4721 22.3638 16.5518 22.502 16.5885 22.6624C16.6068 22.7426 16.6694 23.2022 16.6089 23.1552C16.4997 23.0702 16.3981 22.9698 16.2746 22.9057C16.0693 22.7989 16.3388 22.8319 16.4378 22.8319C17.0104 22.8319 17.5766 22.9166 18.1483 22.9166C18.3043 22.9166 18.1826 22.1892 18.0918 22.0724C17.9507 21.891 17.7973 22.0167 17.6305 22.0849C17.3972 22.1804 17.0418 22.0693 16.7925 22.0693" stroke="#E6D1B2" stroke-width="1.5" stroke-linecap="round"/>
<path d="M14.5327 24.131C14.8962 24.131 15.2455 24.0513 15.6061 24.0463C15.8321 24.0431 16.0569 24.018 16.284 24.018C16.4401 24.018 16.6484 23.9793 16.7924 24.04C16.901 24.0857 17.0521 24.0048 17.1596 24.0525C17.2678 24.1006 17.4094 24.0683 17.5268 24.0745C17.7701 24.0873 18.0324 24.1875 18.2612 24.1875" stroke="#E6D1B2" stroke-width="1.5" stroke-linecap="round"/>
<path d="M18.5156 22.7752C18.6977 22.7752 18.9055 22.7689 19.0805 22.8175C19.2492 22.8644 19.4428 22.8159 19.6157 22.8332C20.0204 22.8737 20.4616 22.8595 20.8585 22.9588C21.0377 23.0036 21.2418 22.9823 21.425 23.0027C21.6323 23.0257 21.836 23.0294 22.0464 23.0294C22.5328 23.0294 23.0183 23.0234 23.5011 23.0592C23.8051 23.0817 24.1066 23.0859 24.4128 23.0859C24.5675 23.0859 24.7486 23.0577 24.8993 23.0921C25.2133 23.1639 25.5559 23.1007 25.8659 23.1926C26.0577 23.2494 26.2865 23.1776 26.4748 23.2334C26.6038 23.2716 26.7469 23.2553 26.8828 23.2553C27.1051 23.2553 27.4114 23.3501 27.6109 23.2836" stroke="#E6D1B2" stroke-width="1.5" stroke-linecap="round"/>
<path d="M27.4978 23.199C27.8418 23.199 28.189 23.2555 28.5366 23.2555C28.7621 23.2555 28.9738 23.2968 29.1926 23.3339C29.6955 23.4193 30.2626 23.3874 30.7744 23.3967C31.7501 23.4144 32.7182 23.6227 33.6978 23.6227C34.3616 23.6227 35.0218 23.6792 35.686 23.6792C36.1235 23.6792 36.5835 23.6926 37.0183 23.7498C37.3581 23.7945 37.7217 23.8769 38.0619 23.8769C38.1981 23.8769 38.3367 23.9334 38.4714 23.9334C38.5452 23.9334 38.7167 23.9839 38.5985 23.9051" stroke="#E6D1B2" stroke-width="1.5" stroke-linecap="round"/>
<path d="M38.4573 22.2949C38.5593 22.3051 38.6908 22.3284 38.7805 22.3797C38.8983 22.447 38.9924 22.5483 39.1069 22.6119C39.2315 22.6811 39.3306 22.8293 39.4318 22.9305C39.5312 23.0299 39.668 23.1926 39.7409 23.3118C39.8287 23.4555 39.8555 23.611 39.9198 23.7637C39.9584 23.8554 39.9493 23.9751 39.9967 24.0603C40.0288 24.1181 40.0673 24.2656 40.0673 24.3286C40.0673 24.4537 40.1945 24.548 40.2085 24.6676C40.2281 24.8339 40.6139 24.9754 40.7452 25.0411C41.0404 25.1887 41.4554 25.0499 41.7778 25.0929C42.305 25.1632 42.7975 25.2709 43.3282 25.1745C43.4868 25.1456 43.8523 24.9788 43.8523 24.7947C43.8523 24.697 43.8805 24.6015 43.8805 24.4981C43.8805 24.3515 43.9318 24.2214 43.937 24.0807C43.9427 23.9288 44.4047 24.0142 44.5333 24.0321C44.9366 24.0881 45.3655 24.0462 45.773 24.0462C45.9342 24.0462 45.9143 24.0117 45.9143 23.8626C45.9143 23.7531 45.7948 23.6979 45.7024 23.6774C45.5196 23.6368 45.3351 23.679 45.1453 23.679C44.9316 23.679 44.7261 23.6669 44.5145 23.6523C44.3363 23.64 44.1573 23.6341 43.9794 23.6209C43.8475 23.6112 43.6627 23.6207 43.5416 23.5723C43.1675 23.4226 42.7659 23.2574 42.3615 23.1831C42.0568 23.1271 41.751 23.0959 41.4514 23.0293C41.2248 22.979 40.9029 22.8828 40.7138 22.7453C40.3694 22.4948 39.9495 22.4079 39.5306 22.4079" stroke="#E6D1B2" stroke-width="1.5" stroke-linecap="round"/>
<path d="M39.7285 22.8601C39.8538 22.874 40.0659 23.0771 40.1585 23.1488C40.3024 23.2604 40.4416 23.3691 40.5602 23.5082C40.6321 23.5924 40.7375 23.6551 40.8019 23.742C40.9127 23.8916 41.0333 24.0747 41.2318 24.0747C41.5777 24.0747 41.9183 24.0747 42.2644 24.0747C42.4289 24.0747 42.5886 24.0984 42.7509 24.1029C42.8097 24.1046 42.9805 24.1558 43.0051 24.1312" stroke="#E6D1B2" stroke-width="1.5" stroke-linecap="round"/>
<path d="M38.2033 21.9846C38.1928 21.9008 37.3367 21.9281 37.2429 21.9281C36.984 21.9281 36.7272 21.9563 36.4662 21.9563C36.3318 21.9563 36.0945 22.0017 35.9719 21.9501C35.8007 21.878 35.6468 21.8372 35.4776 21.7461C35.2105 21.6023 34.9738 21.4102 34.7573 21.1937C34.6375 21.0739 34.4582 20.8808 34.3901 20.7276C34.3591 20.6579 34.2771 20.6125 34.2771 20.5299C34.2771 20.4216 34.2771 20.3134 34.2771 20.2051" stroke="#E6D1B2" stroke-width="1.5" stroke-linecap="round"/>
<path d="M35.096 17.0129C35.5744 17.0129 36.0716 17.067 36.5523 17.1196C37.1465 17.1848 37.7598 17.1228 38.3569 17.1604C39.4219 17.2275 40.4911 17.2213 41.5581 17.2107C42.157 17.2047 42.7573 17.1542 43.3565 17.1542C43.9379 17.1542 44.4759 17.0694 45.0528 17.0694C45.2205 17.0694 45.3717 17.0977 45.5424 17.0977C45.587 17.0977 45.8961 17.1011 45.7715 17.14C45.406 17.2543 45.0315 17.369 44.6856 17.5355C44.2995 17.7214 44.1551 18.2291 43.9998 18.5947C43.8386 18.9747 43.8523 19.3748 43.8523 19.7811C43.8523 20.2049 43.8048 20.6595 43.8665 21.0788C43.9065 21.351 43.8933 21.64 44.0061 21.898C44.0833 22.0743 44.198 22.2449 44.3262 22.386C44.3471 22.4089 44.6012 22.6389 44.6024 22.6276C44.6232 22.4409 44.1705 22.5209 44.0846 22.5209C43.7956 22.5209 43.479 22.518 43.1933 22.5555C43.0161 22.5787 42.8343 22.4087 42.6676 22.3358C42.5744 22.295 42.4932 22.2311 42.3961 22.1961C42.2962 22.1602 42.2159 22.0647 42.1152 22.0423C41.9108 21.9969 41.7087 21.883 41.5079 21.8148C41.1844 21.7049 40.9293 21.4252 40.604 21.3064C40.2217 21.1666 39.8093 21.1086 39.4036 21.1086C39.323 21.1086 39.2425 21.1086 39.1619 21.1086C39.0556 21.1086 38.7569 21.061 38.8434 21.1228C39.0554 21.2742 39.4306 21.2949 39.675 21.3205C39.8883 21.3428 40.1008 21.3628 40.3153 21.3628C40.3906 21.3628 40.4737 21.351 40.5413 21.3911C40.6228 21.4394 40.6023 21.494 40.5067 21.4821C39.8913 21.4052 39.2975 21.44 38.7084 21.1934C38.4323 21.0778 38.2207 20.8959 37.963 20.7571C37.8661 20.7049 37.6797 20.7414 37.5754 20.7414C37.159 20.7414 36.7434 20.7697 36.3279 20.7697C35.9998 20.7697 35.7594 20.7723 35.4632 20.6284C35.2625 20.531 35.0827 20.4576 34.983 20.2267C34.8868 20.0039 34.7571 19.731 34.7571 19.486C34.7571 19.1961 34.8418 18.9149 34.8418 18.6198C34.8418 18.3738 34.8807 18.0741 34.8151 17.8446C34.7979 17.7844 34.8978 17.7238 34.9391 17.705C34.9941 17.68 35.0671 17.7214 35.1211 17.7364C35.3802 17.808 35.6242 17.9166 35.8681 18.0282C36.0317 18.1031 36.3838 18.1851 36.4926 18.3562C36.5902 18.5095 36.4221 18.7617 36.3671 18.8992C36.3239 19.0072 36.3106 19.1001 36.3106 19.2161C36.3106 19.4021 36.1482 19.3046 36.0721 19.2036C35.9061 18.9833 35.6768 18.6265 35.661 18.3405C35.639 17.9447 35.7174 19.132 35.7174 19.5284C35.7174 19.7042 35.735 19.8821 35.8006 20.0463C35.801 20.0472 35.8372 19.9902 35.8461 19.9788C35.9012 19.9086 35.9623 19.9273 36.0376 19.9537C36.7267 20.1949 37.4689 20.3329 38.1843 20.4715C38.8397 20.5985 39.4827 20.5729 40.1427 20.6284C40.8163 20.6852 41.4484 20.7123 42.1074 20.8827C42.6143 21.0137 43.2297 21.18 43.6138 21.5606C43.7213 21.6671 43.829 21.8088 43.8743 21.956C43.8845 21.9893 43.9371 22.0608 43.9026 22.0564C43.8686 22.0522 43.757 21.9149 43.7268 21.8932C43.5425 21.7613 43.3557 21.6353 43.1399 21.5606C42.7668 21.4314 42.3647 21.4487 41.9755 21.4476C41.3823 21.4459 40.7876 21.4599 40.196 21.4068C39.3581 21.3316 38.4523 21.213 37.6445 20.9674C37.1653 20.8217 36.6782 20.6438 36.2102 20.4652C36.1182 20.4302 36.0673 20.3691 35.9874 20.3177C35.8404 20.2233 35.6634 20.2038 35.4978 20.1624C35.4693 20.1553 35.2404 20.0573 35.2404 20.0212C35.2404 20.0186 37.0676 19.8204 37.2051 19.7952C37.5264 19.7362 37.8829 19.6953 37.8218 19.304C37.7971 19.146 37.7402 19.0196 37.6727 18.8772C37.5735 18.6678 37.5706 18.4082 37.362 18.2558C37.3053 18.2144 37.1984 18.1759 37.1643 18.1145C37.1316 18.0558 37.1185 17.987 37.0874 17.9309C37.0312 17.8297 37.0733 17.965 37.0733 18.0471C37.0733 18.351 37.1663 18.6768 37.2286 18.9745C37.2479 19.0668 37.271 19.1574 37.271 19.2522C37.271 19.3065 37.222 19.1553 37.1957 19.1079C37.0082 18.7705 36.8933 18.4043 36.7218 18.0612C36.6909 17.9995 36.638 17.9141 36.6229 17.8462C36.6004 17.7449 36.7115 17.7521 36.8081 17.7191C37.4733 17.4919 38.0571 18.0113 38.7084 18.0863C39.1829 18.1409 39.6589 18.1754 40.1364 18.171C40.5484 18.1673 40.9552 18.1964 41.3667 18.1993C41.8696 18.2028 42.3725 18.171 42.8763 18.171C43.0196 18.171 43.1549 18.1633 43.2968 18.1444C43.3394 18.1387 43.4699 18.127 43.4647 18.1334C43.0155 18.6824 42.782 19.3256 42.7507 20.029C42.7447 20.1643 42.7089 20.2613 42.7507 20.4025C42.7898 20.5342 42.8163 20.673 42.8355 20.8073C42.8894 21.1848 42.892 20.0462 42.892 19.6649C42.892 19.3798 42.864 19.267 42.6927 19.0357C42.5631 18.8607 42.2814 18.8316 42.0838 18.8081C41.5867 18.7492 41.0473 18.8104 40.5491 18.8348C39.8605 18.8686 39.1747 18.7954 38.4918 18.8207C38.4287 18.823 38.3813 18.7886 38.3161 18.7924C38.2353 18.7972 38.3047 19.2844 38.3161 19.3385C38.3428 19.4657 38.3843 19.5551 38.5201 19.5551C38.785 19.5551 39.0425 19.4889 39.3094 19.5127C39.745 19.5516 40.1821 19.6121 40.6182 19.6398C40.9876 19.6633 41.3801 19.6516 41.7449 19.7104C41.8879 19.7335 42.0652 19.6869 42.1999 19.7387C42.3194 19.7846 42.419 19.8024 42.2706 19.6963" stroke="#E6D1B2" stroke-width="1.5" stroke-linecap="round"/>
<path d="M42.8357 15.4876C43.3491 15.4876 43.8634 15.4781 44.3767 15.4876C44.7773 15.495 45.1888 15.5441 45.5897 15.5441C45.7733 15.5441 45.9569 15.5441 46.1405 15.5441C46.2245 15.5441 46.3628 15.517 46.4371 15.5582C46.4991 15.5927 46.6073 15.5724 46.6772 15.5724C46.8022 15.5724 46.7337 15.6236 46.7337 15.7136C46.7337 15.7507 46.718 15.8899 46.6913 15.9113C46.576 16.0036 46.7737 16.0623 46.5234 16.0306C46.0695 15.973 45.6233 15.9396 45.166 15.9396C44.7588 15.9396 44.3842 15.8633 43.9797 15.8281C43.7451 15.8078 43.5007 15.8266 43.2657 15.8266C43.1936 15.8266 43.142 15.8409 43.0742 15.8533C42.969 15.8724 42.9696 15.8561 43.0334 15.9678" stroke="#E6D1B2" stroke-width="1.5" stroke-linecap="round"/>
<path d="M45.9143 17.3801C46.1196 17.3801 46.3375 17.4083 46.5498 17.4083C46.6534 17.4083 46.757 17.4083 46.8606 17.4083C46.8716 17.4083 47.0881 17.4655 47.0881 17.4366C47.0881 17.3601 46.6208 17.2419 46.564 17.2389C46.4423 17.2323 46.301 17.2026 46.1811 17.1808C46.1292 17.1714 46.0749 17.153 46.0273 17.1321C46.018 17.1281 46.1699 17.3184 46.2109 17.3518C46.3187 17.4397 46.4755 17.5778 46.6205 17.5778" stroke="#E6D1B2" stroke-width="1.5" stroke-linecap="round"/>
<path d="M47.2137 17.691C47.3005 17.691 47.3874 17.691 47.4742 17.691C47.5948 17.691 47.7119 17.671 47.832 17.6643C47.8897 17.6611 47.9778 17.6809 48.0328 17.6565C48.1836 17.5895 48.3619 17.578 48.5256 17.578C48.6386 17.578 48.6719 17.578 48.524 17.578C48.2395 17.578 47.9549 17.578 47.6704 17.578C47.5351 17.578 47.3887 17.5927 47.2561 17.5639C47.1308 17.5366 47.1503 17.4691 47.1572 17.352C47.1576 17.346 48.4865 17.3803 48.7531 17.3803C49.388 17.3803 50.0663 17.3803 50.7021 17.3803C51.1964 17.3803 51.6907 17.3803 52.185 17.3803C52.6692 17.3803 53.1528 17.4368 53.6413 17.4368C54.3912 17.4368 55.1379 17.465 55.8853 17.465C56.2806 17.465 56.685 17.4439 57.0732 17.5215C57.1582 17.5385 57.2911 17.5564 57.3698 17.5921C57.4556 17.6311 57.554 17.5932 57.6365 17.6345" stroke="#E6D1B2" stroke-width="1.5" stroke-linecap="round"/>
<path d="M44.4456 22.7754C45.029 22.7754 45.6114 22.8319 46.1952 22.8319C46.7836 22.8319 47.3767 22.8434 47.9622 22.8868C48.795 22.9485 49.6388 22.8612 50.473 22.9151C50.8937 22.9422 51.3148 22.9731 51.7346 22.9731C52.2045 22.9731 52.6688 23.0014 53.1391 23.0014C53.8846 23.0014 54.6289 23.1708 55.3768 23.1708C56.047 23.1708 58.0524 23.3121 57.3823 23.3121" stroke="#E6D1B2" stroke-width="1.5" stroke-linecap="round"/>
<path d="M53.1171 18.0581C52.9689 18.1898 52.7766 18.1912 52.6495 18.3547C52.5018 18.5445 52.2948 18.616 52.2399 18.8631C52.1911 19.0826 52.1403 19.3308 52.1285 19.5552C52.1223 19.6733 52.099 19.7654 52.0735 19.88C52.0477 19.9965 52.0996 20.1216 52.05 20.2331C52.0124 20.3177 52.0437 20.4793 52.0437 20.572C52.0437 20.6817 52.0215 20.8182 52.0453 20.9251C52.1032 21.1856 52.0754 21.4411 52.185 21.6877C52.2879 21.9193 52.5698 22.0987 52.7719 22.2385C52.8859 22.3175 53.2682 22.7216 53.3995 22.634" stroke="#E6D1B2" stroke-width="1.5" stroke-linecap="round"/>
<path d="M53.4843 18.2839C53.5551 18.2928 53.6102 18.4355 53.6679 18.4817C53.7536 18.5502 53.8382 18.6253 53.9143 18.7014C54.0528 18.8399 54.1715 18.9473 54.2689 19.1313C54.3639 19.3108 54.376 19.5464 54.3882 19.7527C54.3939 19.8496 54.4962 20.299 54.4023 20.3742C54.3705 20.3996 54.3599 20.6682 54.3599 20.7131C54.3599 20.8186 54.3034 20.9057 54.3034 21.0097C54.3034 21.1599 54.111 21.3791 54.0492 21.5181C53.9736 21.6884 53.8446 21.8602 53.7966 22.0281C53.7438 22.2129 53.5439 22.3451 53.4561 22.5209" stroke="#E6D1B2" stroke-width="1.5" stroke-linecap="round"/>
<path d="M57.5234 17.6626C57.6212 17.6626 57.7363 17.7466 57.8279 17.7819C57.9506 17.8291 58.1039 17.917 58.217 17.989C58.5072 18.1737 58.6614 18.634 58.7082 18.9619C58.7427 19.2034 58.8164 19.4693 58.8855 19.7026C58.9255 19.8374 58.9456 19.9806 58.9656 20.12C58.9886 20.2815 58.9679 20.4659 59.0142 20.6222C59.0603 20.7777 59.0003 20.956 58.9922 21.1086C58.9854 21.2391 58.9855 21.3612 58.9624 21.4884C58.9174 21.7361 58.7374 22.0557 58.5842 22.2526C58.4136 22.472 58.295 22.7506 58.0946 22.9509C58.0534 22.9921 57.9372 23.043 57.9205 23.1016C57.9042 23.1584 57.8586 23.2855 57.8059 23.3118" stroke="#E6D1B2" stroke-width="1.5" stroke-linecap="round"/>
<path d="M57.6931 23.1988C57.5018 23.1988 57.2311 23.1986 57.0497 23.1486C56.9513 23.1214 56.8466 23.0813 56.7468 23.0591C56.6493 23.0375 56.523 22.8551 56.4675 22.7782C56.4113 22.7004 56.3314 22.633 56.2871 22.5491C56.1811 22.349 56.0664 22.1221 55.9261 21.9418C55.8552 21.8506 55.8592 21.7556 55.8147 21.6578C55.7527 21.5214 55.8248 21.3254 55.7661 21.1933C55.7219 21.0939 55.7441 20.957 55.7441 20.8481C55.7441 20.676 55.7441 20.5039 55.7441 20.3318C55.7441 20.175 55.7724 20.0242 55.7724 19.8642C55.7724 19.7037 55.8454 19.5597 55.8571 19.4075C55.8741 19.1869 56.1324 18.8843 56.2965 18.75C56.4992 18.5841 56.6754 18.3727 56.8614 18.1867C56.996 18.0521 57.1682 17.9615 57.2976 17.832" stroke="#E6D1B2" stroke-width="1.5" stroke-linecap="round"/>
<path d="M53.7668 18.1147C54.3202 18.1147 54.8992 18.1795 55.4459 18.2685C55.5832 18.2909 55.7194 18.2766 55.8571 18.2842C55.9892 18.2916 55.6399 18.5708 55.6091 18.5949C55.4636 18.7088 55.2003 18.8409 55.1368 19.0186C55.1023 19.1152 55.0877 19.2307 55.1085 19.3309C55.1489 19.5247 55.1205 19.7264 55.165 19.9225C55.2256 20.1892 55.2674 20.5962 55.1729 20.8609C55.1348 20.9674 55.0627 21.0603 55.0254 21.1669C54.9748 21.3113 54.962 21.4818 54.9516 21.633C54.9365 21.8518 54.8602 22.1704 54.9595 22.3799C55.042 22.5541 54.9838 22.5647 54.8402 22.4929" stroke="#E6D1B2" stroke-width="1.5" stroke-linecap="round"/>
<path d="M51.7896 22.2949C51.5115 22.0447 51.0834 21.6731 51.0834 21.2483C51.0834 20.921 51.0552 20.5863 51.0552 20.2549C51.0552 19.9989 51.0678 19.7523 51.1054 19.4986C51.128 19.3458 51.1373 19.1768 51.2262 19.0435C51.3424 18.8692 51.4434 18.687 51.5636 18.5162C51.6189 18.4376 51.7003 18.3825 51.7472 18.2981C51.8358 18.1385 51.7442 18.205 51.573 18.1977C50.9493 18.1711 50.3228 18.1472 49.6993 18.193C48.7443 18.2631 47.7864 18.0863 46.8339 18.0863C46.3722 18.0863 45.9116 18.0863 45.4499 18.0863C45.3798 18.0863 45.0217 18.0322 44.976 18.1145C44.929 18.1991 44.9157 18.2846 44.9038 18.3813C44.8717 18.6418 44.8484 18.9026 44.7845 19.158C44.6886 19.5419 44.6978 19.9095 44.6496 20.2957C44.6293 20.4582 44.6758 20.6041 44.6935 20.7634C44.7139 20.9472 44.7217 21.1232 44.7563 21.3063C44.7921 21.496 44.7922 21.6898 44.819 21.8807C44.8302 21.9603 44.8308 22.0737 44.8834 22.138C44.9281 22.1927 45.1283 22.3121 45.1909 22.2494C45.2234 22.217 45.1977 22.1345 45.1941 22.0988C45.1745 21.9072 45.1743 21.7135 45.1643 21.5213C45.1325 20.9133 45.1009 20.318 45.2082 19.7151C45.259 19.4295 45.3016 19.1402 45.384 18.8615C45.412 18.7665 45.4596 18.6671 45.4624 18.5664C45.464 18.5101 45.4624 18.4534 45.4624 18.397C45.4624 18.2609 45.4686 18.6692 45.4781 18.805C45.5164 19.3525 45.5594 19.8991 45.6335 20.4432C45.6919 20.8728 45.8119 21.2758 45.9081 21.6955C45.9434 21.8497 46.0269 21.9556 46.1403 22.069C46.1923 22.1209 46.4019 22.4204 46.2643 22.2086C45.997 21.7974 45.6653 21.4637 45.6947 20.9391C45.7213 20.4628 45.7665 19.9887 45.7731 19.5111C45.7779 19.1644 46.2131 19.1694 46.4683 19.1439C47.6058 19.0302 48.7093 18.7006 49.85 18.6245C50.0885 18.6086 50.3345 18.5871 50.5687 18.5445C50.7139 18.5181 50.8853 18.5199 51.0144 18.4378C51.0946 18.3867 51.2625 18.316 51.3596 18.3122C51.5524 18.3048 51.7723 18.2593 51.9622 18.2118C51.9893 18.205 52.2031 18.1639 52.1379 18.1726C51.8251 18.2143 51.5099 18.3184 51.2058 18.3985C50.8072 18.5036 50.3732 18.5916 50.0148 18.805C49.8911 18.8786 49.8028 18.9122 49.7778 19.0529C49.7134 19.4154 49.8384 19.7824 49.8751 20.142C49.9016 20.4015 50.0242 20.7485 50.1654 20.9658C50.307 21.1837 50.4959 21.3713 50.6189 21.6045C50.677 21.7145 50.7356 21.7614 50.8292 21.8446C50.8556 21.868 50.9673 21.9503 50.9673 21.9921C50.9673 22.0461 50.9196 21.895 50.8935 21.8477C50.7926 21.6645 50.7109 21.4813 50.6472 21.2812C50.4152 20.5529 50.4337 19.8278 50.4337 19.0749C50.4337 18.8959 50.462 18.7228 50.462 18.5445C50.462 18.4509 50.4482 18.5374 50.4337 18.5853C50.3453 18.8786 50.1742 19.1204 50.1403 19.4327C50.0998 19.8063 50.123 20.1904 50.123 20.5656C50.123 20.7063 50.0837 20.9104 50.1638 21.0364C50.2348 21.148 50.2944 21.2736 50.3553 21.3911C50.4535 21.5805 50.5701 21.7533 50.6597 21.9497C50.6985 22.0348 50.7392 22.2625 50.8151 22.3232C50.9192 22.4065 50.5522 22.2768 50.4228 22.2447C49.3679 21.9833 48.3327 21.7217 47.2451 21.6296C46.768 21.5892 46.2796 21.6211 45.8077 21.5323C45.6478 21.5022 45.5271 21.4135 45.3777 21.3691C45.2062 21.3181 45.1526 21.3334 45.2521 21.1886C45.461 20.8849 45.785 20.6591 46.0697 20.4323C46.3575 20.203 46.6464 19.928 46.9516 19.7245C47.1587 19.5865 47.4251 19.5236 47.6641 19.4719C47.8472 19.4323 48.0974 19.3715 48.287 19.4201C48.5836 19.4962 48.9398 19.8007 49.1344 20.029C49.2849 20.2055 49.2555 20.3921 49.0199 20.4982C48.7542 20.6177 48.3133 20.5154 48.0438 20.4856C47.4269 20.4175 46.8175 20.3107 46.2094 20.189C46.1144 20.17 45.742 20.1593 45.6821 20.0635C45.6319 19.9832 45.9018 20.0215 45.9128 20.0227C46.3231 20.0683 46.7296 20.1335 47.1384 20.1906C47.2412 20.205 47.6082 20.2064 47.6358 20.3585C47.6986 20.7038 47.0572 20.6703 46.8622 20.6786C46.651 20.6876 46.4395 20.6849 46.2282 20.6849C46.1485 20.6849 46.0402 20.6676 45.9614 20.6912C45.9211 20.7033 45.9396 20.8475 45.9489 20.8764C45.9838 20.9851 46.1959 21.0047 46.2784 21.0176C46.7911 21.0977 47.3102 21.0104 47.8241 20.9972C48.1947 20.9877 48.5972 20.9587 48.9649 21.0097C49.1471 21.035 49.3328 21.0383 49.5142 21.0678C49.6532 21.0904 49.7373 21.1689 49.8625 21.2153C49.9345 21.242 49.9072 21.2498 49.8437 21.2498C49.2327 21.2498 48.6267 21.1859 48.0171 21.1525C47.241 21.1101 46.4653 21.1086 45.6884 21.1086" stroke="#E6D1B2" stroke-width="1.5" stroke-linecap="round"/>
<path d="M38.5986 24.0183C38.9015 24.0183 39.2033 24.0183 39.5088 24.0183C39.7488 24.0183 39.9795 23.9824 40.2181 23.9633C40.2982 23.9569 40.3679 23.9567 40.4346 23.99" stroke="#E6D1B2" stroke-width="1.5" stroke-linecap="round"/>
<path d="M44.1914 16.4761C43.9577 16.4973 43.7518 16.5891 43.5072 16.5891C43.0892 16.5891 42.6745 16.5311 42.2581 16.5059C41.9966 16.49 41.703 16.4824 41.4452 16.5263C41.2802 16.5544 41.1037 16.5252 40.9368 16.5388C40.5168 16.5731 40.0948 16.5608 39.6736 16.5608C39.0982 16.5608 38.526 16.5891 37.9505 16.5891C37.5506 16.5891 37.1617 16.6456 36.7611 16.6456C36.5545 16.6456 36.3478 16.6456 36.1412 16.6456C36.0217 16.6456 35.8188 16.6283 35.7175 16.5608" stroke="#E6D1B2" stroke-width="1.5" stroke-linecap="round"/>
<path d="M35.5196 16.4198C35.5196 16.3143 35.4409 16.202 35.4647 16.095C35.4759 16.0445 35.5367 15.9993 35.562 15.9537C35.5864 15.9098 35.5948 15.834 35.6059 15.7843C35.6319 15.6672 35.7402 15.5878 35.7958 15.4877C35.8506 15.389 35.8807 15.2593 35.8868 15.1487C35.9026 14.8638 36.0348 14.5708 36.0861 14.2888C36.0989 14.2186 36.1618 14.1407 36.1912 14.0754C36.2352 13.9776 36.2602 13.8653 36.3105 13.7647C36.3697 13.6462 36.3956 13.5096 36.4517 13.3975" stroke="#E6D1B2" stroke-width="1.5" stroke-linecap="round"/>
<path d="M36.3953 13.3128C36.4443 12.8712 36.6379 12.4029 36.8472 11.9994C37.0616 11.5858 37.2074 11.1352 37.3839 10.7079C37.454 10.5381 37.5379 10.3652 37.5957 10.1916C37.6498 10.0294 37.7716 9.90406 37.8295 9.74753C37.9321 9.47063 38.0619 9.17768 38.2046 8.91897C38.4536 8.46771 38.6281 7.97311 38.8307 7.50039C38.9827 7.14568 39.1605 6.80218 39.3187 6.45057C39.4465 6.16672 39.6066 5.90471 39.744 5.62986C39.7935 5.53097 39.9479 5.37148 39.9543 5.26266C39.9594 5.17513 40.0302 5.16263 40.1112 5.14968C40.3699 5.10828 40.6463 5.09589 40.9084 5.09319C41.3536 5.0886 41.7966 5.06494 42.2438 5.06494C42.9508 5.06494 43.6633 5.09319 44.3732 5.09319C44.835 5.09319 45.3107 5.066 45.773 5.09319C45.9477 5.10346 45.8823 5.32654 45.886 5.46039C45.8902 5.61179 45.9425 5.77042 45.9425 5.91233C45.9425 6.3946 45.9707 6.88106 45.9707 7.35916C45.9707 7.84666 45.9707 8.33417 45.9707 8.82168C45.9707 9.05097 45.9425 9.27148 45.9425 9.49959C45.9425 9.73018 45.9664 9.97642 45.9409 10.2057C45.8487 11.0354 45.8577 11.8804 45.8577 12.7212C45.8577 13.5925 45.8012 14.4761 45.8012 15.3465" stroke="#E6D1B2" stroke-width="1.5" stroke-linecap="round"/>
<path d="M36.7063 13.313C36.7063 13.6174 36.7101 13.9592 36.7644 14.2577C36.7975 14.4401 36.8125 14.6396 36.8978 14.81C37.1334 15.2814 37.6259 15.151 38.0888 15.2463C38.3089 15.2916 38.5302 15.3352 38.7463 15.3969C38.9487 15.4548 39.1601 15.5374 39.3677 15.579C39.9732 15.7001 40.6084 15.6887 41.2241 15.7123C41.8372 15.7359 42.448 15.7704 43.0617 15.7704C44.8962 15.7704 39.3929 15.8269 37.5584 15.8269C37.2662 15.8269 36.9889 15.7452 36.7 15.7422C36.5316 15.7404 36.3391 15.8121 36.3391 15.6009" stroke="#E6D1B2" stroke-width="1.5" stroke-linecap="round"/>
<path d="M38.0901 10.375C38.1465 10.3298 38.2614 10.3015 38.3317 10.2902C38.5142 10.261 38.6935 10.1956 38.8778 10.1788C39.1713 10.1521 39.4649 10.1217 39.7597 10.0988C40.1398 10.0692 40.533 10.0642 40.9147 10.0642C41.4129 10.0642 41.9067 10.0078 42.4055 10.0078C42.7842 10.0078 43.3387 9.91086 43.6828 10.0925C43.9616 10.2396 43.8805 10.689 43.8805 10.9618C43.8805 11.3008 43.8805 11.6398 43.8805 11.9787C43.8805 12.4839 43.9468 13.0363 43.8586 13.5322C43.7539 14.1212 43.7437 14.9211 43.0614 15.1485" stroke="#E6D1B2" stroke-width="1.5" stroke-linecap="round"/>
<path d="M38.2031 9.69711C38.3828 9.68712 38.5665 9.6207 38.7461 9.59825C39.2723 9.53247 39.796 9.56044 40.3216 9.51508C41.2778 9.43256 42.2477 9.35815 43.209 9.35815C43.6634 9.35815 44.1925 9.30962 44.637 9.43662C44.843 9.49548 44.9126 9.49283 44.9681 9.74575C45.1058 10.373 45.1517 10.9655 45.1517 11.6037C45.1517 12.822 45.1389 14.0545 45.0528 15.2694C45.0502 15.3063 45.0174 16.1812 44.9885 16.1812C44.9365 16.1812 44.7781 15.7241 44.7562 15.6743C44.6702 15.4784 44.5557 15.0858 44.3482 14.9791C44.0882 14.8454 44.0989 14.751 44.1285 14.4582C44.1838 13.912 44.2478 13.3532 44.2478 12.8042C44.2478 12.2455 44.157 11.6124 44.3341 11.0812C44.3742 10.9609 44.471 10.8733 44.4957 10.7422C44.5259 10.5826 44.574 10.4309 44.6291 10.2777C44.6983 10.0854 44.7708 9.90674 44.8143 9.71123C44.8515 9.54369 44.8363 9.3579 44.8833 9.18868C45.0016 8.76302 45.0191 8.267 45.0764 7.83286C45.1722 7.10567 45.2472 6.34834 45.2647 5.61397C45.2684 5.45496 44.6975 5.55645 44.6119 5.56375C43.4903 5.65939 42.3813 5.88754 41.2631 6.01255C40.9368 6.04904 40.6179 6.06705 40.2949 6.02668C40.1956 6.01427 40.1637 6.04706 40.0893 6.10985C39.7961 6.35751 39.6619 6.78415 39.5495 7.13926C39.4154 7.56324 39.4023 8.0567 39.3675 8.49822C39.3551 8.65552 39.272 9.11475 39.3361 8.97055C39.4292 8.76105 39.6981 8.71163 39.9042 8.71163C40.5901 8.71163 41.2899 8.81307 41.9756 8.84972C42.5879 8.88246 43.2032 8.91538 43.8163 8.93289C44.0567 8.93976 44.3941 8.97136 44.6276 8.90465C44.7298 8.87544 44.6711 8.33395 44.6715 8.27225C44.6743 7.76433 44.7613 7.31309 44.9241 6.83483C45.0232 6.5437 45.0874 6.29565 44.6809 6.36406C43.5333 6.55722 42.4053 6.798 41.2443 6.87877C40.9368 6.90016 40.626 6.94121 40.3216 6.95723C40.2722 6.95983 40.1804 6.97383 40.1804 7.02942C40.1804 7.25847 40.1945 7.48536 40.2149 7.7136C40.2224 7.79835 40.2283 8.0434 40.353 8.05726C40.4548 8.06858 40.5639 8.03838 40.6652 8.03059C40.9304 8.01019 41.1932 8.00234 41.4593 8.00234C42.248 8.00234 43.0399 8.05883 43.8257 8.05883C43.8895 8.05883 44.0077 8.08545 44.0501 8.02431C44.1595 7.86629 44.1631 7.64128 44.1631 7.45782C44.1631 7.39791 44.1838 7.31444 44.1285 7.27422C44.0395 7.20947 43.6989 7.37584 43.5981 7.39348C43.3217 7.44185 43.0149 7.41408 42.7351 7.40917C42.6741 7.4081 42.6196 7.38354 42.5593 7.38092C42.5519 7.3806 42.7139 7.38092 42.7508 7.38092" stroke="#E6D1B2" stroke-width="1.5" stroke-linecap="round"/>
<path d="M44.9257 4.58464C44.7192 4.58464 44.523 4.52791 44.3199 4.4999C44.1747 4.47986 43.9843 4.48743 43.8523 4.42144C43.6646 4.3276 43.5671 3.93796 43.471 3.76707C43.2951 3.45444 43.2672 3.22856 43.3156 2.87731C43.3418 2.68748 43.291 2.36936 43.3863 2.19784C43.485 2.0201 43.1574 1.92252 43.1462 1.73177C43.1399 1.62458 42.4998 1.59532 42.4243 1.59211C42.2291 1.5838 42.0357 1.56952 41.8406 1.5623C41.6007 1.55341 41.3735 1.4365 41.1423 1.3787C40.8888 1.31534 40.6258 1.31658 40.378 1.39282C40.2228 1.44058 40.0454 1.47513 39.8853 1.50424C39.8119 1.51758 39.6879 1.52113 39.6311 1.57799C39.5345 1.67459 39.5589 1.98326 39.5589 2.10525C39.5589 2.33272 39.5872 2.55255 39.5872 2.77845C39.5872 2.95619 39.6145 3.14273 39.6374 3.31984C39.6678 3.55591 39.6556 3.85629 39.7566 4.07621C39.9493 4.49547 40.4164 4.72824 40.83 4.88907C40.9023 4.91719 40.7975 4.65601 40.7955 4.65054C40.6671 4.3122 40.5138 3.9745 40.411 3.62741C40.2932 3.22987 40.5276 2.87112 40.6479 2.51011C40.6675 2.45133 40.7091 2.40116 40.6746 2.33907C40.6287 2.25642 40.9379 2.36176 40.9587 2.36574C41.4875 2.46755 42.0195 2.55369 42.5467 2.6639C42.8364 2.72444 43.1516 2.74469 43.4349 2.81925C43.4976 2.83574 43.4483 2.84682 43.4129 2.87574C43.2876 2.9783 43.239 3.08059 43.1681 3.22882C43.0597 3.45587 43.0162 3.70765 43.0065 3.95851C43.005 3.9981 43.0211 4.29646 42.9422 4.24568C42.7564 4.12624 42.5631 4.01982 42.3772 3.90045C42.1235 3.73745 41.8138 3.58255 41.6224 3.34337C41.545 3.24661 41.4835 3.14796 41.3949 3.05934C41.3694 3.03387 41.3336 3.00717 41.3164 2.97461C41.3114 2.96505 41.3114 2.92839 41.3086 2.93537C41.2517 3.07765 41.286 3.25483 41.296 3.40301C41.3185 3.73554 41.3431 4.04976 41.4231 4.37436C41.4417 4.44947 41.4514 4.50991 41.4514 4.58621C41.4514 4.73955 41.5146 4.51913 41.5361 4.47165" stroke="#E6D1B2" stroke-width="1.5" stroke-linecap="round"/>
<path d="M43.7676 1.36437C44.1583 1.36437 44.5491 1.36437 44.9398 1.36437C45.1328 1.36437 45.3258 1.36437 45.5188 1.36437C45.619 1.36437 45.7493 1.34219 45.8437 1.3785C45.9169 1.40666 45.9957 1.3934 46.0712 1.42087C46.1632 1.45432 46.2292 1.52442 46.3097 1.57622C46.5011 1.69922 46.5643 1.89883 46.6644 2.08465C46.7651 2.27169 46.7311 2.4953 46.7679 2.69822C46.849 3.14409 46.7007 3.61724 46.6204 4.05404C46.5218 4.59109 46.2738 4.86755 45.7793 5.09287C45.6659 5.14454 45.3624 5.33619 45.2646 5.20585" stroke="#E6D1B2" stroke-width="1.5" stroke-linecap="round"/>
<path d="M34.6501 17.4915C33.5023 17.4915 32.3483 17.4586 31.1956 17.4586C30.9145 17.4586 30.6443 17.3928 30.3567 17.3928C29.8924 17.3928 29.4245 17.2659 28.9548 17.2283C28.4036 17.1842 27.8498 17.1987 27.2988 17.1607C27.0423 17.143 26.7404 17.1448 26.4909 17.0894C25.6884 16.9111 24.8104 16.8664 23.9905 16.8664C23.4349 16.8664 22.8476 16.8454 22.2962 16.7842C21.7721 16.7259 21.255 16.7157 20.7334 16.6288C20.1136 16.5255 19.4518 16.4387 18.8252 16.4387" stroke="#E6D1B2" stroke-width="1.5" stroke-linecap="round"/>
<path d="M35.2096 21.2423C33.9116 21.4046 32.567 21.3081 31.247 21.3081C30.9228 21.3081 30.5708 21.2765 30.2491 21.235C29.9411 21.1953 29.6176 21.2539 29.3132 21.2021C28.8839 21.129 28.4251 21.1653 27.9899 21.1272C27.5497 21.0885 27.1088 21.0441 26.6703 21.0138C25.8155 20.9549 24.9678 20.8475 24.1077 20.8475C23.0989 20.8475 22.0975 20.787 21.0955 20.6757C20.5585 20.616 20.02 20.5886 19.4834 20.535C19.1216 20.4988 18.7537 20.4851 18.3904 20.46C18.0751 20.4383 17.7556 20.4775 17.4418 20.4363C17.1618 20.3994 16.8721 20.4198 16.59 20.4198C16.3423 20.4198 16.0958 20.3869 15.8461 20.3869C15.651 20.3869 15.4666 20.354 15.2722 20.354" stroke="#E6D1B2" stroke-width="1.5" stroke-linecap="round"/>
<path d="M18.3644 16.2415C18.1886 16.2415 17.9038 16.2429 17.7905 16.4078C17.5164 16.8065 17.3468 17.3276 17.2202 17.7951C17.0986 18.244 17.0429 18.6799 17.0173 19.1403C17.0048 19.3659 17.0155 19.5942 17.0155 19.8202C17.0155 19.9437 17.0594 19.8015 17.074 19.7544C17.3097 18.9948 17.4664 18.1957 17.8526 17.4935C17.9311 17.3507 18.0211 17.2095 18.0939 17.064C18.1094 17.0329 18.1167 16.9413 18.156 16.9342C18.2833 16.911 18.439 17.0286 18.5508 17.0713C19.2565 17.3404 19.9392 17.4456 20.6838 17.5099C21.3122 17.5642 21.9424 17.6891 22.5738 17.6891C23.5381 17.6891 24.521 17.7362 25.4781 17.8536C27.1045 18.0529 28.7653 18.1134 30.4022 18.1515C31.4428 18.1757 32.4833 18.2813 33.524 18.2813C33.6198 18.2813 33.8943 18.2263 33.9426 18.3324C34.0215 18.5061 33.9424 18.7735 33.9279 18.9539C33.9046 19.246 33.7176 19.5254 33.5642 19.7691C33.4896 19.8875 33.4928 19.9772 33.5478 20.1054C33.6427 20.327 33.6051 20.1293 33.5989 20.0177C33.5794 19.6662 33.5376 19.326 33.3814 19.0051C33.33 18.8992 33.1675 18.9064 33.0561 18.9064C32.4858 18.9064 31.9156 18.9064 31.3453 18.9064C30.4942 18.9064 29.6786 18.7723 28.8321 18.6925C26.9349 18.5138 25.0604 18.2155 23.1513 18.2155C22.4212 18.2155 21.6837 18.246 20.9562 18.1752C20.3818 18.1194 19.7967 18.0592 19.2198 18.051C19.0061 18.0479 18.792 18.051 18.5782 18.051C18.4012 18.051 18.2269 18.0181 18.05 18.0181C17.9122 18.0181 17.9367 18.074 17.9367 18.1935C17.9367 18.6268 17.9696 19.0585 17.9696 19.4912C17.9696 19.6063 17.9609 19.6302 18.0829 19.6302C18.7262 19.6302 19.3681 19.6535 20.0112 19.6612C20.9029 19.672 21.7841 19.7731 22.6743 19.7928C24.0093 19.8225 25.3524 19.7618 26.6881 19.7618C27.2105 19.7618 27.7458 19.761 28.2655 19.8129C28.7793 19.8643 29.2796 19.9827 29.7972 20.025C30.5126 20.0834 31.2391 20.0824 31.9521 20.1639C32.2083 20.1932 32.4652 20.2224 32.7234 20.2224C32.9583 20.2224 33.234 20.1799 33.46 20.2553C33.9127 20.4061 32.5051 20.3097 32.0289 20.2809C30.7467 20.2031 29.4925 20.1135 28.2088 20.1493C27.7949 20.1608 27.3819 20.1237 26.9678 20.1237C26.941 20.1237 26.6258 20.1598 26.6442 20.173C26.7062 20.2173 26.869 20.1995 26.9403 20.2041C27.626 20.2479 28.3559 20.0826 29.0313 19.9994C30.07 19.8715 31.0975 19.8102 32.1385 19.7544C32.5824 19.7307 33.0208 19.696 33.4655 19.696C33.4888 19.696 33.5463 19.709 33.535 19.6886C33.5023 19.6299 33.1774 19.6255 33.1511 19.6228C31.8856 19.4932 30.6152 19.3751 29.3439 19.3231C27.981 19.2674 26.6143 19.2648 25.2551 19.144C24.6496 19.0901 24.0256 19.0831 23.4182 19.0727C22.954 19.0648 22.4964 19.0513 22.0346 18.9977C21.583 18.9454 21.1336 18.8571 20.6784 18.8424C20.2276 18.8278 19.7902 18.8735 19.3441 18.8735C19.127 18.8735 18.9001 18.8406 18.6934 18.8406" stroke="#E6D1B2" stroke-width="1.5" stroke-linecap="round"/>
<path d="M18.6609 16.0766C18.7692 16.063 18.8956 15.9414 19.0045 15.9103C19.1483 15.8692 18.8906 15.8143 18.851 15.8134C18.7171 15.8103 18.599 15.7805 18.4635 15.7805C18.0388 15.7805 17.6175 15.5173 17.1968 15.5173C16.5682 15.5173 15.9316 15.4844 15.3032 15.4844C14.7165 15.4844 14.1298 15.4844 13.5431 15.4844C13.3164 15.4844 13.0977 15.4515 12.8705 15.4515C12.6659 15.4515 12.4508 15.47 12.2472 15.4497C11.7251 15.3975 11.1953 15.3857 10.668 15.3857C10.3845 15.3857 10.1362 15.3421 9.86011 15.3181C9.64017 15.2989 9.46155 15.2212 9.23501 15.2212C8.9919 15.2212 8.87148 15.4952 8.77258 15.6836C8.65365 15.9101 8.52538 16.1297 8.42895 16.3654C8.37344 16.5011 8.30716 16.635 8.21693 16.751C8.10026 16.9011 8.02038 17.1447 7.96835 17.3268C7.81717 17.8559 7.86965 18.358 7.86965 18.8895C7.86965 19.0723 7.9774 19.3088 8.05974 19.4653C8.15901 19.6539 8.23201 19.8655 8.32294 20.0575C8.36479 20.1458 8.55381 20.2816 8.65925 20.2878C8.73939 20.2925 8.81088 20.3235 8.8731 20.3719C8.94446 20.4274 8.90539 20.5278 8.98825 20.5766C9.16136 20.6784 9.37076 20.6751 9.57314 20.6826C9.76388 20.6897 9.94149 20.7813 10.1398 20.7813C10.3592 20.7813 10.5886 20.8142 10.7978 20.8142C10.9583 20.8142 11.1802 20.8087 11.3242 20.8727C11.4647 20.9351 11.7039 20.8087 11.825 20.9056C11.952 21.0072 11.8835 20.7602 11.8835 20.7338C11.8835 20.6509 11.8835 20.5681 11.8835 20.4852C11.8835 20.2132 12.7494 20.222 12.9692 20.222C13.1104 20.222 13.2757 20.2458 13.4298 20.2549C13.5992 20.2649 13.8026 20.2825 13.9891 20.2878C14.2501 20.2953 14.5132 20.3207 14.7787 20.3207C14.861 20.3207 14.9096 20.3536 14.9943 20.3536C15.1332 20.3536 15.268 20.3207 15.4038 20.3207" stroke="#E6D1B2" stroke-width="1.5" stroke-linecap="round"/>
<path d="M16.3577 20.288C16.3465 20.098 16.2473 19.8962 16.2188 19.7031C16.1909 19.5141 16.1761 19.3227 16.1347 19.1365C16.0785 18.8835 16.1565 18.6241 16.1914 18.3798C16.2715 17.8186 16.5214 17.2481 16.7342 16.7256C16.7482 16.6914 16.7701 16.6058 16.7927 16.5776C16.7996 16.569 16.8398 16.5374 16.8311 16.5374C16.584 16.5374 16.341 16.53 16.0945 16.5118C15.4362 16.463 14.7686 16.5374 14.1095 16.5374C13.8262 16.5374 13.4899 16.5599 13.2176 16.4643C12.5889 16.2434 11.8833 16.1485 11.218 16.1115C10.6574 16.0804 10.0953 16.1148 9.5346 16.0786C9.33579 16.0658 9.13593 16.0846 8.93692 16.0695C8.9131 16.0676 8.65091 16.043 8.69931 16.0603C8.84969 16.114 9.04294 16.1201 9.20012 16.1426C9.57731 16.1965 9.95867 16.2317 10.3388 16.2559C11.5096 16.3304 12.685 16.4194 13.85 16.563C14.7215 16.6703 15.6112 16.7348 16.4893 16.7348C16.6234 16.7348 16.6751 16.565 16.7452 16.4716C16.8478 16.3348 16.9718 16.242 16.8677 16.4734C16.6138 17.0374 16.4501 17.7352 16.3888 18.3487C16.3639 18.598 16.2834 18.8039 16.1603 19.0232C16.0933 19.1425 15.9799 19.5642 15.7984 19.5642C15.4592 19.5642 15.1208 19.4506 14.9101 19.1767C14.8437 19.0904 14.646 19.0415 14.5409 19.0378C14.2439 19.0272 13.9589 19.0475 13.6581 19.0871C13.2872 19.1359 12.9167 19.1939 12.545 19.2352C12.3007 19.2623 12.0852 19.3807 11.8358 19.3979C11.4795 19.4224 11.1566 19.3348 10.8634 19.5971C10.7246 19.7213 10.8741 19.8422 11.0279 19.8603C11.0447 19.8622 11.0827 19.8945 11.0718 19.8914C10.8798 19.8365 10.6855 19.8149 10.4869 19.7945C10.1507 19.7599 9.73966 19.7807 9.46149 19.5953C9.2844 19.4772 9.07512 19.1826 9.00455 18.9866C8.92498 18.7656 8.85654 18.545 8.94057 18.3158C8.9909 18.1786 9.07886 18.0371 9.0868 17.8863C9.09658 17.7004 9.07587 17.5128 9.0868 17.327C9.09134 17.2497 9.19897 17.2204 9.25861 17.2027C9.34665 17.1766 9.46262 17.1954 9.55288 17.1954C9.96699 17.1954 10.3793 17.289 10.7939 17.3087C11.9745 17.3649 13.1514 17.394 14.3289 17.5079C14.6708 17.541 15.0093 17.5902 15.3524 17.5902C15.5768 17.5902 16.0616 17.6073 16.0616 17.8936C16.0616 18.0779 15.8486 18.4456 15.6339 18.4456C15.2437 18.4456 14.8555 18.3825 14.4641 18.3798C13.561 18.3735 12.66 18.3797 11.7572 18.3469C11.2311 18.3277 10.7215 18.3081 10.2017 18.2792C10.1557 18.2767 9.31976 18.1699 9.3171 18.2153C9.30521 18.4173 9.52788 18.7442 9.679 18.866C9.79925 18.9628 9.94827 18.9391 10.0921 18.9391C10.193 18.9391 10.2828 18.932 10.3772 18.9647C10.628 19.0515 10.9368 19.0309 11.1979 19.0396C11.9294 19.064 12.6572 19.1435 13.3748 19.2809C13.625 19.3288 13.8299 19.4113 14.0693 19.4984C14.181 19.539 14.2911 19.5719 14.4056 19.6154C14.5684 19.6771 14.7273 19.7463 14.8882 19.8128C15.063 19.885 14.7824 19.7769 14.7456 19.7616" stroke="#E6D1B2" stroke-width="1.5" stroke-linecap="round"/>
<path d="M11.4227 20.4525C10.9308 19.9114 10.9016 18.868 11.4227 18.3469C11.5222 18.2473 11.6436 18.2161 11.7517 18.1312C11.9526 17.9733 12.1341 17.8685 12.3768 17.7876" stroke="#E6D1B2" stroke-width="1.5" stroke-linecap="round"/>
<path d="M8.26409 15.7807C7.31452 15.7807 6.36256 15.7149 5.40909 15.7149C4.52445 15.7149 3.6398 15.7149 2.75516 15.7149C2.34862 15.7149 1.95963 15.6491 1.55248 15.6491C1.42036 15.6491 1.22348 15.5382 1.22348 15.7149C1.22348 15.8487 1.22046 15.967 1.1924 16.0933C1.1539 16.2665 1.21416 16.4563 1.17413 16.6324C1.1359 16.8007 1.15768 16.9898 1.15768 17.1625C1.15768 17.4943 1.05898 17.837 1.05898 18.166C1.05898 18.3301 1.0051 18.4783 1.04253 18.643C1.07737 18.7963 1.08354 19.0111 1.09188 19.1694C1.10271 19.3753 1.15344 19.3476 1.35508 19.3924C1.59477 19.4457 1.88784 19.3997 2.13006 19.3997C2.6098 19.3997 3.08386 19.419 3.55938 19.4326C3.93824 19.4434 4.32733 19.4984 4.70905 19.4984C5.1446 19.4984 5.56864 19.6206 6.00129 19.63C6.42738 19.6393 6.83326 19.7287 7.25881 19.7287C7.48298 19.7287 7.71135 19.7419 7.93509 19.7287C8.02542 19.7234 7.81892 19.5639 7.80349 19.5478C7.709 19.449 7.60322 19.3667 7.50739 19.2681C7.36464 19.1213 7.28302 19.0029 7.22774 18.8039C7.14164 18.4939 7.19333 18.1861 7.20946 17.8717C7.2237 17.594 7.23365 17.2781 7.2844 17.0053C7.30012 16.9208 7.33127 16.8451 7.39224 16.7842C7.45942 16.717 7.47646 16.7316 7.35385 16.7019C6.94958 16.6039 6.47668 16.6361 6.06344 16.6361C5.6035 16.6361 5.12636 16.6334 4.66884 16.5868C4.32017 16.5512 3.95141 16.5982 3.6069 16.5356C3.37907 16.4942 3.16073 16.4745 2.92697 16.4716C2.75948 16.4695 2.58797 16.4493 2.42067 16.4369C2.24322 16.4237 2.03588 16.4348 1.8632 16.3985C1.77235 16.3794 1.6799 16.3534 1.5872 16.3418C1.54604 16.3367 1.50843 16.3387 1.58172 16.34C1.80891 16.3441 2.03489 16.3749 2.26166 16.3875C3.58875 16.4613 4.92661 16.3656 6.24439 16.5539C6.74714 16.6257 7.26385 16.7203 7.77059 16.7348C7.85035 16.7371 8.09605 16.7677 8.09228 16.7677C7.9065 16.7677 7.73007 16.7019 7.54211 16.7019C7.23809 16.7019 7.16621 17.1943 7.04861 17.4074C6.98257 17.5271 6.84837 17.7547 6.68488 17.7547C6.42893 17.7547 6.12218 17.5853 5.90259 17.4659C5.53363 17.2654 5.06463 17.2612 4.65788 17.2612C4.19337 17.2612 3.67158 17.3295 3.21393 17.2448C3.0671 17.2176 2.91822 17.2324 2.76978 17.2283C2.68671 17.226 2.61465 17.1561 2.53948 17.1223C2.40634 17.0624 2.15737 16.9581 2.01308 17.0382C1.85433 17.1264 1.93506 17.8784 1.99663 18.0508C2.0579 18.2224 1.98791 18.2429 2.1922 18.3305C2.33348 18.391 2.38507 18.4688 2.53948 18.5041C2.87148 18.58 3.30273 18.5141 3.6398 18.5114C4.20585 18.5069 4.76826 18.4456 5.33598 18.4456C5.45714 18.4456 6.7719 18.5252 6.73606 18.6686C6.72501 18.7128 5.70279 18.5013 5.65402 18.4931C4.9162 18.3702 4.1537 18.2494 3.48261 17.9009C3.18604 17.7469 2.92317 17.6231 2.587 17.6231C2.45726 17.6231 2.27949 17.5718 2.20317 17.6962C2.13321 17.8102 2.08125 17.9328 1.99663 18.0362C1.93075 18.1167 1.7857 18.3078 1.9619 18.3542C2.17165 18.4094 2.37916 18.4479 2.59614 18.4602C2.83124 18.4735 3.06906 18.4349 3.30166 18.4072C4.07626 18.315 4.84766 18.1993 5.62112 18.0983C6.1174 18.0336 6.62272 17.993 7.11258 17.8863C7.30534 17.8443 7.50229 17.7913 7.63716 17.6396C7.71448 17.5526 7.87345 17.4317 7.90036 17.3106C7.94236 17.1216 8.21733 17.0722 8.3902 17.0163C8.5081 16.9781 8.61286 16.9584 8.6991 17.0638C8.74353 17.1181 8.80166 17.2339 8.85629 17.2612" stroke="#E6D1B2" stroke-width="1.5" stroke-linecap="round"/>
<path d="M9.90923 15.3856C9.9126 15.3586 10.0859 15.2434 10.1249 15.2211C10.2291 15.1615 10.2892 15.0433 10.3698 14.9579C10.5705 14.7454 10.633 14.6736 10.633 14.3657C10.633 13.9254 10.9053 13.515 10.4356 13.2215C10.3509 13.1685 10.3199 13.0689 10.2547 13.0168C10.1968 12.9704 10.0839 12.818 10.0481 12.7536C9.9028 12.492 9.31509 12.4904 9.05383 12.4904C8.49506 12.4904 7.93708 12.4575 7.37593 12.4575C7.16328 12.4575 6.96113 12.4246 6.749 12.4246C6.58141 12.4246 6.42278 12.4575 6.25732 12.4575" stroke="#E6D1B2" stroke-width="1.5" stroke-linecap="round"/>
<path d="M5.99406 12.5564C5.68386 12.3922 5.2828 12.1769 5.20263 11.8162C5.16252 11.6357 5.0491 11.4708 5.00889 11.2898C4.95069 11.0279 4.97416 10.6866 4.97416 10.4198C4.97416 10.162 4.97416 9.90432 4.97416 9.6466C4.97416 9.42182 5.01084 9.18915 5.06555 8.97032C5.12804 8.72034 5.14895 8.44826 5.34337 8.25383C5.51096 8.08624 5.71977 7.93651 5.92826 7.82613C6.11889 7.72521 6.23509 7.53498 6.44735 7.46423C6.99774 7.28077 7.53265 7.32532 8.11429 7.32532C8.99012 7.32532 9.86868 7.42402 10.7463 7.42402C10.9316 7.42402 11.1083 7.42203 11.291 7.44961C11.4509 7.47375 11.6365 7.41988 11.7918 7.46423C11.9952 7.52235 12.2254 7.50339 12.4352 7.53003C12.6068 7.55182 12.7892 7.58852 12.9616 7.58852C13.455 7.58852 13.985 7.58472 14.3507 7.95042C14.9303 8.53002 15.1403 9.56479 15.1403 10.3667C15.1403 10.5805 15.1748 10.8137 15.0818 11.0101C14.992 11.1997 14.8928 11.3234 14.7455 11.4707C14.5204 11.6958 14.252 11.9953 14.252 12.3261C14.252 12.6542 14.2849 12.9641 14.2849 13.2948C14.2849 13.6383 14.2774 13.9707 14.4165 14.2837C14.5648 14.6174 15.0187 14.7183 15.2719 14.9581C15.4157 15.0944 15.5926 15.213 15.7252 15.3602C15.811 15.4556 15.9481 15.6161 16.0944 15.6161" stroke="#E6D1B2" stroke-width="1.5" stroke-linecap="round"/>
<path d="M14.3837 15.1555C14.006 15.1555 13.7435 14.6741 13.6343 14.3586C13.529 14.0544 13.4954 13.7169 13.4954 13.3935C13.4954 13.0705 13.5283 12.7452 13.5283 12.4266C13.5283 12.1893 13.5449 11.9164 13.6526 11.701C13.7415 11.5232 13.9281 11.3577 14.0657 11.2148C14.187 11.0888 14.2562 10.8633 14.285 10.6975C14.3231 10.4789 14.3654 10.3273 14.3161 10.1053C14.2649 9.87489 14.2065 9.67342 14.1845 9.43087C14.1604 9.16534 14.0901 8.90195 14.0529 8.64126C13.9986 8.26144 13.1942 8.28064 12.9617 8.27936C10.9781 8.26847 8.99808 8.18066 7.01412 8.18066C6.63036 8.18066 6.35078 8.70252 6.19161 9.00317C5.90861 9.53773 5.7651 10.1479 5.87906 10.7633C5.90947 10.9275 5.83965 11.3157 5.97776 11.4231C6.18734 11.5861 6.43479 11.6352 6.69243 11.6352C7.6376 11.6352 8.58688 11.6023 9.52914 11.6023C9.98715 11.6023 10.5048 11.5475 10.8981 11.8179C11.2197 12.039 11.3494 12.4384 11.5214 12.7702C11.6719 13.0605 11.7517 13.351 11.7517 13.675C11.7517 13.9137 11.7846 14.1561 11.7846 14.3988C11.7846 14.4914 11.7846 14.584 11.7846 14.6766C11.7846 14.8463 11.6767 14.5324 11.6549 14.4792C11.566 14.2626 11.4778 14.0465 11.3825 13.8322C11.3049 13.6576 11.1702 13.5268 11.0773 13.3624C11.0013 13.228 10.8481 13.1133 10.7903 12.9768C10.7636 12.9137 10.6941 12.797 10.6331 12.7611C10.5343 12.7029 10.4801 12.5446 10.4028 12.4577C10.271 12.3094 10.1741 12.213 10.008 12.0885C9.85527 11.9739 9.67484 11.8876 9.49807 11.8161C9.35484 11.7582 9.15325 11.6408 8.99543 11.6352C8.59988 11.621 8.25062 11.4938 7.85855 11.4231C7.57357 11.3718 7.284 11.3611 6.99949 11.3062C6.84891 11.2771 6.52564 11.2746 6.40729 11.1563C6.26394 11.0129 6.25876 10.6987 6.30494 10.5166C6.40031 10.1404 6.70995 9.93406 6.88983 9.62827C6.9563 9.51525 7.06452 9.43027 7.12927 9.31572C7.15324 9.27331 7.2785 8.97392 7.32849 8.97392C7.50544 8.97392 7.71447 9.06332 7.89876 9.07628C8.80566 9.14004 9.71013 9.2386 10.6185 9.28099C11.2603 9.31094 11.8974 9.33132 12.5377 9.36689C12.7568 9.37907 12.9458 9.41657 13.15 9.46194C13.4743 9.534 13.3309 10.3322 13.3309 10.5568C13.3309 10.9567 13.3413 11.4272 13.1737 11.7997C13.089 11.9879 13.0612 12.2458 13.0184 12.4467C12.9243 12.8881 12.7342 13.3504 12.7077 13.8011C12.6915 14.0758 12.7058 14.3557 12.7058 14.6309C12.7058 14.8158 12.7155 15.0037 12.7058 15.1884C12.7019 15.263 12.4801 15.0592 12.4499 15.0312C12.3128 14.9039 12.1931 14.8364 12.0149 14.8265C11.7642 14.8125 12.0167 14.275 12.0551 14.1685C12.1575 13.885 12.1685 13.5939 12.1813 13.2948C12.1918 13.0479 12.2452 12.8032 12.2452 12.5564C12.2452 12.357 12.2123 12.1664 12.2123 11.9623C12.2123 11.6771 12.1728 11.362 12.2946 11.0941C12.388 10.8886 12.4879 10.703 12.6071 10.5093C12.7776 10.2322 12.3585 10.2176 12.1721 10.1949C11.5996 10.1251 11.0014 10.0889 10.4248 10.0889C9.98382 10.0889 9.56001 9.98217 9.12155 9.95909C8.76444 9.9403 8.41188 9.92437 8.05229 9.92437C7.89224 9.92437 7.50558 9.86426 7.39429 9.97554C7.30349 10.0663 7.28907 10.2929 7.37602 10.385C7.47265 10.4873 7.69443 10.5345 7.82382 10.5805C8.34237 10.7649 9.0042 10.7409 9.54742 10.7469C10.1933 10.754 10.8524 10.7739 11.4958 10.8309C11.7373 10.8523 11.9913 10.9772 12.2269 10.9772C12.3895 10.9772 12.0945 11.3472 12.0624 11.3884C11.8579 11.6514 11.5443 11.539 11.2911 11.4378" stroke="#E6D1B2" stroke-width="1.5" stroke-linecap="round"/>
<path d="M3.13195 12.9513C3.04128 12.7972 2.94325 12.6543 2.86143 12.4907C2.76707 12.302 2.77506 12.1271 2.72069 11.9314C2.64379 11.6545 2.73127 11.345 2.73714 11.0687C2.76177 9.9114 2.93799 8.76527 3.10087 7.62512C3.11407 7.53275 2.92934 7.64652 2.85412 7.65254C2.6772 7.66669 2.49397 7.65437 2.31676 7.65437C2.17172 7.65437 2.03587 7.68727 1.88905 7.68727C1.7163 7.68727 1.81594 8.38691 1.81594 8.49515C1.81594 9.38189 1.8998 10.3003 2.01334 11.182C2.06931 11.6166 2.13058 12.052 2.19429 12.4852C2.20186 12.5366 2.21074 12.727 2.21074 12.721" stroke="#E6D1B2" stroke-width="1.5" stroke-linecap="round"/>
<path d="M5.39891 13.4771C5.19762 13.2959 4.81647 13.2599 4.67405 13.0106C4.58244 12.8503 4.44588 12.775 4.4039 12.5861C4.25102 11.8981 4.1304 11.2009 4.1304 10.487C4.1304 9.63156 4.13709 8.58431 4.76466 7.91983C4.94339 7.73058 5.0414 7.45213 5.2244 7.26209C5.39628 7.0836 5.58529 6.91313 5.76805 6.74864C5.87666 6.65089 5.98902 6.57217 6.08014 6.45501C6.14907 6.36639 5.95744 6.47011 5.89725 6.47011C5.77865 6.47011 5.66056 6.50031 5.5365 6.50031C4.92961 6.50031 4.30259 6.53827 3.70421 6.47179C3.33149 6.43037 2.93371 6.47011 2.5582 6.47011C2.13388 6.47011 1.71583 6.43991 1.2897 6.43991C1.09195 6.43991 0.989352 6.37892 0.989352 6.5926C0.989352 6.83366 0.989352 7.07472 0.989352 7.31578C0.989352 7.73708 0.898745 8.15865 0.898745 8.58428C0.898745 9.30949 0.83834 10.0314 0.83834 10.7589C0.83834 11.2248 0.80881 11.7274 0.892033 12.1851C0.926981 12.3773 0.894404 12.5938 0.898745 12.7891C0.902258 12.9472 0.928947 13.1039 0.928947 13.2657C0.928947 13.3563 0.954467 13.4277 0.95915 13.5073C0.961137 13.5411 1.57911 13.4771 1.65381 13.4771C2.38829 13.4771 3.12176 13.3644 3.84348 13.4754C4.0636 13.5093 4.29159 13.4609 4.50794 13.509C4.60159 13.5298 4.68 13.5375 4.77976 13.5375C4.8203 13.5375 5.06235 13.5975 4.94251 13.5509C4.54444 13.3961 4.06559 13.4167 3.64717 13.4167C3.39349 13.4167 3.07941 13.4558 2.83338 13.3697C2.62442 13.2966 2.41583 13.2056 2.21087 13.1214C1.89405 12.9911 1.3102 12.69 1.32158 12.269C1.33185 11.8891 1.50409 11.4985 1.53971 11.1146C1.59201 10.5509 1.54897 9.98198 1.56991 9.41653C1.59713 8.68158 1.6236 7.93641 1.6236 7.20168C1.6236 7.08137 1.67527 6.96707 1.74441 6.86945C1.76883 6.83499 1.83293 6.8644 1.87026 6.8812C2.08573 6.97816 2.2989 7.04373 2.52968 7.09765C2.75391 7.15004 3.05243 7.16477 3.28474 7.16477C3.641 7.16477 3.93584 7.21487 4.28142 7.27886C4.35377 7.29226 4.43513 7.34598 4.50458 7.34598C4.58047 7.34598 4.37439 7.42415 4.31162 7.46679C3.92846 7.72705 3.7611 8.11394 3.62367 8.54737C3.54916 8.78239 3.56712 9.07453 3.55656 9.31753C3.533 9.85935 3.49615 10.3974 3.49615 10.9401C3.49615 11.2952 3.49615 11.6504 3.49615 12.0055C3.49615 12.0624 3.51096 12.1259 3.53307 12.1784C3.56582 12.2562 3.6957 12.6131 3.70757 12.6012" stroke="#E6D1B2" stroke-width="1.5" stroke-linecap="round"/>
</svg>
