<svg width="39" height="21" viewBox="0 0 39 21" fill="none" xmlns="http://www.w3.org/2000/svg">
<path d="M9 5H36.5333" stroke="#EC6F6F" stroke-width="3" stroke-linecap="round"/>
<path d="M9 12L35.9542 12.1147" stroke="#EC6F6F" stroke-width="3" stroke-linecap="round"/>
<path d="M9 18L36 18" stroke="#EC6F6F" stroke-width="3" stroke-linecap="round"/>
<path d="M3.16081 2C3.16081 3.17164 4.44184 6.90529 2.18185 4.08029C1.43075 3.14142 3.21753 2.75924 3.71147 3.37666C4.20409 3.99243 4.2337 5.24711 3.71147 4.20266" stroke="#EC6F6F" stroke-width="3" stroke-linecap="round"/>
<path d="M3.16088 10.6654C4.39747 10.82 3.30112 12.9471 2.36547 12.0115C1.51121 11.1572 2.49638 10.447 3.16088 10.1147" stroke="#EC6F6F" stroke-width="3" stroke-linecap="round"/>
<path d="M3.3263 17C4.50737 17.1476 3.75049 19.2027 2.77564 19.2027C1.99704 19.2027 1.78746 17.2188 2.22497 17" stroke="#EC6F6F" stroke-width="3" stroke-linecap="round"/>
</svg>
