<svg width="940" height="974" viewBox="0 0 940 974" fill="none" xmlns="http://www.w3.org/2000/svg">
<path d="M635.087 436.776C635.087 425.635 630.843 414.969 625.239 405.512C620.065 396.78 614.184 386.451 607.653 378.468C595.666 363.818 593.297 343.7 580.218 329.852C575.026 324.355 577.792 316.574 574.903 310.156C570.94 301.349 565.864 293.14 561.929 284.284C557.028 273.258 545.906 262.33 535.198 256.381C528.024 252.395 519.794 249.261 512.844 244.813C501.955 237.845 493.923 228.254 483.221 220.896C475.512 215.597 466.809 212.696 458.522 208.234C448.855 203.029 436.524 202.081 427.18 196.197C417.887 190.346 406.551 184.857 396.228 181.034C387.57 177.827 378.568 170.746 370.591 165.871C365.451 162.73 360.619 158.767 355.663 155.319C349.031 150.706 341.163 147.903 334.716 143.439C328.434 139.09 314.897 132.887 307.281 132.887" stroke="#E6D1B2" stroke-width="20" stroke-linecap="round"/>
<path d="M308.69 132.887C297.294 132.887 284.137 120.076 274.221 115.301C260.688 108.785 246.173 105.146 232.717 98.4184C220.229 92.174 210.211 85.1578 196.138 82.5518C183.729 80.2537 172.901 76.3505 160.966 72.7036C154.869 70.8406 148.155 65.8959 142.989 62.23C134.099 55.9211 124.962 49.9183 116.102 43.5496C103.756 34.6764 93.7655 26.5609 79.3662 20.9612C69.9581 17.3025 60.5003 14.7768 50.9157 11.5819C42.7138 8.84795 38.2543 10.4877 30.125 10.4877" stroke="#E6D1B2" stroke-width="20" stroke-linecap="round"/>
<path d="M30.1244 10.4878C30.1244 19.0941 30.8692 25.8808 34.3451 33.7015C35.4738 36.2412 36.1169 39.0012 37.4715 41.4394C38.5175 43.3222 42.7346 44.7706 38.5657 44.175C35.2681 43.7039 6.82564 40.0201 11.5222 48.4739C13.6227 52.2549 19.8973 60.3611 23.7152 62.5428C27.8048 64.8797 28.104 65.8537 25.2003 67.4669C14.2881 73.5292 39.788 83.0818 42.8646 84.4278C48.296 86.804 79.8668 94.3791 74.0507 100.842C70.5043 104.782 66.2384 118.612 73.0346 121.632C88.7895 128.634 101.751 142.282 117.352 150.083C120.69 151.752 116.245 157.638 114.851 161.025C114.071 162.919 123.01 168.09 124.386 169.467" stroke="#E6D1B2" stroke-width="20" stroke-linecap="round"/>
<path d="M124.387 169.466C125.248 178.937 136.502 189.038 142.676 195.494C150.976 204.171 161.779 210.731 169.407 219.802C178.233 230.297 191.045 233.311 200.359 242.625C207.136 249.402 210.463 259.387 217.242 266.542C226.405 276.215 237.95 284.7 249.6 291.553C253.011 293.56 254.052 297.045 255.931 300.385C260.769 308.985 267.244 316.245 273.517 323.912C278.764 330.324 285.318 336.182 293.136 338.919C297.911 340.59 304.86 341.711 308.69 345.328C315.511 351.77 310.093 357.591 313.223 365.024C316.691 373.262 322.381 384.721 332.607 384.721" stroke="#E6D1B2" stroke-width="20" stroke-linecap="round"/>
<path d="M334.013 384.721C334.013 390.531 333.054 396.983 335.42 402.307C337.167 406.237 341.351 409.122 343.549 412.859C345.804 416.693 343.745 414.381 341.047 417.079C336.047 422.079 338.579 430.517 341.047 436.072C343.867 442.416 339.763 448.107 337.921 455.065C332.88 474.108 322.758 492.261 322.758 512.435C322.758 521.884 325.3 517.629 333.31 521.189C334.785 521.845 335.42 534.395 335.42 537.368C335.42 544.368 344.999 534.679 339.641 548.233C335.971 557.514 335.809 560.781 341.673 568.32C345.717 573.52 348.082 573.124 348.082 580.279C348.082 584.983 348.815 590.127 354.413 590.127C359.349 590.127 366.188 588.89 370.592 591.221C372.462 592.211 373.623 593.999 375.516 595.051C378.164 596.522 381.122 595.045 383.879 595.833C386.239 596.507 386.754 601.35 388.882 602.476C390.381 603.27 394.246 604.196 395.916 604.196C400.521 604.196 407.711 605.931 409.985 601.382" stroke="#E6D1B2" stroke-width="20" stroke-linecap="round"/>
<path d="M346.675 142.735C346.675 139.218 346.675 135.701 346.675 132.184C346.675 129.975 350.838 125.853 348.629 125.853C339.766 125.853 336.672 113.861 330.574 110.377C328.628 109.265 322.001 98.1768 321.429 95.6044C320.123 89.7287 315.05 84.0203 309.47 80.8321C305.082 78.3244 304.169 70.8577 299.466 68.17C293.25 64.6179 289.2 59.7287 298.841 59.7287C303.27 59.7287 307.699 59.7287 312.128 59.7287C315.468 59.7287 318.158 62.1645 321.351 62.6206C328.904 63.6997 335.232 69.5769 343.158 69.5769C349.949 69.5769 355.755 72.0354 362.151 72.3907C367.582 72.6924 383.848 73.7976 378.408 73.7976C373.562 73.7976 369.816 57.2673 364.965 54.4138C358.986 50.897 354.072 45.2756 348.082 41.7517C345.186 40.0485 338.091 36.5793 341.36 33.3104C343.526 31.1444 345.798 29.5272 348.082 27.3702C351.806 23.8533 352.222 28.2636 355.116 29.8713C360.978 33.1278 366.039 38.1028 373.093 38.6253C380.303 39.1594 388.237 41.1169 394.509 44.2529" stroke="#E6D1B2" stroke-width="20" stroke-linecap="round"/>
<path d="M395.916 44.2529C404.976 44.2529 417.4 53.7753 424.054 59.7287C428.307 63.5339 435.467 63.1517 439.53 66.7632C443.254 70.0735 450.539 73.8172 455.005 76.2988C459.395 78.7372 461.705 81.2791 465.166 84.7401C468.152 87.7262 470.916 91.2884 474.702 93.1815C478.368 95.0146 484.852 98.798 487.677 101.623C490.93 104.877 494.52 107.787 498.619 110.064C504.488 113.325 508.19 120.022 513.47 123.039C518.042 125.652 523.259 130.401 527.46 133.669C532.235 137.383 538 137.612 542.858 140.703C553.109 147.226 565.513 153.238 576.702 158.211C582.484 160.781 585.855 166.425 590.771 170.248C596.248 174.508 600.76 179.893 606.246 184.16C609.903 187.005 614.877 192.578 616.798 196.901C617.432 198.328 626.304 206.045 625.239 206.045" stroke="#E6D1B2" stroke-width="20" stroke-linecap="round"/>
<path d="M625.24 204.639C645.244 204.639 664.167 229.062 675.263 243.328C678.837 247.923 683.187 251.542 686.049 256.694C689.043 262.082 690.202 267.35 691.677 273.576C695.346 289.068 693.765 306.466 699.102 321.411C701.986 329.486 701.212 355.622 701.212 347.047C701.212 338.831 701.212 356.604 701.212 359.397C701.212 366.066 701.212 372.736 701.212 379.406C701.212 389.15 701.212 398.894 701.212 408.638C701.212 414.069 696.043 438.412 701.212 440.996" stroke="#E6D1B2" stroke-width="20" stroke-linecap="round"/>
<path d="M356.523 203.232C356.523 218.503 370.076 228.607 379.034 240.124C385.232 248.093 388.069 258.899 397.323 264.041C401.868 266.566 402.363 270.759 404.358 274.983C407.32 281.256 410.803 287.122 414.519 292.96C419.48 300.758 429.774 310.109 438.123 314.064C443.718 316.714 449.702 311.957 454.693 317.503C457.943 321.114 452.305 331.524 452.192 335.48C451.765 350.439 442.344 362.573 442.344 377.687C442.344 384.397 448.675 389.299 453.599 392.068C456.042 393.442 446.515 403.793 445.47 405.199C442.657 408.986 443.751 414.281 443.751 418.799C443.751 430.155 443.571 446.094 449.066 456.472C451.85 461.731 455.006 463.875 455.006 470.541C455.006 490.593 446.565 507.305 446.565 527.13C446.565 533.355 445.138 541.384 453.599 540.886C457.555 540.653 465.46 534.263 467.668 540.886" stroke="#E6D1B2" stroke-width="20" stroke-linecap="round"/>
<path d="M538.012 260.915C543.075 260.352 547.577 255.115 552.784 253.958C558.212 252.752 562.888 252.473 568.651 252.473C574.805 252.473 580.509 251.066 586.549 251.066C590.203 251.066 598.07 256.714 601.322 258.804C605.606 261.558 611.759 263.198 616.798 263.728C622.492 264.328 620.086 264.284 621.096 258.726C622.925 248.668 625.239 240.264 625.239 229.963" stroke="#E6D1B2" stroke-width="20" stroke-linecap="round"/>
<path d="M640.715 439.59C654.211 439.59 667.706 439.59 681.202 439.59C697.25 439.59 712.52 445.217 728.646 445.217C738.148 445.217 747.675 445.428 757.174 445.217C764.88 445.046 772.049 440.996 779.684 440.996C788.52 440.996 796.352 435.015 805.399 433.884C815.614 432.607 828.1 430.749 838.461 432.633C848.613 434.479 854.204 439.151 863.004 443.81C871.137 448.116 881.692 452.953 889.031 458.661C893.725 462.312 902.729 466.985 905.21 471.948" stroke="#E6D1B2" stroke-width="20" stroke-linecap="round"/>
<path d="M463.447 545.106C463.447 543.217 462.115 547.591 461.727 548.233C459.375 552.123 456.167 555.427 453.599 559.175C447.326 568.33 440.15 576.708 433.902 585.906C425.218 598.691 416.493 610.35 405.764 621.079C392.112 634.731 378.958 648.18 364.964 661.175C350.71 674.411 337.094 690.522 319.24 698.458C313.122 701.177 304.01 712.193 301.029 718.154C297.357 725.498 288.992 738.098 288.992 746.292" stroke="#E6D1B2" stroke-width="20" stroke-linecap="round"/>
<path d="M288.993 746.292C276.229 746.292 260.679 752.799 254.133 764.582C249.068 773.7 248.186 787.565 238.345 793.032C210.955 808.248 189.662 832.319 165.89 852.434C155.868 860.914 144.919 868.945 134.391 877.133C131.612 879.294 128.182 881.554 128.295 881.666C130.326 883.697 124.798 889.214 123.683 890.577C115.251 900.883 107.448 908.506 94.8419 913.009C79.7778 918.389 65.4015 924.736 49.8213 929.188C36.3691 933.031 13.1976 971.439 23.0904 961.546" stroke="#E6D1B2" stroke-width="20" stroke-linecap="round"/>
<path d="M255.228 792.72C253.998 798.253 244.505 804.895 241.159 809.915C238.009 814.641 234.181 818.555 231.623 823.671C226.825 833.269 218.48 839.451 212.318 847.667C208.15 853.224 201.213 856.194 196.92 861.657C192.074 867.825 186.336 873.248 181.366 879.322C177.495 884.053 175.227 889.851 171.44 894.719C170.186 896.332 161.85 903.08 162.686 901.05C166.394 892.045 177.849 885.802 177.849 875.726C177.849 864.496 189.655 854.072 196.842 846.885C203.545 840.181 211.922 831.772 215.835 822.968C219.947 813.716 229.859 808.285 234.125 799.754" stroke="#E6D1B2" stroke-width="20" stroke-linecap="round"/>
<path d="M412.8 815.23C412.8 825.078 410.513 836.368 407.172 845.556C404.659 852.466 401.9 864.116 396.62 869.395C391.739 874.276 384.25 873.739 378.331 877.836C372.881 881.609 373.407 880.435 373.407 874.632C373.407 868.718 374.672 862.941 376.924 857.436C384.528 838.848 388.48 818.931 393.807 799.754C396.22 791.065 397.7 781.907 400.059 773.648C401.922 767.129 396.671 777.261 395.917 778.65C391.646 786.518 389.198 792.271 386.772 801.004C384.519 809.116 381.305 816.729 378.722 824.765C376.241 832.484 371.545 838.654 368.873 845.869C364.407 857.927 354.269 867.574 349.802 879.634C346.448 888.691 338.355 895.487 333.701 903.864C332.247 906.481 319.945 919.69 319.945 912.305C319.945 903.693 321.222 896.886 323.853 888.701C331.296 865.545 338.483 842.512 345.269 819.138C348.181 809.108 348.795 796.669 354.492 787.717C356.353 784.792 358.17 781.797 359.65 778.65C361.101 775.569 353.927 782.758 352.929 783.575C348.966 786.816 344.058 788.685 341.048 793.032C339.278 795.589 334.192 802.622 331.825 803.974C322.573 809.261 312.951 820.109 305.876 827.97C298.222 836.474 290.623 845.383 281.959 852.903C273.171 860.53 266.795 870.958 259.37 879.868C249.821 891.327 240.678 904.625 229.2 914.337C226.219 916.86 222.035 920.872 218.649 922.466C215.947 923.737 221.105 916.883 222.166 915.822C226.859 911.129 229.863 904.493 234.124 899.33C242.557 889.114 252.276 877.576 258.667 865.956C265.526 853.485 271.048 839.899 279.145 828.204C283.001 822.634 289.212 818.433 294.621 814.526C299.195 811.222 302.164 806.498 305.876 802.568C308.45 799.842 310.392 796.689 312.207 793.423C315.445 787.595 309.912 794.263 306.97 795.533C290.363 802.705 268.657 810.948 255.228 823.671C248.529 830.017 245.904 838.26 239.752 844.774C228.702 856.475 219.868 870.485 207.393 881.041C193.626 892.69 182.438 908.133 169.72 921.059C162.906 927.985 156.562 935.155 149.789 941.928C148.772 942.945 141.27 952.107 141.27 950.291" stroke="#E6D1B2" stroke-width="20" stroke-linecap="round"/>
<path d="M464.854 728.002C470.236 728.002 478.178 736.896 481.737 740.664C487.256 746.508 489.231 750.986 485.645 758.954C482.26 766.476 479.842 774.184 475.797 781.464C472.578 787.259 468.142 792.397 465.167 798.347C459.085 810.511 450.589 818.044 436.717 818.044C426.707 818.044 410.895 815.145 407.172 803.975" stroke="#E6D1B2" stroke-width="20" stroke-linecap="round"/>
<path d="M452.193 719.561C457.966 720.283 462.316 734.486 465.48 738.554C467.592 741.27 476.052 749.263 472.983 753.014C464.44 763.456 456.668 770.739 443.751 774.43C437.978 776.079 427.169 780.259 422.648 784.278C418.145 788.281 401.031 794.879 406.625 792.641C409.836 791.357 407.172 788.183 407.172 785.685C407.172 781.204 409.026 782.142 411.08 778.65C414.001 773.685 417.02 769.214 417.02 763.175" stroke="#E6D1B2" stroke-width="20" stroke-linecap="round"/>
<path d="M532.384 720.968C532.384 732.001 535.39 743.862 532.462 754.108C531.22 758.456 531.186 763.111 529.258 767.396C526.434 773.671 521.906 780.544 520.035 787.092C517.756 795.067 511.517 808.569 504.95 813.823C501.834 816.316 502.159 820.858 497.212 820.858C494.76 820.858 482.879 822.396 485.957 820.858" stroke="#E6D1B2" stroke-width="20" stroke-linecap="round"/>
<path d="M488.771 795.533C508.059 795.533 508.173 768.761 513.783 756.14C516.748 749.469 512.762 738.11 517.222 732.536C518.181 731.337 526.758 716.226 526.758 718.154" stroke="#E6D1B2" stroke-width="20" stroke-linecap="round"/>
<path d="M362.15 775.837C377.124 775.837 391.915 773.995 405.061 766.692C409.615 764.162 413.437 760.354 418.426 757.86C423.285 755.43 428.327 754.449 432.495 750.513C437.688 745.608 443.554 741.017 448.674 735.897C452.698 731.872 459.883 730.346 463.447 725.892C468.164 719.995 490.191 723.782 497.212 723.782C501.905 723.782 507.431 724.546 512.063 723.703C518.063 722.613 523.11 718.105 528.867 716.825C538.214 714.748 548.898 711.127 557.708 707.212C567.498 702.861 579.397 701.48 589.363 697.051C593.784 695.086 600.138 694.428 603.823 691.11C607.037 688.218 611.266 685.764 615.391 684.389" stroke="#E6D1B2" stroke-width="20" stroke-linecap="round"/>
<path d="M609.764 684.389C616.897 684.389 623.087 681.226 628.679 676.651C634.67 671.749 643.689 667.998 650.564 664.38C663.389 657.63 674.908 646.351 686.83 637.962C692.01 634.317 696.94 629.95 701.915 626.081C706.736 622.332 713.581 621.121 718.094 616.858C726.658 608.77 736.815 600.878 747.639 596.067C754.777 592.895 763.772 585.365 771.556 584.5C785.11 582.994 798.752 576.163 812.356 574.651C816.913 574.145 821.186 570.11 825.722 569.102C829.89 568.176 834.802 567.617 839.087 567.617C843.678 567.617 846.698 564.803 851.046 564.803C855.501 564.803 859.956 564.803 864.411 564.803" stroke="#E6D1B2" stroke-width="20" stroke-linecap="round"/>
<path d="M905.318 471.034C910.211 471.578 914.184 477.05 916.901 480.544C919.762 484.222 924.528 489.405 925.041 494.279C925.86 502.057 926.784 510.915 925.08 518.581C924.606 520.715 923.846 521.518 922.615 523.16C922.313 523.562 925.835 528.808 926.45 529.499C929.548 532.984 929.267 538.806 929.267 543.235C929.267 549.14 926.905 555.908 924.336 561.197C921.936 566.139 920.309 571.546 917.645 576.342C916.535 578.34 913.813 579.999 912.518 582.329C911.021 585.024 908.989 586.615 907.118 589.021C904.779 592.028 899.22 593.6 895.456 593.6C894.085 593.6 892.956 594.304 891.66 594.304C890.654 594.304 893.592 593.677 894.595 593.6C897.385 593.385 901.982 591.067 903.204 588.317C904.633 585.102 912.204 578.509 907.274 575.285C902.537 572.188 895.19 574.902 890.173 572.115C888.043 570.932 884.808 570.14 882.425 569.611C880.021 569.077 877.212 566.249 875.028 566.128C870.762 565.891 866.627 565.162 867.828 560.493C868.731 556.98 869.96 553.586 872.563 550.983C875.889 547.657 883.461 544.237 886.455 549.927C889.458 555.632 895.456 561.371 895.456 568.241" stroke="#E6D1B2" stroke-width="20" stroke-linecap="round"/>
<path d="M887.003 547.814C885.563 547.634 893.746 538.253 895.104 536.895C896.327 535.672 897.714 534.849 898.978 533.726C900.415 532.448 902.602 533.081 903.752 532.16C904.655 531.438 906.603 530.728 907.783 530.204C909.472 529.453 910.573 527.525 912.049 526.682C914.284 525.404 918.939 524.568 921.519 524.568" stroke="#E6D1B2" stroke-width="20" stroke-linecap="round"/>
<path d="M876.439 523.159C873.369 523.159 870.577 523.246 867.673 522.416C866.884 522.191 867.986 515.481 867.986 514.315C867.986 508.763 868.971 500.685 861.646 499.914C856.061 499.326 851.231 497.097 845.797 497.097C838.653 497.097 836.992 502.824 836.992 509.071C836.992 516.268 845.795 523.159 852.841 523.159C855.811 523.159 858.216 521.902 860.942 521.751C863.703 521.597 866.016 520.342 868.69 520.342C871.39 520.342 874.091 520.342 876.791 520.342C880.738 520.342 877.58 517.349 875.421 516.115C871.607 513.936 869.018 507.474 865.168 505.549" stroke="#E6D1B2" stroke-width="20" stroke-linecap="round"/>
<path d="M612.107 507.099C612.107 499.117 607.667 492.84 605.983 485.261C604.148 477.006 604.851 468.953 601.246 461.343C596.915 452.201 585.295 453.533 580.909 445.859C577.21 439.386 576.749 435.802 576.749 428.065C576.749 418.448 579.032 415.95 573.63 406.226C569.729 399.205 565.834 392.191 560.111 386.468C552.375 378.732 519.468 351.673 541.392 340.711" stroke="#E6D1B2" stroke-width="20" stroke-linecap="round"/>
</svg>
