<svg width="48" height="45" viewBox="0 0 48 45" fill="none" xmlns="http://www.w3.org/2000/svg">
<path d="M19 35.7544C25.4427 35.7544 31.8854 35.7544 38.3282 35.7544C40.7825 35.7544 43.2369 35.7544 45.6913 35.7544C47.1498 35.7544 43.0439 34.8317 41.6416 34.5373C36.6894 33.4979 43.8505 33.9999 43.8505 35.7544C43.8505 36.2572 40.5445 38.1777 39.9849 39" stroke="#EC6F6F" stroke-width="3" stroke-linecap="round"/>
<path d="M22.3203 33C22.0031 33.0305 21.5437 33.3393 21.2938 33.5322C20.7511 33.9514 20.1902 34.3847 19.7311 34.8899C19.5347 35.106 19.3434 35.3239 19.1332 35.528C19.0202 35.6378 18.859 35.7492 18.774 35.8828C18.7211 35.9659 18.4089 36.0521 18.3121 36.1046C18.2749 36.1247 17.8583 36.3491 18.0503 36.282C18.2845 36.2002 18.457 36.1776 18.7072 36.2451C19.0787 36.3452 19.4273 36.4835 19.7439 36.691C19.9764 36.8434 20.316 37.0443 20.5882 37.1247C20.9972 37.2455 21.4085 37.5762 21.7814 37.7801C21.904 37.8472 22.0435 37.927 22.1458 38.0216C22.3443 38.2052 22.5179 38.3923 22.6641 38.6129C22.746 38.7365 22.7307 38.8064 22.8643 38.8987C22.9179 38.9358 23.0654 39.0347 22.9669 38.9875" stroke="#EC6F6F" stroke-width="3" stroke-linecap="round"/>
<path d="M5.0781 18C4.52632 17.8812 3.85406 16.7088 3.58065 16.3257C2.80448 15.2383 2 14.3025 2 12.9414C2 11.3451 2.12099 9.74561 2.58234 8.20509C2.8319 7.37178 3.38602 6.61939 3.90879 5.92647C4.79024 4.75816 6.33594 4.49042 7.75873 4.64168C8.33171 4.70259 8.81446 4.94609 9.38559 4.94609C9.77962 4.94609 9.61627 4.55849 9.44568 4.30145C8.83872 3.38694 7.91588 2.89211 7.07471 2.26905C7.03494 2.23959 6.66248 1.93176 6.70959 2.01388C6.82618 2.21716 6.99481 2.36242 7.1579 2.5287C7.69999 3.0814 8.25907 3.53689 8.86796 4.01942C9.1062 4.20823 9.42823 4.3275 9.69987 4.46261C9.87062 4.54754 9.95397 4.70045 10.1066 4.78493C10.275 4.87814 10.4552 5.3631 10.5688 5.52805C10.6912 5.70598 10.7628 5.89356 10.9431 6.02944C11.0783 6.13128 10.9464 6.06767 10.8183 6.0742C10.5154 6.08965 10.145 6.41306 9.94483 6.60692C9.5795 6.96078 9.16828 7.31321 8.82636 7.6858C8.41663 8.13227 7.99562 8.64433 7.65705 9.13623" stroke="#EC6F6F" stroke-width="3" stroke-linecap="round"/>
<path d="M15.3325 6C16.0046 6 16.4902 6.0815 17.007 6.54391C17.7616 7.21896 18.7083 7.67546 19.5211 8.28627C20.1455 8.75551 20.3071 9.34721 20.5706 10.0747C20.9123 11.018 21 12.1396 21 13.1308C21 14.1046 20.9685 15.1211 20.4418 15.984C20.1491 16.4636 19.6009 16.7127 19.1776 17.0718C18.3998 17.7317 17.6376 18.427 16.7923 19.0078C15.6246 19.8101 14.3763 19.9306 13.0283 20.3076C12.1501 20.5533 11.275 20.801 10.4379 21.165C10.1145 21.3056 9.12938 21.1757 8.87316 20.9529C8.55594 20.6771 9.02433 20.5447 9.26435 20.3307C10.7528 19.0032 12.1653 17.6579 13.4434 16.1407C13.7002 15.8359 14.5984 15.0535 14.2496 15.2557C14.0431 15.3754 14.0457 15.53 13.9061 15.7166C13.193 16.6708 12.4375 17.6001 11.726 18.5606C10.8467 19.7476 10.0902 20.8653 8.97811 21.8287C8.90546 21.8917 7.98687 22.7501 8.00014 22.7552C8.1411 22.8097 8.38003 22.7491 8.52968 22.769C10.343 23.0107 11.4649 24.4734 13.0999 25" stroke="#EC6F6F" stroke-width="3" stroke-linecap="round"/>
<path d="M2 44L41 5" stroke="#EC6F6F" stroke-width="2"/>
</svg>