<svg width="34" height="40" viewBox="0 0 34 40" fill="none" xmlns="http://www.w3.org/2000/svg">
<path d="M6.86016 27.2632C5.98893 27.0756 4.92747 25.2244 4.49576 24.6196C3.27023 22.9026 2 21.4251 2 19.2759C2 16.7555 2.19103 14.2299 2.91949 11.7975C3.31353 10.4818 4.18845 9.29377 5.01388 8.1997C6.40564 6.35499 8.84622 5.93224 11.0927 6.17107C11.9974 6.26725 12.7597 6.65172 13.6615 6.65172C14.2836 6.65172 14.0257 6.03972 13.7563 5.63387C12.798 4.18991 11.3409 3.40859 10.0127 2.42482C9.9499 2.3783 9.36182 1.89225 9.43619 2.02192C9.62028 2.34288 9.88654 2.57223 10.1441 2.83478C11 3.70747 11.8827 4.42666 12.8441 5.18856C13.2203 5.48668 13.7288 5.67499 14.1577 5.88833C14.4273 6.02242 14.5589 6.26387 14.7999 6.39726C15.0658 6.54443 15.3504 7.31015 15.5296 7.57061C15.723 7.85155 15.836 8.14773 16.1207 8.36227C16.3342 8.52307 16.1259 8.42264 15.9237 8.43295C15.4454 8.45734 14.8605 8.96799 14.5445 9.27409C13.9676 9.83281 13.3183 10.3893 12.7785 10.9776C12.1315 11.6825 11.4668 12.491 10.9322 13.2677" stroke="#EC6F6F" stroke-width="3" stroke-linecap="round"/>
<path d="M23.0513 8.31567C24.1125 8.31567 24.8791 8.44437 25.6952 9.17448C26.8866 10.2403 28.3815 10.9611 29.6649 11.9256C30.6508 12.6665 30.9059 13.6007 31.322 14.7494C31.8615 16.2388 31.9999 18.0097 31.9999 19.5748C31.9999 21.1124 31.9503 22.7174 31.1186 24.0799C30.6565 24.8371 29.7908 25.2305 29.1225 25.7975C27.8944 26.8394 26.6909 27.9372 25.3563 28.8542C23.5125 30.1211 21.5415 30.3113 19.4131 30.9066C18.0264 31.2945 16.6446 31.6857 15.323 32.2604C14.8123 32.4824 13.2569 32.2774 12.8523 31.9256C12.3514 31.49 13.091 31.281 13.47 30.943C15.8201 28.847 18.0504 26.7229 20.0685 24.3273C20.4739 23.8461 21.8922 22.6107 21.3414 22.9299C21.0154 23.1189 21.0194 23.363 20.7991 23.6577C19.673 25.1642 18.4803 26.6317 17.3567 28.1483C15.9684 30.0224 14.774 31.7873 13.018 33.3084C12.9033 33.4078 11.4529 34.7632 11.4739 34.7713C11.6964 34.8573 12.0737 34.7616 12.31 34.7931C15.1731 35.1747 16.9445 37.4842 19.5261 38.3157" stroke="#EC6F6F" stroke-width="3" stroke-linecap="round"/>
</svg>
