<svg width="48" height="47" viewBox="0 0 48 47" fill="none" xmlns="http://www.w3.org/2000/svg">
<path d="M23.6111 19.1212C23.6111 13.1569 23.5157 7.18299 23.5157 1.19434" stroke="#EC6F6F" stroke-width="1.5" stroke-linecap="round"/>
<path d="M1.01184 23.3167H18.748" stroke="#EC6F6F" stroke-width="1.5" stroke-linecap="round"/>
<path d="M23.1344 27.7031V46.0114" stroke="#EC6F6F" stroke-width="1.5" stroke-linecap="round"/>
<path d="M27.2346 23.4121H46.9732" stroke="#EC6F6F" stroke-width="1.5" stroke-linecap="round"/>
<path d="M22.7529 14.5439C22.0865 14.5439 21.6988 14.8789 21.0842 15.0154C20.861 15.065 20.5896 15.2938 20.3691 15.3068C20.0676 15.3245 19.8451 15.563 19.6062 15.5929C19.1426 15.6508 18.6208 16.3164 18.2183 16.5464C17.6703 16.8595 17.278 17.3029 16.7932 17.6907C16.3818 18.0198 15.9862 18.616 15.6754 19.0045C15.2445 19.5432 15.0291 20.1902 15.0291 20.8851C15.0291 21.4612 15.043 22.1412 14.8172 22.6492C14.5272 23.3017 14.7811 24.0608 14.5524 24.747" stroke="#EC6F6F" stroke-width="1.5" stroke-linecap="round"/>
<path d="M14.5524 24.7471C14.5524 25.253 14.9063 25.7495 14.9338 26.2728C14.9584 26.7408 15.5419 27.1983 15.6013 27.7031C15.622 27.8794 15.8182 28.0841 15.9297 28.2275C16.1666 28.532 16.2201 28.89 16.3641 29.25C16.433 29.422 16.5778 30.087 16.7932 30.087C17.029 30.087 17.2909 30.0429 17.4872 30.2035C17.8196 30.4755 18.2386 30.5227 18.5785 30.8286C18.9163 31.1326 19.401 31.2672 19.7969 31.4431C20.2128 31.628 20.7865 32.0635 21.2273 32.0894C21.6663 32.1153 22.1374 32.1386 22.5622 32.2802" stroke="#EC6F6F" stroke-width="1.5" stroke-linecap="round"/>
<path d="M22.5623 32.2802C23.2096 32.2802 23.812 31.9941 24.4217 31.9941C25.061 31.9941 25.8111 31.8764 26.4189 31.7027C26.8724 31.5732 27.4574 31.3658 27.8598 31.1359C28.3476 30.8571 28.7434 30.3809 29.1895 30.034C30.1407 29.2942 30.7374 28.2639 31.3138 27.2263C31.5384 26.822 32.411 23.4121 32.1932 23.4121" stroke="#EC6F6F" stroke-width="1.5" stroke-linecap="round"/>
<path d="M32.0978 23.6027C32.0978 22.3362 32.1931 21.1192 32.1931 19.8627C32.1931 19.5963 32.083 19.0618 31.8594 18.8879C31.6646 18.7364 31.361 18.7416 31.1442 18.5489C30.7756 18.2212 30.4551 17.6517 30.2119 17.2139C29.8999 16.6523 29.3267 16.3955 28.7603 16.1438C28.1823 15.8869 27.5988 15.4985 27.0439 15.1902C25.9619 14.5891 25.1315 14.5439 23.8972 14.5439" stroke="#EC6F6F" stroke-width="1.5" stroke-linecap="round"/>
<path d="M23.5157 5.38989C24.1832 5.38989 24.8507 5.38989 25.5182 5.38989C26.191 5.38989 26.7272 5.86667 27.3776 5.86667C27.9809 5.86667 28.6732 6.39295 29.2848 6.52886C29.9666 6.68038 30.702 6.90641 31.3349 7.22284C32.0748 7.59279 32.8641 7.82737 33.6234 8.22937C34.3196 8.59794 34.9313 9.27234 35.4829 9.82392C35.7278 10.0689 36.0978 10.338 36.2722 10.6344C36.4964 11.0156 36.6039 11.4413 36.8178 11.8264C37.1837 12.485 37.197 13.041 37.9144 13.3998" stroke="#EC6F6F" stroke-width="3" stroke-linecap="round"/>
<path d="M37.9144 13.1138C38.2175 13.3865 39.2428 13.9659 39.3395 14.4011C39.5184 15.2062 39.9044 15.9397 40.1553 16.7426C40.5108 17.8802 40.9657 19.0778 41.1353 20.2654C41.2024 20.735 41.3472 21.1788 41.3472 21.6481C41.3472 21.8063 41.3472 22.2918 41.3472 22.2679" stroke="#EC6F6F" stroke-width="3" stroke-linecap="round"/>
<path d="M41.1565 21.791C41.1565 22.986 41.2826 24.157 41.3472 25.3192C41.4249 26.7187 40.4702 28.042 40.3936 29.4195C40.3253 30.6497 38.9368 31.5178 38.8679 32.7569C38.8414 33.2352 38.515 33.7067 38.1528 33.9965C37.7848 34.2909 37.0274 34.5595 36.8655 35.0454" stroke="#EC6F6F" stroke-width="3" stroke-linecap="round"/>
<path d="M36.8656 34.7593C36.319 34.7593 35.8153 35.5247 35.5783 35.9512C35.3109 36.4324 35.1873 37.0098 34.6724 37.3127C34.1767 37.6043 33.7945 38.0274 33.1997 38.1974C32.8088 38.309 32.3018 38.61 31.9071 38.7854C31.0351 39.1729 30.2298 39.7562 29.4755 40.3429C28.9975 40.7147 28.4392 40.9306 27.9022 41.1693C27.3207 41.4277 26.3975 41.3388 25.7567 41.3388C25.1051 41.3388 24.4535 41.3388 23.8019 41.3388" stroke="#EC6F6F" stroke-width="3" stroke-linecap="round"/>
<path d="M23.8018 41.2435C23.2305 40.9747 22.3515 40.9575 21.7252 40.9575C21.204 40.9575 20.7754 40.7668 20.2737 40.7668C19.0566 40.7668 18.1178 40.6175 16.9574 40.2158C16.0468 39.9006 15.0456 39.2294 14.3404 38.5948C13.981 38.2713 13.3565 37.9728 12.9313 37.7366C12.4831 37.4876 12.265 36.9093 11.84 36.6665C11.5023 36.4735 11.2412 36.1514 10.8812 35.9513C10.407 35.6879 10.1799 35.1048 9.74219 34.8547C9.46092 34.694 9.30607 34.0939 8.96876 33.9012C8.42374 33.5897 8.38958 32.9628 8.11585 32.4761C7.68272 31.7061 7.10105 31.0185 6.69082 30.2353C6.35205 29.5885 6.36145 28.7503 6.01803 28.1322C5.87913 27.8821 5.97036 27.4083 5.97036 27.1309C5.97036 26.7958 5.875 26.4752 5.875 26.1297C5.875 25.4712 6.16107 23.5164 6.16107 24.1749" stroke="#EC6F6F" stroke-width="3" stroke-linecap="round"/>
<path d="M5.77968 23.2214C5.77968 22.4996 5.68433 21.8035 5.68433 21.0759C5.68433 20.3932 5.79161 19.8289 5.88033 19.1635C6.04443 17.9328 6.89242 16.9275 7.47489 15.8791C7.77423 15.3403 8.06271 14.5602 8.50261 14.1203C8.82637 13.7965 9.18794 13.305 9.54622 13.0184C9.91018 12.7272 10.0346 12.1862 10.3144 11.8265C10.7176 11.308 11.1694 10.7754 11.644 10.3008C11.8796 10.0652 11.9712 9.77139 12.3062 9.67566C12.5166 9.61556 12.8143 9.42131 13.0267 9.32072C13.5641 9.06618 14.121 8.93048 14.6477 8.65324C15.1084 8.41081 15.6409 8.14279 16.131 7.96456C16.6699 7.76862 17.0644 7.36263 17.6461 7.19642C18.0477 7.08167 18.4611 6.68292 18.8434 6.51303C19.2265 6.34275 19.8602 6.46161 20.1572 6.13161C20.5543 5.69037 20.9458 5.67603 21.5133 5.67603C21.7517 5.67603 21.9901 5.67603 22.2285 5.67603C22.3302 5.67603 22.9191 5.67603 22.5622 5.67603" stroke="#EC6F6F" stroke-width="3" stroke-linecap="round"/>
</svg>
