<svg width="25" height="21" viewBox="0 0 25 21" fill="none" xmlns="http://www.w3.org/2000/svg">
<path d="M13.8271 8.53447C13.8271 6.02776 13.8271 3.51697 13.8271 1" stroke="#EC6F6F" stroke-width="1.5" stroke-linecap="round"/>
<path d="M4 10.5H11.5345" stroke="#EC6F6F" stroke-width="1.5" stroke-linecap="round"/>
<path d="M13.5 12.1379V20" stroke="#EC6F6F" stroke-width="1.5" stroke-linecap="round"/>
<path d="M15.1377 10.5H23.6549" stroke="#EC6F6F" stroke-width="1.5" stroke-linecap="round"/>
<path d="M13.4999 6.56909C13.2071 6.56909 13.0367 6.71963 12.7667 6.78102C12.6686 6.80331 12.5493 6.90615 12.4524 6.91199C12.3199 6.91996 12.2222 7.02715 12.1172 7.04057C11.9135 7.06662 11.6842 7.36578 11.5073 7.46919C11.2665 7.60993 11.0942 7.8092 10.8811 7.98353C10.7004 8.13147 10.5265 8.39948 10.39 8.57407C10.2006 8.81621 10.106 9.10707 10.106 9.41939C10.106 9.67834 10.1121 9.98403 10.0129 10.2123C9.88543 10.5057 9.997 10.8468 9.89648 11.1553" stroke="#EC6F6F" stroke-width="1.5" stroke-linecap="round"/>
<path d="M9.89648 11.155C9.89648 11.3531 10.0412 11.5474 10.0525 11.7521C10.0626 11.9353 10.3012 12.1144 10.3255 12.3119C10.334 12.381 10.4142 12.4611 10.4598 12.5172C10.5567 12.6364 10.5786 12.7765 10.6375 12.9174C10.6656 12.9847 10.7248 13.2449 10.8129 13.2449C10.9094 13.2449 11.0165 13.2277 11.0968 13.2906C11.2327 13.397 11.4041 13.4155 11.5431 13.5352C11.6812 13.6542 11.8795 13.7069 12.0414 13.7757C12.2115 13.8481 12.4461 14.0185 12.6264 14.0287C12.8059 14.0388 12.9986 14.0479 13.1723 14.1033" stroke="#EC6F6F" stroke-width="1.5" stroke-linecap="round"/>
<path d="M13.1729 14.1034C13.4581 14.1034 13.7235 13.9872 13.9921 13.9872C14.2738 13.9872 14.6043 13.9394 14.8721 13.8688C15.0719 13.8162 15.3297 13.7319 15.5069 13.6385C15.7219 13.5252 15.8963 13.3317 16.0928 13.1907C16.5119 12.8901 16.7748 12.4715 17.0288 12.0499C17.1277 11.8856 17.5122 10.5 17.4162 10.5" stroke="#EC6F6F" stroke-width="1.5" stroke-linecap="round"/>
<path d="M17.3892 10.5001C17.3892 9.95053 17.4306 9.42239 17.4306 8.87713C17.4306 8.76156 17.3827 8.52961 17.2856 8.45415C17.201 8.38839 17.0692 8.39065 16.975 8.30702C16.8149 8.16482 16.6756 7.91768 16.57 7.72771C16.4345 7.48403 16.1855 7.37257 15.9395 7.26334C15.6884 7.15186 15.435 6.98331 15.194 6.84955C14.724 6.58869 14.3633 6.56909 13.8271 6.56909" stroke="#EC6F6F" stroke-width="1.5" stroke-linecap="round"/>
<path d="M13.8271 2.96558C14.1005 2.96558 14.3738 2.96558 14.6472 2.96558C14.9227 2.96558 15.1423 3.16057 15.4087 3.16057C15.6557 3.16057 15.9392 3.37581 16.1897 3.43139C16.4689 3.49336 16.7701 3.5858 17.0292 3.71521C17.3323 3.86651 17.6555 3.96245 17.9664 4.12686C18.2515 4.2776 18.502 4.55341 18.7279 4.779C18.8282 4.87918 18.9797 4.98923 19.0512 5.11048C19.143 5.26636 19.187 5.44045 19.2746 5.59796C19.4245 5.86731 19.4299 6.09473 19.7237 6.24143" stroke="#EC6F6F" stroke-width="2" stroke-linecap="round"/>
<path d="M19.7236 6.24121C19.8682 6.34856 20.3574 6.57662 20.4036 6.7479C20.4889 7.06479 20.6731 7.35352 20.7928 7.66953C20.9625 8.11729 21.1795 8.58866 21.2605 9.05614C21.2925 9.24096 21.3616 9.41563 21.3616 9.60036C21.3616 9.66263 21.3616 9.85373 21.3616 9.84432" stroke="#EC6F6F" stroke-width="2" stroke-linecap="round"/>
<path d="M21.2765 9.84473C21.2765 10.3468 21.3317 10.8388 21.36 11.3271C21.3941 11.9152 20.9758 12.4712 20.9423 13.0499C20.9123 13.5668 20.304 13.9315 20.2738 14.4521C20.2622 14.6531 20.1192 14.8512 19.9605 14.973C19.7993 15.0966 19.4674 15.2095 19.3965 15.4137" stroke="#EC6F6F" stroke-width="2" stroke-linecap="round"/>
<path d="M19.3961 15.4138C19.1631 15.4138 18.9484 15.718 18.8473 15.8875C18.7334 16.0788 18.6807 16.3082 18.4612 16.4286C18.2498 16.5445 18.0869 16.7126 17.8334 16.7802C17.6667 16.8246 17.4506 16.9442 17.2823 17.0139C16.9106 17.1679 16.5673 17.3997 16.2458 17.6328C16.042 17.7806 15.804 17.8664 15.5751 17.9613C15.3272 18.064 14.9336 18.0286 14.6605 18.0286C14.3827 18.0286 14.1049 18.0286 13.8271 18.0286" stroke="#EC6F6F" stroke-width="2" stroke-linecap="round"/>
<path d="M13.8274 18.0345C13.5873 17.9219 13.2179 17.9147 12.9547 17.9147C12.7356 17.9147 12.5554 17.8348 12.3446 17.8348C11.8331 17.8348 11.4385 17.7722 10.9508 17.604C10.5681 17.4719 10.1473 17.1907 9.85091 16.9248C9.69986 16.7893 9.43738 16.6643 9.25867 16.5653C9.07029 16.461 8.97862 16.2187 8.80001 16.117C8.65806 16.0361 8.54835 15.9012 8.39701 15.8173C8.19771 15.707 8.10227 15.4627 7.91831 15.3579C7.8001 15.2906 7.73501 15.0392 7.59324 14.9584C7.36418 14.828 7.34982 14.5653 7.23478 14.3614C7.05274 14.0388 6.80827 13.7507 6.63585 13.4226C6.49347 13.1517 6.49742 12.8005 6.35308 12.5415C6.29471 12.4368 6.33305 12.2382 6.33305 12.1221C6.33305 11.9817 6.29297 11.8473 6.29297 11.7026C6.29297 11.4267 6.4132 10.6077 6.4132 10.8836" stroke="#EC6F6F" stroke-width="2" stroke-linecap="round"/>
<path d="M6.00529 10.5C6.00529 10.1901 5.96484 9.89114 5.96484 9.57871C5.96484 9.28553 6.01035 9.04322 6.04798 8.75748C6.11758 8.22897 6.47725 7.79727 6.7243 7.34704C6.85127 7.11566 6.97363 6.78067 7.16021 6.59177C7.29753 6.45274 7.45089 6.24167 7.60285 6.11859C7.75723 5.99355 7.80998 5.76123 7.92866 5.60674C8.09968 5.38412 8.2913 5.15541 8.49264 4.95157C8.59254 4.85042 8.63139 4.72424 8.7735 4.68313C8.86271 4.65732 8.98902 4.5739 9.07908 4.53071C9.30701 4.4214 9.54322 4.36313 9.76664 4.24407C9.96201 4.13997 10.1879 4.02487 10.3958 3.94833C10.6243 3.86419 10.7917 3.68985 11.0384 3.61847C11.2087 3.5692 11.3841 3.39796 11.5462 3.32501C11.7087 3.25188 11.9775 3.30293 12.1034 3.16122C12.2719 2.97174 12.4379 2.96558 12.6787 2.96558C12.7798 2.96558 12.8809 2.96558 12.982 2.96558C13.0251 2.96558 13.2749 2.96558 13.1236 2.96558" stroke="#EC6F6F" stroke-width="2" stroke-linecap="round"/>
<path d="M9.88904 16.9732C8.94395 17.0629 6.11716 16.8783 5.18609 16.9598C5.01743 16.9745 4.38638 17.2251 4.35542 17.0324C4.31084 16.7551 4.30611 16.4689 4.28164 16.1892C4.27071 16.0643 4.25978 15.9393 4.24885 15.8144C4.23914 15.7034 4.35602 15.4693 4.21971 15.4813C4.08547 15.493 3.72318 16.1475 3.50026 16.2366C3.01865 16.4291 2.60268 16.7303 2.11812 16.924C2.00061 16.9709 1.1427 17.1266 1.12948 17.1783C1.06401 17.4347 2.08988 18.0118 2.30728 18.203C2.64959 18.504 3.08046 18.765 3.26053 19.1633C3.3011 19.2531 3.7094 19.5303 3.74428 19.3938C3.80378 19.1608 3.70201 18.837 3.68145 18.602C3.63019 18.0161 3.81676 17.14 4.05884 16.5863C4.11548 16.4568 4.14998 15.9679 4.15023 16.0119C4.15095 16.1402 3.80318 16.4148 3.70377 16.502C3.38875 16.7782 2.83797 16.9251 2.54252 17.212C2.14626 17.5969 2.79952 17.6668 3.17954 17.8696C3.52325 18.0531 5.05979 17.7261 5.44976 17.692C6.15551 17.6303 6.96538 17.6882 7.61449 17.7806C7.7995 17.8069 8.36397 17.7493 8.48348 17.8514C8.64418 17.9888 9.12914 17.7906 9.35431 17.8697C10.0852 18.1263 9.92113 17.3399 9.88904 16.9732Z" stroke="#C1C8FF" stroke-width="2" stroke-linecap="round"/>
</svg>
