<svg width="129" height="208" viewBox="0 0 129 208" fill="none" xmlns="http://www.w3.org/2000/svg">
<path d="M4.16699 197.629C12.1139 181.735 23.0428 167.572 32.4703 152.558C58.8966 110.472 82.012 66.3625 109.936 25.1932C114.416 18.5873 118.852 11.7658 123.953 5.60897C124.874 4.49797 126.704 1.45243 127.239 2.79205C128.181 5.14506 125.196 5.67603 123.685 5.67603" stroke="#FF5252" stroke-width="3" stroke-linecap="round"/>
<path d="M66.944 96.2198C67.9134 106.399 74.4845 115.651 78.2787 124.926C79.9143 128.924 78.7994 127.834 74.8582 126.401C69.1044 124.309 65.4086 117.95 59.0969 117.95C40.3749 117.95 44.4009 145.308 39.7809 157.32C36.6584 165.438 39.9691 180.341 34.6165 187.032C33.2243 188.772 33.8137 212.477 29.7875 204.872C27.9756 201.45 22.0404 197.629 18.3857 197.629C13.8893 197.629 -1.8832 198.857 2.95975 191.593" stroke="#FF5252" stroke-width="3" stroke-linecap="round"/>
</svg>
