<svg width="1541" height="921" viewBox="0 0 1541 921" fill="none" xmlns="http://www.w3.org/2000/svg">
<path d="M1.71484 908.953C28.4719 870.155 67.4522 820.024 117.628 813.959C130.296 812.427 146.338 811.36 158.78 814.816C163.425 816.106 168.462 820.43 173.012 817.903C196.694 804.746 219.031 787.826 242.457 773.835C266.26 759.62 292.225 764.047 318.075 759.26C370.672 749.52 416.783 730.177 465.367 709.02C489.76 698.397 516.74 692.772 540.299 680.556C561.833 669.39 580.446 656.877 600.485 643.519" stroke="url(#paint0_linear_1529_73)" stroke-width="3" stroke-linecap="round"/>
<path d="M597.398 643.518C601.028 609.039 650.765 580.246 680.732 575.617C701.651 572.385 722.57 572.53 743.661 572.53C754.508 572.53 766.853 574.385 776.412 568.072C798.303 553.616 811.12 528.942 835.054 516.974C855.113 506.945 878.611 510.801 900.556 510.801C924.259 510.801 948.936 514.327 970.858 503.943C984.576 497.445 1002.2 503.359 1015.78 507.715C1050.97 519.002 1078.67 489.196 1112.83 489.196" stroke="url(#paint1_linear_1529_73)" stroke-width="3" stroke-linecap="round"/>
<path d="M1180.73 591.049C1180.73 543.57 1169.59 483.327 1196.34 441.528C1212.31 416.563 1248.64 430.625 1248.64 457.475C1248.64 500.306 1242.46 542.178 1242.46 584.876C1242.46 598.492 1268.01 603.847 1277.96 609.739C1293.43 618.911 1309.66 625.851 1326.48 631.859C1343.16 637.815 1356.95 646.605 1375.18 646.605C1389.66 646.605 1388.06 644.344 1398.5 635.802C1408.67 627.482 1423.36 624.743 1404.67 615.055C1374.61 599.467 1348.23 576.688 1314.99 568.072C1289.13 561.367 1240.25 542.678 1215.37 560.184C1196.18 573.69 1190.73 585.745 1183.82 606.481" stroke="url(#paint2_linear_1529_73)" stroke-width="3" stroke-linecap="round"/>
<path d="M1159.13 569.444C1147 569.444 1140.88 566.543 1135.98 577.331C1127.78 595.376 1121.62 620.711 1119.18 640.26C1116.94 658.141 1270.91 655.864 1285.16 655.864C1318.16 655.864 1352.86 658.832 1385.64 654.149C1402.93 651.679 1419.06 649.691 1436.57 649.691C1444.18 649.691 1458.51 653.528 1458.51 643.518C1458.51 621.113 1458.51 598.708 1458.51 576.303C1458.51 572.639 1460.93 560.49 1455.43 560.184C1442.14 559.446 1428.6 560.184 1415.3 560.184C1390.61 560.184 1365.92 560.184 1341.23 560.184C1332.83 560.184 1319.29 557.427 1313.45 563.271" stroke="url(#paint3_linear_1529_73)" stroke-width="3" stroke-linecap="round"/>
<path d="M702.334 507.715C702.334 494.056 701.973 481.099 699.934 467.591C698.217 456.216 701.866 442.917 697.705 432.097C694.782 424.498 690.875 422.462 699.934 419.58C714.287 415.013 726.166 410.412 739.372 403.462C759.518 392.858 780.623 401.996 800.929 394.889C828.241 385.329 847.359 362.652 878.09 362.652C887.244 362.652 895.909 360.452 900.038 351.507C901.644 348.026 911.401 329.532 912.212 344.134C913.005 358.403 910.027 388.245 920.1 398.318C943.58 421.798 987.995 430.782 1019.55 436.041C1033.08 438.296 1047.91 449.125 1029.5 458.332" stroke="url(#paint4_linear_1529_73)" stroke-width="3" stroke-linecap="round"/>
<path d="M91.2188 621.913H591.222" stroke="url(#paint5_linear_1529_73)" stroke-width="3" stroke-linecap="round"/>
<path d="M242.455 763.89C198.505 740.868 159.904 702.935 109.738 692.901" stroke="url(#paint6_linear_1529_73)" stroke-width="3" stroke-linecap="round"/>
<path d="M396.778 652.778C396.778 631.785 400.553 548.715 369 547.839C322.084 546.535 316.221 603.26 316.531 639.746C316.859 678.51 334.857 704.576 375.173 701.475C385.477 700.682 450.341 687.549 424.556 668.21" stroke="url(#paint7_linear_1529_73)" stroke-width="3" stroke-linecap="round"/>
<path d="M171.468 507.715C194.861 531.108 217.765 552.479 217.765 587.963C217.765 639.91 160.139 684.632 110.082 664.609C62.7389 645.672 59.3533 577.645 79.3894 538.751C100.709 497.366 140.676 466.555 186.9 461.418" stroke="url(#paint8_linear_1529_73)" stroke-width="3" stroke-linecap="round"/>
<path d="M1171.48 396.603C1171.48 363.11 1171.48 329.616 1171.48 296.122C1171.48 286.235 1164.3 272.408 1165.3 263.886C1165.78 259.847 1187.44 253.311 1190.68 251.54C1209.87 241.055 1227.33 227.949 1241.78 211.417C1267.87 181.547 1270.71 146.563 1282.59 110.936C1283.77 107.403 1295.85 85.3182 1290.48 82.4719C1287.5 80.8979 1270.65 81.786 1283.27 81.786C1329.34 81.786 1375.41 81.786 1421.48 81.786" stroke="url(#paint9_linear_1529_73)" stroke-width="3" stroke-linecap="round"/>
<path d="M946.164 254.627C946.164 248.337 954.012 190.619 957.824 193.584C968.611 201.974 970.407 202.469 986.288 202.157C989.967 202.085 1000.98 197.248 1004.12 199.757C1007.21 202.227 1009.8 204.742 1014.07 205.244C1015.79 205.447 1021.85 217.716 1023.33 220.676" stroke="url(#paint10_linear_1529_73)" stroke-width="3" stroke-linecap="round"/>
<path d="M1026.41 220.676C1026.41 231.386 1032.59 240.634 1032.59 251.54" stroke="url(#paint11_linear_1529_73)" stroke-width="3" stroke-linecap="round"/>
<path d="M736.285 251.54C824.601 251.54 911.504 260.8 999.833 260.8C1039.04 260.8 1078.25 260.8 1117.46 260.8C1135.25 260.8 1154.68 258.288 1171.47 263.886" stroke="url(#paint12_linear_1529_73)" stroke-width="3" stroke-linecap="round"/>
<path d="M1112.83 489.196C1112.83 474.577 1106.51 446.406 1122.44 438.442C1152.55 423.386 1195.35 449.376 1222.06 461.247C1242.67 470.408 1259.75 479.873 1282.76 475.136C1307.89 469.961 1330.69 464.505 1356.49 464.505C1370.89 464.505 1383.18 470.31 1396.79 470.678C1416.17 471.202 1433.38 461.418 1452.34 461.418C1489.7 461.418 1512.65 529.572 1526.42 557.098" stroke="url(#paint13_linear_1529_73)" stroke-width="3" stroke-linecap="round"/>
<path d="M684 610.393C839.311 610.393 994.623 610.393 1149.93 610.393C1153.48 610.393 1184.28 612.633 1178.21 609.321C1128.85 582.414 1079.61 555.484 1030.84 528.295C993.257 507.344 957.155 484.264 913.626 465.98C913.234 465.816 903.582 461.138 903.001 463.837C900.861 473.788 901.946 484.562 901.63 494.5C898.435 594.908 929.512 694.939 953.039 794.452C962.764 835.588 965.967 878.17 980.114 919" stroke="url(#paint14_linear_1529_73)" stroke-width="3" stroke-linecap="round"/>
<path d="M1421.48 421.295C1421.48 397.869 1418.56 372.761 1426.28 350.307C1434.36 326.808 1449.85 310.96 1465.37 295.436C1476.12 284.691 1467.51 270.19 1471.2 256.342C1477.11 234.192 1518.09 246.586 1526.42 229.935" stroke="url(#paint15_linear_1529_73)" stroke-width="3" stroke-linecap="round"/>
<path d="M1421.48 81.786C1421.48 86.5864 1419.44 97.1698 1421.82 101.334C1425.08 107.041 1487.62 52.0244 1491.95 48.0066C1505.23 35.6776 1519.36 10.3811 1535.67 2.22442C1540.28 -0.0790846 1538.76 11.6282 1538.76 13.8843" stroke="url(#paint16_linear_1529_73)" stroke-width="3" stroke-linecap="round"/>
<defs>
<linearGradient id="paint0_linear_1529_73" x1="301.1" y1="643.519" x2="301.1" y2="908.953" gradientUnits="userSpaceOnUse">
<stop stop-color="#EC6F6F" stop-opacity="0.9"/>
<stop offset="1" stop-color="white" stop-opacity="0"/>
</linearGradient>
<linearGradient id="paint1_linear_1529_73" x1="855.116" y1="489.196" x2="855.116" y2="643.518" gradientUnits="userSpaceOnUse">
<stop stop-color="#EC6F6F" stop-opacity="0.9"/>
<stop offset="1" stop-color="white" stop-opacity="0"/>
</linearGradient>
<linearGradient id="paint2_linear_1529_73" x1="1296.04" y1="428.514" x2="1296.04" y2="646.605" gradientUnits="userSpaceOnUse">
<stop stop-color="#EC6F6F" stop-opacity="0.9"/>
<stop offset="1" stop-color="white" stop-opacity="0"/>
</linearGradient>
<linearGradient id="paint3_linear_1529_73" x1="1289.1" y1="559.534" x2="1289.1" y2="656.792" gradientUnits="userSpaceOnUse">
<stop stop-color="#EC6F6F" stop-opacity="0.9"/>
<stop offset="1" stop-color="white" stop-opacity="0"/>
</linearGradient>
<linearGradient id="paint4_linear_1529_73" x1="866.207" y1="338.595" x2="866.207" y2="507.715" gradientUnits="userSpaceOnUse">
<stop stop-color="#EC6F6F" stop-opacity="0.9"/>
<stop offset="1" stop-color="white" stop-opacity="0"/>
</linearGradient>
<linearGradient id="paint5_linear_1529_73" x1="341.221" y1="621.913" x2="341.221" y2="622.913" gradientUnits="userSpaceOnUse">
<stop stop-color="#EC6F6F" stop-opacity="0.9"/>
<stop offset="1" stop-color="white" stop-opacity="0"/>
</linearGradient>
<linearGradient id="paint6_linear_1529_73" x1="176.097" y1="692.901" x2="176.097" y2="763.89" gradientUnits="userSpaceOnUse">
<stop stop-color="#EC6F6F" stop-opacity="0.9"/>
<stop offset="1" stop-color="white" stop-opacity="0"/>
</linearGradient>
<linearGradient id="paint7_linear_1529_73" x1="373.544" y1="547.817" x2="373.544" y2="701.725" gradientUnits="userSpaceOnUse">
<stop stop-color="#EC6F6F" stop-opacity="0.9"/>
<stop offset="1" stop-color="white" stop-opacity="0"/>
</linearGradient>
<linearGradient id="paint8_linear_1529_73" x1="142.787" y1="461.418" x2="142.787" y2="669.492" gradientUnits="userSpaceOnUse">
<stop stop-color="#EC6F6F" stop-opacity="0.9"/>
<stop offset="1" stop-color="white" stop-opacity="0"/>
</linearGradient>
<linearGradient id="paint9_linear_1529_73" x1="1293.34" y1="81.5364" x2="1293.34" y2="396.603" gradientUnits="userSpaceOnUse">
<stop stop-color="#EC6F6F" stop-opacity="0.9"/>
<stop offset="1" stop-color="white" stop-opacity="0"/>
</linearGradient>
<linearGradient id="paint10_linear_1529_73" x1="984.745" y1="193.473" x2="984.745" y2="254.627" gradientUnits="userSpaceOnUse">
<stop stop-color="#EC6F6F" stop-opacity="0.9"/>
<stop offset="1" stop-color="white" stop-opacity="0"/>
</linearGradient>
<linearGradient id="paint11_linear_1529_73" x1="1029.5" y1="220.676" x2="1029.5" y2="251.54" gradientUnits="userSpaceOnUse">
<stop stop-color="#EC6F6F" stop-opacity="0.9"/>
<stop offset="1" stop-color="white" stop-opacity="0"/>
</linearGradient>
<linearGradient id="paint12_linear_1529_73" x1="953.879" y1="251.54" x2="953.879" y2="263.886" gradientUnits="userSpaceOnUse">
<stop stop-color="#EC6F6F" stop-opacity="0.9"/>
<stop offset="1" stop-color="white" stop-opacity="0"/>
</linearGradient>
<linearGradient id="paint13_linear_1529_73" x1="1319.01" y1="433.875" x2="1319.01" y2="557.098" gradientUnits="userSpaceOnUse">
<stop stop-color="#EC6F6F" stop-opacity="0.9"/>
<stop offset="1" stop-color="white" stop-opacity="0"/>
</linearGradient>
<linearGradient id="paint14_linear_1529_73" x1="931.5" y1="463" x2="931.5" y2="919" gradientUnits="userSpaceOnUse">
<stop stop-color="#EC6F6F" stop-opacity="0.9"/>
<stop offset="1" stop-color="white" stop-opacity="0"/>
</linearGradient>
<linearGradient id="paint15_linear_1529_73" x1="1473.68" y1="229.935" x2="1473.68" y2="421.295" gradientUnits="userSpaceOnUse">
<stop stop-color="#EC6F6F" stop-opacity="0.9"/>
<stop offset="1" stop-color="white" stop-opacity="0"/>
</linearGradient>
<linearGradient id="paint16_linear_1529_73" x1="1479.83" y1="1.92578" x2="1479.83" y2="101.748" gradientUnits="userSpaceOnUse">
<stop stop-color="#EC6F6F" stop-opacity="0.9"/>
<stop offset="1" stop-color="white" stop-opacity="0"/>
</linearGradient>
</defs>
</svg>
