<svg viewBox="0 0 295 271" fill="none" xmlns="http://www.w3.org/2000/svg">
<path d="M50 194.972C57.9583 194.972 65.9169 194.942 73.8751 194.972C89.9773 195.031 105.744 196.849 121.58 200.136C132.842 202.474 143.939 204.6 155.321 206.017C162.433 206.903 169.59 206.732 176.696 207.628C188.481 209.114 199.918 212 211.81 212C212.014 212 214.817 211.987 214.513 211.642C214.026 211.089 212.639 211.04 211.99 210.619C211.281 210.159 214.309 210.159 214.581 210.159C216.976 210.159 212.414 209.038 211.675 208.676C202.041 203.965 192.977 197.793 183.34 193.028C168.975 185.926 154.39 179.431 140.072 172.19C125.154 164.647 111.005 154.83 95.4078 149.051C89.7474 146.954 84.171 145.096 78.3799 143.528C74.1036 142.371 69.7076 142.33 65.4287 141.33C63.2879 140.829 54.0543 140.178 54.0543 137.673C54.0543 134.992 59.3144 134.742 60.6312 134.707C86.4845 134.033 112.175 136.708 137.932 138.722C150.927 139.737 163.951 140.076 176.944 141.125C186.54 141.9 196.122 142.833 205.729 143.426C215.826 144.049 225.937 143.886 236.046 143.886C238.358 143.886 240.671 143.886 242.983 143.886C243.689 143.886 245.993 144.365 244.515 143.784C241.956 142.779 239.587 140.959 237.352 139.233C222.176 127.514 206.194 117.094 190.097 107.094C174.497 97.4024 158.537 88.7557 142.46 80.1449C129.389 73.1439 117.1 64.1159 103.516 58.3864C94.3391 54.5156 84.7332 54.0095 75.3166 51.483C73.1481 50.9011 70.6915 50 68.4469 50C67.2034 50 63.1115 50.6167 62.5682 50" stroke="url(#paint0_linear_1532_312)" stroke-width="100" stroke-linecap="round"/>
<path d="M163 214C163.399 214 163.822 214.1 164.219 214.157C164.425 214.187 165.212 214.179 165.3 214.354" stroke="#F6C77E" stroke-width="20" stroke-linecap="round"/>
<path d="M116.277 167.888C114.904 167.888 114.96 170.61 114 169.842C113 167.342 110 168.342 108.5 167.342C105.565 164.842 102 164.342 105.565 161.432C105.252 161.432 103.661 160.905 103.5 160.342C105.5 154.842 102.731 153.382 103.5 150.842C104.458 147.676 108.157 146.174 108.875 142.942C109.775 138.891 109.527 134.74 109.527 130.6C109.527 128.019 102.793 130.808 102 128.342C101.646 127.241 100.829 120.562 100 119.842C97.147 116.426 97.0883 111.999 95.7169 108.342C94.666 105.539 96.8184 102.619 94.2658 101.268C93.8069 101.025 91.6571 99.6447 91.6571 99.0829C91.6571 98.9431 93.3237 97.8076 93.5321 97.5992C94.1684 96.9628 94.9494 95.8987 95.7332 95.4633C96.5849 94.9901 96.8168 94.0586 97.4941 93.3437C97.9291 92.8845 98.5016 91.4939 98.3583 90.8491C98.1924 90.1026 96.5509 90.4088 96.0104 90.4088C94.8867 90.4088 93.5439 90.1969 92.5049 90.7023C91.4234 91.2285 89.2597 91.9238 88.4614 92.8219C88.3152 92.9864 90.5716 93.1158 90.8908 93.0176C92.7317 92.4511 94.547 88.806 95.7169 87.3436C96.4297 86.4526 98.013 84.8842 98.0811 83.6587C98.1375 82.6445 96.442 83.0718 95.7332 83.0718C93.7767 83.0718 91.8201 83.0718 89.8636 83.0718" stroke="#301E03" stroke-width="20" stroke-linecap="round"/>
<path d="M96.9072 80.7239C97.6566 80.6407 99.9878 79.2081 100.429 78.6043C103.173 74.8497 106.718 80.3856 109.185 81.8653C111.275 83.1194 110.994 81.2933 110.994 79.5337C110.994 77.3284 111.205 75.46 110.114 73.5499C109.987 73.3278 109.108 73.3869 109.364 73.3869C109.977 73.3869 110.226 73.2666 110.587 72.7673C111.965 70.8584 114.502 69.0723 116.505 67.8107C116.875 67.578 119.495 67.5213 118.266 66.6368C117.989 66.437 115.298 65.4556 115.755 64.9411C115.922 64.754 116.624 64.8407 116.88 64.6965C117.783 64.1886 118.538 63.4164 119.44 62.8867C119.908 62.612 122.573 61.6035 123.027 62.3976C124.141 64.3464 126.758 66.8061 129.027 65.1041C130.219 64.2102 131.143 63.3162 132.712 63.4085C133.314 63.4438 132.671 64.3809 132.533 64.615C131.529 66.314 130.68 67.8998 130.234 69.8488C130.12 70.3468 129.102 73.6804 130.234 73.6804C134.858 73.6804 139.471 73.9738 144.093 73.9738C146.609 73.9738 149.125 73.9738 151.642 73.9738C152.937 73.9738 155.037 73.6763 155.897 74.9195C156.463 75.7367 156.191 78.8809 156.191 77.8869C156.191 76.2684 156.449 74.957 157.006 73.4521C157.935 70.9448 161.877 71.039 163.968 71.039C166.553 71.039 169.36 72.3624 170.686 74.7075C170.982 75.2321 172.368 77.7528 171.403 76.9087C169.544 75.2823 165.122 74.9741 162.794 74.8706C159.676 74.732 155.941 74.3933 152.962 75.4412C152.614 75.5638 150.016 77.1752 151.038 77.2021C156.131 77.3362 160.823 78.2731 165.843 79.1098C166.813 79.2715 169.908 80.4093 170.262 78.8163C170.448 77.9794 170.667 77.3528 171.158 76.6152" stroke="#301E03" stroke-width="20" stroke-linecap="round"/>
<path d="M139.755 61.6476C139.755 59.4716 140.389 56.3403 139.69 54.2453C139.473 53.5923 137.826 49.8928 137.408 50.6257C137.248 50.9054 136.589 50.7888 137.424 50.7888C138.64 50.7888 139.634 51.6273 140.489 52.4192C142.339 54.1316 144.201 55.8046 145.902 57.6693C146.974 58.8438 148.316 60.9253 149.734 61.7128C150.669 62.2322 151.911 58.2368 152.147 57.5715C153.084 54.9312 153.741 52.1667 154.43 49.4518C154.526 49.0717 155.019 47.9142 154.576 47.5605C154.178 47.2416 152.574 47.6458 152.147 47.5603C151.341 47.3991 154.467 47.5529 155.017 48.1637C156.062 49.3256 156.983 50.6248 157.886 51.8975C158.651 52.9756 159.623 55.4244 161.245 55.4845C163.7 55.5754 166.392 54.4696 168.5 53.2834C169.156 52.9146 164.747 54.1998 164.702 54.2453C163.015 55.9318 166.259 55.3578 164.702 57.1802C163.847 58.1799 161.613 60.279 163.886 60.702C167.344 61.3452 167.312 64.5244 170 66.8418C171.19 67.868 175.631 67.6024 175.87 69.2782C176.109 70.9496 178.771 69.7969 179.5 71.3418C178.83 73.7224 182.852 83.8964 182.5 86.3418C182.272 87.9234 176.579 90.9056 178.723 91.6481C179.661 91.9725 180.79 92.2751 181.577 92.8872C182.982 93.9798 183.249 99.3955 182.376 102.342C181.672 104.716 185.674 101.983 185 104.342C184.434 106.321 183.292 107.551 182.376 109.485C181.478 111.379 179.815 112.809 178.789 114.605C178.37 115.338 177.793 115.801 177.598 116.676C177.506 117.093 177.321 119.11 177.321 118.29" stroke="#301E03" stroke-width="20" stroke-linecap="round"/>
<path d="M169.985 159.084C171.056 158.965 172.942 156.842 174 156.842C175.137 156.842 172.061 158.685 172.039 159.084C172.01 159.604 173.597 162.312 173 162.312C171.433 162.312 168.301 161.256 167.196 162.312C165.569 163.869 164.995 165.037 164.995 167.236C164.995 168.542 163.5 172.652 163.5 173.842C163.5 176.715 168.381 171.624 169 170.97C169.5 168.459 168.693 169.222 167.637 169.339C164.946 169.638 162.297 169.649 159.582 169.649C156.734 169.649 153.395 170.139 150.598 169.486C148.251 168.938 146.319 167.286 144.011 166.584C139.553 165.227 135.308 168.187 130.951 168.459C128.331 168.623 125.655 168.475 123.027 168.475" stroke="#301E03" stroke-width="20" stroke-linecap="round"/>
<path d="M155 218.342C155 216.842 148 204.259 148 201.842C148 200.1 151.487 193.935 150.758 192.295C149.931 190.434 149.734 188.613 149.734 186.583C149.734 184.826 150.01 182.761 150.492 181.076C150.644 180.543 150.911 179.783 151.393 179.397C152.558 178.465 151.893 178.018 151.126 179.397C149.612 182.122 139.517 183.7 137.574 180.298C136.924 179.161 135.775 178.838 134.81 178.087C133.727 177.245 132.797 176.136 131.841 175.18C130.998 174.336 129.581 173.893 128.545 173.317C127.922 172.97 126.567 172.827 126.17 172.232C125.044 170.542 129.005 175.388 129.446 177.37C130.009 179.906 129.467 183.067 129.467 185.662C129.467 187.611 128.55 189.374 127.255 190.821C126.836 191.289 125.26 203.639 126.171 203.842C128.028 204.255 129.005 197.131 130.92 197.638C132.764 198.126 134.095 198.7 135.547 199.829C136.725 200.745 137.73 202.323 139.048 202.982" stroke="white" stroke-width="20" stroke-linecap="round"/>
<path d="M151.577 167.605C151.577 163.902 151.622 161.664 154.34 158.945C155.13 158.156 156.036 157.44 156.9 156.734C157.429 156.301 158.333 156.017 158.742 155.608C159.158 155.192 159.5 167.342 159.131 153.766C159.706 152.501 161.986 155.027 162.5 153.766C163.032 152.459 163.44 147.947 164.188 146.6C164.865 145.381 166.26 145.54 167.238 144.758C168.845 143.473 173.322 146.865 174.076 144.225C174.755 141.85 176.6 139.797 178.191 138.207C179.832 136.565 178.079 138.29 176.615 138.473C174.611 138.723 172.743 138.611 171.763 136.651C170.915 134.955 170.973 132.989 169.633 131.492C168.66 130.404 168.896 128.976 168.896 127.622C168.896 126.357 168.985 124.606 169.92 123.671C170.481 123.11 171.107 121.752 171.107 120.989C171.107 119.655 170.002 118.567 170.002 117.304C170.002 115.702 169.735 115.014 170.289 113.353C170.971 111.307 169.92 109.481 169.92 107.342C169.92 106.176 170.108 103.641 171.107 102.842C172.802 101.486 172.581 96.9677 172.581 95.0096C172.581 91.2621 166.531 94.301 164.843 94.723C162.823 95.228 161.558 96.1533 159.5 95.0096C158.298 94.3422 152.346 97.8417 151 97.8417C149.488 97.8417 147.013 97.0744 145.5 96.8417C142.373 96.3606 138.969 93.6483 135.813 93.5356C134.12 93.4751 132.457 92.7986 130.756 92.7986C129.589 92.7986 126.088 92.7986 127.255 92.7986" stroke="white" stroke-width="20" stroke-linecap="round"/>
<path d="M133.889 92.7984C133.686 91.8863 128.062 90.3417 127 90.3417C122.057 90.3417 112.274 96.9019 111.226 101.724C109.915 107.752 112.516 109.485 112.516 115.646C112.516 118.519 112.516 121.392 112.516 124.265C112.516 125.385 112.172 127.786 111.226 128.543C110.822 128.867 111.106 129.66 110.755 130.099C110.39 130.556 109.961 131.667 109.649 132.228C108.216 134.808 109.034 137.533 109.199 140.336C109.276 141.637 111.897 140.915 112.7 141.093C115.103 141.627 116.564 146.294 117.675 148.238C118.193 149.146 118.507 149.534 118.698 150.736C119.196 153.875 120.608 156.704 121.278 159.784C121.624 161.379 122.073 163.92 123.939 163.92C126.659 163.92 127.418 166.58 128.525 168.895C129.234 170.377 130.976 173.065 132.599 170.901C133.682 169.457 134.038 167.666 135.076 166.213C136.905 163.652 139.826 161.941 142.078 159.784C143.885 158.055 145.927 156.652 147.871 155.096C148.625 154.494 149.734 153.334 149.734 154.851C149.734 156.271 150.109 152.027 150.471 150.654C151.319 147.442 153.264 144.41 154.894 141.523C156.007 139.551 157.003 137.678 158.21 135.832C162.459 129.333 155.83 119.914 153.952 113.476C153.748 112.777 153.344 112.589 152.805 112.165C150.672 110.486 147.909 113.449 145.5 112.165C140.097 109.288 134.939 102.696 128.893 101.724C126.844 101.395 124.676 102.246 124.676 104.591C124.676 106.119 125.652 106.785 126.498 107.948C128.889 111.236 129.665 115.433 129.815 119.392C129.936 122.605 129.56 124.722 127.808 127.417C127.343 128.133 125.99 129.029 125.802 129.874C125.227 132.462 126.448 135.881 126.887 138.411C127.264 140.581 127.558 142.927 127.624 145.126C127.687 147.198 130.803 146.86 132.415 147.337C133.499 147.659 136.539 148.642 137.574 147.828C138.746 146.907 138.384 144.151 138.516 142.874C138.811 140.003 139.239 137.159 139.416 134.276C139.504 132.851 139.085 123.642 141.812 123.036C142.391 122.907 143.408 123.306 143.757 122.647C144.112 121.975 143.868 120.701 143.552 120.068C143.109 119.183 142.411 118.775 141.709 118.143C140.991 117.497 141.259 119.238 141.259 119.699" stroke="white" stroke-width="20" stroke-linecap="round"/>
<path d="M109.5 143.837C109.5 143.128 104.818 146.012 104.818 145.659C104.818 144.97 105.514 144.615 105.514 143.837C105.514 142.982 105.471 138.862 104.04 138.862C102.801 138.862 101.648 139.967 100.171 139.967C99.4909 139.967 96.5 141.342 96.5 140.342" stroke="white" stroke-width="20" stroke-linecap="round"/>
<path d="M113.636 212.204C116.412 212.204 122.704 212.03 125 213.342C125.618 213.695 122.005 214.917 122.505 215.367C124.126 216.826 125.582 218.514 127.266 219.965C130.383 222.652 133.366 223.357 137.343 223.357C139.825 223.357 142.333 223.647 144.68 222.835M140.962 219.248C139.708 218.542 138.462 217.587 137.114 217.063C136.186 216.702 134.803 217.777 134 217.063C133.109 216.271 133.682 215.607 134.489 216.313C136.049 217.678 137.573 219.047 139.397 220.063C143.307 222.241 141.072 219.965 145.5 219.965C148.29 219.965 156.5 222.183 160.153 223.047C161.213 222.884 156.935 221.009 158 221.009C159.168 221.009 165.588 222.183 166.756 222.183C168.918 222.183 170.993 221.889 173.148 221.889C174.447 221.889 175.438 221.009 176.588 221.009C179.292 221.009 176.905 219.777 175.854 219.101C173.959 217.883 182.799 218.587 181 217.342C180.464 216.971 178.458 219.559 178 219.101C174.5 217.101 171.868 214.606 171.5 215.342" stroke="#F6C77E" stroke-width="14" stroke-linecap="round"/>
<path d="M168.637 235.428C169.335 236.597 174.029 234.481 174.116 235.858C174.146 236.336 173.773 238.5 174.929 237.707C175.824 237.093 176.954 236.978 177.508 236.099C177.88 235.509 181.407 234.927 180 236.099C178.514 237.336 175.743 238.455 175.743 240.098C175.743 241.51 177.659 241.903 178.997 242.601C181.013 243.651 182.658 245.047 184.692 246.043C185.616 246.496 187.399 246.187 188.435 246.187C189.601 246.187 190.5 243.111 190.5 244.5C190.5 246.85 190.159 250.678 191.852 252.515C194.235 255.101 197.229 258.545 200.874 259.735C202.435 260.245 202.459 261.536 200.404 260.755C185.077 254.935 168.426 256.945 152.558 252.515C144.327 251.884 105.895 240.351 97.6688 241.023C93.7602 241.342 90.3643 239.951 86.5735 240.879C84.3412 241.426 71.519 245.459 69.5 244.5C67.7104 243.651 73.767 240.947 71.8566 241.309C71.4236 241.392 68 245.126 68 244.5C68 243.29 71.3458 238.807 72.2544 238.153C74.3107 236.674 72.0065 230.643 74.5 229.833C76.8538 229.069 84.3268 228.043 86.5735 227C90.7784 225.049 87.2996 223.057 91.5 221C91.5 235.924 102.761 207.119 104.5 208C109.768 210.668 102.008 228.04 108 229C112.5 224.5 130.249 231.974 136.184 234.424C140.61 236.25 144.374 233.782 149.5 233.5C151.38 233.396 152.824 237.58 154.662 237.58C156.429 237.58 159.74 237.227 160.701 239.014C160.993 239.559 160.717 240.433 160.791 241.023C161.03 242.917 162.749 244.635 164.027 246.043C169.825 252.432 177.507 257.119 186.482 259.098" stroke="url(#paint1_linear_1532_312)" stroke-width="20" stroke-linecap="round"/>
<path d="M102.5 202.342C107.017 206.719 96.8311 196.842 95 196.842C93.1539 196.842 92.6211 198.152 91 197.342C89.9546 196.819 84.3044 197.342 83 197.342" stroke="#F6C77E" stroke-width="11" stroke-linecap="round"/>
<path d="M159.772 84.362C160.724 84.362 163.75 84.8911 164.342 84.0303C164.864 83.2709 165.408 81.7464 166.24 81.3768C167.741 80.7097 169.788 80.9829 171.307 81.4505C172.637 81.8597 176.258 82.5505 177.02 83.8829C177.715 85.0991 178.531 86.2197 179.268 87.4209C179.737 88.1856 180.049 89.0746 180.521 89.8164C180.821 90.2874 181.518 90.5897 181.645 91.1616C182.268 93.9637 182.513 97.7701 181.59 100.541C180.841 102.787 179.87 105.12 179.36 107.414C178.681 110.471 179.074 115.188 180.263 117.862C181.653 120.991 181.519 123.445 181.332 126.818C181.245 128.384 180.668 130.032 180.668 131.627C180.668 133.159 179.341 134.669 179.341 136.234C179.341 136.731 179.651 140.01 179.01 140.085C177.876 140.219 176.971 141.998 176.706 142.923C176.45 143.822 175.493 145.923 174.366 146.056C173.175 146.196 171.713 147.845 171.713 149.041" stroke="#301E03" stroke-width="2" stroke-linecap="round"/>
<path d="M174.035 145.392C174.035 147.685 174.492 150.44 173.537 152.542C173.107 153.488 172.814 155.276 172.708 156.338C172.602 157.391 171.822 158.395 171.713 159.323C171.613 160.169 170.866 160.548 170.386 161.147C169.522 162.228 168.523 163.382 167.898 164.63C166.738 166.951 165.097 167.693 163.255 169.126C161.034 170.854 159.142 173.036 157.192 174.986C155.807 176.371 154.845 178.21 153.304 179.409C150.519 181.575 147.876 186.19 143.851 186.19" stroke="#301E03" stroke-width="3" stroke-linecap="round"/>
<path d="M142.856 186.521C139.502 186.521 135.398 186.359 132.408 184.697C130.372 183.566 130.119 180.134 128.262 179.151C126.36 178.144 125.244 175.926 123.471 174.912C121.919 174.026 120.633 171.7 120.633 169.937" stroke="#301E03" stroke-width="2" stroke-linecap="round"/>
<path d="M124.945 178.561C124.181 178.332 123.418 177.226 122.623 176.829C122.087 176.561 121.314 176.072 120.891 175.65C120.16 174.918 119.402 174.274 118.716 173.512C116.724 171.298 115.198 168.667 113.078 166.547C111.584 165.053 110.467 161.749 110.351 159.655C110.3 158.735 109.822 156.89 109.429 156.006C108.955 154.938 109.246 153.298 108.029 152.689" stroke="#301E03" stroke-width="2" stroke-linecap="round"/>
<path d="M110.351 153.353C110.217 152.009 107.717 150.225 106.868 149.188C105.523 147.544 104.386 145.588 103.459 143.734C101.515 139.845 99.4053 136.486 99.4053 131.959C99.4053 130.15 100.536 128.58 100.732 126.818C100.933 125.005 101.064 123.227 101.064 121.327C101.064 117.352 100.697 113.444 100.142 109.496C99.9504 108.131 99.819 105.258 98.576 104.263C97.6504 103.523 99.7824 103.6 100.069 103.6" stroke="#301E03" stroke-width="2" stroke-linecap="round"/>
<path d="M100.068 103.6C100.068 99.7104 101.324 97.3187 103.533 94.4784C104.913 92.7043 107.444 91.2336 108.361 89.1714C108.757 88.2784 109.415 86.6152 110.516 86.3705C111.174 86.2244 112.729 85.4312 113.262 84.9517C114.097 84.2002 115.685 81.7085 116.653 81.7085" stroke="#301E03" stroke-width="3" stroke-linecap="round"/>
<path d="M122.955 80.05C127.496 80.05 131.256 80.6748 135.227 82.7772C136.693 83.553 138.65 82.5636 140.055 83.3669C140.794 83.7889 141.638 84.0544 142.267 84.62C142.658 84.9725 142.726 84.984 142.875 85.5044C142.957 85.7914 143.757 85.71 144.017 85.8546C145.499 86.6777 146.771 86.2041 147.426 87.6788C147.817 88.5584 147.248 87.5088 147.758 86.9418C148.523 86.0919 149.511 86.3521 150.651 86.3521C151.683 86.3521 152.453 86.4168 153.323 86.6654C154.066 86.8777 154.293 86.0927 154.723 85.615C155.49 84.7629 155.356 84.6937 156.621 84.6937C157.06 84.6937 158.641 84.6937 158.446 84.6937" stroke="#301E03" stroke-width="3" stroke-linecap="round"/>
<path d="M99.0732 131.461C97.7426 131.314 97.7833 130.411 96.4998 131.461C95.9277 131.929 95.2244 131.784 94.4998 131.461C93.7648 131.135 89.524 130.637 89.141 131.977C87.901 136.317 87.9592 141.224 88.4592 145.724C88.7003 147.894 90.8016 148.046 92.4395 148.046C94.5801 148.046 96.5291 150.256 97.9123 151.363C99.3173 152.487 99.9037 154.194 101.727 154.845C103.631 155.525 105.503 155.037 107.034 154.016" stroke="#301E03" stroke-width="3" stroke-linecap="round"/>
<path d="M181 131.13C182.571 131.13 188.699 130.299 189.274 132.309C189.882 134.437 191.029 136.327 190.103 138.445C189.143 140.638 187.93 143.044 186.491 144.895C185.57 146.079 185.144 147.366 184.059 148.451C183.443 149.067 183.433 150.024 183.303 150.865C183.221 151.401 182.946 153.581 182.585 153.942C181.909 154.618 178.311 154.648 177.425 154.679C176.355 154.718 173.898 155.07 173.371 154.016" stroke="#301E03" stroke-width="3" stroke-linecap="round"/>
<path d="M164.416 168.279C164.301 169.425 163.465 170.583 163.015 171.596C162.514 172.724 162.045 173.889 161.781 175.078C161.386 176.853 160.93 178.736 160.454 180.404C159.942 182.195 160.488 184.212 160.085 186.024C159.668 187.9 159.44 190.402 159.44 192.326C159.44 196.175 158.983 200.998 160.509 204.433C161.259 206.119 161.722 207.713 163.015 209.15C163.535 209.728 163.905 210.856 164.102 211.545C164.36 212.448 164.747 213.958 164.747 212.061" stroke="#301E03" stroke-width="3" stroke-linecap="round"/>
<path d="M116.321 171.264C116.321 173.228 117.648 174.864 117.648 176.737C117.648 178.236 118.086 179.345 118.385 180.809C118.86 183.133 118.975 185.111 118.975 187.516C118.975 189.715 118.08 192.337 117.39 194.408C116.618 196.724 116.979 200.128 115.658 202.111" stroke="#301E03" stroke-width="3" stroke-linecap="round"/>
<path d="M105.707 197.799C105.159 195.972 102.214 195.398 101.395 193.966C100.483 192.37 98.8952 192.081 97.4148 191.423C94.6207 190.181 91.5094 190.502 88.4593 190.502C85.5131 190.502 82.2377 191.815 80.0934 193.745C78.7115 194.989 77.5589 196.059 76.6844 197.633C75.8633 199.111 77.069 201.116 78.6745 201.116C80.1861 201.116 81.0257 203.106 82.7469 203.106C84.2651 203.106 86.2774 202.852 87.6301 203.603C89.171 204.459 92.3692 203.769 94.098 203.769C95.4229 203.769 97.2879 203.425 98.5573 203.788C99.2113 203.974 99.2917 207.048 99.6629 207.749C100.274 208.904 103.989 209.408 105.191 209.408C106.639 209.408 107.693 210.568 109.024 210.734C110.368 210.903 111.832 211.066 113.336 211.066" stroke="#301E03" stroke-width="2" stroke-linecap="round"/>
<path d="M113.004 211.066C114.919 211.066 116.779 211.433 118.458 212.393C119.066 212.74 119.456 213.418 120.135 213.72C121.06 214.131 121.893 214.797 122.807 215.212C123.937 215.726 125.441 215.783 126.437 216.558C127.913 217.705 129.939 218.19 131.578 219.1C132.782 219.769 133.37 221.568 134.564 222.27C136.223 223.246 137.977 223.944 140.018 224.315C141.096 224.511 144.038 224.709 145.012 224.168C146.327 223.437 153.138 221.892 153.138 224.334" stroke="#301E03" stroke-width="2" stroke-linecap="round"/>
<path d="M153.138 224.334C155.371 224.582 156.477 227.651 158.943 227.651C160.656 227.651 162.37 227.651 164.084 227.651C167.82 227.651 171.985 227.3 174.864 224.997C177.441 222.935 181.588 223.007 184.814 223.007C186.377 223.007 187.046 222.158 188.297 221.422C189.517 220.705 189.292 219.639 189.292 218.363C189.292 216.428 188.058 212.393 185.643 212.393C184.065 212.393 182.564 211.73 181 211.73C178.917 211.73 178.239 210.834 176.522 210.071C175.139 209.456 174.008 207.87 172.966 206.828C171.43 205.293 169.699 203.893 167.567 203.419C164.796 202.803 163.328 204.342 160.5 204.342" stroke="#301E03" stroke-width="2" stroke-linecap="round"/>
<path d="M183.985 216.042C182.602 216.042 180.279 216.502 179.01 215.968C177.485 215.326 175.7 215.942 174.108 215.452C171.641 214.693 169.444 213.72 166.737 213.72C162.131 213.72 157.492 214.051 152.807 214.051" stroke="#301E03" stroke-width="2" stroke-linecap="round"/>
<path d="M83.8154 193.487C84.9453 193.487 85.8271 194.036 86.8006 194.15C88.2907 194.325 89.6833 195.729 91.1125 195.809C92.7909 195.902 95.9484 197.065 97.3409 198.204C98.6702 199.292 101.385 198.794 103.053 198.794C105.094 198.794 106.953 198.347 109.024 198.462C110.892 198.566 113.085 200.551 114.257 201.853C114.945 202.618 115.573 203.481 116.579 203.843C117.422 204.146 118.728 204.489 119.38 205.022C121.116 206.443 123.971 206.137 125.94 207.012C126.535 207.277 127.931 207.671 128.593 207.749C129.002 207.797 130.746 209.076 129.588 209.076" stroke="#301E03" stroke-width="2" stroke-linecap="round"/>
<path d="M123.95 211.066C127.917 211.066 131.713 210.403 135.559 210.403C136.782 210.403 139.156 211.025 140.129 211.803C141.135 212.608 143.194 212.651 144.515 212.725C145.987 212.806 147.938 213.855 149.416 214.309C151.131 214.837 151.879 214.929 153.065 216.115C154.971 218.022 159.337 216.727 160.436 220.022" stroke="#301E03" stroke-width="2" stroke-linecap="round"/>
<path d="M57 244.842C59.2268 244.594 63.6655 227.045 64.8911 225.513C66.1403 223.952 67.5326 223.294 68.8898 222.012C70.2782 220.701 73.6832 218.437 75.5972 218.363C77.5706 218.287 81.0253 219.088 82.8206 218.29C84.8949 217.368 91.3926 215.71 89.1227 215.71" stroke="#301E03" stroke-width="2" stroke-linecap="round"/>
<path d="M81.4941 217.368C81.4941 215.989 82.795 212.725 84.1476 212.725C85.36 212.725 86.4824 211.777 87.7225 211.73C88.765 211.69 89.8654 211.841 90.5971 210.9C91.5338 209.696 92.1604 208.319 92.9373 206.92C93.2213 206.409 95.2251 202.706 95.7567 203.769" stroke="#301E03" stroke-width="2" stroke-linecap="round"/>
<path d="M183.5 224C183.5 224.883 182.363 227 183.5 227C184.568 227 187.438 229.702 188 229C189.287 229.681 189.283 230.609 189.5 231C190.342 232.515 190.72 231.899 190.213 233.363C189.831 234.467 190.099 234.5 192 234.5C193.603 234.5 193.397 236 195 236C197.645 236 199.243 237.126 199.243 239.923C199.243 242.395 199.804 245.348 201 247.5C201.794 248.93 202.6 250.776 204.5 251C207.162 251.313 209.106 255.715 210.852 257.336C211.547 257.982 212.217 263.067 212.5 262.5" stroke="#301E03" stroke-width="2" stroke-linecap="round"/>
<path d="M109 123.324C112.725 116.288 123.777 117.022 130.56 117.022" stroke="#301E03" stroke-width="3" stroke-linecap="round"/>
<path d="M156 118.653C159.951 118.653 163.223 116 167.111 116C167.927 116 170.758 118.195 171.258 118.819C171.868 119.582 173.325 120.67 174.243 120.975" stroke="#301E03" stroke-width="3" stroke-linecap="round"/>
<path d="M162.695 127C163.326 127.568 164.41 127.647 164.353 128.658C164.322 129.228 163.164 129.983 162.695 130.243C160.701 131.351 160.628 129.317 161.774 128.4C163.002 127.417 165.072 129.653 162.363 129.653C159.688 129.653 161.653 125.864 162.363 127.995" stroke="#301E03" stroke-width="3" stroke-linecap="round"/>
<path d="M121.695 126C122.326 126.568 123.41 126.647 123.353 127.658C123.322 128.228 122.164 128.983 121.695 129.243C119.701 130.351 119.628 128.317 120.774 127.4C122.002 126.417 124.072 128.653 121.363 128.653C118.688 128.653 120.653 124.864 121.363 126.995" stroke="#301E03" stroke-width="3" stroke-linecap="round"/>
<path d="M155.128 127.813C155.298 125.945 158.149 123.833 159.938 123.833C161.82 123.833 165.169 122.55 166.553 124.33C167.845 125.991 169.47 127.376 170.976 128.882C171.899 129.805 171.48 130.228 170.386 130.872C169.499 131.393 168.83 132.252 168.396 133.12" stroke="#301E03" stroke-linecap="round"/>
<path d="M129.355 126.427C129.185 124.56 126.334 122.447 124.546 122.447C122.664 122.447 119.315 121.164 117.93 122.945C116.639 124.605 115.014 125.99 113.508 127.496C112.584 128.42 113.004 128.843 114.097 129.486C114.984 130.008 115.654 130.866 116.088 131.734" stroke="#301E03" stroke-linecap="round"/>
<path d="M146 135C146.114 136.022 148.043 137.351 148.58 138.317C149.15 139.343 150.079 139.865 150.57 140.97C151.413 142.867 150.687 146.565 149.317 147.936" stroke="#301E03" stroke-linecap="round"/>
<path d="M148.163 147.714C148.655 147.644 146.421 147.152 146.247 146.977C146.025 146.756 148.226 146.719 148.495 146.719" stroke="#301E03" stroke-linecap="round"/>
<path d="M139.539 146.387C139.422 145.448 138.212 146.666 138.212 145.89C138.212 145.11 139.312 145.506 138.212 146.056" stroke="#301E03" stroke-linecap="round"/>
<path d="M137.789 147.614C137.15 146.976 136.676 146.193 135.964 145.624C134.5 144.452 134.942 144.38 135.725 142.97C136.342 141.86 136.694 140.563 137.291 139.488C137.652 138.838 137.518 137.301 138.12 137" stroke="#301E03" stroke-linecap="round"/>
<path d="M142.5 158C143 158.5 145.987 160.287 147.049 161.243C148.772 162.794 152.323 163.97 154.604 163.97" stroke="#301E03" stroke-linecap="round"/>
<path d="M144.5 160C142.355 160 139.24 160.153 137.307 161.069C136.519 161.442 132.157 164.295 132 163.98" stroke="#301E03" stroke-linecap="round"/>
<path d="M137 162.157C138.031 162.213 141.017 162.289 142 162.5C142.86 162.685 143.06 162.5 144 162.5C146.262 162.5 146.218 162.733 148 162.157" stroke="#301E03" stroke-linecap="round"/>
<path d="M130.584 52.8518C128.882 52.8518 125.701 53.4602 124.355 52.1147C122.762 50.5219 121.16 53.0207 119.638 53.8469C119.609 53.8626 117.795 54.9278 117.795 54.4365C117.795 54.199 118.89 52.3953 119.048 52.1147C120.4 49.7237 120.579 46.593 122.218 44.4859C122.294 44.3884 118.699 42.226 118.237 41.9062C117.136 41.1434 116.399 40.5813 116.321 39.2527C116.268 38.358 114.808 38.2402 114.405 37.5942C113.466 36.0923 113.264 38.2966 112.672 38.921C111.526 40.1307 109.879 42.5695 108.029 42.5695C106.537 42.5695 105.404 42.5169 104.049 43.1592C102.729 43.7844 103.104 44.5035 103.054 45.9601C102.991 47.7688 102.885 50.5675 101.985 52.1884C100.754 54.403 100.104 52.1982 101.063 51.5988C102.856 50.4787 104.762 49.485 106.297 47.9502C107.197 47.0503 107.825 45.6471 109.356 46.2918C109.856 46.5024 113.534 46.404 112.93 47.5448C112.778 47.8321 112.199 48.2291 111.935 48.4662C111.193 49.1345 110.733 50.023 110.166 50.8985C109.401 52.0816 108.941 53.4367 109.024 54.8419C109.116 56.4069 115.014 57.8271 110.682 57.8271C109.267 57.8271 106.065 59.2587 105.302 60.4806C104.607 61.5928 104.38 61.6097 104.38 63.1341C104.38 63.7357 105.021 66.3258 104.638 66.7089C104.567 66.7804 103.619 66.1323 103.385 66.1193C102.836 66.0888 102.277 66.1193 101.727 66.1193C100.621 66.1193 99.5156 66.1193 98.41 66.1193C97.6195 66.1193 96.9129 67.7281 96.4935 68.4411C95.9927 69.2925 94.8384 70.1993 94.0243 70.7629C93.0554 71.4337 89.2174 75.9802 87.7223 74.4851C87.1239 73.8867 86.4692 72.99 86.4692 72.0896C86.4692 70.8614 87.1326 69.9047 87.1326 68.7728" stroke="#301E03" stroke-width="3" stroke-linecap="round"/>
<path d="M87.1328 68.7727C84.1699 72.0648 83.0162 75.5063 83.4842 79.7184C83.6097 80.8478 85.3926 82.8358 86.322 83.3669C86.6761 83.5692 87.7668 84.2735 87.6119 84.362C86.4312 85.0366 86.1239 84.9076 85.1058 86.0388C82.9666 88.4158 80.2882 90.7806 79.246 93.9072C78.7758 95.3178 78.5089 96.6413 78.5089 98.127C78.5089 99.1061 78.0358 101.82 78.6748 102.586C79.2134 103.233 79.1926 103.312 79.5777 102.199C79.9275 101.189 80.3306 100.304 81.0887 99.5458C82.4587 98.1758 83.8815 97.2977 85.806 97.2977" stroke="#301E03" stroke-width="3" stroke-linecap="round"/>
<path d="M85.8059 97.2977C85.6744 98.6124 84.8108 99.3582 84.8108 100.762C84.8108 101.678 84.9016 102.342 85.1241 103.121C85.2478 103.554 85.3689 103.977 85.4926 104.411C85.5293 104.539 86.006 104.927 85.9349 104.927C85.1343 104.927 84.4791 106.36 84.4791 107.082C84.4791 107.935 83.9985 111.749 85.1425 111.892C86.565 112.07 87.8698 114.341 88.7173 115.283C89.8354 116.525 88.7215 118.863 89.1412 120.332C89.4471 121.402 93.8197 120.532 92.1079 122.672C91.4783 123.459 88.711 124.118 90.5232 125.749C92.0288 127.104 93.4347 126.679 93.4347 129.14" stroke="#301E03" stroke-width="3" stroke-linecap="round"/>
<path d="M129.589 52.5201C129.589 50.4009 129.148 47.8216 129.607 45.7574C129.699 45.3452 131.535 45.5547 131.91 45.5547C133.162 45.5547 129.918 44.256 129.423 44.0621C128.028 43.5165 125.394 42.4617 124.613 41.0954C123.615 39.3474 123.546 36.5583 123.36 34.5354C124.614 31.8417 123.944 29.3322 127.5 28.8417C129.086 28.6229 130.024 27.3689 131.579 26.9803C132.852 26.662 133.744 25.9075 134.896 25.3956C135.501 25.1265 134.799 25.9351 134.564 26.0589C133.891 26.413 133.253 26.7882 132.574 27.1277C128.439 29.1954 125.016 32.9741 126.014 37.8522C127.088 43.1025 133.445 41.9062 137.328 41.9062C138.479 41.9062 139.618 41.4759 139.539 42.9012C139.483 43.9098 139.067 44.7701 139.226 45.8864C139.397 47.0812 140.227 47.2132 141.198 47.2132C143.639 47.2132 146.049 47.5448 148.495 47.5448" stroke="#301E03" stroke-width="3" stroke-linecap="round"/>
<path d="M148.163 47.5448C148.163 46.6097 148.98 40.6401 148.495 40.5794C147.075 40.402 147.264 39.4097 147.841 37.76C148.585 35.6333 147.475 31.7019 150.006 30.9789C151.616 30.5189 153.824 30.1269 155.055 28.8966C155.833 28.118 157.821 25.4214 156.787 24.3267C156.312 23.8239 155.562 23 154.797 23C153.83 23 156.149 24.3929 156.271 24.4926C160.564 28.0052 151.636 29.248 150.559 32.3609C150.084 33.731 148.526 36.1018 150.006 36.8417C151.42 37.5488 153.351 37.5942 154.963 37.5942C156.826 37.5942 155.426 40.1674 156.971 40.5794C158.34 40.9444 165.09 41.4657 164.158 43.5646C163.47 45.1126 165.023 46.5497 166.479 46.5497C169.429 46.5497 171.049 47.0893 171.049 43.583C171.049 40.5504 170.201 39.6289 167.917 37.76C166.566 36.6551 165.079 36.516 165.079 38.5893" stroke="#301E03" stroke-width="3" stroke-linecap="round"/>
<path d="M172.708 43.8963C174.63 43.8963 176.106 43.4018 177.941 42.975C178.787 42.7782 179.604 42.3882 180.503 42.588C181.59 42.8295 183.455 44.517 184.133 45.3889C184.505 45.867 184.156 47.0741 183.967 46.0338C183.877 45.5385 182.876 43.9286 182.327 43.8963C179.263 43.7161 176.709 48.4183 176.099 50.8617C175.615 52.7972 175.693 54.6824 175.693 56.6662C175.693 58.1805 181.593 57.5486 182.308 57.477C183.728 57.3351 183.592 57.1541 182.327 57.7534C180.641 58.552 179.114 59.6235 177.536 60.628C174.808 62.3642 179.324 63.0407 180.834 63.6316C182.084 64.1206 185.18 65.5166 185.312 63.1341C185.397 61.6084 186.307 59.2983 186.307 62.1391C186.307 63.5959 185.49 65.0157 186.823 65.6218C188.851 66.5437 190.643 65.4487 191.798 63.9633C192.79 62.6884 193.762 59.3007 191.946 58.2325C191.304 57.8547 192.609 60.8635 192.609 61.8074C192.609 64.1475 191.712 65.043 190.619 67.1144C189.929 68.4226 187.634 70.5776 187.634 72.0897" stroke="#301E03" stroke-width="3" stroke-linecap="round"/>
<path d="M187.634 72.0896C188.915 72.2319 189.956 76.7579 189.956 77.8941C189.956 80.212 190.598 81.0728 191.688 83.0353C193.238 85.8254 195.317 83.4459 195.613 81.3768C195.924 79.195 198.911 78.2143 198.911 76.4015" stroke="#301E03" stroke-width="3" stroke-linecap="round"/>
<path d="M193.936 84.6937C190.33 85.4951 191.282 92.8078 191.282 95.3077C191.282 96.8063 191.144 97.8181 192.609 98.5508C194.348 99.4204 194.49 98.694 195.447 97.4637C195.8 97.0091 196.557 96.2217 196.589 95.6394C196.627 94.9594 196.589 94.4958 196.589 95.4735C196.589 96.9801 196.474 98.453 196 99.8776C195.509 101.349 195.016 102.106 194.267 103.416C193.628 104.535 191.73 104.595 194.194 104.595C195.999 104.595 197.996 104.331 199.316 103.01C200.337 101.989 197.002 104.786 196.11 105.922C195.475 106.73 193.997 108.191 193.936 109.239C193.809 111.394 196.251 109.3 196.571 110.418C196.642 110.668 194.196 110.234 193.42 110.234C191.874 110.234 190.344 111.927 189.698 113.219C188.97 114.674 188.093 115.963 187.302 117.346C187.07 117.752 185.053 119.044 185.644 117.862" stroke="#301E03" stroke-width="3" stroke-linecap="round"/>
<path d="M185.643 117.862C185.643 119.712 185.975 121.508 185.975 123.317C185.975 124.672 185.747 124.907 185.146 125.989C184.056 127.95 183.653 129.051 183.653 131.461" stroke="#301E03" stroke-width="3" stroke-linecap="round"/>
<path d="M93.7662 149.373C93.7662 151.58 93.7262 153.677 94.1163 155.822C94.3598 157.161 93.7996 156.967 93.4529 158.181C93.1697 159.172 93.5159 159.59 92.6053 160.318C91.3682 161.308 97.3779 165 97.3779 165.791C97.3779 166.004 96.4419 165.995 96.2538 166.141C95.8579 166.449 95.2668 166.863 95.0192 167.284C94.6762 167.867 93.4743 169.399 94.577 169.863C95.471 170.24 96.4893 170.342 97.4331 170.766C98.5488 171.268 99.7505 171.9 100.99 171.927C102.532 171.962 104.108 171.363 103.311 173.254C102.698 174.71 102.514 176.335 101.727 177.713C101.198 178.639 103.399 178.337 104.067 178.045C105.361 177.479 106.216 175.576 107.531 175.576C108.661 175.576 109.489 176.756 109.706 177.732C109.911 178.658 110.439 179.743 111.346 180.146C112.378 180.605 112.92 179.224 113.999 179.224C115.419 179.224 114.974 180.843 115.657 180.883C116.611 180.939 117.513 180.95 118.311 180.551" stroke="#301E03" stroke-width="3" stroke-linecap="round"/>
<path d="M183.653 149.373C183.653 151.494 183.258 154.98 185.054 156.596C185.371 156.881 186.126 156.407 185.957 157.167C185.83 157.736 185.557 158.415 185.146 158.826C183.791 160.181 182.327 162.316 182.327 164.298C182.327 165.47 183.286 166.361 182.511 167.136C181.704 167.944 181.441 169.2 180.336 169.753C178.68 170.581 177.081 171.099 177.02 173.254C176.984 174.499 177.598 178.561 179.341 178.561C179.706 178.561 177.627 179.366 177.351 179.482C175.868 180.107 175.709 178.561 174.532 178.561C173.71 178.561 172.19 180.236 171.786 180.883C170.661 182.684 170.994 179.593 170.552 179.593C170.007 179.593 169.483 181.986 168.562 182.191C168.089 182.296 167.551 182.181 167.069 182.21C166.423 182.248 166.941 183.115 166.664 183.463C165.583 184.814 162.712 184.2 161.099 184.2" stroke="#301E03" stroke-width="3" stroke-linecap="round"/>
<path d="M122.096 77.6898C120.23 77.9232 120.254 83.8095 120.254 85.0804C120.254 88.7152 121.463 91.4461 123.366 94.4363C124.604 96.3828 124.824 95.3214 123.488 93.9859C121.346 91.8432 118.78 86.8836 118.78 83.7701C118.78 82.914 117.863 81.56 117.306 80.8631C117.2 80.7306 116.229 81.7995 115.996 81.9481C115.265 82.4129 114.262 82.7679 113.989 83.5859" stroke="#301E03" stroke-width="3" stroke-linecap="round"/>
<path d="M105.073 46.1675C105.005 46.1675 105.367 45.9805 105.515 45.9149C105.759 45.8062 105.926 45.656 106.181 45.5642C106.38 45.4927 106.535 45.3795 106.658 45.2204C106.882 44.9324 107.292 44.9232 107.598 44.7784C109.035 44.1 110.647 44.2521 112.172 43.6419C112.876 43.3604 113.355 43.3764 113.814 42.758C114.105 42.3666 114.417 42.0646 114.417 41.5583C114.417 41.4646 114.476 40.9199 114.319 40.9199C114.283 40.9199 115.25 44.0104 115.301 44.1751C115.702 45.4582 116.514 46.9412 116.438 48.3142C116.415 48.7177 115.843 49.2287 115.61 49.5279C114.949 50.3779 113.545 51.3781 113.056 52.3417C112.236 53.9609 112.144 55.3641 112.144 57.2519C112.144 57.6672 111.984 58.4885 112.215 58.8514C112.437 59.2003 112.857 59.0637 113.056 58.7953C113.386 58.3516 113.5 57.7764 113.849 57.3501C114.285 56.8169 114.756 56.3368 115.175 55.7646C116.34 54.1738 117.14 52.1488 117.476 50.2084C117.601 49.4889 118.04 48.6406 118.079 47.9354C118.133 46.9685 118.457 45.784 118.178 44.8065C118.039 44.3206 117.127 44.2841 116.943 44.6521" stroke="#301E03" stroke-width="5" stroke-linecap="round"/>
<defs>
<linearGradient id="paint0_linear_1532_312" x1="147.5" y1="50" x2="147.5" y2="212" gradientUnits="userSpaceOnUse">
<stop stop-color="#C1C8FF"/>
<stop offset="1" stop-color="#99A3FF"/>
</linearGradient>
<linearGradient id="paint1_linear_1532_312" x1="135.5" y1="223" x2="135.5" y2="261" gradientUnits="userSpaceOnUse">
<stop stop-color="#F6C77E"/>
<stop offset="1" stop-color="#CCA366"/>
</linearGradient>
</defs>
</svg>
