{
	"asset":{
		"generator":"Khronos glTF Blender I/O v3.6.27",
		"version":"2.0"
	},
	"extensionsUsed":[
		"EXT_collections"
	],
	"scene":0,
	"scenes":[
		{
			"extensions":{
				"EXT_collections":{
					"tree":[
						{
							"collection":"geometry"
						},
						{
							"collection":"interactions"
						},
						{
							"collection":"enemies"
						},
						{
							"collection":"items"
						},
						{
							"collection":"doors"
						},
						{
							"collection":"weapons"
						},
						{
							"collection":"leave"
						},
						{
							"collection":"arrive"
						},
						{
							"collection":"navmesh"
						}
					]
				}
			},
			"extras":{
				"EXTCollectionProperties":{}
			},
			"name":"simple-1",
			"nodes":[
				0,
				1,
				2
			]
		}
	],
	"nodes":[
		{
			"extensions":{
				"EXT_collections":{
					"collections":[
						"geometry"
					]
				}
			},
			"extras":{
				"TLM_ObjectProperties":{}
			},
			"mesh":0,
			"name":"Plane.005",
			"scale":[
				20,
				20,
				20
			]
		},
		{
			"extensions":{
				"EXT_collections":{
					"collections":[
						"enemies"
					]
				}
			},
			"extras":{
				"TLM_ObjectProperties":{},
				"label":"sword"
			},
			"mesh":1,
			"name":"Cube.001",
			"translation":[
				-2.9997313022613525,
				0,
				2.321931838989258
			]
		},
		{
			"extensions":{
				"EXT_collections":{
					"collections":[
						"navmesh"
					]
				}
			},
			"extras":{
				"TLM_ObjectProperties":{}
			},
			"mesh":2,
			"name":"Plane.006"
		}
	],
	"meshes":[
		{
			"extras":{
				"arm_cached":0
			},
			"name":"Plane.038",
			"primitives":[
				{
					"attributes":{
						"POSITION":0,
						"NORMAL":1,
						"TEXCOORD_0":2
					},
					"indices":3
				}
			]
		},
		{
			"extras":{
				"arm_cached":0
			},
			"name":"Cube.005",
			"primitives":[
				{
					"attributes":{
						"POSITION":4,
						"NORMAL":5,
						"TEXCOORD_0":6
					},
					"indices":7
				}
			]
		},
		{
			"extras":{
				"arm_cached":0
			},
			"name":"Plane.037",
			"primitives":[
				{
					"attributes":{
						"POSITION":8,
						"NORMAL":9,
						"TEXCOORD_0":10
					},
					"indices":11
				}
			]
		}
	],
	"accessors":[
		{
			"bufferView":0,
			"componentType":5126,
			"count":28,
			"max":[
				1,
				0.15000000596046448,
				1
			],
			"min":[
				-1,
				0,
				-1
			],
			"type":"VEC3"
		},
		{
			"bufferView":1,
			"componentType":5126,
			"count":28,
			"type":"VEC3"
		},
		{
			"bufferView":2,
			"componentType":5126,
			"count":28,
			"type":"VEC2"
		},
		{
			"bufferView":3,
			"componentType":5123,
			"count":48,
			"type":"SCALAR"
		},
		{
			"bufferView":4,
			"componentType":5126,
			"count":24,
			"max":[
				1,
				1,
				1
			],
			"min":[
				-1,
				-1,
				-1
			],
			"type":"VEC3"
		},
		{
			"bufferView":5,
			"componentType":5126,
			"count":24,
			"type":"VEC3"
		},
		{
			"bufferView":6,
			"componentType":5126,
			"count":24,
			"type":"VEC2"
		},
		{
			"bufferView":7,
			"componentType":5123,
			"count":36,
			"type":"SCALAR"
		},
		{
			"bufferView":8,
			"componentType":5126,
			"count":1404,
			"max":[
				20,
				3,
				20
			],
			"min":[
				-20,
				0,
				-20
			],
			"type":"VEC3"
		},
		{
			"bufferView":9,
			"componentType":5126,
			"count":1404,
			"type":"VEC3"
		},
		{
			"bufferView":10,
			"componentType":5126,
			"count":1404,
			"type":"VEC2"
		},
		{
			"bufferView":11,
			"componentType":5123,
			"count":7440,
			"type":"SCALAR"
		}
	],
	"bufferViews":[
		{
			"buffer":0,
			"byteLength":336,
			"byteOffset":0,
			"target":34962
		},
		{
			"buffer":0,
			"byteLength":336,
			"byteOffset":336,
			"target":34962
		},
		{
			"buffer":0,
			"byteLength":224,
			"byteOffset":672,
			"target":34962
		},
		{
			"buffer":0,
			"byteLength":96,
			"byteOffset":896,
			"target":34963
		},
		{
			"buffer":0,
			"byteLength":288,
			"byteOffset":992,
			"target":34962
		},
		{
			"buffer":0,
			"byteLength":288,
			"byteOffset":1280,
			"target":34962
		},
		{
			"buffer":0,
			"byteLength":192,
			"byteOffset":1568,
			"target":34962
		},
		{
			"buffer":0,
			"byteLength":72,
			"byteOffset":1760,
			"target":34963
		},
		{
			"buffer":0,
			"byteLength":16848,
			"byteOffset":1832,
			"target":34962
		},
		{
			"buffer":0,
			"byteLength":16848,
			"byteOffset":18680,
			"target":34962
		},
		{
			"buffer":0,
			"byteLength":11232,
			"byteOffset":35528,
			"target":34962
		},
		{
			"buffer":0,
			"byteLength":14880,
			"byteOffset":46760,
			"target":34963
		}
	],
	"buffers":[
		{
			"byteLength":61640,
			"uri":"data:application/octet-stream;base64,"
		}
	]
}
