{
    "asset" : {
        "generator" : "Khronos glTF Blender I/O v3.3.32",
        "version" : "2.0"
    },
    "extensionsUsed" : [
        "EXT_collections"
    ],
    "scene" : 0,
    "scenes" : [
        {
            "extensions" : {
                "EXT_collections" : {
                    "tree" : [
                        {
                            "collection" : "geometry"
                        },
                        {
                            "collection" : "detail"
                        },
                        {
                            "collection" : "navmesh"
                        },
                        {
                            "collection" : "interactions"
                        },
                        {
                            "collection" : "enemies"
                        },
                        {
                            "collection" : "items"
                        },
                        {
                            "collection" : "doors"
                        },
                        {
                            "collection" : "fountains"
                        },
                        {
                            "collection" : "to"
                        }
                    ]
                }
            },
            "extras" : {
                "EXTCollectionProperties" : {}
            },
            "name" : "Staging2",
            "nodes" : [
                0,
                1,
                2,
                3,
                4,
                5
            ]
        }
    ],
    "nodes" : [
        {
            "extensions" : {
                "EXT_collections" : {
                    "collections" : [
                        "geometry"
                    ]
                }
            },
            "mesh" : 0,
            "name" : "Plane.066",
            "rotation" : [
                0,
                -1,
                0,
                1.6292068494294654e-07
            ],
            "scale" : [
                10,
                10,
                10
            ],
            "translation" : [
                -1.3126964569091797,
                -8.800000190734863,
                -41.05942916870117
            ]
        },
        {
            "extensions" : {
                "EXT_collections" : {
                    "collections" : [
                        "geometry"
                    ]
                }
            },
            "mesh" : 1,
            "name" : "Plane.131",
            "rotation" : [
                0,
                0.7071068286895752,
                0,
                0.7071068286895752
            ],
            "scale" : [
                10,
                10,
                10
            ],
            "translation" : [
                -21.31269645690918,
                -11.800000190734863,
                58.94057083129883
            ]
        },
        {
            "extensions" : {
                "EXT_collections" : {
                    "collections" : [
                        "navmesh"
                    ]
                }
            },
            "mesh" : 2,
            "name" : "Plane.130",
            "rotation" : [
                0,
                0.7071068286895752,
                0,
                0.7071068286895752
            ],
            "scale" : [
                10,
                10,
                10
            ],
            "translation" : [
                -21.31269645690918,
                -11.800000190734863,
                58.94057083129883
            ]
        },
        {
            "extensions" : {
                "EXT_collections" : {
                    "collections" : [
                        "interactions"
                    ]
                }
            },
            "extras" : {
                "label" : "gatekeeper_dismayed"
            },
            "mesh" : 3,
            "name" : "Cube.043",
            "rotation" : [
                0,
                0.9396926164627075,
                0,
                0.3420201539993286
            ],
            "translation" : [
                -24.74921417236328,
                -11.800000190734863,
                64.23771667480469
            ]
        },
        {
            "extensions" : {
                "EXT_collections" : {
                    "collections" : [
                        "items"
                    ]
                }
            },
            "extras" : {
                "label" : "explosives-kit",
                "type" : "weapon"
            },
            "mesh" : 4,
            "name" : "Cube.044",
            "rotation" : [
                0,
                0.9396926164627075,
                0,
                0.3420201539993286
            ],
            "translation" : [
                0,
                -10,
                70
            ]
        },
        {
            "extensions" : {
                "EXT_collections" : {
                    "collections" : [
                        "to"
                    ]
                }
            },
            "extras" : {
                "label" : "staging_1"
            },
            "mesh" : 5,
            "name" : "staging-to-courtyard.001",
            "rotation" : [
                0,
                -1,
                0,
                1.6292068494294654e-07
            ],
            "scale" : [
                5,
                5,
                5
            ],
            "translation" : [
                -1.3126964569091797,
                -8.800000190734863,
                -41.05942916870117
            ]
        }
    ],
    "materials" : [
        {
            "doubleSided" : true,
            "name" : "Material.016",
            "pbrMetallicRoughness" : {
                "baseColorTexture" : {
                    "index" : 0
                },
                "metallicFactor" : 0,
                "roughnessFactor" : 0.5
            }
        },
        {
            "doubleSided" : true,
            "name" : "Material.018",
            "pbrMetallicRoughness" : {
                "baseColorTexture" : {
                    "index" : 1
                },
                "metallicFactor" : 0,
                "roughnessFactor" : 0.5
            }
        }
    ],
    "meshes" : [
        {
            "name" : "Plane.130",
            "primitives" : [
                {
                    "attributes" : {
                        "POSITION" : 0,
                        "NORMAL" : 1,
                        "TEXCOORD_0" : 2
                    },
                    "indices" : 3,
                    "material" : 0
                }
            ]
        },
        {
            "name" : "Plane.132",
            "primitives" : [
                {
                    "attributes" : {
                        "POSITION" : 4,
                        "NORMAL" : 5,
                        "TEXCOORD_0" : 6
                    },
                    "indices" : 7,
                    "material" : 1
                }
            ]
        },
        {
            "name" : "Plane.136",
            "primitives" : [
                {
                    "attributes" : {
                        "POSITION" : 8,
                        "NORMAL" : 9,
                        "TEXCOORD_0" : 10
                    },
                    "indices" : 11,
                    "material" : 1
                }
            ]
        },
        {
            "name" : "Cube.054",
            "primitives" : [
                {
                    "attributes" : {
                        "POSITION" : 12,
                        "NORMAL" : 13,
                        "TEXCOORD_0" : 14
                    },
                    "indices" : 15
                }
            ]
        },
        {
            "name" : "Cube.062",
            "primitives" : [
                {
                    "attributes" : {
                        "POSITION" : 16,
                        "NORMAL" : 17,
                        "TEXCOORD_0" : 18
                    },
                    "indices" : 15
                }
            ]
        },
        {
            "name" : "Cube.061",
            "primitives" : [
                {
                    "attributes" : {
                        "POSITION" : 19,
                        "NORMAL" : 20,
                        "TEXCOORD_0" : 21
                    },
                    "indices" : 15
                }
            ]
        }
    ],
    "textures" : [
        {
            "sampler" : 0,
            "source" : 0
        },
        {
            "sampler" : 0,
            "source" : 0
        }
    ],
    "images" : [
        {
            "bufferView" : 4,
            "mimeType" : "image/jpeg",
            "name" : "640px-Huntingpontinemarshes"
        }
    ],
    "accessors" : [
        {
            "bufferView" : 0,
            "componentType" : 5126,
            "count" : 24,
            "max" : [
                1,
                2,
                1
            ],
            "min" : [
                -1,
                0,
                -7
            ],
            "type" : "VEC3"
        },
        {
            "bufferView" : 1,
            "componentType" : 5126,
            "count" : 24,
            "type" : "VEC3"
        },
        {
            "bufferView" : 2,
            "componentType" : 5126,
            "count" : 24,
            "type" : "VEC2"
        },
        {
            "bufferView" : 3,
            "componentType" : 5123,
            "count" : 54,
            "type" : "SCALAR"
        },
        {
            "bufferView" : 5,
            "componentType" : 5126,
            "count" : 28,
            "max" : [
                11,
                0.2999998927116394,
                3.000002384185791
            ],
            "min" : [
                -3,
                0,
                -1
            ],
            "type" : "VEC3"
        },
        {
            "bufferView" : 6,
            "componentType" : 5126,
            "count" : 28,
            "type" : "VEC3"
        },
        {
            "bufferView" : 7,
            "componentType" : 5126,
            "count" : 28,
            "type" : "VEC2"
        },
        {
            "bufferView" : 8,
            "componentType" : 5123,
            "count" : 54,
            "type" : "SCALAR"
        },
        {
            "bufferView" : 9,
            "componentType" : 5126,
            "count" : 603,
            "max" : [
                11,
                0.2999998927116394,
                3.000002384185791
            ],
            "min" : [
                -3,
                0,
                -1
            ],
            "type" : "VEC3"
        },
        {
            "bufferView" : 10,
            "componentType" : 5126,
            "count" : 603,
            "type" : "VEC3"
        },
        {
            "bufferView" : 11,
            "componentType" : 5126,
            "count" : 603,
            "type" : "VEC2"
        },
        {
            "bufferView" : 12,
            "componentType" : 5123,
            "count" : 1764,
            "type" : "SCALAR"
        },
        {
            "bufferView" : 13,
            "componentType" : 5126,
            "count" : 24,
            "max" : [
                1,
                1,
                1
            ],
            "min" : [
                -1,
                -1,
                -1
            ],
            "type" : "VEC3"
        },
        {
            "bufferView" : 14,
            "componentType" : 5126,
            "count" : 24,
            "type" : "VEC3"
        },
        {
            "bufferView" : 15,
            "componentType" : 5126,
            "count" : 24,
            "type" : "VEC2"
        },
        {
            "bufferView" : 16,
            "componentType" : 5123,
            "count" : 36,
            "type" : "SCALAR"
        },
        {
            "bufferView" : 17,
            "componentType" : 5126,
            "count" : 24,
            "max" : [
                1,
                1,
                1
            ],
            "min" : [
                -1,
                -1,
                -1
            ],
            "type" : "VEC3"
        },
        {
            "bufferView" : 18,
            "componentType" : 5126,
            "count" : 24,
            "type" : "VEC3"
        },
        {
            "bufferView" : 19,
            "componentType" : 5126,
            "count" : 24,
            "type" : "VEC2"
        },
        {
            "bufferView" : 20,
            "componentType" : 5126,
            "count" : 24,
            "max" : [
                1,
                1,
                1
            ],
            "min" : [
                -1,
                -1,
                -1
            ],
            "type" : "VEC3"
        },
        {
            "bufferView" : 21,
            "componentType" : 5126,
            "count" : 24,
            "type" : "VEC3"
        },
        {
            "bufferView" : 22,
            "componentType" : 5126,
            "count" : 24,
            "type" : "VEC2"
        }
    ],
    "bufferViews" : [
        {
            "buffer" : 0,
            "byteLength" : 288,
            "byteOffset" : 0,
            "target" : 34962
        },
        {
            "buffer" : 0,
            "byteLength" : 288,
            "byteOffset" : 288,
            "target" : 34962
        },
        {
            "buffer" : 0,
            "byteLength" : 192,
            "byteOffset" : 576,
            "target" : 34962
        },
        {
            "buffer" : 0,
            "byteLength" : 108,
            "byteOffset" : 768,
            "target" : 34963
        },
        {
            "buffer" : 0,
            "byteLength" : 101423,
            "byteOffset" : 876
        },
        {
            "buffer" : 0,
            "byteLength" : 336,
            "byteOffset" : 102300,
            "target" : 34962
        },
        {
            "buffer" : 0,
            "byteLength" : 336,
            "byteOffset" : 102636,
            "target" : 34962
        },
        {
            "buffer" : 0,
            "byteLength" : 224,
            "byteOffset" : 102972,
            "target" : 34962
        },
        {
            "buffer" : 0,
            "byteLength" : 108,
            "byteOffset" : 103196,
            "target" : 34963
        },
        {
            "buffer" : 0,
            "byteLength" : 7236,
            "byteOffset" : 103304,
            "target" : 34962
        },
        {
            "buffer" : 0,
            "byteLength" : 7236,
            "byteOffset" : 110540,
            "target" : 34962
        },
        {
            "buffer" : 0,
            "byteLength" : 4824,
            "byteOffset" : 117776,
            "target" : 34962
        },
        {
            "buffer" : 0,
            "byteLength" : 3528,
            "byteOffset" : 122600,
            "target" : 34963
        },
        {
            "buffer" : 0,
            "byteLength" : 288,
            "byteOffset" : 126128,
            "target" : 34962
        },
        {
            "buffer" : 0,
            "byteLength" : 288,
            "byteOffset" : 126416,
            "target" : 34962
        },
        {
            "buffer" : 0,
            "byteLength" : 192,
            "byteOffset" : 126704,
            "target" : 34962
        },
        {
            "buffer" : 0,
            "byteLength" : 72,
            "byteOffset" : 126896,
            "target" : 34963
        },
        {
            "buffer" : 0,
            "byteLength" : 288,
            "byteOffset" : 126968,
            "target" : 34962
        },
        {
            "buffer" : 0,
            "byteLength" : 288,
            "byteOffset" : 127256,
            "target" : 34962
        },
        {
            "buffer" : 0,
            "byteLength" : 192,
            "byteOffset" : 127544,
            "target" : 34962
        },
        {
            "buffer" : 0,
            "byteLength" : 288,
            "byteOffset" : 127736,
            "target" : 34962
        },
        {
            "buffer" : 0,
            "byteLength" : 288,
            "byteOffset" : 128024,
            "target" : 34962
        },
        {
            "buffer" : 0,
            "byteLength" : 192,
            "byteOffset" : 128312,
            "target" : 34962
        }
    ],
    "samplers" : [
        {
            "magFilter" : 9729,
            "minFilter" : 9987
        }
    ],
    "buffers" : [
        {
            "byteLength" : 128504,
            "uri" : "data:application/octet-stream;base64,"
        }
    ]
}
