{
    "asset" : {
        "generator" : "Khronos glTF Blender I/O v3.3.32",
        "version" : "2.0"
    },
    "extensionsUsed" : [
        "EXT_collections"
    ],
    "scene" : 0,
    "scenes" : [
        {
            "extensions" : {
                "EXT_collections" : {
                    "tree" : [
                        {
                            "collection" : "geometry"
                        },
                        {
                            "collection" : "navmesh"
                        },
                        {
                            "collection" : "interactions"
                        },
                        {
                            "collection" : "enemies"
                        },
                        {
                            "collection" : "items"
                        },
                        {
                            "collection" : "doors"
                        }
                    ]
                }
            },
            "extras" : {
                "EXTCollectionProperties" : {}
            },
            "name" : "Scene.002",
            "nodes" : [
                0,
                1
            ]
        }
    ],
    "nodes" : [
        {
            "extensions" : {
                "EXT_collections" : {
                    "collections" : [
                        "geometry"
                    ]
                }
            },
            "mesh" : 0,
            "name" : "Plane.015",
            "rotation" : [
                0,
                -0.6493022441864014,
                0,
                0.7605304718017578
            ],
            "scale" : [
                10,
                10,
                10
            ],
            "translation" : [
                16.939041137695312,
                -1,
                -23.518653869628906
            ]
        },
        {
            "extensions" : {
                "EXT_collections" : {
                    "collections" : [
                        "interactions"
                    ]
                }
            },
            "extras" : {
                "label" : "yoshua_haystack"
            },
            "mesh" : 1,
            "name" : "Cube",
            "translation" : [
                6.000000953674316,
                -1,
                -27
            ]
        }
    ],
    "materials" : [
        {
            "doubleSided" : true,
            "name" : "Material.005",
            "pbrMetallicRoughness" : {
                "baseColorTexture" : {
                    "index" : 0
                },
                "metallicFactor" : 0,
                "roughnessFactor" : 0.5
            }
        }
    ],
    "meshes" : [
        {
            "name" : "Plane.025",
            "primitives" : [
                {
                    "attributes" : {
                        "POSITION" : 0,
                        "NORMAL" : 1,
                        "TEXCOORD_0" : 2
                    },
                    "indices" : 3,
                    "material" : 0
                }
            ]
        },
        {
            "name" : "Cube.001",
            "primitives" : [
                {
                    "attributes" : {
                        "POSITION" : 4,
                        "NORMAL" : 5,
                        "TEXCOORD_0" : 6
                    },
                    "indices" : 7
                }
            ]
        }
    ],
    "textures" : [
        {
            "sampler" : 0,
            "source" : 0
        }
    ],
    "images" : [
        {
            "bufferView" : 4,
            "mimeType" : "image/jpeg",
            "name" : "640px-Huntingpontinemarshes"
        }
    ],
    "accessors" : [
        {
            "bufferView" : 0,
            "componentType" : 5126,
            "count" : 10,
            "max" : [
                3,
                0,
                3
            ],
            "min" : [
                -3,
                0,
                -1
            ],
            "type" : "VEC3"
        },
        {
            "bufferView" : 1,
            "componentType" : 5126,
            "count" : 10,
            "type" : "VEC3"
        },
        {
            "bufferView" : 2,
            "componentType" : 5126,
            "count" : 10,
            "type" : "VEC2"
        },
        {
            "bufferView" : 3,
            "componentType" : 5123,
            "count" : 24,
            "type" : "SCALAR"
        },
        {
            "bufferView" : 5,
            "componentType" : 5126,
            "count" : 24,
            "max" : [
                1,
                1,
                1
            ],
            "min" : [
                -1,
                -1,
                -1
            ],
            "type" : "VEC3"
        },
        {
            "bufferView" : 6,
            "componentType" : 5126,
            "count" : 24,
            "type" : "VEC3"
        },
        {
            "bufferView" : 7,
            "componentType" : 5126,
            "count" : 24,
            "type" : "VEC2"
        },
        {
            "bufferView" : 8,
            "componentType" : 5123,
            "count" : 36,
            "type" : "SCALAR"
        }
    ],
    "bufferViews" : [
        {
            "buffer" : 0,
            "byteLength" : 120,
            "byteOffset" : 0,
            "target" : 34962
        },
        {
            "buffer" : 0,
            "byteLength" : 120,
            "byteOffset" : 120,
            "target" : 34962
        },
        {
            "buffer" : 0,
            "byteLength" : 80,
            "byteOffset" : 240,
            "target" : 34962
        },
        {
            "buffer" : 0,
            "byteLength" : 48,
            "byteOffset" : 320,
            "target" : 34963
        },
        {
            "buffer" : 0,
            "byteLength" : 101423,
            "byteOffset" : 368
        },
        {
            "buffer" : 0,
            "byteLength" : 288,
            "byteOffset" : 101792,
            "target" : 34962
        },
        {
            "buffer" : 0,
            "byteLength" : 288,
            "byteOffset" : 102080,
            "target" : 34962
        },
        {
            "buffer" : 0,
            "byteLength" : 192,
            "byteOffset" : 102368,
            "target" : 34962
        },
        {
            "buffer" : 0,
            "byteLength" : 72,
            "byteOffset" : 102560,
            "target" : 34963
        }
    ],
    "samplers" : [
        {
            "magFilter" : 9729,
            "minFilter" : 9987
        }
    ],
    "buffers" : [
        {
            "byteLength" : 102632,
            "uri" : "data:application/octet-stream;base64,"
        }
    ]
}
