<svg width="355" height="312" viewBox="0 0 355 312" fill="none" xmlns="http://www.w3.org/2000/svg">
<path d="M50 183.168C57.754 190.306 75.352 197.342 84 203.89C93.676 211.215 107.379 223.149 118 229.701C130.432 221.145 114.465 215.498 122.212 217.622C124.016 182.365 125.879 142.732 104.924 109.917C103.836 108.213 102.974 107.842 104.536 109.126C107.262 111.369 109.343 114.249 111.431 116.82C125.332 133.929 138.873 151.003 150.378 169.09C162.975 188.893 173.019 209.606 184.76 229.701C194.159 245.787 183.377 231.688 202.5 243.075C204.354 244.178 221.5 246.168 230.5 244.668C243.5 244.668 257.553 230.046 255.5 219.168C246.259 170.199 203.268 145.444 189.228 97.1192C186.037 86.1345 182.927 75.1425 180.001 64.1174C178.984 60.282 177.448 56.3979 177.282 52.4698C177.115 48.5065 180.339 50.1453 181 51.6682C186.717 64.8358 216.755 114.002 225 126.31C246.942 159.067 243.502 157.862 263.625 191.235C270.021 201.841 276.012 212.707 286.353 221.577C291.681 226.147 297.136 230.63 302.475 235.022C304.226 236.462 304.857 234.56 304.903 233.225C305.242 223.452 304.628 213.646 304.029 203.89C302.432 177.881 300.106 151.97 293.928 126.31C293.819 125.857 290.727 114.398 290.917 119.336C291.01 121.745 293.244 125.374 296.162 126.454" stroke="url(#paint0_linear_1027_272)" stroke-width="100" stroke-linecap="round"/>
<path d="M169.49 117.917C169.49 113.81 166.613 110.916 166.613 106.89C166.613 103.341 165.175 99.9939 165.175 96.5831C165.175 95.0738 165.415 93.4072 164.802 92.0288C164.495 91.3383 164.596 90.5905 165.415 90.5905C168.446 90.5905 171.193 90.1423 174.124 89.2588C181.373 87.0735 189.139 83.9636 195.138 79.2978C197.206 77.6889 201.882 76.5146 204.486 76.2083C205.29 76.1138 206.803 74.7429 207.576 75.5158C209.281 77.2205 210.886 78.6889 213.116 79.8038C218.099 82.2953 220.601 83.8286 223.769 78.1259C225.387 75.2134 227.631 75.7289 230.614 75.7289C233.795 75.7289 237.841 74.9744 240.202 72.6127C242.336 70.4792 248.711 71.4142 251.468 71.4142C256.042 71.4142 259.136 73.4372 263.214 75.2495C264.712 75.9153 265.889 77.2415 267.289 78.0194C268.69 78.7978 270.148 78.6053 271.71 78.6053C275.084 78.6053 276.6 79.6232 279.514 81.2421C280.349 81.7059 280.027 81.8407 280.26 82.6537C280.451 83.3251 281.217 83.1586 281.565 83.5059C281.663 83.6048 280.649 84.7215 280.446 84.8376C279.786 85.2146 279.33 86.1029 279.274 86.8618C279.067 89.6509 277.356 92.3238 277.356 95.1449C277.356 96.5908 275.328 97.1754 274.267 97.7817C271.359 99.4432 270.801 102.704 269.579 105.452C269.369 105.925 268.248 109.437 268.248 107.583C268.248 104.76 268.248 101.937 268.248 99.1134C268.248 96.3212 266.413 88.6729 262.734 88.6729C260.478 88.6729 260.634 90.8456 260.577 92.9876C260.506 95.6908 260.098 98.504 260.098 101.138C260.098 102.684 258.056 102.327 257.434 101.351C256.155 99.34 255.783 97.2098 255.783 94.8786C255.783 92.1242 257.253 90.1575 258.18 87.6075C258.915 85.587 259.657 81.8779 256.742 81.9612C254.162 82.0349 253 84.7808 250.989 86.0095C247.732 87.9998 243.658 88.1935 239.963 88.1935C235.038 88.1935 229.39 87.4548 224.622 88.7794C215.647 91.2722 207.236 92.9876 197.775 92.9876C195.182 92.9876 192.59 92.9876 189.998 92.9876C187.418 92.9876 185.487 94.7569 183.392 96.1037C180.534 97.941 176.94 100.757 177.16 104.493C177.265 106.271 184.72 102.721 185.789 102.602C188.037 102.353 190.377 102.934 192.501 101.99C194.142 101.261 196.053 100.658 197.881 100.658C204.133 100.658 210.263 100.019 216.445 99.2465C218.57 98.9809 220.156 98.0629 222.118 97.4088C224.847 96.4991 228.474 96.8228 231.333 96.8228C236.615 96.8228 240.65 98.0986 245.236 100.392C246.446 100.997 248.652 102.499 250.03 102.576C251.592 102.662 252.84 102.096 254.345 102.096" stroke="#330831" stroke-width="20" stroke-linecap="round"/>
<path d="M88.9492 273.724C94.2669 268.407 99.1469 262.918 104.983 258.144C106.594 256.826 108.585 256.389 109.83 254.788C110.842 253.486 109.207 255.528 108.978 255.986C108.227 257.487 109.36 258.015 110.043 259.342C111.743 262.648 113.325 265.9 114.837 269.303C115.183 270.081 118.249 276.118 118.193 276.121C116.858 276.205 115.376 276.215 114.092 275.855C113.211 275.609 109.766 273.746 108.871 274.257C107.55 275.012 114.79 279.211 115.317 279.504C117.161 280.529 118.871 281.676 120.777 282.594C121.594 282.987 122.368 284.054 123.227 284.245C124.239 284.47 120.204 281.308 119.738 280.916C116.872 278.505 113.893 276.32 110.523 274.683C109.383 274.13 108.395 273.592 109.564 272.286C110.854 270.844 111.728 268.947 113.026 267.599C113.46 267.148 114.914 265.148 115.556 265.148C116.445 265.148 119.617 269.875 120.377 270.635C123.898 274.156 127.169 277.968 131.563 280.41C133.254 281.349 135.134 282.833 137.13 282.833C138.238 282.833 139.283 279.743 139.873 278.891C142.266 275.441 144.627 271.947 146.958 268.451C149.207 265.077 153.418 260.918 154.522 256.945C155.42 253.712 152.804 251.902 151.752 249.008C150.908 246.689 149.602 245.175 148.13 243.282C146.577 241.286 145.339 240.901 143.122 239.793C142.382 239.423 139.066 237.638 140.246 237.769C141.821 237.944 143.141 239.046 144.827 239.18C147.304 239.379 150.214 239.489 152.684 239.18C155.045 238.885 154.682 233.986 155.347 232.256C156.417 229.474 157.069 229.619 159.902 229.619C162.241 229.619 164.293 229.139 166.613 229.139C169.947 229.139 181.954 231.03 181.954 225.544C181.954 223.454 178.977 224.936 178.013 223.973C175.598 221.558 183.709 228.534 187.121 228.66C192.222 228.849 197.215 226.754 202.303 228.207C205.447 229.106 205.846 233.385 207.363 235.745C209.344 238.825 211.273 239.626 215.034 238.834C219.245 237.948 222.718 237.549 226.593 235.611C228.536 234.64 230.452 233.918 232.292 232.735C233.304 232.085 234.629 231.057 235.888 231.057C236.81 231.057 236.946 232.016 238.045 232.016C239.158 232.016 240.29 231.951 241.401 232.016C242.131 232.059 241.383 248.644 241.401 250.127C241.462 255.016 243.625 257.126 247.633 253.563C250.489 251.025 253.709 249.167 256.05 246.158C257.113 244.791 257.632 239.5 257.701 241.231C257.798 243.656 259.022 247.555 260.205 249.647C260.881 250.843 262.415 252.636 262.495 254.069C262.581 255.61 261.915 255.507 260.524 255.507C256.539 255.507 252.602 254.91 248.566 255.054C238.679 255.407 229.036 258.863 219.135 258.863C214.572 258.863 210.009 258.863 205.445 258.863C199.358 258.863 194.542 255.743 188.666 254.655C185.099 253.994 182.15 252.646 178.838 251.192C176.102 249.991 172.758 247.836 169.73 247.836C167.581 247.836 165.433 247.836 163.284 247.836C162.772 247.836 162.386 248.263 162.059 248.263C161.307 248.263 163.398 246.72 163.524 246.665C167.17 245.06 171.588 244.433 175.456 243.628C182.024 242.262 188.595 242.083 195.271 242.083C200.11 242.083 207.439 241.283 209.174 247.357C210.319 251.364 212.314 253.733 216.791 254.042C222.333 254.424 227.474 253.747 232.772 252.178C237.148 250.881 242.125 250.049 245.663 246.904C251.062 242.104 239.799 244.683 237.566 244.853C233.648 245.152 229.008 244.376 225.208 245.546C225.011 245.606 231.39 245.919 232.772 245.919C242.25 245.919 252.428 245.972 261.776 244.241C263.763 243.873 272.55 241.562 267.049 239.447C266.461 239.221 264.134 238.797 263.56 239.314C262.756 240.037 262.312 241.465 261.057 241.604C260.468 241.67 258.305 242.277 259.832 242.669C262.669 243.399 265.817 243.042 268.727 243.042C271.718 243.042 274.304 243.839 277.144 244.72C279.7 245.514 284.383 246.99 285.72 249.541C287.515 252.968 287.832 257.833 290.54 260.541C291.764 261.764 295.187 263.187 296.906 262.592C299.614 261.654 300.47 258.383 296.906 258.383C295.583 258.383 294.26 258.383 292.938 258.383C291.123 258.383 291.403 259.274 291.02 260.807C290.62 262.408 290.875 264.052 290.727 265.681C290.495 268.235 289.641 270.674 289.342 273.218C289.032 275.852 288.633 278.79 287.904 281.342C287.653 282.219 284.529 286.005 285.24 284.058C286.548 280.48 289.568 276.486 292.325 273.831C293.709 272.498 296.242 272.766 297.971 272.766C299.846 272.766 301.65 272.286 303.484 272.286C304.609 272.286 305.669 271.506 306.814 271.833C307.59 272.055 308.215 272.544 309.211 272.26C310.278 271.955 308.003 274.13 307.586 274.417C306.589 275.103 305.834 276.186 304.683 275.163C304.117 274.659 302.268 273.955 303.724 274.683C307.226 276.434 312.289 273.411 315.496 271.807C316.151 271.48 318.211 271.327 316.668 271.327" stroke="#5E5E5E" stroke-width="20" stroke-linecap="round"/>
<path d="M172.003 136.94C172.003 141.302 176.939 144.038 176.939 148.459C176.939 152.299 177.888 155.624 179.804 158.88C180.902 160.747 181.952 154.656 182.15 153.944C183.109 150.491 184.165 147.209 184.74 143.644C185.643 138.046 185.322 130.54 188.184 125.453C191.09 120.286 199.191 121.583 204.364 121.583C212.198 121.583 219.814 119.937 227.706 119.937C234.095 119.937 240.484 119.937 246.873 119.937C249.706 119.937 252.54 119.937 255.374 119.937C256.689 119.937 258.302 119.318 257.142 120.607C256.013 121.861 255.374 123.628 255.374 125.3C255.374 128.53 255.278 131.786 256.593 134.746C257.477 136.736 258.665 137.636 258.665 134.442C258.665 131.955 258.706 129.215 259.244 126.793C259.893 123.873 260.311 121.692 260.311 118.566C260.311 117.1 258.179 117.724 258.117 118.84C257.96 121.666 258.321 125.346 259.092 128.043C259.633 129.936 258.77 132.057 259.488 133.924C260.014 135.291 260.15 137.692 260.311 139.134C260.635 142.057 263.314 144.914 264.272 147.788C264.77 149.281 266.121 151.522 265.765 153.121C265.487 154.372 263.249 156.724 262.505 157.905C260.943 160.385 258.117 165.45 258.117 168.479C258.117 171.386 251.783 173.156 249.92 174.787C245.331 178.802 240.264 182.413 236.725 187.524C233.299 192.474 231.053 197.942 228.224 203.034C227.423 204.475 227.401 209.137 227.401 210.713C227.401 212.02 227.686 213.643 226.731 214.705C226.071 215.438 224.714 216.746 223.988 215.375C222.868 213.259 223.562 209.532 223.562 207.148C223.562 205.025 219.767 202.259 218.625 200.261C217.851 198.907 216.51 198.207 215.456 197.153C214.95 196.647 213.39 193.876 213.719 196.178C213.907 197.492 217.243 204.995 216.309 205.929C215.102 207.137 214.173 204.661 213.384 204.436C212.138 204.08 211.604 205.227 210.824 205.929C209.425 207.189 210.289 207.941 209.819 209.586C209.498 210.709 206.356 209.342 205.735 209.342C204.081 209.342 203.709 207.895 202.841 207.026C201.849 206.035 200.314 206.937 199.153 205.777C198.139 204.762 194.535 200.923 192.846 203.034C191.986 204.109 191.405 203.308 190.103 203.308C189.183 203.308 187.671 205.054 188.184 204.131C189.124 202.439 189.983 202.858 191.749 202.76C195.265 202.565 198.777 192.666 199.854 190.266C201.047 187.609 206.38 177.534 203.267 174.238C202.058 172.958 201.51 171.384 200.25 170.124C198.919 168.793 197.234 167.501 197.234 165.462C197.234 161.056 194.905 157.674 196.685 153.67C198.652 149.244 198.844 143.425 202.17 139.683C202.987 138.764 203.533 137.246 203.846 136.148C204.146 135.1 208.756 136.142 209.301 136.392C212.694 137.951 215.855 138.006 219.478 138.586C223.521 139.233 227.684 139.791 231.789 139.683C236.411 139.561 240.203 136.392 244.831 136.392C248.352 136.392 248.244 141.347 248.244 144.101C248.244 147.382 252.541 151.343 249.371 154.249C247.608 155.865 247.032 157.175 244.404 157.905C239.963 159.139 236.424 162.334 233.313 165.584C227.493 171.662 223.403 179.333 217.406 185.33C216.133 186.604 214.516 188.778 212.835 187.097C209.417 183.679 209.301 177.134 209.301 172.593C209.301 167.89 209.139 163.154 209.301 158.454C209.384 156.038 210.901 155.371 212.622 154.188C215.174 152.433 217.025 151.111 220.271 151.201C223.175 151.282 225.915 152.898 228.772 153.395C231.907 153.94 233.372 153.458 235.628 151.201C236.279 150.551 238.596 146.457 236.116 147.697C234.248 148.631 232.819 150.415 231.362 151.872C228.784 154.45 225.79 156.4 223.013 158.758C219.601 161.656 214.908 164.431 213.262 168.875C213.009 169.559 210.946 173.741 210.946 172.288C210.946 168.697 212.418 165.184 212.043 161.623C211.529 156.735 201.769 164.914 200.25 164.914C196.385 164.914 193.132 165.203 189.799 167.108C187.011 168.7 187.909 173.164 187.909 175.884C187.909 177.169 188.158 178.743 187.879 179.997C187.794 180.378 187.352 184.542 188.336 182.466C190.599 177.687 185.715 173.153 185.715 169.027C185.715 166.472 185.167 163.606 185.167 161.348C185.167 159.467 185.601 157.879 185.837 156.016C186.473 151.008 186.264 145.944 186.264 140.902C186.264 137.136 184.606 134.491 181.998 131.882C180.079 129.963 181.783 130.358 184.07 130.358C187.918 130.358 191.544 130.042 195.344 129.78C203.049 129.248 210.67 126.519 218.351 126.519C219.272 126.519 225.945 125.242 224.11 124.325" stroke="white" stroke-width="20" stroke-linecap="round"/>
<path d="M115.796 245.919C116.088 248.844 117.34 251.511 118.779 254.069C119.166 254.758 119.058 251.013 119.178 250.473C119.928 247.101 123.946 245.198 123.946 241.604C123.946 240.829 123.466 237.449 123.466 239.687C123.466 242.516 124.487 243.597 126.583 245.226C130.512 248.282 135.02 251.567 137.476 255.986C138.238 257.358 140.246 258.125 140.246 259.822C140.246 261.707 138.191 265.099 136.171 265.548C135.967 265.593 131.02 263.829 131.43 264.403C133.405 267.168 135.667 267.483 136.517 271.221C137.899 277.302 137.82 283.585 135.691 289.545C134.999 291.483 135.313 293.449 136.65 290.477C138.513 286.338 141.487 284.538 144.933 281.874C147.85 279.621 149.459 278.566 153.19 277.933C157.469 277.206 162.28 276.055 165.388 272.739C166.994 271.026 167.632 268.975 169.01 267.252C169.823 266.236 174.332 267.182 175.349 267.386C181.241 268.564 186.887 271.438 192.741 272.739C194.482 273.126 196.468 275.413 197.775 276.574C200.197 278.727 202.993 280.916 206.298 280.916C218.867 280.916 231.221 279.428 243.691 278.998C247.447 278.869 253.9 275.605 254.798 271.567C255.2 269.758 254.928 268.93 253.146 268.93C249.701 268.93 254.6 269.41 255.783 269.41C266.909 269.41 268.222 280.738 270.751 288.959C271.618 291.776 267.374 288.063 266.224 287.148C263.19 284.735 259.665 280.799 255.304 281.422C253.901 281.622 253.959 282.963 253.173 283.792C252.417 284.59 251.46 285.069 250.483 285.497C246.783 287.115 243.371 287.148 239.377 287.148C230.31 287.148 220.66 287.905 211.917 284.991C201.625 281.56 190.237 283.792 179.557 283.792C173.95 283.792 167.358 282.828 161.926 284.271C157.533 285.438 152.711 287.788 148.902 290.264C145.7 292.345 142.368 294.419 139.314 296.709C138.08 297.635 137.933 297.284 139.021 296.257C140.887 294.494 143.586 292.804 145.999 291.942C160.656 286.707 176.973 284.271 192.528 284.271C198.276 284.271 204.337 284.122 210 283.073C214.475 282.244 219.159 281.962 223.663 282.727C231.518 284.061 238.918 285.555 246.941 284.271C251.009 283.621 255.339 282.566 258.633 279.93C261.841 277.364 265.849 275.164 268.727 272.286C270.075 270.938 270.856 269.352 272.083 267.972C273.396 266.495 272.691 265.116 273.068 263.417C273.709 260.535 273.5 257.733 274.853 255.028C276.2 252.334 278.696 247.852 277.809 244.747C277.491 243.634 273.546 239.637 273.042 240.645" stroke="#301E03" stroke-width="20" stroke-linecap="round"/>
<path d="M265.529 110.533C265.529 111.833 265.793 112.263 266.399 113.354C266.733 113.954 267.409 114.69 267.409 115.391C267.409 116.209 266.734 117.088 266.469 117.916C266.137 118.955 265.842 120.26 265.842 121.347C265.842 122.89 266.43 123.609 267.026 124.951C267.706 126.482 267.409 128.62 267.409 130.279C267.409 131.606 268.032 133.163 268.332 134.511C268.629 135.845 268.663 137.878 268.663 139.212C268.663 140.95 268.281 142.358 267.566 143.931C267.085 144.988 267.13 147.804 266.312 148.458C265.8 148.868 265.694 150.492 265.354 151.122C264.798 152.156 264.672 153.362 264.205 154.413C263.464 156.082 263.648 157.936 263.648 159.741C263.648 162.57 263.625 166.039 261.837 168.274C260.216 170.3 260.339 173.353 257.832 174.786C255.057 176.372 254.872 181.182 254.872 184.032C254.872 184.811 253.654 184.617 253.113 184.833C252.682 185.005 252.161 185.786 251.807 186.139C250.74 187.207 250.304 188.931 249.161 190.074C247.307 191.928 245.495 193.995 243.119 195.315C241.921 195.981 240.724 196.944 239.758 197.91C239.076 198.592 239.514 200.908 239.514 202.368C239.514 204.001 239.201 205.477 239.201 207.069C239.201 207.954 238.887 208.803 238.887 209.733C238.887 210.499 239.125 211.704 238.818 212.397C238.321 213.514 238.574 217.275 238.574 216.054C238.574 215.594 238.448 216.967 238.33 217.412C238.158 218.06 237.7 218.63 237.634 219.293C237.545 220.175 237.007 221.095 237.007 221.957C237.007 223.161 235.298 224.326 234.325 224.603C232.858 225.023 231.354 223.994 229.955 223.994C228.615 223.994 227.632 226.113 226.35 226.188C224.761 226.281 223.137 226.188 221.544 226.188C221.441 226.188 221.733 225.909 221.631 225.892C221.186 225.818 220.69 225.875 220.238 225.875C219.268 225.875 218.178 225.769 217.33 225.248C216.369 224.656 214.859 222.638 214.44 221.8" stroke="#1E1E1E" stroke-width="3" stroke-linecap="round"/>
<path d="M214.44 221.8C214.44 218.938 214.764 216.394 212.489 214.347C210.661 212.701 208.798 211.09 208.798 208.323C208.798 205.863 206.411 203.061 205.28 200.8C203.929 198.098 201.288 196.284 200.022 193.435C198.857 190.815 195.32 188.446 195.32 185.286C195.32 183.856 194.593 181.768 193.997 180.428C193.648 179.642 193.331 178.918 193.144 178.077C192.933 177.127 192.243 176.715 191.873 175.883C190.6 173.019 187.42 171.19 186.527 168.065C185.645 164.976 183.724 161.421 183.724 158.174" stroke="#1E1E1E" stroke-width="3" stroke-linecap="round"/>
<path d="M180.276 129.966C179.036 129.966 177.135 129.788 176.045 129.182C175.169 128.696 173.435 129.025 172.441 129.025C171.307 129.025 169.858 128.765 168.854 129.339C167.325 130.212 165.701 132.893 164.762 134.354C163.066 136.991 164.152 138.96 164.936 141.702C165.142 142.424 165.347 144.214 165.789 144.766C166.329 145.442 165.842 147.558 166.242 148.458C167.17 150.547 168.819 153.588 170.873 154.796C173.332 156.243 173.381 158.215 173.381 160.838C173.381 161.88 173.278 163.261 174.077 164.06C174.679 164.661 176.905 164.679 177.612 164.286C180.44 162.715 181.506 159.813 182.47 156.92" stroke="#1E1E1E" stroke-width="3" stroke-linecap="round"/>
<path d="M256.752 177.293C258.942 177.293 260.552 177.241 262.551 176.353C265.131 175.206 262.666 172.024 264.414 171.025C265.649 170.319 268.56 169.628 268.663 167.89C268.741 166.551 270.604 164.148 271.24 162.876C272.15 161.054 273.748 158.945 274.287 157.06C274.827 155.171 274.931 153.116 274.931 151.122C274.931 146.778 268.081 145.413 265.842 148.771" stroke="#1E1E1E" stroke-width="3" stroke-linecap="round"/>
<path d="M226 136.5C223.245 136.5 225.304 135.357 223 134.04C220.669 132.708 221 133.114 218.5 132.003M208.339 127.5C206.252 125.831 201.721 129.966 199.709 131.15C198.877 131.64 197.849 132.457 197.132 133.03C196.925 133.196 195.451 133.413 195.164 133.413C194.302 133.413 194.671 132.473 195.478 132.473C196.863 132.473 199.467 132.666 200.58 131.777C201.433 131.094 202.88 129.87 203.94 129.635C206.528 129.06 208.039 125.873 210.923 128.468C211.877 129.327 212.307 128.953 213.5 129.635C214.166 130.015 216.758 131.048 217 131.533" stroke="#1E1E1E" stroke-width="5" stroke-linecap="round"/>
<path d="M245.786 139.415C247.218 138.865 248.794 137.902 249.813 136.787C250.836 135.669 254.9 133.566 253.486 134.109" stroke="#1E1E1E" stroke-width="5" stroke-linecap="round"/>
<path d="M255 133.47C256.263 134.339 257.985 134.23 259.302 133.575C260.393 133.032 262.435 133.506 263.643 133.622C265.153 133.766 266.005 133.047 267.381 133.993C267.843 134.311 268.55 134.631 268.907 135.063C269.097 135.293 268.095 135.998 267.914 136.261C267.214 137.28 267.255 138.18 267.5 139.5C268.618 139.176 267.606 138.741 267.381 138.5C266.999 138.09 266.394 136.567 266 136.261C265.225 135.658 263.168 136.053 262.224 135.963C260.834 135.831 260.396 134.897 259.423 134.228" stroke="#1E1E1E" stroke-width="3" stroke-linecap="round"/>
<path d="M220.395 144.383C219.302 143.412 218.122 142.979 217.191 141.946C216.359 141.021 215.426 140.124 214.51 139.299C213.38 138.282 212.345 137.781 210.992 137.105C210.302 136.76 209.561 136.861 208.798 136.861C207.684 136.861 207.858 137.27 207.858 138.272C207.858 139.57 207.52 141.399 207.875 142.642C208.326 144.219 210.56 144.805 211.776 145.48C212.453 145.857 215.069 146.151 215.833 145.933C216.81 145.654 217.605 144.525 218.515 144.07" stroke="#1E1E1E" stroke-width="2" stroke-linecap="round"/>
<path d="M212.246 142.189C212.246 141.203 212.798 140.309 213.813 140.309" stroke="#1E1E1E" stroke-width="3" stroke-linecap="round"/>
<path d="M250.797 146.264C252.76 146.264 255.596 145.106 257.379 144.314C258.579 143.78 261.471 142.782 262.081 141.563" stroke="#1E1E1E" stroke-width="2" stroke-linecap="round"/>
<path d="M262.081 141.876C262.081 143.829 262.052 144.894 261.21 146.577C260.525 147.948 259.377 149.21 258.633 150.513C258.17 151.323 254.669 152.527 254.262 151.105C253.998 150.18 253.267 148.282 252.364 147.831" stroke="#1E1E1E" stroke-width="2" stroke-linecap="round"/>
<path d="M256.753 147.831C256.692 147.284 256.353 146.718 256.126 146.264" stroke="#1E1E1E" stroke-width="3" stroke-linecap="round"/>
<path d="M242.335 143.13C242.335 144.585 240.6 146.816 239.897 148.145C239.169 149.521 239.53 151.274 239.845 152.689C240.248 154.502 240.645 156.017 241.395 157.704C242.183 159.479 242.022 161.188 242.022 163.189C242.022 164.959 241.395 166.522 241.395 168.204C241.395 170.182 242.146 171.07 242.631 172.766C242.801 173.361 243.589 173.689 243.589 174.316C243.589 175.204 243.589 176.092 243.589 176.98C243.589 177.962 242.663 178.809 242.022 179.487C241.351 180.198 241.068 181.379 240.298 181.995C239.523 182.614 238.141 183.788 237.634 184.676C237.058 185.684 237.082 185.816 236.223 185.129C235.782 184.776 235.157 183.767 234.882 183.248C234.202 181.963 232.624 181.199 231.609 180.184C231.114 179.689 231.405 178.597 231.365 177.92C231.342 177.522 230.087 176.406 229.798 175.9C229.502 175.383 229.485 177.495 229.485 177.763C229.485 178.8 228.315 177.111 228.091 176.823C227.257 175.75 226.584 173.846 225.097 173.846C224.265 173.846 223.599 174.072 222.903 174.159C222.059 174.264 222.265 174.151 221.492 173.532C220.249 172.537 220.063 170.436 220.709 169.144" stroke="#1E1E1E" stroke-width="3" stroke-linecap="round"/>
<path d="M243.275 166.637C244.201 166.74 246.41 168.346 246.41 169.301C246.41 169.822 245.65 170.525 245.4 171.025C245.033 171.758 244.97 172.557 244.529 173.219" stroke="#1E1E1E" stroke-width="3" stroke-linecap="round"/>
<path d="M223 195.133C223.471 195.125 223.84 195.343 224.321 195.319C224.68 195.3 225.013 195.333 225.387 195.301C225.868 195.259 226.511 195.437 226.895 195.587C227.487 195.817 228.127 196.19 228.9 196.122C229.308 196.087 230.255 195.891 230.558 196.09C230.754 196.22 231.393 195.754 231.653 195.731C232.223 195.681 232.452 196.081 232.875 195.758C233.107 195.58 233.977 195.302 234.341 195.27C234.91 195.22 235.48 195.17 236.049 195.121" stroke="#1E1E1E" stroke-width="2" stroke-linecap="round"/>
<path d="M227.291 185.756C227.122 184.403 224.247 184.816 223.373 184.816C221.856 184.816 220.763 185.997 219.455 186.069C218.043 186.148 216.78 186.383 215.363 186.383C213.165 186.383 210.879 185.304 208.816 184.659C207.35 184.201 205.629 184.018 204.411 182.935C204.035 182.601 200.959 181.998 202 182.935C203.312 184.116 206.217 183.446 207.858 184.032C209.188 184.507 210.446 185.443 211.776 185.738C213.196 186.054 214.387 187.09 215.764 187.567C216.57 187.846 218.642 188.423 219.142 189.047C219.606 189.627 226.422 191.187 226.908 190.701C227.467 190.142 225.849 187.808 225.706 187.166C225.567 186.542 225.391 186.013 226.35 186.069C226.891 186.101 226.664 187.393 226.664 187.793C226.664 189.931 224.996 188.192 223.843 187.706C223.129 187.406 222.24 187.828 221.51 187.619C220.68 187.382 222.294 186.696 222.589 186.696" stroke="#1E1E1E" stroke-width="4" stroke-linecap="round"/>
<path d="M232.932 191.084C232.932 189.621 232.932 188.159 232.932 186.696C232.932 186.121 232.932 185.547 232.932 184.972C232.932 183.868 233.024 184.696 233.315 185.059C234.083 186.019 233.305 186.897 234.813 187.567C235.776 187.995 237.287 188.221 238.26 187.706C238.583 187.535 239.458 188.577 240.454 188.577C241.604 188.577 242.753 188.577 243.902 188.577C246.514 188.577 249.126 188.577 251.738 188.577C253.462 188.577 255.185 188.577 256.909 188.577C259.062 188.577 256.003 188.68 255.342 189.047C253.085 190.301 249.276 190.771 246.723 190.771C245.437 190.771 244.136 191.362 242.805 191.067C241.642 190.808 240.579 190.144 239.357 190.144C238.229 190.144 237.057 189.517 235.91 189.517C234.372 189.517 233.737 189.251 232.932 190.457" stroke="#1E1E1E" stroke-width="3" stroke-linecap="round"/>
<path d="M234.499 191.398C236.15 191.398 237.658 190.771 239.2 190.771" stroke="#1E1E1E" stroke-width="3" stroke-linecap="round"/>
<path d="M185.918 114.294C183.639 114.294 182.378 116.767 180.607 118.538C179.66 119.485 177.143 121.94 175.955 122.6C175.527 122.838 170.889 126.549 170.955 126.6C171.474 127.004 173.185 121.747 173.694 121.503C175.401 120.686 177.102 119.843 178.866 119.153C180.417 118.546 182.683 117.835 184.351 117.742C185.402 117.684 188.483 116.926 187.45 117.133C184.615 117.7 182.825 120.431 180.607 121.956C179.538 122.691 178.487 123.848 177.838 124.951C176.797 126.722 179.675 125.062 180.607 124.968C182.464 124.783 184.411 123.697 186.231 123.697C187.205 123.697 186.212 124.086 185.848 124.324C184.6 125.14 183.648 126.398 182.801 127.615C182.465 128.098 181.585 129.085 181.861 129.774C181.872 129.802 184.117 128.516 184.351 128.399C185.364 127.892 189.228 126.116 186.545 128.225C184.985 129.45 183.3 133.303 183.41 135.294C183.457 136.132 187.339 133.681 188.112 133.727C189.01 133.78 187.871 134.6 187.729 134.737C186.115 136.29 184.746 138.247 183.585 140.152C182.986 141.134 181.251 143.305 181.251 144.523C181.251 144.864 182.849 143.573 183.027 143.443C184.261 142.542 185.441 140.955 187.015 140.605C187.51 140.495 188.759 139.717 188.251 139.717C187.956 139.717 187.047 141.538 186.788 141.806C184.945 143.721 184.664 146.973 184.664 149.538C184.664 151.632 187.773 147.954 188.425 147.587C188.628 147.473 187.643 148.901 187.415 149.155C185.878 150.869 184.906 153.355 183.741 155.336C183.673 155.453 181.81 158.466 182.853 158.105C184.184 157.644 185.183 155.977 186.214 155.075C186.445 154.872 187.479 154.024 186.997 154.918C185.767 157.203 184.749 159.589 184.107 162.11C183.898 162.931 182.439 167.093 183.167 167.821C183.743 168.397 186.789 165.8 187.328 165.54C188.225 165.108 189.358 164.15 190.445 164.46C190.771 164.553 190.011 166.91 189.923 167.264C189.734 168.02 189.679 168.684 189.679 169.458C189.679 169.602 190.875 167.356 191.246 166.985C192.204 166.027 192.567 167.399 192.343 168.204C191.824 170.074 191.073 171.857 190.689 173.776C190.386 175.293 190.746 174.74 191.316 173.776C192.168 172.334 193.15 171.038 194.05 169.632C194.184 169.422 195.493 167.371 195.617 168.239C195.834 169.758 194.934 171.681 194.763 173.219C194.429 176.229 194.694 179.387 194.694 182.413C194.694 183.389 194.517 185.07 195.634 185.442" stroke="#1E1E1E" stroke-width="5" stroke-linecap="round"/>
<path d="M165.455 128.6C169.351 128.6 175.794 117.707 179.287 116.136C182.224 114.814 184.891 114.423 187.978 113.566C190.498 112.866 193.188 112.975 195.688 112.281C197.689 111.725 199.745 111.22 201.721 110.585C203.024 110.166 204.425 110.432 205.647 109.943C206.724 109.512 208.805 109.664 210.002 109.568C211.196 109.472 212.28 109.641 213.429 109.3C215.668 108.637 218.261 109.296 220.497 108.658C222.876 107.978 226.157 108.586 228.617 108.586C231.134 108.586 233.65 108.586 236.167 108.586C240.691 108.586 245.156 108.908 249.642 108.908C251.252 108.908 253.006 108.7 254.55 109.157C255.467 109.429 256.458 109.099 257.387 109.39C258.049 109.596 259.18 109.845 259.868 109.871C260.662 109.902 262.653 110.308 263.223 110.764C263.525 111.005 267.456 111.046 264.437 111.478" stroke="#1E1E1E" stroke-width="3" stroke-linecap="round"/>
<path d="M159.708 129.147C158.25 129.147 147.55 131.81 147.5 130.503C147.364 126.954 150.417 125.075 151.748 122.079C151.858 121.832 152.721 121.036 152.569 120.865C152.141 120.384 150.774 121.84 150.552 122.079C148.976 123.776 147.58 125.945 147.108 128.254C146.633 130.572 146.67 133.373 146.876 135.732C147.217 139.664 150.353 140.441 153.765 140.694C155.372 140.813 157.185 140.295 158.173 141.283C158.885 141.995 163.002 140.346 160.011 139.748C156.562 139.058 153.084 138.058 150.07 136.286C148.737 135.502 152.576 134.776 153.122 134.608C154.308 134.243 159.503 131.197 160.011 133.484C160.187 134.273 158.301 135.629 158.816 136.143C159.206 136.533 159.998 135.989 158.905 136.232C158.235 136.381 157.763 136.97 157.138 137.178" stroke="#1E1E1E" stroke-width="5" stroke-linecap="round"/>
<path d="M173.2 163.2C173.007 165.717 172.558 168.253 172.558 170.767C172.558 172.56 171.29 172.463 169.916 172.516C167.661 172.603 166.232 177.085 165.829 178.763C165.67 179.426 165.337 180.808 164.669 181.19C164.078 181.528 163.469 181.308 162.92 181.583C161.581 182.252 162.609 184.395 161.796 185.045C161.269 185.467 160.655 186.489 160.1 187.044C159.49 187.655 158.744 185.363 158.744 187.133C158.744 188.505 158.388 190.306 158.762 191.613C159.11 192.834 162.218 189.172 162.599 188.972C164.107 188.178 165.895 188.453 167.239 189.221C168.378 189.872 170.173 188.861 171.594 188.9C172.26 188.919 173.374 189.975 173.843 189.793C174.621 189.49 174.72 188.665 175.288 188.097C176.849 186.537 179.182 185.54 180.018 183.367C180.798 181.338 181.418 183.936 182.053 182.939C182.875 181.646 185.168 179.156 187.014 179.976C188.833 180.785 187.486 177.977 188.942 177.977" stroke="#1E1E1E" stroke-width="3" stroke-linecap="round"/>
<path d="M188.942 177.977C188.668 176.611 186.094 175.335 185.104 174.444C184.368 173.781 183.745 172.792 182.998 172.195C182.421 171.733 180.873 170.103 180.589 169.464C180.272 168.751 179.849 167.866 179.447 167.233C178.818 166.245 180.376 169.121 180.607 169.482C181.911 171.519 183.343 173.304 184.266 175.568C185 177.371 185.79 179.368 186.836 181.012C189.59 185.34 179.646 172.865 174.682 171.57C173.377 171.23 173.521 171.356 173.521 172.677C173.521 174.323 173.864 175.574 174.307 177.156C174.577 178.123 174.93 179.097 175.146 180.066C175.273 180.638 175.152 182.127 175.61 181.761C176.882 180.743 174.871 175.667 174.182 174.676C173.138 173.175 173.728 178.042 174.003 178.745C174.371 179.685 175.142 180.649 175.592 179.298C176.048 177.929 176.516 176.545 176.912 175.158C177.081 174.567 177.309 172.762 177.377 173.373C177.61 175.473 177.099 177.851 176.734 179.905C176.448 181.516 176.521 183.109 176.341 184.724C176.329 184.835 175.95 186.867 175.842 186.758C175.16 186.077 175.319 183.204 173.843 183.118C173.159 183.077 172.944 185.798 172.808 186.33C171.56 191.182 170.858 184.96 170.38 185.438C170.084 185.734 170.33 186.879 170.238 187.294C170.153 187.674 169.988 188.826 169.988 188.436C169.988 184.886 169.882 181.531 169.095 178.049C168.958 177.444 168.703 173.723 168.703 175.407C168.703 176.705 168.599 177.92 168.31 179.191C167.87 181.125 165.855 182.397 164.919 184.081C164.592 184.67 164.246 184.955 164.205 185.688C164.167 186.372 163.884 187.396 163.884 186.009" stroke="#1E1E1E" stroke-width="9" stroke-linecap="round"/>
<path d="M188.942 179C183.91 179.839 182.672 185.443 182.214 189.566C182.128 190.336 181.555 190.552 181.304 191.279C180.826 192.658 180.572 192.42 179.697 193.207C178.777 194.035 178.182 195.942 177.681 197.008C177.142 198.153 176.012 203.094 174.647 203.398C173.678 203.613 172.536 206.53 172.077 207.413C171.961 207.635 170.824 208.902 171.024 209.127C171.281 209.417 171.756 209.11 172.077 209.537C173.416 211.323 174.799 209.935 176.021 208.555C176.94 207.517 177.874 206.373 178.644 205.218C178.875 204.873 179.351 205.094 179.697 204.95C181.62 204.155 182.829 201.358 183.945 199.775C184.874 198.457 185.833 196.825 187.015 195.705C187.557 195.191 188.841 196.913 189.264 197.312C192.328 200.206 193.877 198.905 197 197.5C198.19 196.965 198.5 198.8 198.5 197C198.5 196.278 197.751 195.407 196.653 193.846C196.348 194.226 197.129 194.383 196.653 194.492C194.103 195.075 191.868 193.882 190.299 191.779C188.496 189.363 187.802 186.929 187.354 184.015C187.159 182.745 188.836 184.034 189.121 184.319C189.414 184.612 190.715 186.568 191.12 185.354C191.336 184.704 191.633 180.87 191.12 180.356C190.894 180.13 190.87 181.986 190.87 182.088C190.87 183.414 190.87 184.741 190.87 186.068C190.87 186.298 191.567 191.104 192.405 190.173C193.11 189.389 192.176 187.043 191.352 186.585C190.645 186.192 190.249 190.838 190.067 191.493C189.354 194.061 187.36 191.659 185.569 192.653C184.103 193.468 181.66 192.964 180.911 194.42C180.389 195.435 179.108 196.831 178.984 197.954C178.862 199.049 178.014 198.608 177.698 199.239" stroke="#1E1E1E" stroke-width="9" stroke-linecap="round"/>
<path d="M267.971 119.188C268.858 119.188 274.527 118.539 274.967 119.33C276.333 121.789 276.361 124.975 277.608 127.54C278.521 129.417 281.665 129.176 283.391 129.539C284.989 129.876 285.58 128.822 286.746 127.79C287.536 127.091 292.695 121.822 291.672 120.544C290.726 119.361 292.68 123.455 292.707 124.97C292.737 126.575 293.556 131.381 291.744 132.288C291.123 132.598 290.958 131.859 290.459 131.859C290.044 131.859 289.881 133.035 289.745 133.323C289.282 134.3 288.212 133.965 287.246 133.965C285.865 133.965 285.523 135.046 284.676 135.893C283.902 136.667 282.692 136.382 281.785 136.785C280.717 137.26 280.125 137.821 279.143 138.463C277.843 139.313 276.806 138.55 275.752 137.82C275.482 137.633 273.566 135.975 273.432 137.178C273.191 139.343 271.589 139.427 269.898 139.427" stroke="#1E1E1E" stroke-width="3" stroke-linecap="round"/>
<path d="M269.577 123.364C269.577 124.825 270.418 126.673 271.023 128.004C271.575 129.22 271.505 130.857 271.505 132.199C271.505 133.03 271.345 133.962 271.166 134.769C271.011 135.465 270.862 136.709 270.862 135.25C270.862 131.312 270.561 128.193 268.685 124.649C267.816 123.008 267.917 122.823 269.738 122.418C270.968 122.145 272.79 120.738 272.79 122.9C272.79 125.319 272.126 127.212 273.254 129.468C274.176 131.312 273.432 132.896 273.432 134.751C273.432 135.872 273.252 135.828 273.611 134.751C273.987 133.624 274.075 131.217 274.075 131.217C274.075 131.217 274.701 136.929 275.931 135.822C276.747 135.087 276.93 132.492 276.966 131.467C277.019 129.993 276.966 132.937 276.966 133.323C276.966 138.198 277.867 130.432 279.697 130.432C280.583 130.432 280.5 131.882 280.5 132.52C280.5 132.899 280.723 134.898 281.214 133.573C281.683 132.306 282.118 130.833 283.231 129.968C284.146 129.256 283.708 132.359 284.355 132.359C284.982 132.359 285.616 131.004 286.122 130.61C286.973 129.948 287.132 131.281 287.568 131.717C288.664 132.813 289.044 130.527 289.317 129.825C289.729 128.764 290.183 128.803 289.495 129.147" stroke="#1E1E1E" stroke-width="5" stroke-linecap="round"/>
<path d="M264.758 173.801C265.759 173.801 268.46 173.154 267.9 174.836C267.628 175.652 265.593 179.389 267.15 179.834C269.335 180.458 273.752 181.187 274.646 183.689C275.232 185.33 273.505 187.571 273.182 189.15C272.929 190.39 273.432 192.326 273.432 193.719C273.432 195.318 273.521 198.632 275.681 198.859C276.886 198.986 277.093 200.519 278.501 200.465C278.737 200.456 279.824 199.932 279.465 199.573C279.136 199.244 277.537 200.456 277.287 200.608C275.728 201.561 275.472 201.927 274.235 200.965C272.998 200.002 269.837 201.27 268.631 201.59C266.441 202.169 265.963 202.082 264.259 201.108C262.623 200.173 260.84 200.017 259.136 199.323C257.496 198.655 255.852 197.453 255.121 195.807C254.878 195.261 253.949 195.066 253.514 194.522C253.184 194.108 252.253 192.922 251.73 192.773C251.411 192.682 249.824 193.719 250.944 193.719" stroke="#1E1E1E" stroke-width="3" stroke-linecap="round"/>
<path d="M255.763 183.76C257.841 182.836 259.724 181.67 261.688 180.547C262.564 180.047 265.498 179.227 264.562 179.602C262.092 180.59 259.763 183.505 258.19 185.527C257.598 186.288 261.465 184.755 261.867 184.652C264.346 184.021 266.847 183.439 269.416 183.439C270.337 183.439 268.568 185.006 268.292 185.206C266.62 186.413 265.364 188.138 263.794 189.471C263.092 190.068 261.354 190.859 260.903 191.649C260.478 192.393 260.26 193.055 260.26 191.72C260.26 190.017 260.867 188.342 260.867 186.687C260.867 185.488 259.248 188.212 259.225 188.258C258.144 190.462 256.405 192.832 256.405 195.325C256.405 196.396 256.405 193.184 256.405 192.113C256.405 191.217 256.363 190.026 255.12 190.203C253.756 190.398 252.977 194.326 254.835 194.326C256.622 194.326 261.092 190.906 262.331 193.737C262.723 194.633 263.059 196.206 262.759 197.181C262.325 198.593 262.244 197.923 262.688 196.753C263.182 195.451 264.878 191.661 264.116 192.827C263.075 194.418 262.33 196.088 260.903 197.413C260.072 198.185 259.365 198.65 258.333 199.109C256.95 199.724 258.562 196.46 258.85 196.146C260.596 194.248 263.103 193.446 264.919 191.631C266.046 190.503 266.974 189.368 268.613 188.9C269.347 188.69 269.854 187.98 270.38 187.454C270.882 186.952 271.599 186.961 272.075 186.58C272.617 186.147 270.796 188.677 270.541 189.061C269.49 190.637 268.59 192.568 267.971 194.361C267.229 196.509 266.935 198.696 266.525 200.912C265.946 204.036 267.477 199.806 267.721 198.93C267.878 198.366 269.021 193.513 268.452 194.397C267.752 195.486 267.581 196.95 266.686 197.895C265.112 199.557 264.111 197.024 265.24 196.146C266.621 195.072 268.855 197.574 270.362 197.574C271.216 197.574 271.113 197.33 271.433 196.61C271.555 196.336 272.137 195.056 271.647 195.825C271.082 196.714 270.336 199.692 270.219 198.645C269.984 196.528 269.719 194.594 268.774 192.63C267.272 189.512 266.86 192.985 269.327 193.076C271.297 193.149 272.659 190.924 274.396 190.828C275.252 190.78 275.038 191.445 275.038 192.113C275.038 193.449 274.945 192.487 275.681 192.184C276.296 191.931 275.681 194.258 275.681 194.522C275.681 195.842 276.54 195.108 277.287 194.754C279.263 193.818 276.979 197.899 276.716 198.538C276.38 199.354 280.365 197.904 280.749 198.288C281.746 199.284 277.823 200.465 280.571 200.465C281.338 200.465 283.875 201.002 282.106 199.823" stroke="#1E1E1E" stroke-width="5" stroke-linecap="round"/>
<path d="M256.727 195.968C256.727 198.151 256.727 200.335 256.727 202.518C256.727 203.565 258.341 202.075 259.136 202.429C260.281 202.937 259.448 205.493 259.154 206.248C258.527 207.86 259.274 209.713 259.779 211.227C260.001 211.895 260.512 215.543 260.332 215.243C259.857 214.452 258.9 215.821 258.333 216.136C256.955 216.901 257.952 214.026 256.727 213.958C254.872 213.855 253.437 215.193 251.587 215.243C249.807 215.291 248.271 213.275 246.946 212.191C246.059 211.465 244.816 211.709 243.716 211.709C242.651 211.709 242.163 210.668 241.146 210.442C239.841 210.152 241.424 208.805 241.628 208.193C241.916 207.33 242.592 207.044 242.592 205.998C242.592 204.533 241.851 202.941 241.557 201.501C241.429 200.876 240.615 199.3 241.628 199.18C243.043 199.014 244.37 198.065 245.733 197.645C247.233 197.184 247.761 195.691 248.696 194.522C249.081 194.041 248.777 196.336 248.535 196.771C248.071 197.606 247.371 198.426 247.089 199.341C246.577 201.006 245.569 202.489 244.769 203.999C244.71 204.112 244.338 205.156 244.269 205.07C243.907 204.617 244.198 203.051 244.198 202.464C244.198 200.695 244.983 203.207 245.09 203.678C245.394 205.007 245.863 206.329 246.108 207.676C246.216 208.274 246.295 210.122 246.607 209.121C247.539 206.139 246.577 202.371 250.141 200.787C251.08 200.369 252.598 199.74 253.336 199.002C254.584 197.754 251.977 198.344 251.444 198.538C251.196 198.628 250.486 199.393 250.641 198.699C250.764 198.143 251.454 197.604 251.73 197.092C251.94 196.702 252.229 195.418 252.229 195.861C252.229 196.848 251.734 197.777 251.426 198.699C250.37 201.867 250.153 205.23 249.981 208.497C249.939 209.277 249.475 210.927 248.696 211.317C246.498 212.416 249.383 208.105 249.588 207.854C251.204 205.871 252.531 204.521 254.96 203.981C257.802 203.35 254.501 200.787 253.032 200.787C249.291 200.787 255.004 206.366 253.193 208.497C252.148 209.727 250.841 210.331 249.659 211.388C247.744 213.102 251.229 211.225 251.908 210.674C252.866 209.897 254.816 208.771 255.442 207.676C255.892 206.888 255.929 207.062 255.62 207.854C255.297 208.685 255.373 209.856 255.46 210.728C255.519 211.319 256.278 213.559 257.191 213.298C258.078 213.044 257.528 210.288 257.512 210.299C256.995 210.668 255.477 211.908 255.442 210.603C255.386 208.546 256.084 202.406 256.084 204.463C256.084 205.91 256.771 207.238 256.727 208.818C256.674 210.712 254.914 211.913 254.407 213.637C254.025 214.936 253.442 215.027 252.39 215.261C249.645 215.871 252.738 214.419 253.836 214.297C254.89 214.18 255.818 213.958 256.888 213.958C257.257 213.958 257.617 214.244 257.851 214.244C258.099 214.244 258.681 212.608 258.815 212.37C260.472 209.423 260.132 218.892 261.546 216.064C261.863 215.43 262.831 211.859 262.831 214.03C262.831 215.248 262.554 216.411 262.51 217.563C262.448 219.168 262.489 216.902 262.438 216.457C262.277 215.062 262.002 213.312 261.224 212.102C260.656 211.218 259.519 211.249 258.654 210.817C258.218 210.599 256.428 210.475 256.406 210.103C256.326 208.752 256.207 207.212 254.478 207.212" stroke="#1E1E1E" stroke-width="5" stroke-linecap="round"/>
<path d="M161.572 221.989C161.35 221.989 164.176 221.866 165.072 221.406C166.659 220.589 168.11 218.961 169.609 217.906C172.056 216.184 176.071 213.428 177.322 210.614C179.704 205.253 183.649 200.09 185.488 194.573" stroke="#1E1E1E" stroke-width="3" stroke-linecap="round"/>
<path d="M239.153 219.072C242.355 219.072 245.028 223.254 247.903 224.776C248.833 225.268 248.671 227.72 248.454 228.697C247.968 230.886 249.653 229.634 249.653 231.905C249.653 234.621 250.118 233.921 252.57 234.271C253.411 234.391 254.033 234.773 254.903 234.822C255.393 234.849 256.359 236.023 256.523 235.859C257.92 234.462 257.313 234.883 258.694 235.988C259.948 236.991 259.811 237.155 261.903 237.155" stroke="#1E1E1E" stroke-width="3" stroke-linecap="round"/>
<path d="M252.569 231.905C254.836 231.905 261.774 233.085 262.518 230.479C263.642 226.545 268.244 235.228 268.319 236.572C268.567 241.045 267.844 244.826 267.185 249.113C266.864 251.196 266.647 253.933 266.569 255.951C266.509 257.511 265.402 262.049 265.402 260.488" stroke="#1E1E1E" stroke-width="3" stroke-linecap="round"/>
<path d="M258.555 234.899C260.638 234.899 262.587 235.34 264.414 236.302C265.344 236.791 265.731 238.053 266.172 238.935C266.502 239.595 266.532 240.265 266.7 240.961C266.745 241.144 267.169 243.083 267.409 242.842" stroke="#1E1E1E" stroke-width="3" stroke-linecap="round"/>
<path d="M263.503 229.69C265.708 229.795 268.029 230.516 269.884 231.708C270.986 232.417 271.398 233.542 272.162 234.573C272.87 235.527 273.56 236.703 274.636 237.3C275.721 237.903 276.953 238.285 278.145 238.61C279.817 239.066 281.571 238.935 283.288 238.935C283.536 238.935 284.104 238.816 284.236 239.066C284.614 239.78 284.819 240.649 285.09 241.409C285.675 243.051 285.878 244.75 285.9 246.488C285.911 247.362 286.078 248.489 285.77 249.324C285.38 250.379 284.866 251.366 284.439 252.405C283.646 254.333 283.333 256.389 283.035 258.439C282.857 259.666 282.645 261.001 282.645 262.244C282.645 262.466 282.57 262.933 282.384 263.025" stroke="#1E1E1E" stroke-width="3" stroke-linecap="round"/>
<path d="M286.224 247.644C287.036 247.644 287.848 247.644 288.661 247.644C289.556 247.644 289.106 246.586 289.99 246.782C290.41 246.875 291.722 248.532 291.516 247.397C291.271 246.05 290.842 244.942 290.014 243.878C289.247 242.892 291.132 243.256 291.54 243.46C293.069 244.224 294.526 245.396 295.97 246.315C298.339 247.822 302.225 248.14 304.166 250.08C305.984 251.898 306.213 254.501 307.488 256.602C308.328 257.985 310.941 260.169 311.032 261.82C311.286 266.381 314.857 265.807 318.12 265.807" stroke="#1E1E1E" stroke-width="3" stroke-linecap="round"/>
<path d="M308.374 258.719C312.447 258.719 315.638 259.247 319.228 261.18C320.278 261.745 325.208 262.337 325.208 263.37C325.208 266.19 324.322 268.653 324.322 271.566C324.322 273.203 327.194 274.88 328.309 275.996" stroke="#1E1E1E" stroke-width="3" stroke-linecap="round"/>
<path d="M159.969 223.278C158.963 223.077 154.474 220.149 154.234 219.07C153.975 217.901 154.945 216.816 154.431 217.741C153.671 219.108 153.563 220.562 152.979 221.949C152.203 223.792 151.601 226.095 151.084 227.905C150.724 229.165 146.402 230.366 145.35 230.366" stroke="#1E1E1E" stroke-width="3" stroke-linecap="round"/>
<path d="M141.805 229.923C141.836 229.677 146.377 228.302 147.121 227.93C148.405 227.288 150.242 226.064 151.773 226.404C153.163 226.713 148.766 227.631 148.204 227.733C146.555 228.033 144.976 228.714 143.331 229.013C142.093 229.238 140.809 229.788 139.59 229.923C138.291 230.068 137.553 231.252 136.046 231.252C134.111 231.252 130.287 230.308 130.287 233.024" stroke="#1E1E1E" stroke-width="3" stroke-linecap="round"/>
<path d="M107.694 244.099C107.694 242.247 108.711 233.84 111.903 236.322C113.907 237.881 115.958 236.762 117.662 235.436C119.877 233.714 121.87 235.546 121.87 231.917C121.87 229.638 125.807 231.041 126.965 231.942C128.639 233.243 127.697 236.163 129.844 237.356C133.227 239.235 135.96 241.048 138.262 244.198C141.596 248.761 146.876 252.978 148.352 258.719C148.851 260.658 149.337 263.497 149.337 265.364" stroke="#1E1E1E" stroke-width="3" stroke-linecap="round"/>
<path d="M129.31 283.536C142.514 268.682 163.791 254.032 184.612 260.973C191.233 263.18 196.991 267.602 203.438 270.316C206.835 271.747 211.61 271.078 215.273 271.078C220.096 271.078 224.758 271.97 229.601 271.701C232.324 271.549 235.589 268.416 238.01 267.34C240.18 266.376 242.644 263.633 244.413 262.218C246.434 260.601 249.52 259.893 251.749 258.619C253.953 257.36 257.496 255.272 259.986 257.512C261.913 259.247 265.116 257.981 267.322 259.242C269.286 260.364 270.282 264.318 271.96 266.094C274.74 269.038 274.639 273.833 277.255 277.03C279.804 280.146 281.304 285.195 281.304 289.143" stroke="#1E1E1E" stroke-width="3" stroke-linecap="round"/>
<path d="M281.304 261.734C281.304 266.51 281.304 271.285 281.304 276.061C281.304 279.718 282.55 283.378 282.55 287.274" stroke="#1E1E1E" stroke-width="3" stroke-linecap="round"/>
<path d="M165.455 130.6C156.955 118.1 152.455 97.4508 152.455 84.6001C152.455 83.2669 160.572 81.0966 162.671 80.497C165.052 79.8165 167.422 79.3678 169.834 78.2821C176.937 75.0858 184.773 73.7306 192.087 71.1185C198.08 68.978 204.898 65.1299 211.397 64.8892C212.752 64.839 213.402 66.7818 214.166 68.0039C215.05 69.4184 218.542 68.5523 219.772 68.1423C226.272 65.9756 232.76 63.2874 239.602 62.4321C244.422 61.8296 249.311 61.4466 254.206 61.8092C258.738 62.1449 262.283 64.246 266.388 65.4775C268.256 66.0381 270.043 66.9103 271.925 67.3809C273.396 67.7486 274.138 69.1877 275.559 69.7342C277.464 70.4669 280.969 72.3463 282.549 73.6102C284.374 75.0697 287.298 75.8115 289.402 76.8633C290.629 77.4772 294.512 78.5936 293.139 78.5936" stroke="#1E1E1E" stroke-width="3" stroke-linecap="round"/>
<path d="M273.828 119.084C273.828 108.319 288.658 104.957 289.401 94.9281C289.591 92.3618 289.091 86.1285 290.336 83.8885C291.405 81.9644 291.606 77.8028 293.762 76.7249" stroke="#1E1E1E" stroke-width="3" stroke-linecap="round"/>
<path d="M170.157 218.405C170.157 215.526 171.087 213.365 172.471 210.874C172.853 210.185 174.003 208.358 175.03 208.758C175.855 209.078 177.688 209.037 177.688 210.21C177.688 211.159 176.547 212.646 178.353 212.646C179.486 212.646 180.504 212.597 181.454 213.335C183.241 214.725 186.738 217.942 189.206 215.747C191.588 213.63 192.802 214.841 195.408 216.289C196.354 216.814 196.907 218.954 198.066 218.504C199.164 218.077 199.247 219.47 200.085 219.71C202.022 220.263 204.073 219.291 205.819 219.291C207.448 219.291 209.042 220.62 210.913 220.62" stroke="#1E1E1E" stroke-width="3" stroke-linecap="round"/>
<path d="M152.88 217.962C155.898 217.962 158.904 219.024 161.937 219.267C165.254 219.532 166.506 219.627 168.607 222.195C170.975 225.09 173.839 225.88 177.442 226.921C184.049 228.829 192.022 231.252 198.953 231.252" stroke="#1E1E1E" stroke-width="2" stroke-linecap="round"/>
<path d="M248.126 230.809C246.957 232.797 244.19 236.139 242.023 236.913C240.062 237.613 238.084 237.71 236.387 239.029C235.366 239.823 235.167 240.933 233.852 241.441C231.896 242.197 229.581 242.218 227.527 242.549C223.22 243.243 218.812 243.213 214.458 243.213" stroke="#1E1E1E" stroke-width="2" stroke-linecap="round"/>
<path d="M151.994 245.428C157.668 245.428 161.121 246.819 166.17 249.415C170.765 251.778 175.616 253.562 180.396 255.421C185.647 257.463 192.148 255.538 197.18 258.054C200.428 259.678 203.276 262.239 206.582 263.592C213.622 266.472 221.012 267.591 228.387 268.932C230.439 269.305 232.431 269.351 234.59 269.351C235.488 269.351 239.725 268.473 238.823 268.022" stroke="#1E1E1E" stroke-width="2" stroke-linecap="round"/>
<path d="M162.183 148.411C162.183 152.011 160.231 157.271 156.203 157.271C153.51 157.271 151.43 163.891 148.893 165.442C147.961 166.012 141.074 170.118 145.571 170.118C146.562 170.118 147.987 169.29 148.893 168.887C150.017 168.388 152.126 168.789 153.348 168.789C155.313 168.789 156.96 167.46 159.082 167.46C160.203 167.46 161.215 167.903 162.405 167.903C163.679 167.903 163.905 166.651 165.284 166.574C166.718 166.494 166.958 164.359 168.607 164.359C171.825 164.359 165.937 159.888 165.752 159.24C165.274 157.569 167.442 158.197 168.287 158.502C169.315 158.872 169.872 160.125 170.379 161.036C170.814 161.819 170.664 156.783 170.576 155.77C170.392 153.655 168.611 153.949 168.041 155.597C167.753 156.427 166.647 158.994 165.506 158.994C164.242 158.994 163.955 154.637 163.955 153.727C163.955 152.34 163.955 150.954 163.955 149.568C163.955 149.005 164.788 150.326 165.186 150.724C165.449 150.988 166.859 152.374 166.859 152.742C166.859 152.871 165.883 152.814 165.727 153.087C165.274 153.88 164.841 154.272 164.841 155.253C164.841 156.837 164.014 158.447 163.955 160.027C163.931 160.687 163.64 163.552 162.405 162.316C161.524 161.435 160.411 156.889 160.411 160.913C160.411 161.693 160.081 165.752 159.993 165.442C159.715 164.469 159.69 159.043 158.196 159.043C157.137 159.043 156.402 162.304 155.981 163.251C155.589 164.135 152.589 165.062 151.65 165.688C150.722 166.307 148.457 168.248 149.779 165.934C150.146 165.292 152.615 165.688 153.323 165.688" stroke="#1E1E1E" stroke-width="5" stroke-linecap="round"/>
<path d="M275.149 140.437C275.022 141.456 272.899 142.209 272.048 142.209C271.218 142.209 270.868 142.535 270.694 143.316C270.349 144.868 269.89 143.632 270.719 143.193C271.325 142.873 272.483 143.095 273.155 143.095C273.874 143.095 274.187 141.86 274.361 142.209C275.199 143.884 274.711 145.502 273.475 146.737C273.21 147.003 272.541 145.409 272.245 145.113C271.741 144.61 270.702 144.514 271.605 144.965C274.218 146.272 274.778 143.814 276.133 142.307C276.496 141.905 276.493 138.323 278.152 139.649C279.153 140.45 279.944 136.789 280.465 136.007" stroke="#1E1E1E" stroke-width="3" stroke-linecap="round"/>
<path d="M264.517 175.877C264.517 177.401 262.761 180.645 260.973 180.75C259.405 180.842 256.986 179.089 256.986 181.636C256.986 182.522 256.986 183.408 256.986 184.294C256.986 185.662 256.125 184.874 255.214 185.279C253.184 186.181 253.442 187.646 253.442 189.61" stroke="#1E1E1E" stroke-width="3" stroke-linecap="round"/>
<path d="M106.365 243.656C106.365 251.821 110.332 258.801 117.44 263.37C119.687 264.815 124.811 267.64 124.971 270.68C125.157 274.205 124.625 277.804 125.07 281.312C125.257 282.786 126.899 289.086 128.958 288.4" stroke="#1E1E1E" stroke-width="3" stroke-linecap="round"/>
<path d="M104.593 247.643C102.102 247.643 100.128 245.907 98.1696 247.865C96.0067 250.028 96.2321 251.83 92.6321 251.63C91.1634 251.549 90.8976 250.721 89.974 252.516C88.6115 255.166 87.3428 257.828 86.0116 260.49C84.8494 262.815 83.0889 264.958 82 267.136" stroke="#1E1E1E" stroke-width="3" stroke-linecap="round"/>
<path d="M150.66 128.574C148.711 128.574 147.431 127.887 145.837 127.09" stroke="white" stroke-width="3" stroke-linecap="round"/>
<path d="M156.597 191.276C157.903 191.537 159.513 193.468 160.678 194.244" stroke="white" stroke-width="3" stroke-linecap="round"/>
<path d="M285.34 200.923C284.75 201.55 283.859 202.401 283.485 203.149" stroke="white" stroke-width="3" stroke-linecap="round"/>
<path d="M155.048 194.719C154.979 195.03 155.261 195.973 155.296 195.375C155.333 194.745 155.166 194.412 155.821 194.121C156.643 193.756 157.926 194.245 157.644 195.229C157.508 195.707 155.715 196.645 155.296 196.892C154.444 197.393 153.867 198.524 153.458 199.444C153.347 199.694 152.674 200.595 153.196 200.626C154.023 200.674 154.729 200.302 155.092 199.576C155.411 198.938 154.045 197.738 155.69 197.738C155.99 197.738 156.621 198.129 156.551 198.059C156.233 197.741 156.264 197.434 155.821 197.213" stroke="#1E1E1E" stroke-width="3" stroke-linecap="round"/>
<path d="M286.286 204.731C286.564 204.888 287.548 204.894 286.986 204.685C286.394 204.466 286.027 204.528 285.94 203.817C285.831 202.924 286.675 201.841 287.533 202.397C287.95 202.667 288.324 204.656 288.437 205.129C288.667 206.09 289.58 206.972 290.341 207.633C290.547 207.812 291.212 208.719 291.394 208.229C291.682 207.452 291.532 206.669 290.944 206.109C290.427 205.617 288.88 206.573 289.361 205C289.449 204.713 290.007 204.224 289.919 204.27C289.523 204.481 289.239 204.362 288.897 204.721" stroke="#1E1E1E" stroke-width="3" stroke-linecap="round"/>
<path d="M236.616 81.6254C242.038 81.6254 240.26 85.0872 238.185 87.728C236.477 89.9023 229.473 98.8847 226.164 93.8306C223.793 90.209 225.874 84.5085 227.576 81.0706C229.704 76.7718 232.25 71.2301 237.777 75.0296C241.328 77.4702 244.588 79.8094 246.22 83.9061C246.844 85.4717 251.664 96.6355 249.61 97.5908C246.827 98.8854 241.568 96.7572 238.876 96.0497C234.545 94.9116 231.437 92.6796 229.303 88.8376C223.587 78.5486 243.648 66.3328 248.166 77.7419C249.542 81.2159 247.732 86.0736 246.785 89.3923C246.176 91.5279 245.445 97.9638 242.14 97.7141C239.745 97.5332 236.077 93.5099 234.356 92.043C231.48 89.5921 228.706 85.5006 228.706 81.6562C228.706 77.2797 239.755 79.3595 242.705 79.4062C247.65 79.4846 249.468 85.5321 244.525 87.4198C242.519 88.1858 240.532 89.5312 238.844 87.6663C236.584 85.169 234.356 79.4629 234.356 76.0775C234.356 74.327 237.733 74.4132 238.876 74.4132C242.463 74.4132 244.751 74.9727 247.633 77.1871C249.219 78.4057 252.435 80.2854 252.435 82.4884C252.435 85.0346 250.103 86.932 248.606 88.8376C244.643 93.8816 238.494 93.4817 233.508 90.5019C228.549 87.5374 227.504 81.6965 231.782 77.4953C235.124 74.2133 241.215 73.4759 245.655 74.5365C249.029 75.3423 251.305 84.3925 251.305 87.1424C251.305 90.2136 247.688 91.3375 245.373 92.721C242.19 94.6238 237.969 94.4511 234.356 94.3854C228.205 94.2735 222.086 85.8117 225.065 79.961C226.751 76.6512 231.617 74.4056 234.921 73.3036C238.115 72.2385 241.528 71.0125 244.965 71.7625C248.505 72.535 249.391 77.9642 249.642 80.7932C250.149 86.5204 249.292 90.0781 242.831 91.4882C231.901 93.8732 220.327 83.7871 229.836 74.968C233.069 71.9694 238.589 70.1575 243.082 71.3927C249.86 73.2565 253 81.0069 253 87.2348C253 90.4873 251.701 92.1722 248.355 92.8443C244.881 93.542 241.68 94.6888 238.311 95.7415C231.617 97.8331 226.605 92.2919 224.751 86.6184C223.201 81.8718 223.962 78.2525 227.859 75.2762C232.188 71.97 240.514 73.6777 244.525 76.6323" stroke="#303030" stroke-linecap="round"/>
<path d="M236.713 86.0163C235.448 87.1774 231.405 83.0971 234.206 82.4543C236.497 81.9287 238.938 80.7693 241.34 80.1313C245.023 79.1534 244.744 83.5304 244.382 86.2376C244.038 88.8157 241.245 99.59 237.784 94.7775C234.501 90.2144 229 87.3339 229 80.8614C229 77.3667 229.689 76.3739 232.471 74.379C237.37 70.8657 243.61 74.6675 246.546 79.0472C247.092 79.8624 248.084 81.1886 247.274 82.211C245.877 83.9752 244.52 85.0709 243.354 87.1225C242.156 89.2305 239.374 94.8098 239.819 88.6049C240.048 85.4124 242.839 82.4322 245.968 82.4322C247.141 82.4322 249.778 81.925 250.509 83.2287C251.323 84.6798 250.96 86.4781 250.595 87.9854C250.192 89.6489 248.248 92.6777 246.353 92.7863C242.953 92.9814 242.027 90.3097 239.798 88.0075C236.901 85.0158 235.174 83.5269 238.341 80.1313C239.937 78.4193 241.948 74.3603 243.268 78.4498" stroke="#330831" stroke-width="4" stroke-linecap="round"/>
<path d="M136.499 301.291C136.757 298.715 139.444 297.196 141.099 295.541C142.598 294.042 144.839 293.147 146.561 291.868C148.977 290.073 151.927 289.125 153.972 286.853C155.878 284.734 157.761 282.617 159.785 280.592C160.702 279.675 162.077 279.498 163.299 279.091C163.744 278.942 166.973 278.534 165.759 278.579C164.097 278.641 162.876 280.304 161.223 280.304C158.203 280.304 154.73 282.071 151.959 283.179C149.399 284.203 147.141 284.952 145.188 286.98C143.515 288.718 142.386 290.804 140.652 292.539C140.158 293.032 137.815 296.001 139.15 294.615C140.495 293.219 141.449 291.638 142.952 290.303C146.101 287.503 149.572 284.517 153.173 282.317C156.364 280.367 159.738 278.792 162.884 276.791C164.743 275.608 165.227 273.692 167.548 273.692C169.006 273.692 170.465 273.692 171.924 273.692C173.864 273.692 175.8 273.908 177.674 273.98C179.863 274.064 181.199 275.263 183.072 276.28C184.293 276.942 185.013 278.204 186.234 278.867C187.214 279.399 187.996 279.63 189.045 279.953C190.041 280.259 191.827 280.304 192.847 280.304C195.956 280.304 197.054 282.736 199.81 283.69C204.027 285.15 208.365 284.686 212.747 285.543C217.518 286.476 222.195 286.768 227.057 286.629C229.578 286.557 232.54 286.15 234.884 285.192C236.285 284.618 237.758 284.423 239.132 283.754C240.033 283.316 240.832 282.71 241.783 282.381C243.641 281.738 244.927 280.245 246.958 279.793C248.824 279.379 251.202 279.446 252.644 278.004C253.055 277.593 253.794 274.662 253.794 275.992C253.794 277.203 252.377 276.812 251.781 278.004" stroke="#E6D1B2" stroke-width="20" stroke-linecap="round"/>
<path d="M246.511 276.737C248.81 276.601 251.104 274.555 253.123 273.574C254.146 273.077 255.663 272.78 256.286 271.69C257.299 269.916 258.065 272.028 258.729 272.84C260.155 274.582 261.959 275.709 263.473 277.312C264.391 278.284 264.335 279.527 264.335 280.761C264.335 282.68 264.783 284.068 265.198 285.936C265.605 287.768 266.612 289.363 267.929 290.68C268.364 291.115 269.343 291.543 268.057 291.382C267.326 291.291 266.642 290.898 266.028 290.52C264.663 289.68 262.978 289.334 261.396 289.162C256.455 288.627 251.822 288.698 247.086 290.248C245.358 290.814 243.645 291.427 241.911 291.973C240.037 292.563 237.801 292.261 235.858 292.261C228.225 292.261 220.472 291.383 212.875 290.68C207.321 290.165 201.564 290.248 195.977 290.248C190.501 290.248 184.611 290.748 179.526 288.3C177.55 287.348 175.298 285.649 173.058 285.649C170.854 285.649 167.464 286.31 165.727 287.661C163.867 289.108 164.002 290.273 164.002 292.548" stroke="#E6D1B2" stroke-width="20" stroke-linecap="round"/>
<path d="M166.685 294.679C163.43 294.679 160.115 294.966 156.91 294.966C155.815 294.966 154.421 295.335 154.052 293.672C153.43 290.874 162.634 290.016 163.97 289.791C166.533 289.36 168.988 288.703 171.508 288.13C171.995 288.02 173.099 287.888 173.297 287.491" stroke="#E6D1B2" stroke-width="20" stroke-linecap="round"/>
<path d="M262.192 127.108C262.941 127.108 264.295 126.829 264.947 127.191C265.435 127.462 265.893 127.873 266.366 128.109" stroke="#1E1E1E" stroke-linecap="round"/>
<path d="M262.86 122.768H265.698" stroke="#1E1E1E" stroke-linecap="round"/>
<path d="M262.526 118.761C263.518 118.761 265.373 118.377 266.199 118.928" stroke="#1E1E1E" stroke-linecap="round"/>
<path d="M197.011 116.231C196.854 117.646 195.421 118.223 194.895 119.405C194.497 120.302 193.98 121.186 193.391 121.944C192.211 123.46 190.331 124.604 188.971 125.964C187.901 127.034 187.193 126.81 185.585 126.81" stroke="#1E1E1E" stroke-linecap="round"/>
<path d="M226.633 223.293C226.633 222.418 226.68 219.908 227.291 219.296C228.765 217.822 227.902 222.282 227.902 222.447" stroke="#1E1E1E" stroke-linecap="round"/>
<path d="M209.283 207.213C209.383 206.411 210.975 206.383 210.975 205.097" stroke="#1E1E1E" stroke-linecap="round"/>
<path d="M220.529 167.402C219.86 167.476 219.483 168.522 218.88 168.79C218.388 169.009 218.103 169.783 217.752 170.178C217.277 170.713 216.933 171.452 216.615 172.087C216.413 172.49 216.032 173.642 215.67 173.822" stroke="#1E1E1E" stroke-linecap="round"/>
<defs>
<linearGradient id="paint0_linear_1027_272" x1="177.5" y1="50" x2="177.5" y2="245.207" gradientUnits="userSpaceOnUse">
<stop stop-color="#FF5252"/>
<stop offset="1" stop-color="#EC6F6F"/>
</linearGradient>
</defs>
</svg>
