<svg viewBox="0 0 141 394" fill="none" xmlns="http://www.w3.org/2000/svg">
<path d="M48.4707 385.842C50.7711 385.554 53.1333 381.047 55.3128 379.836C59.1228 377.719 62.1915 375.4 64.8917 372.006C65.6757 371.02 70.1945 363.911 68.4648 365.468C67.5564 366.285 66.2336 365.593 65.4239 364.783C64.4701 363.83 64.8917 361.843 64.8917 360.526C64.8917 357.151 64.2075 353.863 64.2075 350.567C64.2075 345.978 61.0804 342.52 60.1403 338.289C58.4175 330.537 56.6589 325.193 59.076 317.459C59.9895 314.535 59.7328 309.55 57.7075 307.12C54.3279 303.064 52.7234 294.261 51.9298 289.102C51.2735 284.837 48.5862 276.195 51.2075 272.263" stroke="#EC6F6F" stroke-width="15" stroke-linecap="round"/>
<path d="M51.2147 274.314C50.9982 272.365 47.8788 268.946 46.5772 267.32C45.1084 265.483 43.9637 262.529 42.472 260.477C40.9588 258.397 42.3199 251.781 42.3199 248.998C42.3199 245.633 43.0041 242.545 43.0041 239.267C43.0041 237.277 43.1145 235.248 43.0041 233.261C42.9342 232.001 41.6175 231.552 41.1036 230.524C40.568 229.453 40.9515 227.375 40.9515 226.267C40.9515 222.051 40.9929 220.826 39.0509 217.524C38.3816 216.386 35.4778 215.55 35.4778 214.103C35.4778 208.237 40.3926 205.969 42.8521 201.787C43.744 200.271 45.8704 199.605 47.1094 198.366C47.8013 197.675 51.1968 193.53 50.3784 192.361C48.9689 190.347 51.4355 188.165 50.3784 186.051C49.5417 184.377 47.1678 183.654 45.893 182.478C43.8462 180.588 41.4555 178.519 38.8989 177.308C36.6454 176.24 33.6508 177.84 31.3726 177.84C27.3666 177.84 23.1011 180.131 19.0568 179.893C16.197 179.724 24.491 167.162 24.5305 166.056C24.7207 160.731 25.9267 152.124 24.3784 146.899C23.7686 144.841 22.4778 141.584 22.4778 139.524C22.4778 138.418 25.7708 140.856 26.7352 140.893C33.1213 141.138 39.4359 141.464 44.3726 136.787C46.087 135.163 47.9718 135.018 49.01 132.682C49.7065 131.115 50.5944 129.881 51.8989 128.577C54.7544 125.721 59.9352 127.707 62.01 123.788C63.9363 120.149 70.2949 121.735 73.7936 121.735C76.4287 121.735 78.5892 122.716 81.1678 123.255C83.5642 123.757 86.6289 123.638 88.8462 124.624C89.9639 125.121 93.3953 125.931 94.1678 124.472C94.548 123.754 94.3199 122.039 94.3199 122.039C94.3199 122.039 93.6562 125.318 93.6357 126.98C93.6152 128.64 93.5062 148.2 95.0041 147.583C97.0362 146.746 100.291 145.103 101.846 143.63C105.736 139.944 103.587 134.036 101.314 129.945C99.7361 127.105 99.2198 127.452 100.478 130.782C102.235 135.433 104.454 140.089 107.32 144.162C108.952 146.481 109.58 146.263 112.261 146.366C115.891 146.506 114.352 149.414 115.53 151.84C117.73 156.368 118.75 162.467 119.788 167.425C121.216 174.247 121.688 181.786 121.688 188.787C121.688 191.284 121.557 193.819 121.688 196.314C121.749 197.466 122.57 201.611 120.852 198.366C118.49 193.904 113.689 193.104 110.057 189.472C108.092 187.507 107.259 184.511 105.267 182.63C103.823 181.265 98.4643 186.489 97.2088 187.419C94.7904 189.21 94.2585 191.685 92.4193 193.729C91.4564 194.799 89.6648 199.6 92.4193 196.846C98.8285 190.437 102.53 179.414 102.53 170.542C102.53 168.277 104.594 151.719 99.7936 153.741C96.34 155.195 91.3965 152.061 88.0099 151.308C82.7351 150.136 75.7672 148.128 71.741 144.314C70.8108 143.433 70.3725 142.862 70.3725 141.577C70.3725 141.119 70.2593 142.173 69.1562 142.261C68.758 142.293 66.7339 143.194 67.6357 142.793C69.9636 141.759 73.1815 141.398 75.6942 141.045C76.5921 140.919 84.7705 140.922 84.0567 140.209" stroke="#EC6F6F" stroke-width="12" stroke-linecap="round"/>
<path d="M69.6849 137.474C64.1419 138.028 56.7623 144.239 52.8838 148.117C50.6456 150.356 48.5033 152.97 46.8019 155.644C45.5295 157.643 43.965 159.389 42.6586 161.421C42.2594 162.042 39.9889 164.889 41.1001 162.79C43.4214 158.405 58.3333 164.374 61.0182 165.375C68.3501 168.109 75.7234 169.374 82.1527 173.737C83.2842 174.505 88.9776 179.201 89.8311 177.006C92.4641 170.236 88.3607 163.7 82.3808 160.813C79.02 159.191 74.0802 160.053 70.4451 160.053C67.6018 160.053 67.0809 160.841 65.2375 163.094C63.5224 165.19 63.827 165.816 63.375 168.416C61.8123 177.401 62.4598 186.523 61.3223 195.48C60.5145 201.842 54.4761 205.568 52.5797 212.205C51.5208 215.911 50.527 220.15 50.527 224.027C50.527 225.467 52.3996 228.088 52.9218 229.538C54.8825 234.985 54.683 240.306 56.3428 245.617C57.4087 249.028 60.106 253.678 60.106 257.211C60.106 260.657 61.0022 267.722 58.8896 270.363C57.3456 272.293 57.5674 276.559 56.3428 278.763C54.1608 282.691 57.8334 281.928 58.6995 284.959C59.2593 286.919 61.0897 285.282 60.7902 285.263C60.1521 285.224 57.0558 284.513 56.837 284.731C55.398 286.17 58.2302 293.32 58.7375 294.842" stroke="#EC6F6F" stroke-width="24" stroke-linecap="round"/>
<path d="M66.264 254.474C66.264 247.788 66.1639 241.556 67.7845 235.012C68.9576 230.274 70.0682 225.456 72.0798 220.985C73.2067 218.481 74.8508 216.387 75.8049 213.763C78.8698 205.335 78.0572 196.054 80.4804 187.573C80.7747 186.543 84.1805 182.972 82.381 184C70.5722 190.748 67.5426 208.656 61.4745 219.275C60.4592 221.052 60.581 220.194 61.7786 219.579C66.765 217.019 72.1658 215.192 77.2114 212.737C81.6934 210.557 86.1826 207.263 91.2377 207.263C95.902 207.263 91.5623 210.251 90.2114 211.673C88.9585 212.991 81.4235 225.053 84.3956 225.053C86.0455 225.053 100.475 228.016 100.475 225.395C100.475 223.929 98.1354 220.669 96.9014 223C95.8283 225.027 96.3692 227.916 96.3692 230.184C96.3692 233.165 88.143 238.068 86.2581 239.953C83.6435 242.568 81.0718 243.254 77.5915 244.249C76.0328 244.694 80.3614 248.537 80.6324 249.418C81.7591 253.08 82.2932 257.593 82.685 261.316C82.9687 264.01 84.263 267.559 85.0798 270.173C86.2286 273.849 87.4219 273.188 90.2114 275.684C93.5831 278.701 94.9072 282.04 97.2055 285.947C98.9715 288.95 101.269 281.732 102.185 280.816C103.659 279.342 105.135 277.507 106.1 275.684C107.406 273.218 109.191 271.776 106.252 269.906C104.268 268.644 99.2759 267.11 99.1061 264.053C98.9665 261.539 98.3336 258.579 101.501 258.579C104.569 258.579 101.701 241.869 101.311 239.725C100.454 235.013 98.7567 240.822 98.3839 242.5C97.707 245.546 100.272 246.599 101.843 249.152C102.876 250.83 105.264 254.231 105.264 256.184C105.264 257.506 104.258 257.211 103.211 257.211C101.211 257.211 101.843 255.415 101.843 253.79" stroke="#EC6F6F" stroke-width="12" stroke-linecap="round"/>
<path d="M101.838 298.946C101.838 301.794 103.051 302.288 104.575 304.572C106.593 307.6 107.996 311.215 107.996 305.751C107.996 302.071 106.818 298.958 106.627 295.525C106.484 292.945 105.943 290.251 105.943 294.537C105.943 301.074 106.248 306.23 110.428 311.604C112.546 314.328 108.799 320.227 109.982 317.565C110.819 312.737 113.544 306.206 113.089 305.751C112.215 304.876 113.725 308.306 113.089 308.487C110.082 309.347 109.364 307.687 109.364 311.604C109.364 314.14 110.048 316.559 110.048 318.941C110.048 322.288 109.19 323.892 107.653 326.657C107.22 327.436 103.557 330.467 102.674 329.584C102.326 329.236 101.867 327.876 101.838 328.368C101.789 329.195 102.222 331.275 102.864 331.789C104.129 332.801 105.176 335.863 105.259 337.262C105.409 339.812 111.745 341.013 111.745 337.262" stroke="#EC6F6F" stroke-width="11" stroke-linecap="round"/>
<path d="M108.687 346.156C108.687 349.472 109.834 352.321 110.055 355.203C110.177 356.787 111.165 358.521 110.701 360.145C110.402 361.194 107.752 363.776 107.014 364.934C106.115 366.347 102.69 368.444 103.251 370.408C103.253 370.412 111.365 367.367 112.64 367.367C119.814 367.367 117.018 373.485 121.345 376.946C123.49 378.662 124.268 381.625 126.856 383.104C128.816 384.224 131.789 386.525 134.003 386.525" stroke="#EC6F6F" stroke-width="12" stroke-linecap="round"/>
<path d="M119.632 251.053C119.911 248.547 123.127 247.889 123.7 245.883C124.365 243.554 123.384 241.232 124.954 239.269C126.512 237.321 121.467 236.432 121.039 234.936C120.15 231.823 124.422 228.76 124.422 226.079C124.422 223.472 124.575 220.813 124.422 218.211C124.288 215.928 123.937 211.864 122.749 209.658C120.981 206.374 118.914 206.925 116.363 204.374C113.953 201.964 113.475 198.275 113.475 194.948" stroke="#EC6F6F" stroke-width="15" stroke-linecap="round"/>
<path d="M72.4202 114.21C72.4202 109.686 75.1571 105.492 75.1571 100.944C75.1571 98.8248 72.6679 104.579 72.4202 106.684C72.1774 108.748 69.4197 110.58 71.3939 107.026C72.6913 104.691 73.7886 101.971 73.7886 99.3099C73.7886 96.1086 71.4566 99.3099 68.315 99.3099C66.4626 99.3099 70.7859 89.4233 68.8471 87.6783C68.4125 87.2872 66.7847 89.3977 66.4144 89.731C65.4406 90.6074 65.2854 90.9474 63.8676 90.9474C59.9604 90.9474 63.0396 89.1773 64.5898 87.1842C66.5433 84.6725 68.7504 81.029 68.9992 77.7953C69.0064 77.7017 69.8984 73.9312 69.1512 74.6784C68.451 75.3786 68.315 78.5196 68.315 77.5292C68.315 75.899 72.2009 71.8777 73.7886 71.7895C76.7695 71.6239 78.2715 69.0067 80.9728 68.4064C85.4281 67.4164 89.6723 67.775 94.0109 69.0146C96.3596 69.6857 98.145 72.1018 99.7886 73.8421C100.962 75.0844 96.0098 75.798 97.6016 76.6824C99.0794 77.5033 101.967 77.2632 101.157 77.2632C98.4606 77.2632 95.9446 75.8947 93.2886 75.8947C91.3258 75.8947 97.5276 81.5565 97.6016 82.8889C97.6693 84.1073 95.9425 87.4543 94.619 88.2105C92.2794 89.5475 92.2042 92.3884 90.7418 94.2164C87.0178 98.8714 80.6307 91.9534 80.6307 100.526C80.6307 100.996 80.4838 111.828 82.6834 109.079C83.5786 107.96 81.0719 109.035 80.9537 107.026C80.9292 106.61 82.8087 104.708 82.3413 104.708C81.6376 104.708 81.9992 115.53 81.9992 116.111C81.9992 117.622 85.4937 118.77 87.0927 119.684C88.4193 120.442 91.7174 124.536 88.1571 122.953C84.8515 121.484 82.1145 117.671 79.6424 115.199C77.2716 112.828 76.382 109.06 77.7419 106C79.2526 102.601 79.9597 98.645 80.6307 94.7865C81.0723 92.2478 82.9825 84.5057 80.6307 82.8889C77.6398 80.8326 81.7011 80.4268 83.3676 79.3158" stroke="#EC6F6F" stroke-width="8" stroke-linecap="round"/>
<path d="M56.685 337.948C55.2602 337.948 54.2274 337.988 52.9598 337.264C51.9547 336.689 53.2916 334.193 52.1996 333.881C49.5976 333.137 51.2511 329.854 52.7318 328.521C55.5218 326.01 55.3166 324.997 55.3166 320.843C55.3166 317.696 52.4999 316.714 50.147 315.369C48.1657 314.237 48.4745 308.624 48.4745 306.474C48.4745 302.768 49.7967 299.715 51.5534 296.553C52.8911 294.145 53.043 288.58 51.3634 286.48C50.3178 285.173 51.2749 280.975 51.2113 279.258C51.1169 276.709 50.5271 274.205 50.5271 271.58" stroke="#EC6F6F" stroke-width="2" stroke-linecap="round"/>
<path d="M28.8418 137C28.8418 130.998 28.372 124.554 29.5623 118.86C30.1111 116.235 32.2298 122.524 32.4063 123.006C32.9096 124.382 34.9279 127.28 34.9848 128.604C35.2085 133.801 32.8877 126.375 32.5959 125.339C31.5987 121.795 31.1752 117.835 30.2069 114.196C29.133 110.159 28.3915 112.581 27.325 114.403C26.2749 116.197 29.4327 117.02 29.5244 119.275C29.7218 124.133 26.7793 124.664 24.7465 128.137C23.5894 130.114 27.3801 121.837 28.0076 120.208C28.7828 118.194 29.9125 113.677 27.4767 113.677C20.9385 113.677 12.9272 116.795 7 112.744" stroke="#EC6F6F" stroke-width="7" stroke-linecap="round"/>
<path d="M32.048 109.42C32.048 106.242 33.1654 100.644 31.896 97.788C30.6971 95.0906 28.627 91.725 28.627 88.8933C28.627 81.1389 28.627 73.3845 28.627 65.6301" stroke="#EC6F6F" stroke-width="9" stroke-linecap="round"/>
<path d="M29.3127 67.685C29.3127 64.0943 28.6228 60.8327 26.9179 57.764C26.7496 57.4609 25.9633 53.5386 25.8916 54.685C25.8468 55.4025 25.8916 59.2532 25.8916 56.7377C25.8916 55.5183 25.4195 46.8936 23.839 48.8692C22.3641 50.7129 21.1322 47.352 21.5203 47.1967C21.9119 47.0401 26.1332 47.352 24.1811 45.7903C23.3758 45.146 21.4062 44.4219 21.4062 44.4219C21.4062 44.4219 24.0809 44.4786 25.0554 45.2581C26.3511 46.2947 25.5359 47.4531 25.9296 48.8312C26.1961 49.7638 27.7771 50.6893 28.2864 51.6061C28.8205 52.5676 30.5669 53.7711 30.6811 54.685C30.8414 55.9675 33.9188 55.1894 30.6811 55.3692C28.3095 55.501 29.9969 54.329 29.9969 52.1002C29.9969 50.4531 29.9969 48.8059 29.9969 47.1587" stroke="#EC6F6F" stroke-width="5" stroke-linecap="round"/>
<path d="M22.4737 86.8414C19.0913 86.8414 15.4309 86.5914 12.7427 88.742C11.9096 89.4084 9.25178 89.2207 8.10526 89.7303C6.94306 90.2468 4.52211 91.9909 4 90.9467" stroke="#EC6F6F" stroke-width="8" stroke-linecap="round"/>
<path d="M23.1581 43.0526C23.1581 35.9145 23.8423 28.4914 23.8423 21.1579C23.8423 17.9808 21.7897 14.9235 21.7897 11.921C21.7897 8.42509 21.1055 5.24912 21.1055 2" stroke="#EC6F6F" stroke-width="3.5" stroke-linecap="round"/>
<path d="M24.5312 32.7907C27.1097 32.7907 33.5105 31.7179 29.8529 35.3755C28.2033 37.0251 25.8997 40.6855 25.8997 43.0538" stroke="#EC6F6F" stroke-width="3.5" stroke-linecap="round"/>
<path d="M17.6797 43.0518C20.3226 43.0518 21.7115 44.0413 23.8376 45.1044" stroke="#EC6F6F" stroke-width="2.5" stroke-linecap="round"/>
</svg>
