{
	"asset":{
		"generator":"Khronos glTF Blender I/O v3.6.27",
		"version":"2.0"
	},
	"extensionsUsed":[
		"EXT_collections"
	],
	"scene":0,
	"scenes":[
		{
			"extensions":{
				"EXT_collections":{
					"tree":[
						{
							"collection":"geometry"
						},
						{
							"collection":"interactions"
						},
						{
							"collection":"enemies"
						},
						{
							"collection":"items"
						},
						{
							"collection":"doors"
						},
						{
							"collection":"weapons"
						},
						{
							"collection":"leave"
						},
						{
							"collection":"arrive"
						},
						{
							"collection":"navmesh"
						}
					]
				}
			},
			"extras":{
				"EXTCollectionProperties":{}
			},
			"name":"simple-1",
			"nodes":[
				0,
				1,
				2,
				3,
				4,
				5,
				6,
				7,
				8,
				9,
				10,
				11
			]
		}
	],
	"nodes":[
		{
			"extensions":{
				"EXT_collections":{
					"collections":[
						"Scene Collection"
					]
				}
			},
			"extras":{
				"TLM_ObjectProperties":{},
				"label":"default"
			},
			"mesh":0,
			"name":"UNIT_CUBE",
			"translation":[
				0,
				-1.9999996423721313,
				0
			]
		},
		{
			"extensions":{
				"EXT_collections":{
					"collections":[
						"geometry"
					]
				}
			},
			"extras":{
				"TLM_ObjectProperties":{}
			},
			"mesh":1,
			"name":"Plane.005",
			"scale":[
				50,
				50,
				50
			],
			"translation":[
				-29.34101104736328,
				-6.736959934234619,
				-35.17182159423828
			]
		},
		{
			"extensions":{
				"EXT_collections":{
					"collections":[
						"interactions"
					]
				}
			},
			"extras":{
				"TLM_ObjectProperties":{},
				"label":"esthel-captive"
			},
			"mesh":2,
			"name":"UNIT_CUBE.002",
			"rotation":[
				0,
				-0.46488630771636963,
				0,
				0.8853703737258911
			],
			"translation":[
				-57.421478271484375,
				-12.736959457397461,
				-49.68171691894531
			]
		},
		{
			"extensions":{
				"EXT_collections":{
					"collections":[
						"enemies"
					]
				}
			},
			"extras":{
				"TLM_ObjectProperties":{},
				"label":"sword"
			},
			"mesh":3,
			"name":"UNIT_CUBE.005",
			"rotation":[
				0,
				-0.46488630771636963,
				0,
				0.8853703737258911
			],
			"translation":[
				-20.6876163482666,
				2.263040065765381,
				-51.47618103027344
			]
		},
		{
			"extensions":{
				"EXT_collections":{
					"collections":[
						"enemies"
					]
				}
			},
			"extras":{
				"TLM_ObjectProperties":{},
				"label":"sword"
			},
			"mesh":4,
			"name":"UNIT_CUBE.006",
			"rotation":[
				0,
				-0.46488630771636963,
				0,
				0.8853703737258911
			],
			"translation":[
				-10.070796966552734,
				2.263040065765381,
				-43.1291618347168
			]
		},
		{
			"extensions":{
				"EXT_collections":{
					"collections":[
						"enemies"
					]
				}
			},
			"extras":{
				"TLM_ObjectProperties":{},
				"label":"sword"
			},
			"mesh":5,
			"name":"UNIT_CUBE.007",
			"rotation":[
				0,
				-0.46488630771636963,
				0,
				0.8853703737258911
			],
			"translation":[
				-1.9434375762939453,
				2.263040065765381,
				-33.6838493347168
			]
		},
		{
			"extensions":{
				"EXT_collections":{
					"collections":[
						"enemies"
					]
				}
			},
			"extras":{
				"TLM_ObjectProperties":{},
				"label":"sword"
			},
			"mesh":6,
			"name":"UNIT_CUBE.008",
			"rotation":[
				0,
				-0.46488630771636963,
				0,
				0.8853703737258911
			],
			"translation":[
				-2.530702590942383,
				2.263040065765381,
				-26.80447769165039
			]
		},
		{
			"extensions":{
				"EXT_collections":{
					"collections":[
						"items"
					]
				}
			},
			"extras":{
				"TLM_ObjectProperties":{},
				"label":"cage-key"
			},
			"mesh":7,
			"name":"UNIT_CUBE.004",
			"rotation":[
				0,
				-0.46488630771636963,
				0,
				0.8853703737258911
			],
			"translation":[
				-2.215524673461914,
				2.263040065765381,
				-53.95960235595703
			]
		},
		{
			"extensions":{
				"EXT_collections":{
					"collections":[
						"doors"
					]
				}
			},
			"extras":{
				"TLM_ObjectProperties":{},
				"label":"prisoner-cage"
			},
			"mesh":8,
			"name":"UNIT_CUBE.003",
			"rotation":[
				0,
				-0.46488630771636963,
				0,
				0.8853703737258911
			],
			"translation":[
				-57.33757781982422,
				-12.736959457397461,
				-48.67498016357422
			]
		},
		{
			"extensions":{
				"EXT_collections":{
					"collections":[
						"leave"
					]
				}
			},
			"extras":{
				"TLM_ObjectProperties":{},
				"label":"courtyard-shack"
			},
			"mesh":9,
			"name":"UNIT_CUBE.011",
			"translation":[
				10.64358901977539,
				-0.7369599342346191,
				1.2761993408203125
			]
		},
		{
			"extensions":{
				"EXT_collections":{
					"collections":[
						"arrive"
					]
				}
			},
			"extras":{
				"TLM_ObjectProperties":{},
				"label":"swamp-start"
			},
			"mesh":10,
			"name":"UNIT_CUBE.009",
			"rotation":[
				0,
				-0.8732412457466125,
				0,
				0.48728811740875244
			],
			"translation":[
				-2.384014129638672,
				2.263040065765381,
				0.6945457458496094
			]
		},
		{
			"extensions":{
				"EXT_collections":{
					"collections":[
						"navmesh"
					]
				}
			},
			"extras":{
				"TLM_ObjectProperties":{}
			},
			"mesh":11,
			"name":"Plane.009"
		}
	],
	"meshes":[
		{
			"extras":{
				"arm_cached":0
			},
			"name":"Cube",
			"primitives":[
				{
					"attributes":{
						"POSITION":0,
						"NORMAL":1,
						"TEXCOORD_0":2
					},
					"indices":3
				}
			]
		},
		{
			"extras":{
				"arm_cached":0
			},
			"name":"Plane.016",
			"primitives":[
				{
					"attributes":{
						"POSITION":4,
						"NORMAL":5,
						"TEXCOORD_0":6
					},
					"indices":7
				}
			]
		},
		{
			"extras":{
				"arm_cached":0
			},
			"name":"Cube.002",
			"primitives":[
				{
					"attributes":{
						"POSITION":8,
						"NORMAL":9,
						"TEXCOORD_0":10
					},
					"indices":3
				}
			]
		},
		{
			"extras":{
				"arm_cached":0
			},
			"name":"Cube.023",
			"primitives":[
				{
					"attributes":{
						"POSITION":11,
						"NORMAL":12,
						"TEXCOORD_0":13
					},
					"indices":3
				}
			]
		},
		{
			"extras":{
				"arm_cached":0
			},
			"name":"Cube.032",
			"primitives":[
				{
					"attributes":{
						"POSITION":14,
						"NORMAL":15,
						"TEXCOORD_0":16
					},
					"indices":3
				}
			]
		},
		{
			"extras":{
				"arm_cached":0
			},
			"name":"Cube.033",
			"primitives":[
				{
					"attributes":{
						"POSITION":17,
						"NORMAL":18,
						"TEXCOORD_0":19
					},
					"indices":3
				}
			]
		},
		{
			"extras":{
				"arm_cached":0
			},
			"name":"Cube.034",
			"primitives":[
				{
					"attributes":{
						"POSITION":20,
						"NORMAL":21,
						"TEXCOORD_0":22
					},
					"indices":3
				}
			]
		},
		{
			"extras":{
				"arm_cached":0
			},
			"name":"Cube.016",
			"primitives":[
				{
					"attributes":{
						"POSITION":23,
						"NORMAL":24,
						"TEXCOORD_0":25
					},
					"indices":3
				}
			]
		},
		{
			"extras":{
				"arm_cached":0
			},
			"name":"Cube.015",
			"primitives":[
				{
					"attributes":{
						"POSITION":26,
						"NORMAL":27,
						"TEXCOORD_0":28
					},
					"indices":3
				}
			]
		},
		{
			"extras":{
				"arm_cached":0
			},
			"name":"Cube.013",
			"primitives":[
				{
					"attributes":{
						"POSITION":29,
						"NORMAL":30,
						"TEXCOORD_0":31
					},
					"indices":3
				}
			]
		},
		{
			"extras":{
				"arm_cached":0
			},
			"name":"Cube.009",
			"primitives":[
				{
					"attributes":{
						"POSITION":32,
						"NORMAL":33,
						"TEXCOORD_0":34
					},
					"indices":3
				}
			]
		},
		{
			"extras":{
				"arm_cached":0
			},
			"name":"Plane.017",
			"primitives":[
				{
					"attributes":{
						"POSITION":35,
						"NORMAL":36,
						"TEXCOORD_0":37
					},
					"indices":38
				}
			]
		}
	],
	"accessors":[
		{
			"bufferView":0,
			"componentType":5126,
			"count":24,
			"max":[
				1,
				1,
				1
			],
			"min":[
				-1,
				-1,
				-1
			],
			"type":"VEC3"
		},
		{
			"bufferView":1,
			"componentType":5126,
			"count":24,
			"type":"VEC3"
		},
		{
			"bufferView":2,
			"componentType":5126,
			"count":24,
			"type":"VEC2"
		},
		{
			"bufferView":3,
			"componentType":5123,
			"count":36,
			"type":"SCALAR"
		},
		{
			"bufferView":4,
			"componentType":5126,
			"count":964,
			"max":[
				0.8181818127632141,
				0.17999999225139618,
				0.8181818127632141
			],
			"min":[
				-0.8181818127632141,
				-0.17999999225139618,
				-0.6363636255264282
			],
			"type":"VEC3"
		},
		{
			"bufferView":5,
			"componentType":5126,
			"count":964,
			"type":"VEC3"
		},
		{
			"bufferView":6,
			"componentType":5126,
			"count":964,
			"type":"VEC2"
		},
		{
			"bufferView":7,
			"componentType":5123,
			"count":1692,
			"type":"SCALAR"
		},
		{
			"bufferView":8,
			"componentType":5126,
			"count":24,
			"max":[
				1,
				1,
				1
			],
			"min":[
				-1,
				-1,
				-1
			],
			"type":"VEC3"
		},
		{
			"bufferView":9,
			"componentType":5126,
			"count":24,
			"type":"VEC3"
		},
		{
			"bufferView":10,
			"componentType":5126,
			"count":24,
			"type":"VEC2"
		},
		{
			"bufferView":11,
			"componentType":5126,
			"count":24,
			"max":[
				1,
				1,
				1
			],
			"min":[
				-1,
				-1,
				-1
			],
			"type":"VEC3"
		},
		{
			"bufferView":12,
			"componentType":5126,
			"count":24,
			"type":"VEC3"
		},
		{
			"bufferView":13,
			"componentType":5126,
			"count":24,
			"type":"VEC2"
		},
		{
			"bufferView":14,
			"componentType":5126,
			"count":24,
			"max":[
				1,
				1,
				1
			],
			"min":[
				-1,
				-1,
				-1
			],
			"type":"VEC3"
		},
		{
			"bufferView":15,
			"componentType":5126,
			"count":24,
			"type":"VEC3"
		},
		{
			"bufferView":16,
			"componentType":5126,
			"count":24,
			"type":"VEC2"
		},
		{
			"bufferView":17,
			"componentType":5126,
			"count":24,
			"max":[
				1,
				1,
				1
			],
			"min":[
				-1,
				-1,
				-1
			],
			"type":"VEC3"
		},
		{
			"bufferView":18,
			"componentType":5126,
			"count":24,
			"type":"VEC3"
		},
		{
			"bufferView":19,
			"componentType":5126,
			"count":24,
			"type":"VEC2"
		},
		{
			"bufferView":20,
			"componentType":5126,
			"count":24,
			"max":[
				1,
				1,
				1
			],
			"min":[
				-1,
				-1,
				-1
			],
			"type":"VEC3"
		},
		{
			"bufferView":21,
			"componentType":5126,
			"count":24,
			"type":"VEC3"
		},
		{
			"bufferView":22,
			"componentType":5126,
			"count":24,
			"type":"VEC2"
		},
		{
			"bufferView":23,
			"componentType":5126,
			"count":24,
			"max":[
				1,
				1,
				1
			],
			"min":[
				-1,
				-1,
				-1
			],
			"type":"VEC3"
		},
		{
			"bufferView":24,
			"componentType":5126,
			"count":24,
			"type":"VEC3"
		},
		{
			"bufferView":25,
			"componentType":5126,
			"count":24,
			"type":"VEC2"
		},
		{
			"bufferView":26,
			"componentType":5126,
			"count":24,
			"max":[
				1,
				1,
				1
			],
			"min":[
				-1,
				-1,
				-1
			],
			"type":"VEC3"
		},
		{
			"bufferView":27,
			"componentType":5126,
			"count":24,
			"type":"VEC3"
		},
		{
			"bufferView":28,
			"componentType":5126,
			"count":24,
			"type":"VEC2"
		},
		{
			"bufferView":29,
			"componentType":5126,
			"count":24,
			"max":[
				1,
				1,
				1
			],
			"min":[
				-1,
				-1,
				-1
			],
			"type":"VEC3"
		},
		{
			"bufferView":30,
			"componentType":5126,
			"count":24,
			"type":"VEC3"
		},
		{
			"bufferView":31,
			"componentType":5126,
			"count":24,
			"type":"VEC2"
		},
		{
			"bufferView":32,
			"componentType":5126,
			"count":24,
			"max":[
				1,
				1,
				1
			],
			"min":[
				-1,
				-1,
				-1
			],
			"type":"VEC3"
		},
		{
			"bufferView":33,
			"componentType":5126,
			"count":24,
			"type":"VEC3"
		},
		{
			"bufferView":34,
			"componentType":5126,
			"count":24,
			"type":"VEC2"
		},
		{
			"bufferView":35,
			"componentType":5126,
			"count":712,
			"max":[
				2.477170944213867,
				2.263040065765381,
				-21.535459518432617
			],
			"min":[
				-24.795557022094727,
				2.263040065765381,
				-57.89909362792969
			],
			"type":"VEC3"
		},
		{
			"bufferView":36,
			"componentType":5126,
			"count":712,
			"type":"VEC3"
		},
		{
			"bufferView":37,
			"componentType":5126,
			"count":712,
			"type":"VEC2"
		},
		{
			"bufferView":38,
			"componentType":5123,
			"count":3888,
			"type":"SCALAR"
		}
	],
	"bufferViews":[
		{
			"buffer":0,
			"byteLength":288,
			"byteOffset":0,
			"target":34962
		},
		{
			"buffer":0,
			"byteLength":288,
			"byteOffset":288,
			"target":34962
		},
		{
			"buffer":0,
			"byteLength":192,
			"byteOffset":576,
			"target":34962
		},
		{
			"buffer":0,
			"byteLength":72,
			"byteOffset":768,
			"target":34963
		},
		{
			"buffer":0,
			"byteLength":11568,
			"byteOffset":840,
			"target":34962
		},
		{
			"buffer":0,
			"byteLength":11568,
			"byteOffset":12408,
			"target":34962
		},
		{
			"buffer":0,
			"byteLength":7712,
			"byteOffset":23976,
			"target":34962
		},
		{
			"buffer":0,
			"byteLength":3384,
			"byteOffset":31688,
			"target":34963
		},
		{
			"buffer":0,
			"byteLength":288,
			"byteOffset":35072,
			"target":34962
		},
		{
			"buffer":0,
			"byteLength":288,
			"byteOffset":35360,
			"target":34962
		},
		{
			"buffer":0,
			"byteLength":192,
			"byteOffset":35648,
			"target":34962
		},
		{
			"buffer":0,
			"byteLength":288,
			"byteOffset":35840,
			"target":34962
		},
		{
			"buffer":0,
			"byteLength":288,
			"byteOffset":36128,
			"target":34962
		},
		{
			"buffer":0,
			"byteLength":192,
			"byteOffset":36416,
			"target":34962
		},
		{
			"buffer":0,
			"byteLength":288,
			"byteOffset":36608,
			"target":34962
		},
		{
			"buffer":0,
			"byteLength":288,
			"byteOffset":36896,
			"target":34962
		},
		{
			"buffer":0,
			"byteLength":192,
			"byteOffset":37184,
			"target":34962
		},
		{
			"buffer":0,
			"byteLength":288,
			"byteOffset":37376,
			"target":34962
		},
		{
			"buffer":0,
			"byteLength":288,
			"byteOffset":37664,
			"target":34962
		},
		{
			"buffer":0,
			"byteLength":192,
			"byteOffset":37952,
			"target":34962
		},
		{
			"buffer":0,
			"byteLength":288,
			"byteOffset":38144,
			"target":34962
		},
		{
			"buffer":0,
			"byteLength":288,
			"byteOffset":38432,
			"target":34962
		},
		{
			"buffer":0,
			"byteLength":192,
			"byteOffset":38720,
			"target":34962
		},
		{
			"buffer":0,
			"byteLength":288,
			"byteOffset":38912,
			"target":34962
		},
		{
			"buffer":0,
			"byteLength":288,
			"byteOffset":39200,
			"target":34962
		},
		{
			"buffer":0,
			"byteLength":192,
			"byteOffset":39488,
			"target":34962
		},
		{
			"buffer":0,
			"byteLength":288,
			"byteOffset":39680,
			"target":34962
		},
		{
			"buffer":0,
			"byteLength":288,
			"byteOffset":39968,
			"target":34962
		},
		{
			"buffer":0,
			"byteLength":192,
			"byteOffset":40256,
			"target":34962
		},
		{
			"buffer":0,
			"byteLength":288,
			"byteOffset":40448,
			"target":34962
		},
		{
			"buffer":0,
			"byteLength":288,
			"byteOffset":40736,
			"target":34962
		},
		{
			"buffer":0,
			"byteLength":192,
			"byteOffset":41024,
			"target":34962
		},
		{
			"buffer":0,
			"byteLength":288,
			"byteOffset":41216,
			"target":34962
		},
		{
			"buffer":0,
			"byteLength":288,
			"byteOffset":41504,
			"target":34962
		},
		{
			"buffer":0,
			"byteLength":192,
			"byteOffset":41792,
			"target":34962
		},
		{
			"buffer":0,
			"byteLength":8544,
			"byteOffset":41984,
			"target":34962
		},
		{
			"buffer":0,
			"byteLength":8544,
			"byteOffset":50528,
			"target":34962
		},
		{
			"buffer":0,
			"byteLength":5696,
			"byteOffset":59072,
			"target":34962
		},
		{
			"buffer":0,
			"byteLength":7776,
			"byteOffset":64768,
			"target":34963
		}
	],
	"buffers":[
		{
			"byteLength":72544,
			"uri":"data:application/octet-stream;base64,"
		}
	]
}
