{
	"asset":{
		"generator":"Khronos glTF Blender I/O v3.6.27",
		"version":"2.0"
	},
	"extensionsUsed":[
		"EXT_collections"
	],
	"scene":0,
	"scenes":[
		{
			"extensions":{
				"EXT_collections":{
					"tree":[
						{
							"collection":"geometry"
						},
						{
							"collection":"interactions"
						},
						{
							"collection":"enemies"
						},
						{
							"collection":"items"
						},
						{
							"collection":"doors"
						},
						{
							"collection":"weapons"
						},
						{
							"collection":"leave"
						},
						{
							"collection":"arrive"
						},
						{
							"collection":"navmesh"
						}
					]
				}
			},
			"extras":{
				"EXTCollectionProperties":{}
			},
			"name":"simple-1",
			"nodes":[
				0,
				1,
				2,
				3,
				4,
				5,
				6,
				7,
				8,
				9,
				10,
				11,
				12
			]
		}
	],
	"nodes":[
		{
			"extensions":{
				"EXT_collections":{
					"collections":[
						"Scene Collection"
					]
				}
			},
			"extras":{
				"TLM_ObjectProperties":{},
				"label":"default"
			},
			"mesh":0,
			"name":"UNIT_CUBE",
			"translation":[
				0,
				-1.9999996423721313,
				0
			]
		},
		{
			"extensions":{
				"EXT_collections":{
					"collections":[
						"geometry"
					]
				}
			},
			"extras":{
				"TLM_ObjectProperties":{}
			},
			"mesh":1,
			"name":"Plane.005",
			"scale":[
				50,
				50,
				50
			],
			"translation":[
				44.588565826416016,
				-9.204883575439453,
				-33.88754653930664
			]
		},
		{
			"extensions":{
				"EXT_collections":{
					"collections":[
						"enemies"
					]
				}
			},
			"extras":{
				"TLM_ObjectProperties":{},
				"label":"sword"
			},
			"mesh":2,
			"name":"UNIT_CUBE.002",
			"translation":[
				24.469369888305664,
				-1.9999996423721313,
				-5.05238151550293
			]
		},
		{
			"extensions":{
				"EXT_collections":{
					"collections":[
						"enemies"
					]
				}
			},
			"extras":{
				"TLM_ObjectProperties":{},
				"label":"sword"
			},
			"mesh":3,
			"name":"UNIT_CUBE.003",
			"translation":[
				52.70326232910156,
				-3.2048840522766113,
				-11.293554306030273
			]
		},
		{
			"extensions":{
				"EXT_collections":{
					"collections":[
						"enemies"
					]
				}
			},
			"extras":{
				"TLM_ObjectProperties":{},
				"label":"sword"
			},
			"mesh":4,
			"name":"UNIT_CUBE.004",
			"translation":[
				43.093833923339844,
				-3.2048840522766113,
				-30.512409210205078
			]
		},
		{
			"extensions":{
				"EXT_collections":{
					"collections":[
						"enemies"
					]
				}
			},
			"extras":{
				"TLM_ObjectProperties":{},
				"label":"sword"
			},
			"mesh":5,
			"name":"UNIT_CUBE.005",
			"translation":[
				56.467777252197266,
				-3.2048840522766113,
				-26.153488159179688
			]
		},
		{
			"extensions":{
				"EXT_collections":{
					"collections":[
						"enemies"
					]
				}
			},
			"extras":{
				"TLM_ObjectProperties":{},
				"label":"sword"
			},
			"mesh":6,
			"name":"UNIT_CUBE.011",
			"translation":[
				52.00979232788086,
				-3.2048840522766113,
				-45.966739654541016
			]
		},
		{
			"extensions":{
				"EXT_collections":{
					"collections":[
						"items"
					]
				}
			},
			"extras":{
				"TLM_ObjectProperties":{},
				"label":"rear-entrance"
			},
			"mesh":7,
			"name":"UNIT_CUBE.006",
			"translation":[
				65.68093872070312,
				-3.2048840522766113,
				-54.981773376464844
			]
		},
		{
			"extensions":{
				"EXT_collections":{
					"collections":[
						"leave"
					]
				}
			},
			"extras":{
				"TLM_ObjectProperties":{},
				"label":"courtyard-gate"
			},
			"mesh":8,
			"name":"UNIT_CUBE.009",
			"translation":[
				-4.122837066650391,
				-6.204883575439453,
				-56.273006439208984
			]
		},
		{
			"extensions":{
				"EXT_collections":{
					"collections":[
						"leave"
					]
				}
			},
			"extras":{
				"TLM_ObjectProperties":{},
				"label":"courtyard-path"
			},
			"mesh":9,
			"name":"UNIT_CUBE.010",
			"rotation":[
				0,
				-0.7071068286895752,
				0,
				0.7071068286895752
			],
			"translation":[
				-4.321403503417969,
				-6.204883575439453,
				-0.3125457763671875
			]
		},
		{
			"extensions":{
				"EXT_collections":{
					"collections":[
						"arrive"
					]
				}
			},
			"extras":{
				"TLM_ObjectProperties":{},
				"label":"cliffs-end"
			},
			"mesh":10,
			"name":"UNIT_CUBE.007",
			"rotation":[
				0,
				0.5973881483078003,
				0,
				0.8019522428512573
			],
			"translation":[
				9.66464614868164,
				-1.2048835754394531,
				-56.23344039916992
			]
		},
		{
			"extensions":{
				"EXT_collections":{
					"collections":[
						"arrive"
					]
				}
			},
			"extras":{
				"TLM_ObjectProperties":{},
				"label":"cliffs-start"
			},
			"mesh":11,
			"name":"UNIT_CUBE.008",
			"rotation":[
				0,
				0.8799934387207031,
				0,
				0.47498586773872375
			],
			"translation":[
				8.38311767578125,
				1,
				-0.01146697998046875
			]
		},
		{
			"extensions":{
				"EXT_collections":{
					"collections":[
						"navmesh"
					]
				}
			},
			"extras":{
				"TLM_ObjectProperties":{}
			},
			"mesh":12,
			"name":"Plane.009"
		}
	],
	"meshes":[
		{
			"extras":{
				"arm_cached":0
			},
			"name":"Cube",
			"primitives":[
				{
					"attributes":{
						"POSITION":0,
						"NORMAL":1,
						"TEXCOORD_0":2
					},
					"indices":3
				}
			]
		},
		{
			"extras":{
				"arm_cached":0
			},
			"name":"Plane.016",
			"primitives":[
				{
					"attributes":{
						"POSITION":4,
						"NORMAL":5,
						"TEXCOORD_0":6
					},
					"indices":7
				}
			]
		},
		{
			"extras":{
				"arm_cached":0
			},
			"name":"Cube.015",
			"primitives":[
				{
					"attributes":{
						"POSITION":8,
						"NORMAL":9,
						"TEXCOORD_0":10
					},
					"indices":3
				}
			]
		},
		{
			"extras":{
				"arm_cached":0
			},
			"name":"Cube.016",
			"primitives":[
				{
					"attributes":{
						"POSITION":11,
						"NORMAL":12,
						"TEXCOORD_0":13
					},
					"indices":3
				}
			]
		},
		{
			"extras":{
				"arm_cached":0
			},
			"name":"Cube.023",
			"primitives":[
				{
					"attributes":{
						"POSITION":14,
						"NORMAL":15,
						"TEXCOORD_0":16
					},
					"indices":3
				}
			]
		},
		{
			"extras":{
				"arm_cached":0
			},
			"name":"Cube.032",
			"primitives":[
				{
					"attributes":{
						"POSITION":17,
						"NORMAL":18,
						"TEXCOORD_0":19
					},
					"indices":3
				}
			]
		},
		{
			"extras":{
				"arm_cached":0
			},
			"name":"Cube.034",
			"primitives":[
				{
					"attributes":{
						"POSITION":20,
						"NORMAL":21,
						"TEXCOORD_0":22
					},
					"indices":3
				}
			]
		},
		{
			"extras":{
				"arm_cached":0
			},
			"name":"Cube.033",
			"primitives":[
				{
					"attributes":{
						"POSITION":23,
						"NORMAL":24,
						"TEXCOORD_0":25
					},
					"indices":3
				}
			]
		},
		{
			"extras":{
				"arm_cached":0
			},
			"name":"Cube.009",
			"primitives":[
				{
					"attributes":{
						"POSITION":26,
						"NORMAL":27,
						"TEXCOORD_0":28
					},
					"indices":3
				}
			]
		},
		{
			"extras":{
				"arm_cached":0
			},
			"name":"Cube.011",
			"primitives":[
				{
					"attributes":{
						"POSITION":29,
						"NORMAL":30,
						"TEXCOORD_0":31
					},
					"indices":3
				}
			]
		},
		{
			"extras":{
				"arm_cached":0
			},
			"name":"Cube.005",
			"primitives":[
				{
					"attributes":{
						"POSITION":32,
						"NORMAL":33,
						"TEXCOORD_0":34
					},
					"indices":3
				}
			]
		},
		{
			"extras":{
				"arm_cached":0
			},
			"name":"Cube.008",
			"primitives":[
				{
					"attributes":{
						"POSITION":35,
						"NORMAL":36,
						"TEXCOORD_0":37
					},
					"indices":3
				}
			]
		},
		{
			"extras":{
				"arm_cached":0
			},
			"name":"Plane.017",
			"primitives":[
				{
					"attributes":{
						"POSITION":38,
						"NORMAL":39,
						"TEXCOORD_0":40
					},
					"indices":41
				}
			]
		}
	],
	"accessors":[
		{
			"bufferView":0,
			"componentType":5126,
			"count":24,
			"max":[
				1,
				1,
				1
			],
			"min":[
				-1,
				-1,
				-1
			],
			"type":"VEC3"
		},
		{
			"bufferView":1,
			"componentType":5126,
			"count":24,
			"type":"VEC3"
		},
		{
			"bufferView":2,
			"componentType":5126,
			"count":24,
			"type":"VEC2"
		},
		{
			"bufferView":3,
			"componentType":5123,
			"count":36,
			"type":"SCALAR"
		},
		{
			"bufferView":4,
			"componentType":5126,
			"count":640,
			"max":[
				0.5555555820465088,
				0.11999998986721039,
				0.7777777910232544
			],
			"min":[
				-1,
				0,
				-0.5555555820465088
			],
			"type":"VEC3"
		},
		{
			"bufferView":5,
			"componentType":5126,
			"count":640,
			"type":"VEC3"
		},
		{
			"bufferView":6,
			"componentType":5126,
			"count":640,
			"type":"VEC2"
		},
		{
			"bufferView":7,
			"componentType":5123,
			"count":1164,
			"type":"SCALAR"
		},
		{
			"bufferView":8,
			"componentType":5126,
			"count":24,
			"max":[
				1,
				1,
				1
			],
			"min":[
				-1,
				-1,
				-1
			],
			"type":"VEC3"
		},
		{
			"bufferView":9,
			"componentType":5126,
			"count":24,
			"type":"VEC3"
		},
		{
			"bufferView":10,
			"componentType":5126,
			"count":24,
			"type":"VEC2"
		},
		{
			"bufferView":11,
			"componentType":5126,
			"count":24,
			"max":[
				1,
				1,
				1
			],
			"min":[
				-1,
				-1,
				-1
			],
			"type":"VEC3"
		},
		{
			"bufferView":12,
			"componentType":5126,
			"count":24,
			"type":"VEC3"
		},
		{
			"bufferView":13,
			"componentType":5126,
			"count":24,
			"type":"VEC2"
		},
		{
			"bufferView":14,
			"componentType":5126,
			"count":24,
			"max":[
				1,
				1,
				1
			],
			"min":[
				-1,
				-1,
				-1
			],
			"type":"VEC3"
		},
		{
			"bufferView":15,
			"componentType":5126,
			"count":24,
			"type":"VEC3"
		},
		{
			"bufferView":16,
			"componentType":5126,
			"count":24,
			"type":"VEC2"
		},
		{
			"bufferView":17,
			"componentType":5126,
			"count":24,
			"max":[
				1,
				1,
				1
			],
			"min":[
				-1,
				-1,
				-1
			],
			"type":"VEC3"
		},
		{
			"bufferView":18,
			"componentType":5126,
			"count":24,
			"type":"VEC3"
		},
		{
			"bufferView":19,
			"componentType":5126,
			"count":24,
			"type":"VEC2"
		},
		{
			"bufferView":20,
			"componentType":5126,
			"count":24,
			"max":[
				1,
				1,
				1
			],
			"min":[
				-1,
				-1,
				-1
			],
			"type":"VEC3"
		},
		{
			"bufferView":21,
			"componentType":5126,
			"count":24,
			"type":"VEC3"
		},
		{
			"bufferView":22,
			"componentType":5126,
			"count":24,
			"type":"VEC2"
		},
		{
			"bufferView":23,
			"componentType":5126,
			"count":24,
			"max":[
				1,
				1,
				1
			],
			"min":[
				-1,
				-1,
				-1
			],
			"type":"VEC3"
		},
		{
			"bufferView":24,
			"componentType":5126,
			"count":24,
			"type":"VEC3"
		},
		{
			"bufferView":25,
			"componentType":5126,
			"count":24,
			"type":"VEC2"
		},
		{
			"bufferView":26,
			"componentType":5126,
			"count":24,
			"max":[
				1,
				1,
				1
			],
			"min":[
				-1,
				-1,
				-1
			],
			"type":"VEC3"
		},
		{
			"bufferView":27,
			"componentType":5126,
			"count":24,
			"type":"VEC3"
		},
		{
			"bufferView":28,
			"componentType":5126,
			"count":24,
			"type":"VEC2"
		},
		{
			"bufferView":29,
			"componentType":5126,
			"count":24,
			"max":[
				1,
				1,
				1
			],
			"min":[
				-1,
				-1,
				-1
			],
			"type":"VEC3"
		},
		{
			"bufferView":30,
			"componentType":5126,
			"count":24,
			"type":"VEC3"
		},
		{
			"bufferView":31,
			"componentType":5126,
			"count":24,
			"type":"VEC2"
		},
		{
			"bufferView":32,
			"componentType":5126,
			"count":24,
			"max":[
				1,
				1,
				1
			],
			"min":[
				-1,
				-1,
				-1
			],
			"type":"VEC3"
		},
		{
			"bufferView":33,
			"componentType":5126,
			"count":24,
			"type":"VEC3"
		},
		{
			"bufferView":34,
			"componentType":5126,
			"count":24,
			"type":"VEC2"
		},
		{
			"bufferView":35,
			"componentType":5126,
			"count":24,
			"max":[
				1,
				1,
				1
			],
			"min":[
				-1,
				-1,
				-1
			],
			"type":"VEC3"
		},
		{
			"bufferView":36,
			"componentType":5126,
			"count":24,
			"type":"VEC3"
		},
		{
			"bufferView":37,
			"componentType":5126,
			"count":24,
			"type":"VEC2"
		},
		{
			"bufferView":38,
			"componentType":5126,
			"count":2212,
			"max":[
				72.36634826660156,
				-3.2048840522766113,
				5.0013427734375
			],
			"min":[
				16.810787200927734,
				-3.2048840522766113,
				-61.66532516479492
			],
			"type":"VEC3"
		},
		{
			"bufferView":39,
			"componentType":5126,
			"count":2212,
			"type":"VEC3"
		},
		{
			"bufferView":40,
			"componentType":5126,
			"count":2212,
			"type":"VEC2"
		},
		{
			"bufferView":41,
			"componentType":5123,
			"count":12342,
			"type":"SCALAR"
		}
	],
	"bufferViews":[
		{
			"buffer":0,
			"byteLength":288,
			"byteOffset":0,
			"target":34962
		},
		{
			"buffer":0,
			"byteLength":288,
			"byteOffset":288,
			"target":34962
		},
		{
			"buffer":0,
			"byteLength":192,
			"byteOffset":576,
			"target":34962
		},
		{
			"buffer":0,
			"byteLength":72,
			"byteOffset":768,
			"target":34963
		},
		{
			"buffer":0,
			"byteLength":7680,
			"byteOffset":840,
			"target":34962
		},
		{
			"buffer":0,
			"byteLength":7680,
			"byteOffset":8520,
			"target":34962
		},
		{
			"buffer":0,
			"byteLength":5120,
			"byteOffset":16200,
			"target":34962
		},
		{
			"buffer":0,
			"byteLength":2328,
			"byteOffset":21320,
			"target":34963
		},
		{
			"buffer":0,
			"byteLength":288,
			"byteOffset":23648,
			"target":34962
		},
		{
			"buffer":0,
			"byteLength":288,
			"byteOffset":23936,
			"target":34962
		},
		{
			"buffer":0,
			"byteLength":192,
			"byteOffset":24224,
			"target":34962
		},
		{
			"buffer":0,
			"byteLength":288,
			"byteOffset":24416,
			"target":34962
		},
		{
			"buffer":0,
			"byteLength":288,
			"byteOffset":24704,
			"target":34962
		},
		{
			"buffer":0,
			"byteLength":192,
			"byteOffset":24992,
			"target":34962
		},
		{
			"buffer":0,
			"byteLength":288,
			"byteOffset":25184,
			"target":34962
		},
		{
			"buffer":0,
			"byteLength":288,
			"byteOffset":25472,
			"target":34962
		},
		{
			"buffer":0,
			"byteLength":192,
			"byteOffset":25760,
			"target":34962
		},
		{
			"buffer":0,
			"byteLength":288,
			"byteOffset":25952,
			"target":34962
		},
		{
			"buffer":0,
			"byteLength":288,
			"byteOffset":26240,
			"target":34962
		},
		{
			"buffer":0,
			"byteLength":192,
			"byteOffset":26528,
			"target":34962
		},
		{
			"buffer":0,
			"byteLength":288,
			"byteOffset":26720,
			"target":34962
		},
		{
			"buffer":0,
			"byteLength":288,
			"byteOffset":27008,
			"target":34962
		},
		{
			"buffer":0,
			"byteLength":192,
			"byteOffset":27296,
			"target":34962
		},
		{
			"buffer":0,
			"byteLength":288,
			"byteOffset":27488,
			"target":34962
		},
		{
			"buffer":0,
			"byteLength":288,
			"byteOffset":27776,
			"target":34962
		},
		{
			"buffer":0,
			"byteLength":192,
			"byteOffset":28064,
			"target":34962
		},
		{
			"buffer":0,
			"byteLength":288,
			"byteOffset":28256,
			"target":34962
		},
		{
			"buffer":0,
			"byteLength":288,
			"byteOffset":28544,
			"target":34962
		},
		{
			"buffer":0,
			"byteLength":192,
			"byteOffset":28832,
			"target":34962
		},
		{
			"buffer":0,
			"byteLength":288,
			"byteOffset":29024,
			"target":34962
		},
		{
			"buffer":0,
			"byteLength":288,
			"byteOffset":29312,
			"target":34962
		},
		{
			"buffer":0,
			"byteLength":192,
			"byteOffset":29600,
			"target":34962
		},
		{
			"buffer":0,
			"byteLength":288,
			"byteOffset":29792,
			"target":34962
		},
		{
			"buffer":0,
			"byteLength":288,
			"byteOffset":30080,
			"target":34962
		},
		{
			"buffer":0,
			"byteLength":192,
			"byteOffset":30368,
			"target":34962
		},
		{
			"buffer":0,
			"byteLength":288,
			"byteOffset":30560,
			"target":34962
		},
		{
			"buffer":0,
			"byteLength":288,
			"byteOffset":30848,
			"target":34962
		},
		{
			"buffer":0,
			"byteLength":192,
			"byteOffset":31136,
			"target":34962
		},
		{
			"buffer":0,
			"byteLength":26544,
			"byteOffset":31328,
			"target":34962
		},
		{
			"buffer":0,
			"byteLength":26544,
			"byteOffset":57872,
			"target":34962
		},
		{
			"buffer":0,
			"byteLength":17696,
			"byteOffset":84416,
			"target":34962
		},
		{
			"buffer":0,
			"byteLength":24684,
			"byteOffset":102112,
			"target":34963
		}
	],
	"buffers":[
		{
			"byteLength":126796,
			"uri":"data:application/octet-stream;base64,"
		}
	]
}
