{
	"asset":{
		"generator":"Khronos glTF Blender I/O v3.6.27",
		"version":"2.0"
	},
	"extensionsUsed":[
		"EXT_collections"
	],
	"scene":0,
	"scenes":[
		{
			"extensions":{
				"EXT_collections":{
					"tree":[
						{
							"collection":"geometry"
						},
						{
							"collection":"interactions"
						},
						{
							"collection":"enemies"
						},
						{
							"collection":"items"
						},
						{
							"collection":"doors"
						},
						{
							"collection":"weapons"
						},
						{
							"collection":"leave"
						},
						{
							"collection":"arrive"
						},
						{
							"collection":"navmesh"
						}
					]
				}
			},
			"extras":{
				"EXTCollectionProperties":{}
			},
			"name":"simple-1",
			"nodes":[
				0,
				1,
				2,
				3,
				4,
				5,
				6,
				7,
				8,
				9,
				10,
				11,
				12,
				13,
				14
			]
		}
	],
	"nodes":[
		{
			"extensions":{
				"EXT_collections":{
					"collections":[
						"Scene Collection"
					]
				}
			},
			"extras":{
				"TLM_ObjectProperties":{},
				"label":"default"
			},
			"mesh":0,
			"name":"UNIT_CUBE",
			"translation":[
				0,
				-1.9999996423721313,
				0
			]
		},
		{
			"extensions":{
				"EXT_collections":{
					"collections":[
						"geometry"
					]
				}
			},
			"extras":{
				"TLM_ObjectProperties":{}
			},
			"mesh":1,
			"name":"Plane.005",
			"scale":[
				50,
				50,
				50
			],
			"translation":[
				27.354787826538086,
				-3.499999523162842,
				13.689105987548828
			]
		},
		{
			"extensions":{
				"EXT_collections":{
					"collections":[
						"interactions"
					]
				}
			},
			"extras":{
				"TLM_ObjectProperties":{},
				"label":"gatekeeper-dismayed"
			},
			"mesh":2,
			"name":"UNIT_CUBE.002",
			"rotation":[
				0,
				-0.46488630771636963,
				0,
				0.8853703737258911
			],
			"translation":[
				36.20001220703125,
				-1.9999996423721313,
				8.286748886108398
			]
		},
		{
			"extensions":{
				"EXT_collections":{
					"collections":[
						"interactions"
					]
				}
			},
			"extras":{
				"TLM_ObjectProperties":{},
				"label":"gatekeeper-relieved"
			},
			"mesh":3,
			"name":"UNIT_CUBE.003",
			"rotation":[
				0,
				-0.02509080059826374,
				0,
				0.9996851682662964
			],
			"translation":[
				36.20001220703125,
				-1.9999996423721313,
				8.286748886108398
			]
		},
		{
			"extensions":{
				"EXT_collections":{
					"collections":[
						"interactions"
					]
				}
			},
			"extras":{
				"TLM_ObjectProperties":{},
				"label":"yoshua-haystack"
			},
			"mesh":4,
			"name":"UNIT_CUBE.004",
			"rotation":[
				0,
				-0.02509080059826374,
				0,
				0.9996851682662964
			],
			"translation":[
				5.582647323608398,
				-1.9999996423721313,
				-8.025062561035156
			]
		},
		{
			"extensions":{
				"EXT_collections":{
					"collections":[
						"interactions"
					]
				}
			},
			"extras":{
				"TLM_ObjectProperties":{},
				"label":"smithmaster-morning"
			},
			"mesh":5,
			"name":"UNIT_CUBE.005",
			"rotation":[
				0,
				0.569493293762207,
				0,
				0.8219959735870361
			],
			"translation":[
				18.14361572265625,
				-1.9999996423721313,
				15.8756685256958
			]
		},
		{
			"extensions":{
				"EXT_collections":{
					"collections":[
						"interactions"
					]
				}
			},
			"extras":{
				"TLM_ObjectProperties":{},
				"label":"goat-eating"
			},
			"mesh":6,
			"name":"UNIT_CUBE.006",
			"translation":[
				-32.80946350097656,
				1.0000004768371582,
				-4.72132682800293
			]
		},
		{
			"extensions":{
				"EXT_collections":{
					"collections":[
						"doors"
					]
				}
			},
			"extras":{
				"TLM_ObjectProperties":{},
				"label":"rear-entrance"
			},
			"mesh":7,
			"name":"UNIT_CUBE.014",
			"translation":[
				48.100128173828125,
				-1.0331380367279053,
				-28.688884735107422
			]
		},
		{
			"extensions":{
				"EXT_collections":{
					"collections":[
						"leave"
					]
				}
			},
			"extras":{
				"TLM_ObjectProperties":{},
				"label":"cliffs-end"
			},
			"mesh":8,
			"name":"UNIT_CUBE.007",
			"translation":[
				47.88939666748047,
				-1.9999996423721313,
				-56.91470718383789
			]
		},
		{
			"extensions":{
				"EXT_collections":{
					"collections":[
						"leave"
					]
				}
			},
			"extras":{
				"TLM_ObjectProperties":{},
				"label":"cliffs-start"
			},
			"mesh":9,
			"name":"UNIT_CUBE.008",
			"translation":[
				99.54986572265625,
				1,
				45.804080963134766
			]
		},
		{
			"extensions":{
				"EXT_collections":{
					"collections":[
						"leave"
					]
				}
			},
			"extras":{
				"TLM_ObjectProperties":{},
				"label":"swamp-start"
			},
			"mesh":10,
			"name":"UNIT_CUBE.012",
			"translation":[
				-53.751121520996094,
				3.000000476837158,
				-5.527168273925781
			]
		},
		{
			"extensions":{
				"EXT_collections":{
					"collections":[
						"arrive"
					]
				}
			},
			"extras":{
				"TLM_ObjectProperties":{},
				"label":"courtyard-gate"
			},
			"mesh":11,
			"name":"UNIT_CUBE.009",
			"translation":[
				48.100128173828125,
				2.500000238418579,
				-40.2665901184082
			]
		},
		{
			"extensions":{
				"EXT_collections":{
					"collections":[
						"arrive"
					]
				}
			},
			"extras":{
				"TLM_ObjectProperties":{},
				"label":"courtyard-path"
			},
			"mesh":12,
			"name":"UNIT_CUBE.010",
			"rotation":[
				0,
				-0.7071068286895752,
				0,
				0.7071068286895752
			],
			"translation":[
				80.35917663574219,
				2.500000238418579,
				45.66718673706055
			]
		},
		{
			"extensions":{
				"EXT_collections":{
					"collections":[
						"arrive"
					]
				}
			},
			"extras":{
				"TLM_ObjectProperties":{},
				"label":"courtyard-shack"
			},
			"mesh":13,
			"name":"UNIT_CUBE.011",
			"translation":[
				-38.33329772949219,
				2.500000238418579,
				-4.848381042480469
			]
		},
		{
			"extensions":{
				"EXT_collections":{
					"collections":[
						"arrive"
					]
				}
			},
			"extras":{
				"TLM_ObjectProperties":{},
				"label":"player-restart"
			},
			"mesh":14,
			"name":"UNIT_CUBE.013",
			"translation":[
				31.079626083374023,
				1.000000238418579,
				15.762279510498047
			]
		}
	],
	"meshes":[
		{
			"extras":{
				"arm_cached":0
			},
			"name":"Cube",
			"primitives":[
				{
					"attributes":{
						"POSITION":0,
						"NORMAL":1,
						"TEXCOORD_0":2
					},
					"indices":3
				}
			]
		},
		{
			"extras":{
				"arm_cached":0
			},
			"name":"Plane.007",
			"primitives":[
				{
					"attributes":{
						"POSITION":4,
						"NORMAL":5,
						"TEXCOORD_0":6
					},
					"indices":7
				}
			]
		},
		{
			"extras":{
				"arm_cached":0
			},
			"name":"Cube.002",
			"primitives":[
				{
					"attributes":{
						"POSITION":8,
						"NORMAL":9,
						"TEXCOORD_0":10
					},
					"indices":3
				}
			]
		},
		{
			"extras":{
				"arm_cached":0
			},
			"name":"Cube.003",
			"primitives":[
				{
					"attributes":{
						"POSITION":11,
						"NORMAL":12,
						"TEXCOORD_0":13
					},
					"indices":3
				}
			]
		},
		{
			"extras":{
				"arm_cached":0
			},
			"name":"Cube.004",
			"primitives":[
				{
					"attributes":{
						"POSITION":14,
						"NORMAL":15,
						"TEXCOORD_0":16
					},
					"indices":3
				}
			]
		},
		{
			"extras":{
				"arm_cached":0
			},
			"name":"Cube.006",
			"primitives":[
				{
					"attributes":{
						"POSITION":17,
						"NORMAL":18,
						"TEXCOORD_0":19
					},
					"indices":3
				}
			]
		},
		{
			"extras":{
				"arm_cached":0
			},
			"name":"Cube.007",
			"primitives":[
				{
					"attributes":{
						"POSITION":20,
						"NORMAL":21,
						"TEXCOORD_0":22
					},
					"indices":3
				}
			]
		},
		{
			"extras":{
				"arm_cached":0
			},
			"name":"Cube.016",
			"primitives":[
				{
					"attributes":{
						"POSITION":23,
						"NORMAL":24,
						"TEXCOORD_0":25
					},
					"indices":3
				}
			]
		},
		{
			"extras":{
				"arm_cached":0
			},
			"name":"Cube.005",
			"primitives":[
				{
					"attributes":{
						"POSITION":26,
						"NORMAL":27,
						"TEXCOORD_0":28
					},
					"indices":3
				}
			]
		},
		{
			"extras":{
				"arm_cached":0
			},
			"name":"Cube.008",
			"primitives":[
				{
					"attributes":{
						"POSITION":29,
						"NORMAL":30,
						"TEXCOORD_0":31
					},
					"indices":3
				}
			]
		},
		{
			"extras":{
				"arm_cached":0
			},
			"name":"Cube.014",
			"primitives":[
				{
					"attributes":{
						"POSITION":32,
						"NORMAL":33,
						"TEXCOORD_0":34
					},
					"indices":3
				}
			]
		},
		{
			"extras":{
				"arm_cached":0
			},
			"name":"Cube.009",
			"primitives":[
				{
					"attributes":{
						"POSITION":35,
						"NORMAL":36,
						"TEXCOORD_0":37
					},
					"indices":3
				}
			]
		},
		{
			"extras":{
				"arm_cached":0
			},
			"name":"Cube.011",
			"primitives":[
				{
					"attributes":{
						"POSITION":38,
						"NORMAL":39,
						"TEXCOORD_0":40
					},
					"indices":3
				}
			]
		},
		{
			"extras":{
				"arm_cached":0
			},
			"name":"Cube.013",
			"primitives":[
				{
					"attributes":{
						"POSITION":41,
						"NORMAL":42,
						"TEXCOORD_0":43
					},
					"indices":3
				}
			]
		},
		{
			"extras":{
				"arm_cached":0
			},
			"name":"Cube.015",
			"primitives":[
				{
					"attributes":{
						"POSITION":44,
						"NORMAL":45,
						"TEXCOORD_0":46
					},
					"indices":3
				}
			]
		}
	],
	"accessors":[
		{
			"bufferView":0,
			"componentType":5126,
			"count":24,
			"max":[
				1,
				1,
				1
			],
			"min":[
				-1,
				-1,
				-1
			],
			"type":"VEC3"
		},
		{
			"bufferView":1,
			"componentType":5126,
			"count":24,
			"type":"VEC3"
		},
		{
			"bufferView":2,
			"componentType":5126,
			"count":24,
			"type":"VEC2"
		},
		{
			"bufferView":3,
			"componentType":5123,
			"count":36,
			"type":"SCALAR"
		},
		{
			"bufferView":4,
			"componentType":5126,
			"count":456,
			"max":[
				1.4859230518341064,
				0.12999999523162842,
				0.807692289352417
			],
			"min":[
				-1.700592041015625,
				-0.030000001192092896,
				-1.4710114002227783
			],
			"type":"VEC3"
		},
		{
			"bufferView":5,
			"componentType":5126,
			"count":456,
			"type":"VEC3"
		},
		{
			"bufferView":6,
			"componentType":5126,
			"count":456,
			"type":"VEC2"
		},
		{
			"bufferView":7,
			"componentType":5123,
			"count":684,
			"type":"SCALAR"
		},
		{
			"bufferView":8,
			"componentType":5126,
			"count":24,
			"max":[
				1,
				1,
				1
			],
			"min":[
				-1,
				-1,
				-1
			],
			"type":"VEC3"
		},
		{
			"bufferView":9,
			"componentType":5126,
			"count":24,
			"type":"VEC3"
		},
		{
			"bufferView":10,
			"componentType":5126,
			"count":24,
			"type":"VEC2"
		},
		{
			"bufferView":11,
			"componentType":5126,
			"count":24,
			"max":[
				1,
				1,
				1
			],
			"min":[
				-1,
				-1,
				-1
			],
			"type":"VEC3"
		},
		{
			"bufferView":12,
			"componentType":5126,
			"count":24,
			"type":"VEC3"
		},
		{
			"bufferView":13,
			"componentType":5126,
			"count":24,
			"type":"VEC2"
		},
		{
			"bufferView":14,
			"componentType":5126,
			"count":24,
			"max":[
				1,
				1,
				1
			],
			"min":[
				-1,
				-1,
				-1
			],
			"type":"VEC3"
		},
		{
			"bufferView":15,
			"componentType":5126,
			"count":24,
			"type":"VEC3"
		},
		{
			"bufferView":16,
			"componentType":5126,
			"count":24,
			"type":"VEC2"
		},
		{
			"bufferView":17,
			"componentType":5126,
			"count":24,
			"max":[
				1,
				1,
				1
			],
			"min":[
				-1,
				-1,
				-1
			],
			"type":"VEC3"
		},
		{
			"bufferView":18,
			"componentType":5126,
			"count":24,
			"type":"VEC3"
		},
		{
			"bufferView":19,
			"componentType":5126,
			"count":24,
			"type":"VEC2"
		},
		{
			"bufferView":20,
			"componentType":5126,
			"count":24,
			"max":[
				1,
				1,
				1
			],
			"min":[
				-1,
				-1,
				-1
			],
			"type":"VEC3"
		},
		{
			"bufferView":21,
			"componentType":5126,
			"count":24,
			"type":"VEC3"
		},
		{
			"bufferView":22,
			"componentType":5126,
			"count":24,
			"type":"VEC2"
		},
		{
			"bufferView":23,
			"componentType":5126,
			"count":24,
			"max":[
				1,
				1,
				1
			],
			"min":[
				-1,
				-1,
				-1
			],
			"type":"VEC3"
		},
		{
			"bufferView":24,
			"componentType":5126,
			"count":24,
			"type":"VEC3"
		},
		{
			"bufferView":25,
			"componentType":5126,
			"count":24,
			"type":"VEC2"
		},
		{
			"bufferView":26,
			"componentType":5126,
			"count":24,
			"max":[
				1,
				1,
				1
			],
			"min":[
				-1,
				-1,
				-1
			],
			"type":"VEC3"
		},
		{
			"bufferView":27,
			"componentType":5126,
			"count":24,
			"type":"VEC3"
		},
		{
			"bufferView":28,
			"componentType":5126,
			"count":24,
			"type":"VEC2"
		},
		{
			"bufferView":29,
			"componentType":5126,
			"count":24,
			"max":[
				1,
				1,
				1
			],
			"min":[
				-1,
				-1,
				-1
			],
			"type":"VEC3"
		},
		{
			"bufferView":30,
			"componentType":5126,
			"count":24,
			"type":"VEC3"
		},
		{
			"bufferView":31,
			"componentType":5126,
			"count":24,
			"type":"VEC2"
		},
		{
			"bufferView":32,
			"componentType":5126,
			"count":24,
			"max":[
				1,
				1,
				1
			],
			"min":[
				-1,
				-1,
				-1
			],
			"type":"VEC3"
		},
		{
			"bufferView":33,
			"componentType":5126,
			"count":24,
			"type":"VEC3"
		},
		{
			"bufferView":34,
			"componentType":5126,
			"count":24,
			"type":"VEC2"
		},
		{
			"bufferView":35,
			"componentType":5126,
			"count":24,
			"max":[
				1,
				1,
				1
			],
			"min":[
				-1,
				-1,
				-1
			],
			"type":"VEC3"
		},
		{
			"bufferView":36,
			"componentType":5126,
			"count":24,
			"type":"VEC3"
		},
		{
			"bufferView":37,
			"componentType":5126,
			"count":24,
			"type":"VEC2"
		},
		{
			"bufferView":38,
			"componentType":5126,
			"count":24,
			"max":[
				1,
				1,
				1
			],
			"min":[
				-1,
				-1,
				-1
			],
			"type":"VEC3"
		},
		{
			"bufferView":39,
			"componentType":5126,
			"count":24,
			"type":"VEC3"
		},
		{
			"bufferView":40,
			"componentType":5126,
			"count":24,
			"type":"VEC2"
		},
		{
			"bufferView":41,
			"componentType":5126,
			"count":24,
			"max":[
				1,
				1,
				1
			],
			"min":[
				-1,
				-1,
				-1
			],
			"type":"VEC3"
		},
		{
			"bufferView":42,
			"componentType":5126,
			"count":24,
			"type":"VEC3"
		},
		{
			"bufferView":43,
			"componentType":5126,
			"count":24,
			"type":"VEC2"
		},
		{
			"bufferView":44,
			"componentType":5126,
			"count":24,
			"max":[
				1,
				1,
				1
			],
			"min":[
				-1,
				-1,
				-1
			],
			"type":"VEC3"
		},
		{
			"bufferView":45,
			"componentType":5126,
			"count":24,
			"type":"VEC3"
		},
		{
			"bufferView":46,
			"componentType":5126,
			"count":24,
			"type":"VEC2"
		}
	],
	"bufferViews":[
		{
			"buffer":0,
			"byteLength":288,
			"byteOffset":0,
			"target":34962
		},
		{
			"buffer":0,
			"byteLength":288,
			"byteOffset":288,
			"target":34962
		},
		{
			"buffer":0,
			"byteLength":192,
			"byteOffset":576,
			"target":34962
		},
		{
			"buffer":0,
			"byteLength":72,
			"byteOffset":768,
			"target":34963
		},
		{
			"buffer":0,
			"byteLength":5472,
			"byteOffset":840,
			"target":34962
		},
		{
			"buffer":0,
			"byteLength":5472,
			"byteOffset":6312,
			"target":34962
		},
		{
			"buffer":0,
			"byteLength":3648,
			"byteOffset":11784,
			"target":34962
		},
		{
			"buffer":0,
			"byteLength":1368,
			"byteOffset":15432,
			"target":34963
		},
		{
			"buffer":0,
			"byteLength":288,
			"byteOffset":16800,
			"target":34962
		},
		{
			"buffer":0,
			"byteLength":288,
			"byteOffset":17088,
			"target":34962
		},
		{
			"buffer":0,
			"byteLength":192,
			"byteOffset":17376,
			"target":34962
		},
		{
			"buffer":0,
			"byteLength":288,
			"byteOffset":17568,
			"target":34962
		},
		{
			"buffer":0,
			"byteLength":288,
			"byteOffset":17856,
			"target":34962
		},
		{
			"buffer":0,
			"byteLength":192,
			"byteOffset":18144,
			"target":34962
		},
		{
			"buffer":0,
			"byteLength":288,
			"byteOffset":18336,
			"target":34962
		},
		{
			"buffer":0,
			"byteLength":288,
			"byteOffset":18624,
			"target":34962
		},
		{
			"buffer":0,
			"byteLength":192,
			"byteOffset":18912,
			"target":34962
		},
		{
			"buffer":0,
			"byteLength":288,
			"byteOffset":19104,
			"target":34962
		},
		{
			"buffer":0,
			"byteLength":288,
			"byteOffset":19392,
			"target":34962
		},
		{
			"buffer":0,
			"byteLength":192,
			"byteOffset":19680,
			"target":34962
		},
		{
			"buffer":0,
			"byteLength":288,
			"byteOffset":19872,
			"target":34962
		},
		{
			"buffer":0,
			"byteLength":288,
			"byteOffset":20160,
			"target":34962
		},
		{
			"buffer":0,
			"byteLength":192,
			"byteOffset":20448,
			"target":34962
		},
		{
			"buffer":0,
			"byteLength":288,
			"byteOffset":20640,
			"target":34962
		},
		{
			"buffer":0,
			"byteLength":288,
			"byteOffset":20928,
			"target":34962
		},
		{
			"buffer":0,
			"byteLength":192,
			"byteOffset":21216,
			"target":34962
		},
		{
			"buffer":0,
			"byteLength":288,
			"byteOffset":21408,
			"target":34962
		},
		{
			"buffer":0,
			"byteLength":288,
			"byteOffset":21696,
			"target":34962
		},
		{
			"buffer":0,
			"byteLength":192,
			"byteOffset":21984,
			"target":34962
		},
		{
			"buffer":0,
			"byteLength":288,
			"byteOffset":22176,
			"target":34962
		},
		{
			"buffer":0,
			"byteLength":288,
			"byteOffset":22464,
			"target":34962
		},
		{
			"buffer":0,
			"byteLength":192,
			"byteOffset":22752,
			"target":34962
		},
		{
			"buffer":0,
			"byteLength":288,
			"byteOffset":22944,
			"target":34962
		},
		{
			"buffer":0,
			"byteLength":288,
			"byteOffset":23232,
			"target":34962
		},
		{
			"buffer":0,
			"byteLength":192,
			"byteOffset":23520,
			"target":34962
		},
		{
			"buffer":0,
			"byteLength":288,
			"byteOffset":23712,
			"target":34962
		},
		{
			"buffer":0,
			"byteLength":288,
			"byteOffset":24000,
			"target":34962
		},
		{
			"buffer":0,
			"byteLength":192,
			"byteOffset":24288,
			"target":34962
		},
		{
			"buffer":0,
			"byteLength":288,
			"byteOffset":24480,
			"target":34962
		},
		{
			"buffer":0,
			"byteLength":288,
			"byteOffset":24768,
			"target":34962
		},
		{
			"buffer":0,
			"byteLength":192,
			"byteOffset":25056,
			"target":34962
		},
		{
			"buffer":0,
			"byteLength":288,
			"byteOffset":25248,
			"target":34962
		},
		{
			"buffer":0,
			"byteLength":288,
			"byteOffset":25536,
			"target":34962
		},
		{
			"buffer":0,
			"byteLength":192,
			"byteOffset":25824,
			"target":34962
		},
		{
			"buffer":0,
			"byteLength":288,
			"byteOffset":26016,
			"target":34962
		},
		{
			"buffer":0,
			"byteLength":288,
			"byteOffset":26304,
			"target":34962
		},
		{
			"buffer":0,
			"byteLength":192,
			"byteOffset":26592,
			"target":34962
		}
	],
	"buffers":[
		{
			"byteLength":26784,
			"uri":"data:application/octet-stream;base64,"
		}
	]
}
