{
	"asset":{
		"generator":"Khronos glTF Blender I/O v3.6.27",
		"version":"2.0"
	},
	"extensionsUsed":[
		"EXT_collections"
	],
	"scene":0,
	"scenes":[
		{
			"extensions":{
				"EXT_collections":{}
			},
			"extras":{
				"recast_navmesh":{},
				"EXTCollectionProperties":{},
				"arm_traitlist":[
					{
						"is_object":0,
						"type_prop":3,
						"class_name_prop":"NavMesh",
						"name":"NavMesh",
						"arm_traitpropslist":[
							{
								"name":"cellSize",
								"type":2,
								"value_float":0.30000001192092896
							},
							{
								"name":"cellHeight",
								"type":2,
								"value_float":0.0
							},
							{
								"name":"agentHeight",
								"type":2,
								"value_float":2.0
							},
							{
								"name":"agentRadius",
								"type":2,
								"value_float":0.4000000059604645
							},
							{
								"name":"agentMaxClimb",
								"type":2,
								"value_float":0.8999999761581421
							},
							{
								"name":"agentMaxSlope",
								"type":2,
								"value_float":45.0
							}
						]
					}
				],
				"arm_traitlist_index":0
			},
			"name":"Scene.001",
			"nodes":[
				0
			]
		}
	],
	"nodes":[
		{
			"extensions":{
				"EXT_collections":{
					"collections":[
						"Scene Collection"
					]
				}
			},
			"extras":{
				"arm_export":0
			},
			"mesh":0,
			"name":"nav_Plane.010"
		}
	],
	"materials":[
		{
			"doubleSided":true,
			"extras":{
				"arm_cached":0
			},
			"name":"Default OBJ.004",
			"pbrMetallicRoughness":{
				"baseColorFactor":[
					0.800000011920929,
					0.800000011920929,
					0.800000011920929,
					1
				],
				"metallicFactor":0,
				"roughnessFactor":0.5
			}
		}
	],
	"meshes":[
		{
			"extras":{
				"arm_cached":0
			},
			"name":"nav_Plane.010",
			"primitives":[
				{
					"attributes":{
						"POSITION":0,
						"NORMAL":1
					},
					"indices":2,
					"material":0
				}
			]
		}
	],
	"accessors":[
		{
			"bufferView":0,
			"componentType":5126,
			"count":102,
			"max":[
				16,
				-3,
				16
			],
			"min":[
				-16,
				-3,
				-50
			],
			"type":"VEC3"
		},
		{
			"bufferView":1,
			"componentType":5126,
			"count":102,
			"type":"VEC3"
		},
		{
			"bufferView":2,
			"componentType":5123,
			"count":102,
			"type":"SCALAR"
		}
	],
	"bufferViews":[
		{
			"buffer":0,
			"byteLength":1224,
			"byteOffset":0,
			"target":34962
		},
		{
			"buffer":0,
			"byteLength":1224,
			"byteOffset":1224,
			"target":34962
		},
		{
			"buffer":0,
			"byteLength":204,
			"byteOffset":2448,
			"target":34963
		}
	],
	"buffers":[
		{
			"byteLength":2652,
			"uri":"data:application/octet-stream;base64,"
		}
	]
}
