{
	"asset":{
		"generator":"Khronos glTF Blender I/O v3.6.27",
		"version":"2.0"
	},
	"extensionsUsed":[
		"EXT_collections"
	],
	"scene":0,
	"scenes":[
		{
			"extensions":{
				"EXT_collections":{}
			},
			"extras":{
				"recast_navmesh":{},
				"EXTCollectionProperties":{}
			},
			"name":"Scene.001",
			"nodes":[
				0
			]
		}
	],
	"nodes":[
		{
			"extensions":{
				"EXT_collections":{
					"collections":[
						"Scene Collection"
					]
				}
			},
			"extras":{
				"arm_export":0
			},
			"mesh":0,
			"name":"nav_Plane.005",
			"translation":[
				0,
				-3,
				0
			]
		}
	],
	"materials":[
		{
			"doubleSided":true,
			"extras":{
				"arm_cached":0
			},
			"name":"Default OBJ",
			"pbrMetallicRoughness":{
				"baseColorFactor":[
					0.800000011920929,
					0.800000011920929,
					0.800000011920929,
					1
				],
				"metallicFactor":0,
				"roughnessFactor":0.5
			}
		}
	],
	"meshes":[
		{
			"extras":{
				"arm_cached":0
			},
			"name":"nav_Plane.005",
			"primitives":[
				{
					"attributes":{
						"POSITION":0,
						"NORMAL":1
					},
					"indices":2,
					"material":0
				}
			]
		}
	],
	"accessors":[
		{
			"bufferView":0,
			"componentType":5126,
			"count":287,
			"max":[
				57.635799407958984,
				2.200000047683716,
				92.35759735107422
			],
			"min":[
				-27.564199447631836,
				0.20000000298023224,
				-7.242401123046875
			],
			"type":"VEC3"
		},
		{
			"bufferView":1,
			"componentType":5126,
			"count":287,
			"type":"VEC3"
		},
		{
			"bufferView":2,
			"componentType":5123,
			"count":435,
			"type":"SCALAR"
		}
	],
	"bufferViews":[
		{
			"buffer":0,
			"byteLength":3444,
			"byteOffset":0,
			"target":34962
		},
		{
			"buffer":0,
			"byteLength":3444,
			"byteOffset":3444,
			"target":34962
		},
		{
			"buffer":0,
			"byteLength":870,
			"byteOffset":6888,
			"target":34963
		}
	],
	"buffers":[
		{
			"byteLength":7760,
			"uri":"data:application/octet-stream;base64,"
		}
	]
}
