{
	"asset":{
		"generator":"Khronos glTF Blender I/O v3.6.27",
		"version":"2.0"
	},
	"extensionsUsed":[
		"EXT_collections"
	],
	"scene":0,
	"scenes":[
		{
			"extensions":{
				"EXT_collections":{
					"tree":[
						{
							"collection":"geometry"
						}
					]
				}
			},
			"extras":{
				"background_color":[
					0.05087608844041824,
					0.05087608844041824,
					0.05087608844041824
				],
				"frames_per_second":24,
				"EXTCollectionProperties":{}
			},
			"name":"Scene",
			"nodes":[
				0
			]
		}
	],
	"nodes":[
		{
			"extensions":{
				"EXT_collections":{
					"collections":[
						"geometry"
					]
				}
			},
			"extras":{
				"TLM_ObjectProperties":{}
			},
			"mesh":0,
			"name":"Navmesh"
		}
	],
	"meshes":[
		{
			"extras":{
				"arm_cached":0
			},
			"name":"Navmesh",
			"primitives":[
				{
					"attributes":{
						"POSITION":0,
						"NORMAL":1
					},
					"indices":2
				}
			]
		}
	],
	"accessors":[
		{
			"bufferView":0,
			"componentType":5126,
			"count":563,
			"max":[
				45.8756103515625,
				-2.604545831680298,
				51.11417007446289
			],
			"min":[
				-58.524391174316406,
				-7.238114356994629,
				-34.68583297729492
			],
			"type":"VEC3"
		},
		{
			"bufferView":1,
			"componentType":5126,
			"count":563,
			"type":"VEC3"
		},
		{
			"bufferView":2,
			"componentType":5123,
			"count":744,
			"type":"SCALAR"
		}
	],
	"bufferViews":[
		{
			"buffer":0,
			"byteLength":6756,
			"byteOffset":0,
			"target":34962
		},
		{
			"buffer":0,
			"byteLength":6756,
			"byteOffset":6756,
			"target":34962
		},
		{
			"buffer":0,
			"byteLength":1488,
			"byteOffset":13512,
			"target":34963
		}
	],
	"buffers":[
		{
			"byteLength":15000,
			"uri":"data:application/octet-stream;base64,"
		}
	]
}
